<svg width="30" height="30" viewBox="0 0 30 30" fill="none" xmlns="http://www.w3.org/2000/svg">
<path d="M9.02344 5.97266C9.02344 7.15015 9.36571 8.24684 9.95377 9.17205L14.2342 15.0002L11.9784 18.0721C12.2787 18.2572 12.5774 18.4437 12.8866 18.6219C12.9609 18.6649 13.0362 18.7048 13.1106 18.7471L14.9961 16.1794L18.9526 21.5674C19.4129 22.3058 19.6563 23.1553 19.6563 24.0277C19.6563 26.5971 17.5658 28.6879 14.9961 28.6879C12.4264 28.6879 10.3359 26.5974 10.3359 24.0277C10.3359 23.1553 10.579 22.3054 11.0396 21.5674L11.4326 21.0318C11.0501 20.8106 10.6765 20.5811 10.3056 20.3497L9.95411 20.8283C9.36571 21.7532 9.02378 22.8502 9.02378 24.0277C9.02378 27.3259 11.6978 30 14.9961 30C18.2944 30 20.9684 27.3263 20.9684 24.0277C20.9684 22.8502 20.6261 21.7532 20.0381 20.8283L15.758 15.0002L18.0227 11.9163C17.7131 11.7275 17.4025 11.539 17.079 11.3525C17.0149 11.3157 16.9512 11.2823 16.8871 11.2458L14.9961 13.8206L11.0396 8.43297C10.5793 7.69457 10.3359 6.8447 10.3359 5.97266C10.3359 3.40292 12.4264 1.31249 14.9961 1.31249C17.5658 1.31249 19.6563 3.40292 19.6563 5.97266C19.6563 6.84504 19.4132 7.69457 18.9526 8.43297L18.565 8.96069C18.9513 9.18433 19.3266 9.41069 19.6955 9.63807L20.0377 9.17171C20.6261 8.2465 20.9681 7.14981 20.9681 5.97232C20.9681 2.67406 18.294 0 14.9958 0C11.6975 0.000340898 9.02344 2.67406 9.02344 5.97266Z" fill="#007ADA"/>
</svg>
