<svg width="38" height="38" viewBox="0 0 38 38" fill="none" xmlns="http://www.w3.org/2000/svg">
<g clip-path="url(#clip0_4371_4551)">
<path d="M34.5703 0.25H2.92969C1.31104 0.25 0 1.56104 0 3.17969V34.8203C0 36.439 1.31104 37.75 2.92969 37.75H34.5703C36.189 37.75 37.5 36.439 37.5 34.8203V3.17969C37.5 1.56104 36.189 0.25 34.5703 0.25ZM19.4165 10.6577C20.105 9.82275 21.2769 9.18555 22.2803 9.1123C22.4487 10.2549 21.98 11.3682 21.3647 12.1592C20.7056 13.0088 19.5703 13.6606 18.4717 13.624C18.2812 12.5327 18.7939 11.4121 19.4165 10.6577ZM25.5908 25.145C24.7998 26.3462 23.6865 27.8477 22.3022 27.8623C21.0718 27.877 20.7568 27.064 19.0942 27.0713C17.4316 27.0786 17.0801 27.877 15.8496 27.8623C14.4653 27.8477 13.4106 26.4927 12.6196 25.2915C10.4077 21.9224 10.1733 17.9746 11.543 15.8726C12.5098 14.3784 14.0405 13.5068 15.4834 13.5068C16.9482 13.5068 17.8638 14.3125 19.0796 14.3125C20.2515 14.3125 20.9692 13.5068 22.6611 13.5068C23.9429 13.5068 25.2979 14.2026 26.2646 15.4111C23.1006 17.147 23.6133 21.666 26.814 22.8745C26.3672 23.8413 26.1548 24.2808 25.5908 25.145Z" fill="black"/>
</g>
<defs>
<clipPath id="clip0_4371_4551">
<rect width="37.5" height="37.5" fill="white" transform="translate(0 0.25)"/>
</clipPath>
</defs>
</svg>
