<svg width="17" height="16" viewBox="0 0 17 16" fill="none" xmlns="http://www.w3.org/2000/svg">
<path d="M9.797 12.6662C9.69118 12.6665 9.58662 12.6446 9.49101 12.6019C9.3954 12.5592 9.31116 12.4969 9.2445 12.4195L5.82325 8.41953C5.71906 8.30024 5.66211 8.15062 5.66211 7.9962C5.66211 7.84178 5.71906 7.69215 5.82325 7.57287L9.36491 3.57287C9.48515 3.43672 9.65792 3.35111 9.84522 3.33485C10.0325 3.3186 10.219 3.37304 10.3637 3.4862C10.5083 3.59936 10.5993 3.76197 10.6166 3.93825C10.6338 4.11453 10.576 4.29005 10.4557 4.4262L7.2895 7.99953L10.3495 11.5729C10.4361 11.6707 10.4911 11.7899 10.508 11.9162C10.525 12.0426 10.5031 12.1709 10.4449 12.2859C10.3868 12.4009 10.2949 12.4979 10.1801 12.5653C10.0652 12.6327 9.93231 12.6677 9.797 12.6662Z" fill="white"/>
</svg>
