<svg width="17" height="16" viewBox="0 0 17 16" fill="none" xmlns="http://www.w3.org/2000/svg">
<path d="M7.20398 3.3338C7.3098 3.33346 7.41436 3.35544 7.50997 3.39813C7.60558 3.44081 7.68981 3.50312 7.75648 3.58047L11.1777 7.58047C11.2819 7.69976 11.3389 7.84938 11.3389 8.0038C11.3389 8.15822 11.2819 8.30785 11.1777 8.42713L7.63606 12.4271C7.51583 12.5633 7.34306 12.6489 7.15576 12.6651C6.96846 12.6814 6.78197 12.627 6.63731 12.5138C6.49266 12.4006 6.40169 12.238 6.38442 12.0617C6.36716 11.8855 6.425 11.7099 6.54523 11.5738L9.71148 8.00047L6.65148 4.42713C6.56486 4.32928 6.50984 4.21012 6.49293 4.08375C6.47601 3.95738 6.49791 3.8291 6.55604 3.71408C6.61416 3.59906 6.70607 3.50212 6.8209 3.43473C6.93573 3.36734 7.06867 3.33231 7.20398 3.3338Z" fill="white"/>
</svg>
