<svg width="6" height="10" viewBox="0 0 6 10" fill="none" xmlns="http://www.w3.org/2000/svg">
<path fill-rule="evenodd" clip-rule="evenodd" d="M0.524872 5.69388C0.402647 5.57162 0.333984 5.40581 0.333984 5.23294C0.333984 5.06006 0.402647 4.89426 0.524872 4.77199L4.21306 1.0838C4.2732 1.02153 4.34514 0.971866 4.42469 0.937697C4.50423 0.903528 4.58978 0.885542 4.67635 0.88479C4.76292 0.884038 4.84877 0.900534 4.92889 0.933316C5.00902 0.966097 5.08181 1.01451 5.14303 1.07572C5.20424 1.13694 5.25265 1.20973 5.28543 1.28986C5.31822 1.36998 5.33471 1.45583 5.33396 1.5424C5.33321 1.62897 5.31522 1.71452 5.28105 1.79406C5.24688 1.8736 5.19722 1.94555 5.13495 2.00569L1.9077 5.23294L5.13495 8.46018C5.25371 8.58315 5.31942 8.74783 5.31794 8.91878C5.31645 9.08972 5.24788 9.25324 5.127 9.37413C5.00612 9.49501 4.8426 9.56357 4.67166 9.56506C4.50071 9.56654 4.33602 9.50083 4.21306 9.38207L0.524872 5.69388Z" fill="black"/>
</svg>
