<svg width="20" height="20" viewBox="0 0 20 20" fill="none" xmlns="http://www.w3.org/2000/svg">
<path d="M4 9.16291V15.8372C4 16.287 4.33608 16.6667 4.75065 16.6667H15.2493C15.6665 16.6667 16 16.2954 16 15.8372V9.16291C16 8.71313 15.6639 8.33341 15.2493 8.33341H4.75065C4.33347 8.33341 4 8.70479 4 9.16291ZM2.5 9.16291C2.5 7.78217 3.50698 6.66675 4.75065 6.66675H15.2493C16.4902 6.66675 17.5 7.79032 17.5 9.16291V15.8372C17.5 17.218 16.493 18.3334 15.2493 18.3334H4.75065C3.50976 18.3334 2.5 17.2098 2.5 15.8372V9.16291ZM19.1667 6.66675H17.5C17.5 4.8258 16.0076 3.33341 14.1667 3.33341C12.3257 3.33341 10.8333 4.8258 10.8333 6.66675H9.16667C9.16667 3.90532 11.4052 1.66675 14.1667 1.66675C16.9281 1.66675 19.1667 3.90532 19.1667 6.66675ZM10 13.3334C10.4602 13.3334 10.8333 12.9603 10.8333 12.5001C10.8333 12.0398 10.4602 11.6667 10 11.6667C9.53976 11.6667 9.16667 12.0398 9.16667 12.5001C9.16667 12.9603 9.53976 13.3334 10 13.3334Z" fill="#5391DA"/>
</svg>
