<svg width="30" height="30" viewBox="0 0 30 30" fill="none" xmlns="http://www.w3.org/2000/svg">
<path d="M28.9639 0.369161C28.8612 0.256268 28.7366 0.165379 28.5977 0.101985C28.4589 0.0385905 28.3086 0.00400862 28.156 0.000328279C28.0034 -0.00335206 27.8516 0.0239456 27.7099 0.0805719C27.5681 0.137198 27.4393 0.221977 27.3313 0.329786L26.4615 1.19533C26.3561 1.30081 26.2969 1.44383 26.2969 1.59295C26.2969 1.74207 26.3561 1.88509 26.4615 1.99057L27.2588 2.7865C27.3111 2.83902 27.3732 2.88068 27.4417 2.90912C27.5101 2.93755 27.5834 2.95218 27.6575 2.95218C27.7316 2.95218 27.805 2.93755 27.8734 2.90912C27.9418 2.88068 28.0039 2.83902 28.0562 2.7865L28.9042 1.94275C29.3331 1.51455 29.3731 0.817052 28.9639 0.369161Z" fill="#3376E4"/>
<path d="M24.7037 2.9523L12.0109 15.6226C11.9339 15.6993 11.878 15.7944 11.8484 15.8989L11.2613 17.6476C11.2473 17.6951 11.2463 17.7454 11.2585 17.7934C11.2706 17.8414 11.2955 17.8851 11.3305 17.9201C11.3655 17.9551 11.4093 17.98 11.4573 17.9922C11.5052 18.0044 11.5556 18.0034 11.6031 17.9893L13.3503 17.4022C13.4548 17.3727 13.55 17.3168 13.6266 17.2398L26.297 4.54558C26.4142 4.4271 26.4799 4.26716 26.4799 4.1005C26.4799 3.93383 26.4142 3.7739 26.297 3.65542L25.5974 2.9523C25.4787 2.83401 25.318 2.76758 25.1505 2.76758C24.983 2.76758 24.8223 2.83401 24.7037 2.9523Z" fill="#3376E4"/>
<path d="M23.7895 10.2417L15.2191 18.829C14.8879 19.161 14.4808 19.4074 14.033 19.5469L12.2119 20.1565C11.7797 20.2785 11.3228 20.2831 10.8882 20.1698C10.4536 20.0565 10.0572 19.8294 9.7396 19.5118C9.42205 19.1942 9.19491 18.7978 9.08159 18.3632C8.96827 17.9286 8.97287 17.4717 9.09492 17.0395L9.70453 15.2184C9.84357 14.7708 10.0895 14.3637 10.421 14.0323L19.0083 5.46047C19.087 5.38184 19.1406 5.28164 19.1624 5.17253C19.1842 5.06343 19.1731 4.95031 19.1305 4.84751C19.088 4.7447 19.016 4.65681 18.9235 4.59495C18.831 4.53309 18.7223 4.50005 18.611 4.5H3.9375C2.89321 4.5 1.89169 4.91484 1.15327 5.65327C0.414843 6.39169 0 7.39321 0 8.4375V25.3125C0 26.3568 0.414843 27.3583 1.15327 28.0967C1.89169 28.8352 2.89321 29.25 3.9375 29.25H20.8125C21.8568 29.25 22.8583 28.8352 23.5967 28.0967C24.3352 27.3583 24.75 26.3568 24.75 25.3125V10.639C24.7499 10.5277 24.7169 10.419 24.6551 10.3265C24.5932 10.234 24.5053 10.162 24.4025 10.1195C24.2997 10.0769 24.1866 10.0658 24.0775 10.0876C23.9684 10.1094 23.8682 10.163 23.7895 10.2417Z" fill="#3376E4"/>
</svg>
