<svg width="16" height="15" viewBox="0 0 16 15" fill="none" xmlns="http://www.w3.org/2000/svg">
<path d="M13.2457 5.29412H11.4286V0.882353C11.4286 0.397059 10.9143 0 10.2857 0H5.71429C5.08571 0 4.57143 0.397059 4.57143 0.882353V5.29412H2.75429C1.73714 5.29412 1.22286 6.24706 1.94286 6.80294L7.18857 10.8529C7.63429 11.1971 8.35429 11.1971 8.8 10.8529L14.0457 6.80294C14.7657 6.24706 14.2629 5.29412 13.2457 5.29412ZM0 14.1176C0 14.6029 0.514286 15 1.14286 15H14.8571C15.4857 15 16 14.6029 16 14.1176C16 13.6324 15.4857 13.2353 14.8571 13.2353H1.14286C0.514286 13.2353 0 13.6324 0 14.1176Z" fill="white"/>
</svg>
