<svg width="30" height="30" viewBox="0 0 30 30" fill="none" xmlns="http://www.w3.org/2000/svg">
<g clip-path="url(#clip0_1518_157)">
<path d="M30 27.409V29.0453H0V0.955078H1.63632V27.4094H29.9999L30 27.409ZM5.15777 13.7632C5.38891 13.7632 5.60808 13.7156 5.81345 13.6403L8.84444 18.3859C8.42377 18.784 8.15838 19.3435 8.15838 19.9679C8.15838 21.1725 9.13537 22.1493 10.3401 22.1493C11.5448 22.1493 12.5217 21.1725 12.5217 19.9679C12.5217 19.6336 12.4407 19.3209 12.3066 19.0376L16.2859 16.1292C16.5961 16.3937 16.9922 16.5587 17.4309 16.5587C17.9161 16.5587 18.3551 16.3628 18.6749 16.0474L22.745 18.5928C22.5367 18.9556 22.416 19.3751 22.416 19.8237C22.416 21.1944 23.5266 22.305 24.8967 22.305C26.2666 22.305 27.3773 21.1944 27.3773 19.8237C27.3773 18.453 26.2666 17.3424 24.8967 17.3424C24.2728 17.3424 23.7038 17.5746 23.2679 17.9553L19.1033 15.3498C19.1633 15.1717 19.2032 14.9843 19.2032 14.7859C19.2032 13.807 18.4097 13.0135 17.4309 13.0135C16.4517 13.0135 15.6579 13.807 15.6579 14.7859C15.6579 15.0299 15.7075 15.262 15.7971 15.4737L11.8242 18.3764C11.4345 18.0129 10.9154 17.786 10.3404 17.786C10.055 17.786 9.78375 17.8447 9.53355 17.9445L6.50688 13.2055C6.85345 12.86 7.0678 12.3822 7.0678 11.8545C7.0678 10.7998 6.21324 9.94524 5.15857 9.94524C4.1042 9.94524 3.24942 10.7998 3.24942 11.8545C3.24928 12.9091 4.10347 13.7632 5.15777 13.7632Z" fill="white"/>
</g>
<defs>
<clipPath id="clip0_1518_157">
<rect width="30" height="30" fill="white"/>
</clipPath>
</defs>
</svg>
