<svg width="14" height="14" viewBox="0 0 14 14" fill="none" xmlns="http://www.w3.org/2000/svg">
<path d="M0 11.4912V13.5509C0 13.67 0.0473066 13.7842 0.131513 13.8685C0.215719 13.9527 0.329927 14 0.449012 14H2.51267C2.63153 14 2.74552 13.9528 2.82967 13.8689L11.3142 5.38215L8.62013 2.68738L0.13201 11.1741C0.0477431 11.2581 0.000263465 11.3722 0 11.4912ZM9.73188 1.57445L12.426 4.26921L13.7371 2.95776C13.9054 2.78931 14 2.56088 14 2.32269C14 2.08451 13.9054 1.85608 13.7371 1.68763L12.3137 0.262996C12.1453 0.0945997 11.9169 0 11.6788 0C11.4407 0 11.2123 0.0945997 11.0439 0.262996L9.73188 1.57445Z" fill="white"/>
</svg>
