<svg width="22" height="14" viewBox="0 0 22 14" fill="none" xmlns="http://www.w3.org/2000/svg">
<path d="M11 4.2C10.2044 4.2 9.44129 4.495 8.87868 5.0201C8.31607 5.5452 8 6.25739 8 7C8 7.74261 8.31607 8.4548 8.87868 8.9799C9.44129 9.505 10.2044 9.8 11 9.8C11.7956 9.8 12.5587 9.505 13.1213 8.9799C13.6839 8.4548 14 7.74261 14 7C14 6.25739 13.6839 5.5452 13.1213 5.0201C12.5587 4.495 11.7956 4.2 11 4.2ZM11 11.6667C9.67392 11.6667 8.40215 11.175 7.46447 10.2998C6.52678 9.42466 6 8.23768 6 7C6 5.76232 6.52678 4.57534 7.46447 3.70017C8.40215 2.825 9.67392 2.33333 11 2.33333C12.3261 2.33333 13.5979 2.825 14.5355 3.70017C15.4732 4.57534 16 5.76232 16 7C16 8.23768 15.4732 9.42466 14.5355 10.2998C13.5979 11.175 12.3261 11.6667 11 11.6667ZM11 0C6 0 1.73 2.90267 0 7C1.73 11.0973 6 14 11 14C16 14 20.27 11.0973 22 7C20.27 2.90267 16 0 11 0Z" fill="#0069bd"/>
</svg>
