<svg width="38" height="38" viewBox="0 0 38 38" fill="none" xmlns="http://www.w3.org/2000/svg">
<g clip-path="url(#clip0_4371_4537)">
<path fill-rule="evenodd" clip-rule="evenodd" d="M20.53 37.75H2.56971C1.42631 37.75 0.5 36.8231 0.5 35.6802V2.3197C0.5 1.17645 1.42645 0.25 2.56971 0.25H35.9304C37.0734 0.25 38 1.17645 38 2.3197V35.6802C38 36.8233 37.0733 37.75 35.9304 37.75H26.3745V23.2279H31.2488L31.9787 17.5684H26.3745V13.9552C26.3745 12.3166 26.8295 11.2 29.1791 11.2L32.176 11.1987V6.13679C31.6577 6.06782 29.8787 5.91373 27.809 5.91373C23.4882 5.91373 20.53 8.55119 20.53 13.3947V17.5684H15.6431V23.2279H20.53V37.75Z" fill="#4460A0"/>
</g>
<defs>
<clipPath id="clip0_4371_4537">
<rect width="37.5" height="37.5" fill="white" transform="translate(0.5 0.25)"/>
</clipPath>
</defs>
</svg>
