<svg width="99" height="99" viewBox="0 0 99 99" fill="none" xmlns="http://www.w3.org/2000/svg">
<path d="M62.4986 65.876C63.135 65.3382 63.3701 64.5013 63.1816 63.7449C81.7076 46.4705 57.2992 16.7418 36.244 32.8188C35.4697 33.4201 35.2445 34.1999 35.3767 34.9009C27.5315 41.4219 26.3826 54.7665 33.9658 62.0083C40.762 70.6511 53.8036 73.3999 62.4986 65.876ZM36.6095 36.486C37.223 36.7705 37.9887 36.7608 38.7467 36.235C56.7487 22.0428 76.7117 47.0759 61.8528 62.2722C61.1347 62.0115 60.2999 62.1479 59.6977 62.6999C52.9637 69.11 41.7472 66.6453 36.2291 59.7989C29.4785 53.8645 30.259 42.4346 36.6095 36.486Z" fill="#009400"/>
<path d="M27.126 75.3034C32.6369 74.0805 35.5198 76.6344 39.7909 79.7328C41.032 85.9732 50.6922 86.5389 52.9776 80.7554C56.5677 80.2778 60.0823 79.1659 63.2904 77.4882C68.354 81.0808 76.2811 74.5418 73.5657 68.8412C75.8108 65.9289 77.534 62.6203 78.6295 59.1175C81.1572 58.6317 83.3602 56.4739 83.5489 53.8437C84.1426 50.6876 82.044 47.9018 80.2982 45.577C78.3361 42.4746 78.0228 37.9061 76.963 34.7041C79.1933 31.6725 77.426 27.9976 74.7328 25.9883C72.9263 24.6634 70.5678 25.1939 68.5764 24.8022C64.9104 23.7154 61.8993 21.4404 58.2171 20.1879C57.584 15.8229 52.2807 14.1951 48.4497 15.6282C47.0604 16.2305 46.355 17.6925 45.4946 18.7924C42.4353 19.6938 36.3864 22.6322 33.5429 21.4871C32.5498 21.0951 31.0867 20.7372 29.8995 21.1608C26.4579 22.6653 23.0726 26.5868 24.6159 30.5358C22.4269 33.2465 20.717 36.3316 19.5363 39.6088C19.2411 40.4258 19.6864 41.3317 20.5141 41.5963C21.3241 41.857 22.192 41.4118 22.4527 40.6019C22.9753 38.9761 23.6526 37.3962 24.4761 35.8977C25.3042 34.3856 26.2705 32.9469 27.3664 31.6175C28.8005 29.866 24.0705 28.2736 30.3716 23.8653C31.5198 23.1287 32.8772 24.2032 34.1413 24.455C36.4214 24.6419 38.8287 23.571 41.0272 23.0493C42.9575 22.4612 44.8532 21.7888 46.7227 21.0597C49.5677 18.7959 47.9935 16.7968 53.5751 18.1028C56.4042 19.0326 54.9185 21.7044 56.6667 22.4256C60.9393 23.6532 64.7901 27.1395 69.3713 27.6488C70.6008 27.7342 71.761 27.6242 72.8399 28.053C73.0615 28.1591 73.2611 28.3002 73.4311 28.4758C77.08 32.3086 74.0686 31.84 74.1585 35.1459C75.414 39.0807 75.5724 43.6486 77.9103 47.2408C78.8935 48.6259 80.02 50.0084 80.5098 51.5743C81.2258 53.81 79.8389 56.2319 77.3895 56.2403C76.7612 56.2655 76.1896 56.6874 76.0071 57.3251C74.9304 61.1065 73.0464 64.6528 70.5035 67.6493C70.0786 68.1527 70.0041 68.8968 70.3742 69.4847C71.2182 70.8594 71.1202 72.6616 69.7892 73.6432C68.7069 74.6841 67.2909 75.6807 65.801 75.0844C64.8063 74.7228 63.854 73.3188 62.6242 74.0773C59.1985 75.9727 55.3936 77.1223 51.494 77.4455C50.7554 77.5084 50.1133 78.0487 49.9576 78.8118C49.5119 81.4181 45.8998 81.8916 44.0842 80.4398C43.2394 79.4366 43.311 77.7142 42.096 76.9149C38.6113 74.3912 35.0676 71.248 30.4689 71.1381C26.2754 71.2679 27.5098 72.4055 24.6384 68.4732C24.6453 68.4779 24.6502 68.491 24.6538 68.4934C24.654 68.4963 24.6548 68.4959 24.6554 68.4958C24.5685 66.9301 25.4594 65.1366 25.1089 63.48C24.6951 59.9398 23.8408 60.3876 22.934 57.1018C23.4177 58.9876 22.639 55.9519 22.934 57.1018C19.2989 58.3927 19.6333 58.6881 20.2139 60.9593C22.4422 65.2882 19.2952 67.4672 21.4564 70.8283C22.8413 72.7371 24.4887 75.1877 27.126 75.3034Z" fill="#009400"/>
</svg>
