<svg width="16" height="16" viewBox="0 0 16 16" fill="none" xmlns="http://www.w3.org/2000/svg">
<path d="M3.11111 9.33333H12.8889V8.44445H3.11111V9.33333ZM3.11111 6.66667H12.8889V5.77778H3.11111V6.66667ZM3.11111 4H12.8889V3.11111H3.11111V4ZM16 15.1796L13.2649 12.4444H1.43645C1.02696 12.4444 0.685039 12.3076 0.410668 12.0338C0.136298 11.76 -0.000590677 11.4184 1.91571e-06 11.0089V1.43556C1.91571e-06 1.02667 0.137187 0.685039 0.411557 0.410668C0.685928 0.136298 1.02726 -0.000590677 1.43556 1.91571e-06H14.5644C14.9733 1.91571e-06 15.3147 0.136891 15.5884 0.410668C15.8622 0.684446 15.9994 1.02608 16 1.43556V15.1796ZM1.43645 11.5556H13.6444L15.1111 13.0169V1.43645C15.1111 1.29956 15.0542 1.17393 14.9404 1.05956C14.8267 0.945187 14.7013 0.888298 14.5644 0.888891H1.43556C1.29926 0.888891 1.17393 0.945779 1.05956 1.05956C0.945187 1.17334 0.888298 1.29867 0.888891 1.43556V11.0089C0.888891 11.1452 0.945779 11.2705 1.05956 11.3849C1.17334 11.4993 1.29867 11.5561 1.43556 11.5556" fill="#007AD9"/>
</svg>
