<svg width="30" height="30" viewBox="0 0 30 30" fill="none" xmlns="http://www.w3.org/2000/svg">
<path d="M13.0906 0L12.3887 4.44084C11.3341 4.69146 10.323 5.09867 9.3891 5.64892L5.72622 3.03827L3.07817 5.68757L5.64892 9.3517C5.08626 10.2839 4.66604 11.2949 4.40219 12.3513L0 13.0919V16.8321L4.40219 17.6113C4.66453 18.6682 5.08484 19.6794 5.64892 20.6109L3.03827 24.2738L5.68757 26.9231L9.3517 24.3498C10.2857 24.8999 11.2968 25.3071 12.3513 25.5579L13.0919 29.9988H16.8321L17.6499 25.5579C18.6938 25.2929 19.6919 24.8727 20.6109 24.3112L24.3124 26.9206L26.9617 24.2713L24.3124 20.6096C24.8585 19.6995 25.2973 18.7071 25.5592 17.6487L30 16.8308V13.0906L25.5592 12.3501C25.2921 11.3069 24.8719 10.3091 24.3124 9.3891L26.9218 5.68757L24.2725 3.03827L20.6096 5.68757C19.6775 5.1249 18.6664 4.70469 17.61 4.44084L16.8308 0.00124679L13.0906 0ZM14.9994 6.857C17.1585 6.85832 19.2287 7.7166 20.7554 9.24331C22.2822 10.77 23.1404 12.8403 23.1418 14.9994C23.1404 17.1585 22.2822 19.2287 20.7554 20.7554C19.2287 22.2822 17.1585 23.1404 14.9994 23.1418C12.8404 23.1401 10.7703 22.2817 9.24367 20.7551C7.71704 19.2284 6.85865 17.1584 6.857 14.9994C6.85865 12.8404 7.71704 10.7703 9.24367 9.24367C10.7703 7.71704 12.8404 6.85865 14.9994 6.857ZM14.9994 8.84304C13.3677 8.84666 11.8039 9.49644 10.6502 10.6502C9.49644 11.8039 8.84666 13.3677 8.84304 14.9994C8.84666 16.631 9.49644 18.1948 10.6502 19.3486C11.8039 20.5023 13.3677 21.1521 14.9994 21.1557C16.631 21.1521 18.1948 20.5023 19.3486 19.3486C20.5023 18.1948 21.1521 16.631 21.1557 14.9994C21.1521 13.3677 20.5023 11.8039 19.3486 10.6502C18.1948 9.49644 16.631 8.84666 14.9994 8.84304ZM14.9607 12.4286C16.3895 12.4286 17.5714 13.5694 17.5714 14.9994C17.5714 16.4281 16.3895 17.5714 14.9607 17.5714C14.6226 17.5729 14.2874 17.5073 13.9747 17.3786C13.662 17.2499 13.3779 17.0605 13.1387 16.8214C12.8996 16.5822 12.7102 16.2981 12.5815 15.9854C12.4528 15.6727 12.3872 15.3376 12.3887 14.9994C12.3887 13.5694 13.532 12.4286 14.9607 12.4286Z" fill="#CCCCCC"/>
</svg>
