<svg width="1131" height="336" viewBox="0 0 1131 336" fill="none" xmlns="http://www.w3.org/2000/svg">
<path fill-rule="evenodd" clip-rule="evenodd" d="M1124.26 -20.7633C1128.2 -18.17 1130.42 -13.6371 1130.03 -8.93097C1129.85 -6.8033 1129.14 -4.72753 1127.96 -2.93349L1122.37 5.53988C1123.58 7.77229 1124.15 10.3404 1123.93 12.932C1123.73 15.313 1122.89 17.5962 1121.48 19.5516L1116.14 26.9597C1117.47 29.2994 1118.08 32.0136 1117.85 34.7889L1117.85 34.7808C1117.63 37.4243 1116.65 39.9301 1115.01 42.0296L1109.97 48.4848C1111.37 50.927 1112.03 53.7718 1111.79 56.6488L1111.8 56.6499C1111.56 59.5549 1110.44 62.2741 1108.55 64.5156L1103.87 70.064C1105.33 72.5808 1106 75.5044 1105.75 78.5029C1105.49 81.6868 1104.22 84.6184 1102.07 86.9928L1097.8 91.7128C1099.29 94.3032 1099.98 97.3046 1099.73 100.367C1099.45 103.772 1097.99 107.002 1095.61 109.471L1091.79 113.419C1093.29 116.069 1093.98 119.131 1093.72 122.225C1093.42 125.9 1091.79 129.349 1089.14 131.941L1085.82 135.176C1087.3 137.873 1087.98 140.976 1087.72 144.092C1087.39 148.053 1085.6 151.713 1082.67 154.409L1079.88 156.968C1081.34 159.696 1081.99 162.787 1081.73 165.952L1081.73 165.944C1081.38 170.192 1079.42 174.078 1076.2 176.879L1073.98 178.814C1075.39 181.565 1076.01 184.659 1075.76 187.814C1075.38 192.349 1073.24 196.444 1069.73 199.349L1068.1 200.699C1069.45 203.466 1070.04 206.552 1069.79 209.678C1069.39 214.433 1067.02 218.862 1063.27 221.819L1062.25 222.624C1063.53 225.392 1064.09 228.459 1063.83 231.542C1063.41 236.592 1060.85 241.237 1056.8 244.281L1056.4 244.583C1057.61 247.345 1058.13 250.381 1057.88 253.415L1057.87 253.414C1057.44 258.655 1054.78 263.438 1050.57 266.579C1051.7 269.318 1052.17 272.304 1051.93 275.281C1051.49 280.55 1048.89 285.335 1044.75 288.562C1045.81 291.272 1046.24 294.181 1045.99 297.148C1045.55 302.454 1043.01 307.249 1038.92 310.562C1039.91 313.245 1040.3 316.107 1040.06 319.015L1040.07 319.008C1039.62 324.357 1037.12 329.167 1033.1 332.557C1034.02 335.211 1034.38 338.029 1034.14 340.885L1034.13 340.884C1033.7 346.18 1031.19 351.084 1027.26 354.549C1028.12 357.177 1028.44 359.953 1028.22 362.753L1028.22 362.754C1027.78 368.081 1025.31 373.007 1021.42 376.548C1022.23 379.146 1022.53 381.875 1022.3 384.623C1021.85 389.992 1019.43 394.928 1015.59 398.536C1016.34 401.104 1016.61 403.794 1016.39 406.493L1016.4 406.494C1015.95 411.9 1013.55 416.863 1009.75 420.539C1010.45 423.074 1010.7 425.717 1010.48 428.363C1010.03 433.807 1007.67 438.792 1003.91 442.532C1004.57 445.037 1004.8 447.641 1004.58 450.244L1004.58 450.236C1003.92 458.215 999.287 465.187 992.192 468.894L364.154 797.077C358.653 799.952 352.353 800.525 346.418 798.672C340.482 796.827 335.627 792.787 332.743 787.293L3.42522 160.766C1.37373 156.858 0.482447 152.477 0.839703 148.098C1.49563 140.125 6.12794 133.145 13.2231 129.439L641.261 -198.744C644.429 -200.4 647.861 -201.289 651.337 -201.394C653.632 -202.229 656.027 -202.682 658.443 -202.746C660.763 -203.598 663.164 -204.036 665.55 -204.089C667.842 -204.949 670.246 -205.408 672.674 -205.453C674.952 -206.319 677.347 -206.778 679.769 -206.816C682.064 -207.698 684.457 -208.142 686.837 -208.173C689.127 -209.078 691.554 -209.548 694.014 -209.56C696.255 -210.452 698.634 -210.914 701.05 -210.924C703.316 -211.85 705.735 -212.321 708.193 -212.314C710.431 -213.238 712.829 -213.707 715.27 -213.692C717.547 -214.65 719.964 -215.107 722.365 -215.083C724.632 -216.058 727.05 -216.519 729.453 -216.486C731.678 -217.466 734.094 -217.952 736.569 -217.901C738.812 -218.902 741.227 -219.368 743.626 -219.313C745.828 -220.33 748.25 -220.83 750.743 -220.755C752.82 -221.73 755.109 -222.229 757.472 -222.2C757.597 -222.198 757.721 -222.195 757.846 -222.191C760.064 -223.248 762.495 -223.732 764.909 -223.636C767.122 -224.721 769.564 -225.215 771.99 -225.105C774.191 -226.212 776.64 -226.714 779.072 -226.59C781.257 -227.714 783.705 -228.225 786.138 -228.088C788.307 -229.232 790.757 -229.754 793.194 -229.605C797.246 -231.803 802.353 -231.764 806.47 -229.067L1124.26 -20.7633ZM796.575 -228.951C799.501 -229.717 802.73 -229.291 805.454 -227.508L1123.22 -19.2071C1126.61 -16.9914 1128.5 -13.1114 1128.17 -9.08506C1128.02 -7.26773 1127.4 -5.49301 1126.39 -3.9592L1121.27 3.81887C1120.48 2.77857 1119.53 1.8485 1118.45 1.07072L800.114 -227.144C799.003 -227.94 797.81 -228.54 796.575 -228.951ZM1120.18 5.46954C1119.43 4.36835 1118.49 3.38816 1117.36 2.57791L799.039 -225.643C797.387 -226.824 795.525 -227.503 793.637 -227.709C793.033 -227.344 792.46 -226.917 791.929 -226.432C792.561 -226.086 793.173 -225.685 793.759 -225.229L1110.03 20.8774L1120.18 5.46954ZM1121.2 7.32713C1121.92 9.00654 1122.23 10.8668 1122.08 12.7789C1121.91 14.8252 1121.18 16.7921 1119.97 18.4751L1115.05 25.3115C1114.36 24.4236 1113.55 23.6135 1112.64 22.9037L1111.51 22.0294L1121.2 7.32713ZM1110.49 23.5829L1111.49 24.363C1112.43 25.0937 1113.24 25.9482 1113.91 26.8931L1103.22 41.7182L1100.21 39.1876L1110.49 23.5829ZM1099.18 40.7433L1102.14 43.2235L1091.49 57.999L1089.19 55.9215L1099.18 40.7433ZM1087.78 54.6576L1097.74 39.5339L787.705 -220.632L785.543 -217.349L1087.78 54.6576ZM1088.15 57.4903L1090.4 59.5149L1080.07 73.8565L1078.42 72.2695L1088.15 57.4903ZM1077.05 70.9541L1086.75 56.2265L784.507 -215.776L782.195 -212.266L1077.05 70.9541ZM1077.38 73.8485L1078.97 75.3801L1068.92 89.3299L1067.88 88.2666L1077.38 73.8485ZM1066.54 86.9025L1076.01 72.5332L781.155 -210.687L778.702 -206.962L1066.54 86.9025ZM1066.83 89.8531L1067.82 90.8588L1058.03 104.444L1057.56 103.933L1066.83 89.8531ZM1056.25 102.523L1065.5 88.489L777.657 -205.376L775.078 -201.461L1056.25 102.523ZM1056.51 105.531L1056.92 105.982L1048.6 117.537L1056.51 105.531ZM1046.16 117.844L1055.2 104.121L774.023 -199.859L771.329 -195.769L1046.16 117.844ZM1036.26 132.879L1045.1 119.449L770.274 -194.168L767.465 -189.903L1036.26 132.879ZM1026.53 147.647L1035.19 134.496L766.395 -188.278L763.499 -183.882L1026.53 147.647ZM1022.58 153.646L1025.45 149.285L762.417 -182.24L759.426 -177.699L1016.69 161.824L1022.58 153.646ZM992.85 198.783L995.127 195.326L991.48 199.989L989.414 202.857L992.85 198.783ZM994.278 199.995L990.226 206.147L990.88 207.126L1000.28 196.738L998.807 194.625L994.278 199.995ZM1007.61 179.758L1003.02 186.724L1008.2 180.578L1007.61 179.758ZM1009.25 177.265L1008.7 178.096L1009.44 179.111L1018.93 167.863L1017.79 166.354L1009.25 177.265ZM1024.19 154.594L1021.86 158.128L1027.13 151.393L1026.79 150.974L1024.19 154.594ZM989.117 207.83L986.099 212.411L989.596 208.546L989.117 207.83ZM980.081 218.169L984.113 212.048L979.592 217.408L980.081 218.169ZM977.911 221.463L978.962 219.868L978.337 218.896L975.054 222.788L969.998 229.806L970.146 230.046L977.911 221.463ZM979.358 222.645L980.17 221.747L981.945 224.507L972.668 234.115L972.248 233.438L979.358 222.645ZM971.12 235.15L971.334 235.496L969.944 236.936L971.12 235.15ZM962.946 244.183L970.042 233.41L969.87 233.133L961.061 242.871L962.267 244.886L962.946 244.183ZM964.385 245.375L963.428 246.827L965.318 249.986L974.668 240.875L972.346 237.129L964.385 245.375ZM962.287 248.559L954.706 260.068L954.801 260.233L963.943 251.326L962.287 248.559ZM953.667 258.271L957.388 252.621L953.017 257.148L953.667 258.271ZM948.025 266.836L952.521 260.01L951.672 258.541L942.956 267.568L944.48 270.29L948.025 266.836ZM949.452 268.043L946.083 273.157L947.708 276.062L956.908 267.598L954.386 263.236L949.452 268.043ZM944.931 274.906L938.724 284.328L946.302 277.356L944.931 274.906ZM936.551 284.256L943.249 274.087L935.259 281.872L936.551 284.256ZM933.087 289.515L935.392 286.016L933.876 283.219L925.952 290.94L925.356 291.767L927.078 295.043L933.087 289.515ZM934.51 290.726L936.801 288.617L939.489 293.576L930.449 301.457L929.114 298.917L934.51 290.726ZM928.129 297.042L928.873 295.912L927.971 296.742L928.129 297.042ZM927.942 300.696L929.004 302.716L923.385 307.614L927.942 300.696ZM918.173 312.157L926.957 298.821L926.551 298.049L909.581 313.663L906.661 317.715C908.641 318.038 910.667 317.814 912.514 317.09L918.173 312.157ZM919.567 313.409L919.235 313.914C917.788 316.114 915.777 317.725 913.516 318.684L893.212 336.381L892.807 336.944C891.445 338.834 889.674 340.259 887.701 341.186L866.823 359.384L866.363 359.972C865.116 361.568 863.582 362.811 861.888 363.685L840.468 382.356L839.937 382.986C838.824 384.306 837.517 385.37 836.092 386.171L814.04 405.393L813.486 406.005C812.536 407.056 811.465 407.935 810.313 408.641L787.783 428.28L787.069 429.019C786.276 429.839 785.412 430.548 784.494 431.147L761.323 451.343L760.619 452.03C760.036 452.597 759.419 453.109 758.775 453.565L737.704 471.931L932.949 310.221L929.893 304.408L919.567 313.409ZM909.558 319.666C908.2 319.784 906.819 319.688 905.469 319.369L897.992 329.748L909.558 319.666ZM902.083 318.04L891.648 327.641L900.132 316.793L901.365 317.601C901.601 317.756 901.841 317.902 902.083 318.04ZM898.112 315.469L891.216 322.189L897.321 314.95L898.112 315.469ZM898.563 313.545L899.474 314.142L901.022 312.634L907.751 304.029L898.563 313.545ZM894.823 313.313L874.473 335.81L873.324 337L557.034 110.247C553.744 107.886 551.986 104.082 552.316 100.046L552.324 100.047C552.493 98.0008 553.222 96.0339 554.427 94.359L707.676 -118.351L712.299 -109.556L579.878 91.4765C578.699 93.2705 577.981 95.3463 577.803 97.4658C577.412 102.172 579.623 106.712 583.587 109.299L894.823 313.313ZM713.294 -107.663L581.452 92.4951C580.439 94.0289 579.817 95.8026 579.669 97.6199L579.66 97.627C579.33 101.654 581.228 105.534 584.61 107.758L896.084 311.92L915.955 289.953L919.861 285.322L713.294 -107.663ZM713.473 -111.338L708.896 -120.044L712.562 -125.132L717.074 -116.806L713.473 -111.338ZM718.086 -114.938L714.468 -109.445L921.159 283.783L929.087 274.383L718.086 -114.938ZM718.234 -118.566L713.768 -126.806L717.388 -131.831L721.789 -123.964L718.234 -118.566ZM722.819 -122.124L719.246 -116.699L930.374 272.858L938.437 263.297L722.819 -122.124ZM722.941 -125.713L718.588 -133.496L722.158 -138.452L726.446 -131.034L722.941 -125.713ZM727.494 -129.221L723.971 -123.872L939.718 261.779L947.921 252.053L727.494 -129.221ZM727.595 -132.779L723.355 -140.113L726.876 -145L731.05 -138.023L727.595 -132.779ZM732.117 -136.239L728.644 -130.966L949.197 250.54L954.524 244.224L957.454 240.478L732.117 -136.239ZM732.186 -139.748L728.06 -146.644L731.528 -151.457L735.586 -144.909L732.186 -139.748ZM736.672 -143.155L733.253 -137.964L958.687 238.901L966.92 228.373L736.672 -143.155ZM736.714 -146.622L732.705 -153.091L736.106 -157.812L740.047 -151.682L736.714 -146.622ZM741.155 -149.96L737.801 -144.868L968.142 226.812L976.53 216.086L741.155 -149.96ZM741.172 -153.389L737.28 -159.441L740.622 -164.08L744.445 -158.359L741.172 -153.389ZM745.574 -156.669L742.279 -151.667L977.744 214.534L986.293 203.603L745.574 -156.669ZM745.556 -160.046L741.784 -165.692L745.062 -170.243L748.765 -164.918L745.556 -160.046ZM749.917 -163.262L746.685 -158.356L987.497 202.063L990.018 198.839L995.982 190.563L749.917 -163.262ZM749.864 -166.585L746.211 -171.837L749.414 -176.283L752.997 -171.342L749.864 -166.585ZM754.172 -169.722L751.015 -164.93L997.133 188.964L1005.68 177.1L754.172 -169.722ZM754.089 -173L750.558 -177.87L753.681 -182.206L757.143 -177.636L754.089 -173ZM758.343 -176.054L755.264 -171.38L1006.83 175.509L1015.55 163.404L758.343 -176.054ZM758.227 -179.281L754.817 -183.782L757.851 -187.994L761.192 -183.783L758.227 -179.281ZM762.274 -185.425L758.986 -189.569L761.924 -193.647L765.143 -189.781L762.274 -185.425ZM766.213 -191.406L763.048 -195.207L765.898 -199.162L768.995 -195.628L766.213 -191.406ZM770.049 -197.229L767.006 -200.701L769.738 -204.492L772.714 -201.274L770.049 -197.229ZM773.769 -202.876L770.848 -206.034L773.46 -209.66L776.316 -206.744L773.769 -202.876ZM777.362 -208.33L774.562 -211.188L777.045 -214.635L779.783 -212.006L777.362 -208.33ZM780.823 -213.585L778.143 -216.159L780.479 -219.402L783.1 -217.043L780.823 -213.585ZM784.136 -218.615L781.574 -220.921L783.102 -223.042C783.24 -223.234 783.384 -223.421 783.532 -223.602C784.471 -223.161 785.368 -222.594 786.198 -221.896L786.262 -221.843L784.136 -218.615ZM787.293 -223.407C786.535 -224.03 785.73 -224.561 784.893 -225.001C785.415 -225.453 785.973 -225.851 786.558 -226.195C787.325 -226.118 788.089 -225.966 788.836 -225.737C788.753 -225.62 788.672 -225.501 788.592 -225.38L787.293 -223.407ZM790.631 -225.019C791.32 -224.676 791.984 -224.26 792.615 -223.77L1109.01 22.431L1098.77 37.9781L788.736 -222.197L790.158 -224.355C790.309 -224.584 790.466 -224.805 790.631 -225.019ZM790.105 -227.264C789.939 -227.325 789.772 -227.383 789.605 -227.438C789.888 -227.508 790.173 -227.567 790.46 -227.616C790.339 -227.501 790.221 -227.384 790.105 -227.264ZM901.28 315.325L902.389 316.052C902.761 316.296 903.142 316.514 903.531 316.708L908.166 312.443L918.259 298.435L902.418 313.87L901.28 315.325ZM1116 34.6369C1116.18 32.5426 1115.79 30.4852 1114.93 28.6485L1104.65 42.9134L1106.82 44.7366C1107.59 45.3774 1108.27 46.0916 1108.88 46.864L1113.55 40.8921C1114.97 39.0792 1115.81 36.9202 1116 34.6369ZM1105.63 46.1479L1103.56 44.4188L1092.88 59.247L1096.58 62.5797L1107.69 48.3788C1107.1 47.5604 1106.41 46.8093 1105.63 46.1479ZM1095.44 64.0463L1091.79 60.7629L1081.42 75.1544L1084.46 78.0777L1095.44 64.0463ZM1083.31 79.5499L1080.32 76.6781L1070.24 90.6752L1072.67 93.1578L1083.31 79.5499ZM1071.52 94.6332L1069.14 92.204L1059.32 105.834L1061.18 107.849L1071.52 94.6332ZM1060.02 109.331L1058.21 107.372L1048.63 120.663L1049.97 122.186L1060.02 109.331ZM1048.81 123.672L1047.52 122.206L1038.17 135.179L1039.02 136.19L1048.81 123.672ZM1037.85 137.683L1037.06 136.731L1027.93 149.403L1028.31 149.883L1037.85 137.683ZM958.617 242.422L957.307 244.24L954.102 247.783L955.757 245.667L958.566 242.337L958.617 242.422ZM951.807 255.054L958.721 245.457L959.751 244.319L960.923 246.278L952.048 255.47L951.807 255.054ZM968.564 231.796L968.821 231.439L968.847 231.483L968.564 231.796ZM949.919 257.674L950.613 256.711L950.702 256.864L949.919 257.674ZM947.464 257.901L941.882 265.648L941.337 264.674L947.464 257.901ZM943.101 271.634L941.685 269.103L934.068 279.675L934.338 280.172L943.101 271.634ZM933.274 277.595L933.084 277.859L933.061 277.816L933.274 277.595ZM932.955 281.52L932.862 281.349L932.231 282.225L932.955 281.52ZM931.878 279.533L924.538 289.721L924.367 289.887L923.324 287.901L931.707 279.218L931.878 279.533ZM914.968 306.185L924.138 293.458L925.658 296.35L914.968 306.185ZM902.778 319.922L891.826 335.122L886.676 339.611C885.057 340.329 883.289 340.663 881.522 340.588L884.616 336.632L902.778 319.922ZM880.163 342.326C881.277 342.482 882.403 342.495 883.511 342.37L872.886 351.632L880.163 342.326ZM869.186 348.307L876.734 341.363C876.33 341.187 875.932 340.991 875.542 340.772L869.186 348.307ZM849.505 361.669L872.02 338.351L555.95 111.755C552.19 109.053 550.087 104.511 550.466 99.8939C550.661 97.5119 551.505 95.2288 552.911 93.2733L706.708 -120.193L702.661 -127.892L527.404 96.2066C525.983 98.0195 525.137 100.187 524.948 102.462L524.949 102.454C524.616 106.439 526.297 110.275 529.451 112.727L848.328 360.86C848.708 361.156 849.101 361.426 849.505 361.669ZM703.923 -129.506L707.928 -121.886L711.576 -126.95L707.625 -134.24L703.923 -129.506ZM708.874 -135.837L712.783 -128.624L716.385 -133.625L712.531 -140.514L708.874 -135.837ZM713.773 -142.102L717.584 -135.289L721.136 -140.219L717.381 -146.715L713.773 -142.102ZM718.622 -148.301L722.334 -141.881L725.835 -146.741L722.18 -152.851L718.622 -148.301ZM723.408 -154.422L727.019 -148.385L730.466 -153.169L726.913 -158.903L723.408 -154.422ZM728.135 -160.466L731.644 -154.803L735.024 -159.495L731.573 -164.862L728.135 -160.466ZM732.792 -166.421L736.198 -161.124L739.518 -165.733L736.171 -170.742L732.792 -166.421ZM737.378 -172.286L740.68 -167.345L743.935 -171.863L740.694 -176.524L737.378 -172.286ZM741.889 -178.053L745.084 -173.458L748.263 -177.87L745.127 -182.194L741.889 -178.053ZM746.318 -183.716L749.407 -179.457L752.505 -183.758L749.476 -187.755L746.318 -183.716ZM750.66 -189.268L753.641 -185.334L756.649 -189.51L753.728 -193.191L750.66 -189.268ZM754.912 -194.705L757.784 -191.085L760.694 -195.124L757.881 -198.502L754.912 -194.705ZM759.055 -200.003L761.818 -196.684L764.639 -200.599L761.934 -203.685L759.055 -200.003ZM763.093 -205.166L765.747 -202.138L768.448 -205.886L765.851 -208.693L763.093 -205.166ZM767.014 -210.18L769.559 -207.428L772.139 -211.009L769.65 -213.55L767.014 -210.18ZM770.803 -215.026L773.24 -212.538L775.69 -215.937L773.391 -218.145C773.363 -218.172 773.335 -218.199 773.306 -218.226L770.803 -215.026ZM774.678 -219.487L776.787 -217.461L779.067 -220.625C778.24 -221.266 777.354 -221.789 776.43 -222.195C776.299 -222.044 776.171 -221.888 776.046 -221.729L774.456 -219.696C774.531 -219.627 774.604 -219.558 774.678 -219.487ZM777.854 -223.58C778.654 -223.178 779.425 -222.697 780.156 -222.137L781.584 -224.119C781.625 -224.175 781.665 -224.23 781.706 -224.285C780.977 -224.493 780.233 -224.632 779.486 -224.701C778.916 -224.377 778.37 -224.003 777.854 -223.58ZM782.648 -225.941C782.776 -225.9 782.904 -225.857 783.031 -225.812C783.121 -225.901 783.213 -225.989 783.305 -226.075C783.085 -226.036 782.866 -225.992 782.648 -225.941ZM878.254 339.965C877.748 339.788 877.25 339.574 876.765 339.322L878.929 336.756L892.49 323.543L883.222 335.393L878.254 339.965ZM1108.71 50.0854C1109.68 52.0455 1110.12 54.2568 1109.94 56.4876C1109.73 59.0081 1108.75 61.3652 1107.11 63.308L1102.77 68.4505C1102.25 67.7778 1101.66 67.1454 1101.01 66.5616L1097.97 63.8254L1108.71 50.0854ZM1096.82 65.2919L1099.77 67.9423C1100.43 68.5434 1101.03 69.2028 1101.54 69.9091L1090.09 83.4856L1085.81 79.3714L1096.82 65.2919ZM1084.66 80.8436L1088.89 84.9098L1077.65 98.2409L1073.98 94.4969L1084.66 80.8436ZM1072.83 95.9723L1076.45 99.6667L1065.56 112.579L1062.46 109.231L1072.83 95.9723ZM1061.3 110.713L1064.35 114.01L1053.78 126.539L1051.21 123.609L1061.3 110.713ZM1050.05 125.095L1052.57 127.972L1042.31 140.143L1040.23 137.651L1050.05 125.095ZM1039.06 139.144L1041.09 141.581L1031.11 153.418L1029.49 151.381L1039.06 139.144ZM1028.31 152.891L1029.89 154.871L1020.16 166.404L1018.97 164.836L1028.31 152.891ZM918.797 289.906L920.617 287.579L917.51 291.013L916.007 292.796L918.797 289.906ZM938.052 268.305L932.059 275.968L932.13 276.098L940.657 267.266L940.021 266.129L938.052 268.305ZM920.184 291.153L910.949 302.961L922.974 291.245L921.959 289.314L920.184 291.153ZM865.461 358.104L876.189 344.386L859.689 359.568L856.53 363.313C858.026 363.193 859.496 362.791 860.855 362.118L865.461 358.104ZM857.449 365.087C856.619 365.201 855.778 365.239 854.938 365.2L848.327 373.038L857.449 365.087ZM851.486 364.592L848.281 367.542L851.072 364.456C851.148 364.482 851.224 364.508 851.301 364.533C851.362 364.553 851.424 364.573 851.486 364.592ZM848.178 363.043L830.554 381.295L826.023 385.71C824.335 385.266 822.717 384.452 821.294 383.258L501.867 115.214C498.84 112.671 497.229 108.811 497.555 104.874L497.554 104.883C497.758 102.361 498.735 100.004 500.38 98.0541L698.164 -136.448L701.713 -129.695L525.935 95.0691C524.296 97.1686 523.308 99.6733 523.088 102.317C522.712 106.917 524.661 111.366 528.304 114.202L847.181 362.335C847.506 362.588 847.838 362.824 848.178 363.043ZM702.975 -131.309L699.464 -137.99L703.195 -142.414L706.66 -136.021L702.975 -131.309ZM707.908 -137.618L704.482 -143.94L708.169 -148.311L711.548 -142.271L707.908 -137.618ZM712.79 -143.859L709.45 -149.83L713.087 -154.142L716.379 -148.448L712.79 -143.859ZM717.619 -150.035L714.367 -155.66L717.955 -159.914L721.158 -154.56L717.619 -150.035ZM722.386 -156.13L719.223 -161.418L722.758 -165.608L725.87 -160.585L722.386 -156.13ZM727.092 -162.148L724.02 -167.105L727.487 -171.215L730.509 -166.516L727.092 -162.148ZM731.728 -168.076L728.748 -172.711L732.156 -176.751L735.085 -172.368L731.728 -168.076ZM736.292 -173.911L733.405 -178.232L736.749 -182.197L739.584 -178.12L736.292 -173.911ZM740.779 -179.649L737.986 -183.664L741.253 -187.537L743.993 -183.758L740.779 -179.649ZM745.183 -185.281L742.486 -188.999L745.672 -192.776L748.316 -189.286L745.183 -185.281ZM749.499 -190.8L746.899 -194.231L749.993 -197.899L752.54 -194.688L749.499 -190.8ZM753.724 -196.201L751.221 -199.356L754.214 -202.905L756.665 -199.962L753.724 -196.201ZM757.839 -201.463L755.434 -204.351L758.336 -207.791L760.688 -205.107L757.839 -201.463ZM761.847 -206.588L759.541 -209.22L762.318 -212.513L764.574 -210.075L761.847 -206.588ZM765.736 -211.561L763.528 -213.948L766.15 -217.056C766.434 -216.81 766.71 -216.551 766.976 -216.28L768.338 -214.889L765.736 -211.561ZM769.492 -216.364L768.307 -217.575C767.998 -217.89 767.678 -218.19 767.347 -218.476L768.991 -220.424C769.099 -220.553 769.21 -220.679 769.323 -220.802C770.209 -220.437 771.063 -219.97 771.868 -219.402L769.492 -216.364ZM773.015 -220.869C772.31 -221.373 771.571 -221.808 770.807 -222.175C771.311 -222.569 771.84 -222.918 772.389 -223.222C773.12 -223.161 773.848 -223.036 774.563 -222.848L773.015 -220.869ZM775.945 -224.373C775.853 -224.403 775.76 -224.433 775.667 -224.462C775.826 -224.497 775.985 -224.529 776.145 -224.558C776.078 -224.497 776.011 -224.435 775.945 -224.373ZM852.452 362.931C852.672 362.992 852.894 363.045 853.116 363.093L858.257 358.362L865.193 350.14L855.329 359.75L852.452 362.931ZM1103.9 78.3498C1104.09 75.9686 1103.63 73.6441 1102.58 71.5911L1091.45 84.7872L1095.2 88.3863C1095.76 88.9255 1096.27 89.5015 1096.73 90.1086L1100.68 85.7415C1102.56 83.6719 1103.67 81.1165 1103.9 78.3498ZM1093.91 89.7283L1090.25 86.2114L1078.97 99.5864L1083.75 104.466L1095.46 91.5143C1095 90.8798 1094.48 90.2818 1093.91 89.7283ZM1082.5 105.845L1077.76 101.012L1066.84 113.966L1071.04 118.51L1082.5 105.845ZM1069.79 119.893L1065.63 115.397L1055.03 127.964L1058.7 132.152L1069.79 119.893ZM1057.45 133.536L1053.82 129.398L1043.53 141.606L1046.7 145.418L1057.45 133.536ZM1045.45 146.806L1042.31 143.044L1032.3 154.916L1035.01 158.338L1045.45 146.806ZM1033.75 159.738L1031.07 156.369L1021.32 167.935L1023.6 170.951L1033.75 159.738ZM1022.33 172.356L1020.09 169.394L1010.57 180.674L1012.46 183.272L1022.33 172.356ZM1011.18 184.684L1009.34 182.141L1000.05 193.155L1001.56 195.324L1011.18 184.684ZM878.748 334.068L877.475 335.577L875.127 337.864L875.799 337.122L878.748 334.068ZM848.76 369.623L839.085 381.094L835.051 384.61C834.001 385.185 832.879 385.598 831.724 385.844L834.671 382.586L848.76 369.623ZM829.807 387.963C830.337 387.939 830.865 387.885 831.389 387.802L824.595 393.724L829.807 387.963ZM802.222 408.9L824.504 387.19C822.939 386.644 821.446 385.812 820.103 384.687L500.677 116.635C497.186 113.71 495.328 109.257 495.705 104.722C495.941 101.816 497.072 99.0982 498.961 96.8566L697.232 -138.219L694.118 -144.144L473.349 99.9008C471.483 101.963 470.372 104.527 470.145 107.293L470.146 107.285C469.817 111.247 471.32 115.043 474.274 117.701L794.25 405.664C796.535 407.719 799.368 408.789 802.222 408.9ZM695.453 -145.62L698.533 -139.761L702.247 -144.164L699.208 -149.771L695.453 -145.62ZM700.53 -151.232L703.533 -145.69L707.202 -150.04L704.24 -155.334L700.53 -151.232ZM705.557 -156.789L708.483 -151.558L712.101 -155.848L709.217 -160.836L705.557 -156.789ZM710.534 -162.291L713.381 -157.366L716.949 -161.596L714.145 -166.283L710.534 -162.291ZM715.45 -167.726L718.217 -163.099L721.731 -167.265L719.008 -171.659L715.45 -167.726ZM720.308 -173.095L722.993 -168.762L726.438 -172.847L723.798 -176.953L720.308 -173.095ZM725.097 -178.389L727.699 -174.342L731.084 -178.355L728.528 -182.182L725.097 -178.389ZM729.815 -183.605L732.334 -179.836L735.653 -183.772L733.181 -187.326L729.815 -183.605ZM734.458 -188.737L736.891 -185.239L740.132 -189.082L737.746 -192.372L734.458 -188.737ZM739.02 -193.78L741.366 -190.545L744.525 -194.29L742.226 -197.324L739.02 -193.78ZM743.494 -198.726L745.752 -195.745L748.818 -199.38L746.607 -202.167L743.494 -198.726ZM747.877 -203.571L750.046 -200.837L753.01 -204.351L750.888 -206.899L747.877 -203.571ZM752.15 -208.295L754.23 -205.797L757.101 -209.201L755.068 -211.52L752.15 -208.295ZM756.316 -212.9L758.306 -210.629L761.051 -213.884L760.568 -214.405C760.078 -214.936 759.553 -215.423 758.998 -215.865L756.316 -212.9ZM761.943 -215.661L762.261 -215.318L764.667 -218.171C763.896 -218.672 763.078 -219.091 762.225 -219.422C762.127 -219.321 762.03 -219.217 761.935 -219.111L760.247 -217.245C760.845 -216.763 761.412 -216.234 761.943 -215.661ZM763.773 -220.783C764.501 -220.446 765.203 -220.051 765.873 -219.601L767.41 -221.424C766.716 -221.591 766.011 -221.702 765.302 -221.755C764.774 -221.471 764.263 -221.147 763.773 -220.783ZM768.701 -222.996C768.724 -222.989 768.748 -222.982 768.771 -222.975C768.798 -222.966 768.826 -222.957 768.854 -222.948L768.884 -222.975L768.914 -223.003C768.931 -223.018 768.947 -223.033 768.964 -223.048C768.907 -223.037 768.85 -223.026 768.793 -223.015C768.762 -223.009 768.732 -223.002 768.701 -222.996ZM1096.48 93.1729C1097.59 95.3156 1098.08 97.7444 1097.88 100.215C1097.63 103.194 1096.35 106.017 1094.26 108.184L1090.75 111.82C1090.33 111.26 1089.88 110.724 1089.38 110.219L1085.06 105.803L1096.48 93.1729ZM1083.81 107.182L1088.05 111.514C1088.56 112.036 1089.02 112.593 1089.44 113.18L1077.52 125.519L1072.31 119.887L1083.81 107.182ZM1071.06 121.27L1076.23 126.857L1064.61 138.894L1059.94 133.566L1071.06 121.27ZM1058.69 134.95L1063.32 140.233L1052.08 151.874L1047.91 146.868L1058.69 134.95ZM1046.65 148.255L1050.78 153.215L1039.9 164.49L1036.19 159.82L1046.65 148.255ZM1034.92 161.221L1038.59 165.842L1028.02 176.784L1024.75 172.465L1034.92 161.221ZM1023.48 173.87L1026.72 178.14L1016.45 188.773L1013.58 184.816L1023.48 173.87ZM1012.3 186.228L1015.13 190.134L1005.14 200.481L1002.65 196.897L1012.3 186.228ZM1001.37 198.311L1003.83 201.844L994.089 211.929L991.949 208.726L1001.37 198.311ZM990.665 210.146L992.77 213.296L983.272 223.132L981.463 220.318L990.665 210.146ZM833.304 381.321L834.153 380.383L832.063 382.419L831.683 382.813L833.304 381.321ZM812.723 404.073L819.695 396.365L809.859 405.415L807.309 408.057C807.967 407.802 808.608 407.491 809.222 407.124L812.723 404.073ZM805.3 410.543C805.145 410.571 804.99 410.596 804.835 410.619L802.826 412.699L805.3 410.543ZM800.478 410.6L783.475 427.167L778.776 431.491C774.738 432.264 770.395 431.136 767.214 428.08L446.689 120.197C443.844 117.462 442.402 113.64 442.727 109.711L442.718 109.71C442.964 106.731 444.25 103.9 446.327 101.74L690.467 -151.091L693.198 -145.895L471.968 98.6587C469.823 101.033 468.549 103.965 468.287 107.14C467.909 111.683 469.639 116.038 473.023 119.089L793.007 407.053C795.178 409.007 797.784 410.183 800.478 410.6ZM694.533 -147.371L691.833 -152.506L695.608 -156.415L698.27 -151.502L694.533 -147.371ZM699.591 -152.963L696.961 -157.817L700.691 -161.679L703.283 -157.044L699.591 -152.963ZM704.6 -158.5L702.039 -163.076L705.719 -166.886L708.241 -162.525L704.6 -158.5ZM709.558 -163.98L707.069 -168.285L710.699 -172.044L713.149 -167.95L709.558 -163.98ZM714.453 -169.392L712.038 -173.43L715.615 -177.134L717.99 -173.301L714.453 -169.392ZM719.29 -174.738L716.949 -178.516L720.457 -182.149L722.757 -178.571L719.29 -174.738ZM724.056 -180.008L721.791 -183.531L725.24 -187.102L727.464 -183.774L724.056 -180.008ZM728.751 -185.198L726.563 -188.473L729.947 -191.977L732.093 -188.892L728.751 -185.198ZM733.369 -190.303L731.26 -193.336L734.565 -196.759L736.632 -193.909L733.369 -190.303ZM737.905 -195.317L735.875 -198.116L739.097 -201.453L741.084 -198.831L737.905 -195.317ZM742.352 -200.232L740.403 -202.805L743.531 -206.044L745.436 -203.642L742.352 -200.232ZM746.707 -205.046L744.84 -207.4L747.863 -210.531L749.687 -208.341L746.707 -205.046ZM750.949 -209.736L749.201 -211.836L749.165 -211.879L751.855 -214.665C752.554 -214.153 753.216 -213.57 753.829 -212.919L750.949 -209.736ZM755.072 -214.294C754.469 -214.923 753.826 -215.493 753.15 -216.005L754.888 -217.805C754.966 -217.886 755.045 -217.966 755.124 -218.044C755.936 -217.747 756.717 -217.375 757.459 -216.932L755.072 -214.294ZM758.726 -218.333C758.088 -218.735 757.423 -219.089 756.736 -219.395C757.218 -219.736 757.719 -220.041 758.234 -220.31C758.918 -220.263 759.592 -220.166 760.252 -220.02L758.726 -218.333ZM761.766 -221.545L761.763 -221.546L761.768 -221.547L761.766 -221.545ZM1091.86 122.072C1092.07 119.539 1091.56 117.037 1090.43 114.826L1078.79 126.887L1083.57 132.052C1084.01 132.532 1084.42 133.038 1084.8 133.565L1087.84 130.609C1090.17 128.333 1091.59 125.305 1091.86 122.072ZM1082.2 133.309L1077.5 128.225L1065.84 140.298L1071.39 146.632L1083.45 134.88C1083.08 134.33 1082.66 133.805 1082.2 133.309ZM1070.06 147.928L1064.55 141.636L1053.27 153.312L1058.32 159.37L1070.06 147.928ZM1056.99 160.666L1051.98 154.653L1041.06 165.961L1045.64 171.727L1056.99 160.666ZM1044.3 173.033L1039.76 167.313L1029.16 178.285L1033.3 183.747L1044.3 173.033ZM1031.96 185.056L1027.85 179.641L1017.56 190.304L1021.29 195.45L1031.96 185.056ZM1019.94 196.763L1016.24 191.665L1006.23 202.039L1009.58 206.86L1019.94 196.763ZM1008.23 208.174L1004.91 203.402L995.148 213.513L998.146 218L1008.23 208.174ZM996.793 219.318L993.828 214.88L984.307 224.741L986.972 228.887L996.793 219.318ZM985.613 230.212L982.979 226.116L973.68 235.748L976.033 239.545L985.613 230.212ZM786.603 426.813L786.436 426.986L786.039 427.332L786.603 426.813ZM754.682 453.659L776.519 433.567C772.715 433.62 768.888 432.239 765.937 429.406L445.412 121.532C442.161 118.406 440.506 114.044 440.878 109.551C441.152 106.153 442.621 102.916 445.001 100.455L689.557 -152.822L687.159 -157.384L419.321 103.582C416.99 105.85 415.563 108.886 415.293 112.119L415.285 112.118C414.963 116.022 416.352 119.87 419.098 122.675L740.173 450.469C744.053 454.436 749.796 455.507 754.682 453.659ZM688.555 -158.744L690.924 -154.237L694.68 -158.127L692.344 -162.436L688.555 -158.744ZM693.727 -163.784L696.033 -159.529L699.744 -163.372L697.472 -167.432L693.727 -163.784ZM698.851 -168.776L701.093 -164.769L704.752 -168.559L702.546 -172.376L698.851 -168.776ZM703.926 -173.721L706.102 -169.957L709.712 -173.695L707.572 -177.273L703.926 -173.721ZM708.941 -178.607L711.05 -175.081L714.605 -178.763L712.533 -182.107L708.941 -178.607ZM713.899 -183.437L715.939 -180.145L719.424 -183.754L717.421 -186.87L713.899 -183.437ZM718.788 -188.201L720.759 -185.136L724.184 -188.683L722.251 -191.575L718.788 -188.201ZM723.607 -192.897L725.507 -190.054L728.866 -193.532L727.005 -196.208L723.607 -192.897ZM728.351 -197.519L730.178 -194.891L733.457 -198.287L731.669 -200.752L728.351 -197.519ZM733.014 -202.062L734.767 -199.644L737.962 -202.952L736.248 -205.213L733.014 -202.062ZM737.588 -206.519L739.267 -204.304L742.365 -207.513L741.361 -208.778C741.149 -209.046 740.93 -209.305 740.704 -209.555L737.588 -206.519ZM742.831 -209.932L743.674 -208.869L746.601 -211.899C746.006 -212.47 745.37 -212.987 744.698 -213.447L742.042 -210.858C742.313 -210.561 742.577 -210.252 742.831 -209.932ZM746.053 -214.767C746.698 -214.304 747.313 -213.793 747.893 -213.238L750.255 -215.684C749.533 -216.079 748.783 -216.409 748.013 -216.674C747.953 -216.617 747.892 -216.559 747.833 -216.501L746.053 -214.767ZM749.682 -218.012C750.331 -217.737 750.965 -217.418 751.58 -217.056L753.089 -218.619C752.451 -218.748 751.799 -218.834 751.138 -218.875C750.637 -218.619 750.15 -218.331 749.682 -218.012ZM1084.43 136.533C1085.56 138.804 1086.07 141.369 1085.86 143.939C1085.58 147.434 1083.99 150.666 1081.41 153.05L1078.9 155.358C1078.54 154.846 1078.16 154.351 1077.74 153.875L1072.62 148.035L1084.43 136.533ZM1071.29 149.331L1076.34 155.096C1076.77 155.585 1077.16 156.097 1077.52 156.629L1065.35 167.82L1059.51 160.806L1071.29 149.331ZM1058.18 162.102L1063.99 169.075L1052.17 179.955L1046.8 173.193L1058.18 162.102ZM1045.46 174.5L1050.79 181.22L1039.36 191.74L1034.43 185.242L1045.46 174.5ZM1033.09 186.552L1037.98 193.006L1026.91 203.195L1022.39 196.973L1033.09 186.552ZM1021.05 198.287L1025.53 204.465L1014.79 214.347L1010.66 208.409L1021.05 198.287ZM1009.31 209.724L1013.41 215.616L1002.97 225.219L999.197 219.574L1009.31 209.724ZM997.845 220.892L1001.59 226.491L991.436 235.829L988 230.484L997.845 220.892ZM986.64 231.809L990.047 237.108L980.16 246.204L977.037 241.166L986.64 231.809ZM975.672 242.495L978.766 247.487L969.127 256.355L966.3 251.628L975.672 242.495ZM964.924 252.968L967.723 257.647L958.312 266.306L955.762 261.895L964.924 252.968ZM751.853 456.262C747.212 456.86 742.354 455.358 738.841 451.773L417.759 123.969C414.64 120.786 413.062 116.409 413.427 111.965C413.728 108.289 415.357 104.84 418.009 102.257L686.255 -159.104L684.153 -163.103L392.298 105.429C389.713 107.806 388.128 111.045 387.842 114.54L387.841 114.549C387.513 118.436 388.849 122.31 391.504 125.178L713.129 472.883C718.033 478.185 726.133 478.834 731.802 474.608L733.899 472.78L751.853 456.262ZM687.65 -160.464L685.575 -164.412L689.377 -167.91L691.421 -164.139L687.65 -160.464ZM692.805 -165.486L690.787 -169.208L694.545 -172.665L696.53 -169.116L692.805 -165.486ZM697.909 -170.459L695.951 -173.959L699.658 -177.37L701.583 -174.04L697.909 -170.459ZM702.964 -175.385L701.067 -178.666L704.725 -182.032L706.589 -178.916L702.964 -175.385ZM707.958 -180.251L706.123 -183.318L709.727 -186.634L711.528 -183.729L707.958 -180.251ZM712.893 -185.059L711.122 -187.917L714.656 -191.169L716.393 -188.469L712.893 -185.059ZM717.759 -189.801L716.053 -192.454L719.528 -195.651L721.198 -193.151L717.759 -189.801ZM722.554 -194.472L720.914 -196.927L724.323 -200.064L725.927 -197.758L722.554 -194.472ZM727.272 -199.069L725.7 -201.33L729.029 -204.393L730.564 -202.276L727.272 -199.069ZM731.908 -203.586L730.405 -205.659L733.54 -208.544C734.046 -208.036 734.524 -207.488 734.969 -206.901L735.114 -206.71L731.908 -203.586ZM736.454 -208.016L736.451 -208.02C735.97 -208.655 735.453 -209.25 734.907 -209.802L737.539 -212.223C738.177 -211.818 738.791 -211.363 739.372 -210.859L736.454 -208.016ZM740.712 -212.164C740.151 -212.659 739.563 -213.112 738.952 -213.524L740.779 -215.204C740.794 -215.218 740.81 -215.233 740.825 -215.247C740.85 -215.269 740.875 -215.292 740.899 -215.314C741.636 -215.075 742.351 -214.78 743.038 -214.431L740.712 -212.164ZM744.435 -215.792C743.855 -216.114 743.256 -216.402 742.64 -216.653C743.089 -216.945 743.552 -217.21 744.027 -217.447C744.657 -217.414 745.286 -217.34 745.907 -217.226L744.435 -215.792ZM1079.87 165.799C1080.09 163.159 1079.6 160.581 1078.47 158.274L1066.54 169.245L1071.92 175.708C1072.32 176.182 1072.69 176.674 1073.02 177.181L1074.97 175.483C1077.82 172.999 1079.56 169.556 1079.87 165.799ZM1070.49 176.883L1065.18 170.5L1053.32 181.41L1059.39 189.063L1071.61 178.411C1071.27 177.883 1070.9 177.373 1070.49 176.883ZM1057.99 190.288L1051.95 182.675L1040.48 193.223L1046.1 200.645L1057.99 190.288ZM1044.7 201.871L1039.1 194.49L1028 204.705L1033.21 211.885L1044.7 201.871ZM1031.8 213.114L1026.62 205.975L1015.85 215.882L1020.67 222.812L1031.8 213.114ZM1019.26 224.04L1014.47 217.152L1004.01 226.779L1008.47 233.45L1019.26 224.04ZM1007.06 234.68L1002.63 228.051L992.454 237.412L996.573 243.819L1007.06 234.68ZM995.157 245.054L991.065 238.69L981.154 247.809L984.957 253.944L995.157 245.054ZM983.535 255.183L979.76 249.091L970.099 257.98L973.604 263.84L983.535 255.183ZM972.174 265.087L968.696 259.272L959.263 267.951L962.488 273.529L972.174 265.087ZM961.058 274.776L957.859 269.243L948.639 277.726L951.601 283.019L961.058 274.776ZM950.169 284.268L947.233 279.02L938.212 287.32L940.924 292.325L950.169 284.268ZM706.515 496.65L726.957 478.831C721.598 480.04 715.75 478.445 711.763 474.132L390.138 126.427C387.134 123.176 385.616 118.782 385.985 114.379C386.312 110.426 388.109 106.759 391.04 104.062L683.258 -164.804L681.418 -168.306L365.276 107.261C362.422 109.743 360.688 113.179 360.375 116.944L360.367 116.943C360.034 120.871 361.296 124.678 363.897 127.646L686.071 495.271C691.339 501.274 700.499 501.891 706.515 496.65ZM682.865 -169.568L684.681 -166.113L688.465 -169.595L686.678 -172.891L682.865 -169.568ZM688.113 -174.142L689.875 -170.892L693.613 -174.331L691.881 -177.426L688.113 -174.142ZM693.313 -178.674L695.019 -175.625L698.706 -179.017L697.031 -181.915L693.313 -178.674ZM698.466 -183.166L700.115 -180.314L703.751 -183.66L702.134 -186.363L698.466 -183.166ZM703.559 -187.605L705.149 -184.946L708.731 -188.241L707.173 -190.755L703.559 -187.605ZM708.595 -191.995L710.126 -189.525L713.637 -192.755L712.139 -195.084L708.595 -191.995ZM713.564 -196.326L715.033 -194.04L718.483 -197.214L717.048 -199.363L713.564 -196.326ZM718.463 -200.596L719.87 -198.49L723.253 -201.603L722.178 -203.148C722.079 -203.291 721.978 -203.432 721.875 -203.57L718.463 -200.596ZM723.701 -204.204L724.63 -202.87L727.904 -205.883C727.428 -206.457 726.917 -206.994 726.375 -207.493L723.276 -204.792C723.421 -204.599 723.563 -204.403 723.701 -204.204ZM727.784 -208.721C728.308 -208.227 728.805 -207.7 729.273 -207.142L732.145 -209.785C731.583 -210.229 730.996 -210.631 730.388 -210.991L727.784 -208.721ZM731.854 -212.269C732.431 -211.9 732.99 -211.496 733.528 -211.056L735.82 -213.166C735.158 -213.476 734.477 -213.737 733.783 -213.95C733.766 -213.935 733.749 -213.921 733.733 -213.906L731.854 -212.269ZM735.594 -215.284C736.17 -215.059 736.735 -214.802 737.286 -214.515L738.729 -215.843C738.363 -215.904 737.993 -215.951 737.619 -215.985C737.396 -216.006 737.174 -216.021 736.952 -216.032C736.49 -215.809 736.037 -215.56 735.594 -215.284ZM1072.53 180.075C1073.64 182.416 1074.12 185.013 1073.9 187.661C1073.56 191.688 1071.67 195.335 1068.54 197.916L1067.18 199.044C1066.85 198.521 1066.49 198.014 1066.1 197.524L1060.55 190.522L1072.53 180.075ZM1059.14 191.747L1064.64 198.678C1065.04 199.18 1065.41 199.702 1065.73 200.242L1053.49 210.387L1047.23 202.131L1059.14 191.747ZM1045.82 203.358L1052.05 211.576L1040.14 221.442L1034.31 213.397L1045.82 203.358ZM1032.9 214.626L1038.7 222.633L1027.18 232.172L1021.74 224.348L1032.9 214.626ZM1020.33 225.577L1025.75 233.362L1014.59 242.606L1009.51 235.01L1020.33 225.577ZM1008.1 236.239L1013.15 243.796L1002.32 252.762L997.59 245.4L1008.1 236.239ZM996.173 246.635L1000.88 253.957L990.363 262.668L985.95 255.546L996.173 246.635ZM984.528 256.785L988.917 263.866L978.688 272.338L974.575 265.462L984.528 256.785ZM973.144 266.709L977.232 273.544L967.268 281.797L963.437 275.17L973.144 266.709ZM962.006 276.417L965.813 283.002L956.094 291.051L952.529 284.678L962.006 276.417ZM951.097 285.926L954.638 292.257L945.148 300.118L941.833 294.001L951.097 285.926ZM940.397 295.252L943.689 301.326L934.417 309.005L931.338 303.149L940.397 295.252ZM702.44 501.138L680.119 519.626C673.77 524.882 664.312 524.005 659.029 517.669L336.306 130.125C333.786 127.101 332.576 123.275 332.9 119.354L332.907 119.364C333.246 115.329 335.138 111.69 338.262 109.101L678.924 -173.05L680.528 -169.998L364.048 105.864C360.839 108.666 358.866 112.543 358.517 116.791C358.153 121.227 359.569 125.518 362.502 128.867L684.675 496.5C689.205 501.667 696.311 503.292 702.44 501.138ZM681.976 -171.26L680.395 -174.268L684.216 -177.433L685.77 -174.567L681.976 -171.26ZM687.205 -175.818L685.675 -178.641L689.451 -181.769L690.953 -179.085L687.205 -175.818ZM692.385 -180.333L690.907 -182.975L694.633 -186.061L696.082 -183.556L692.385 -180.333ZM697.517 -184.807L696.093 -187.27L699.77 -190.316L701.164 -187.985L697.517 -184.807ZM702.588 -189.227L701.219 -191.516L704.842 -194.517L706.18 -192.358L702.588 -189.227ZM707.602 -193.597L706.289 -195.715L709.841 -198.657L711.122 -196.666L707.602 -193.597ZM712.547 -197.907L711.292 -199.859L714.716 -202.695C715.091 -202.239 715.445 -201.762 715.777 -201.264L716.006 -200.922L712.547 -197.907ZM717.421 -202.156L717.33 -202.291C716.96 -202.844 716.566 -203.374 716.148 -203.881L719.213 -206.419C719.73 -205.979 720.223 -205.507 720.688 -205.003L717.421 -202.156ZM722.087 -206.223C721.635 -206.715 721.159 -207.181 720.662 -207.619L723.241 -209.756C723.82 -209.434 724.379 -209.078 724.915 -208.688L722.087 -206.223ZM726.35 -209.939C725.842 -210.327 725.314 -210.688 724.768 -211.02L726.668 -212.594C727.325 -212.405 727.971 -212.174 728.601 -211.901L726.35 -209.939ZM730.135 -213.238C729.615 -213.494 729.084 -213.723 728.545 -213.927C728.967 -214.18 729.4 -214.412 729.842 -214.621C730.41 -214.598 730.975 -214.544 731.536 -214.46L730.135 -213.238ZM1067.93 209.525C1068.15 206.892 1067.69 204.287 1066.62 201.925L1054.61 211.874L1060.28 219.356C1060.67 219.869 1061.03 220.4 1061.36 220.947L1062.11 220.356C1065.45 217.712 1067.57 213.764 1067.93 209.525ZM1058.79 220.473L1053.18 213.063L1041.24 222.954L1047.63 231.776L1059.88 222.112C1059.55 221.547 1059.19 220.999 1058.79 220.473ZM1046.17 232.932L1039.8 224.145L1028.25 233.708L1034.25 242.336L1046.17 232.932ZM1032.79 243.49L1026.81 234.898L1015.63 244.164L1021.26 252.59L1032.79 243.49ZM1019.8 253.744L1014.19 245.354L1003.34 254.341L1008.62 262.559L1019.8 253.744ZM1007.16 263.716L1001.9 255.536L991.355 264.268L996.315 272.272L1007.16 263.716ZM994.845 273.432L989.908 265.466L979.657 273.957L984.313 281.742L994.845 273.432ZM982.834 282.909L978.201 275.163L968.214 283.434L972.586 290.996L982.834 282.909ZM971.109 292.162L966.76 284.639L957.02 292.706L961.123 300.041L971.109 292.162ZM959.645 301.208L955.564 293.912L946.054 301.789L949.904 308.894L959.645 301.208ZM948.424 310.062L944.595 302.997L935.304 310.693L938.916 317.565L948.424 310.062ZM937.427 318.74L933.836 311.909L687.073 516.293L937.427 318.74ZM653.722 542.61L678.943 522.708C671.981 526.7 662.905 525.239 657.603 518.869L334.88 131.325C332.045 127.922 330.688 123.623 331.049 119.211C331.426 114.676 333.559 110.58 337.07 107.676L678.038 -174.735L676.64 -177.395L311.241 110.932C307.895 113.576 305.774 117.517 305.425 121.765L305.417 121.764C305.094 125.676 306.259 129.53 308.705 132.611L631.979 540.066C637.275 546.751 647.031 547.889 653.722 542.61ZM678.132 -178.573L679.509 -175.953L683.311 -179.103L681.961 -181.594L678.132 -178.573ZM683.442 -182.762L684.77 -180.311L688.527 -183.422L687.226 -185.748L683.442 -182.762ZM688.704 -186.914L689.982 -184.628L693.688 -187.697L692.437 -189.86L688.704 -186.914ZM693.92 -191.03L695.147 -188.906L698.802 -191.933L697.604 -193.937L693.92 -191.03ZM699.076 -195.099L700.251 -193.134L703.851 -196.115L702.986 -197.512C702.892 -197.662 702.797 -197.811 702.7 -197.958L699.076 -195.099ZM704.573 -198.485L705.299 -197.314L708.805 -200.218C708.41 -200.764 707.988 -201.285 707.541 -201.778L704.167 -199.116C704.305 -198.909 704.441 -198.698 704.573 -198.485ZM709.01 -202.938C709.445 -202.452 709.858 -201.944 710.247 -201.413L713.456 -204.07C713.003 -204.514 712.528 -204.932 712.032 -205.322L709.01 -202.938ZM713.527 -206.502C714.001 -206.111 714.457 -205.697 714.893 -205.261L717.685 -207.574C717.171 -207.919 716.637 -208.235 716.087 -208.522L713.527 -206.502ZM717.669 -209.77C718.185 -209.472 718.686 -209.149 719.17 -208.803L721.386 -210.638C720.789 -210.878 720.176 -211.083 719.548 -211.253L717.669 -209.77ZM721.502 -212.584C722.009 -212.401 722.506 -212.195 722.993 -211.969L724.338 -213.083C723.804 -213.155 723.266 -213.2 722.727 -213.218C722.312 -213.026 721.903 -212.815 721.502 -212.584ZM1060.74 223.816C1061.76 226.185 1062.19 228.782 1061.97 231.389C1061.6 235.915 1059.31 240.066 1055.68 242.798L1055.55 242.891C1055.22 242.302 1054.85 241.731 1054.45 241.178L1048.73 233.29L1060.74 223.816ZM1047.27 234.445L1052.94 242.269C1053.35 242.832 1053.72 243.418 1054.05 244.022L1041.83 253.233L1035.32 243.872L1047.27 234.445ZM1033.86 245.026L1040.34 254.352L1028.43 263.329L1022.3 254.148L1033.86 245.026ZM1020.84 255.301L1026.95 264.448L1015.42 273.133L1009.64 264.137L1020.84 255.301ZM1008.17 265.294L1013.93 274.255L1002.76 282.673L997.304 273.869L1008.17 265.294ZM995.834 275.029L1001.27 283.798L990.429 291.966L985.279 283.357L995.834 275.029ZM983.8 284.524L988.928 293.097L978.391 301.038L973.529 292.629L983.8 284.524ZM972.052 293.794L976.893 302.167L966.636 309.896L962.046 301.69L972.052 293.794ZM960.568 302.856L965.138 311.025L955.142 318.558L950.806 310.558L960.568 302.856ZM949.326 311.726L953.641 319.688L943.893 327.034L939.798 319.244L949.326 311.726ZM938.309 320.419L942.384 328.171L627.326 565.586C620.294 570.88 610.249 569.481 604.935 562.472L281.113 135.097C278.739 131.968 277.611 128.086 277.934 124.174L277.941 124.183C278.316 119.665 280.605 115.506 284.227 112.773L674.555 -181.362L675.764 -179.062L310.085 109.487C306.335 112.444 303.963 116.865 303.566 121.62C303.2 126.007 304.513 130.325 307.251 133.774L630.524 541.229C636.457 548.706 647.386 549.977 654.877 544.063L938.309 320.419ZM677.256 -180.239L676.067 -182.502L679.903 -185.392L681.066 -183.245L677.256 -180.239ZM682.547 -184.413L681.403 -186.523L685.194 -189.379L686.311 -187.383L682.547 -184.413ZM687.789 -188.55L686.693 -190.509L690.433 -193.327L691.501 -191.479L687.789 -188.55ZM692.984 -192.649L691.937 -194.46L695.554 -197.187C695.923 -196.687 696.27 -196.166 696.593 -195.627L696.646 -195.539L692.984 -192.649ZM698.117 -196.7C697.781 -197.255 697.421 -197.79 697.04 -198.306L700.376 -200.82C700.805 -200.388 701.215 -199.932 701.605 -199.452L698.117 -196.7ZM703.067 -200.605C702.687 -201.074 702.289 -201.522 701.875 -201.949L704.859 -204.198C705.33 -203.853 705.784 -203.484 706.22 -203.093L703.067 -200.605ZM707.705 -204.265C707.288 -204.651 706.855 -205.018 706.408 -205.365L708.933 -207.268C709.453 -207.014 709.958 -206.734 710.449 -206.43L707.705 -204.265ZM711.989 -207.645C711.53 -207.952 711.058 -208.239 710.574 -208.505L712.443 -209.913C713.033 -209.762 713.611 -209.581 714.175 -209.371L711.989 -207.645ZM715.851 -210.693C715.398 -210.893 714.936 -211.075 714.466 -211.24C714.855 -211.455 715.25 -211.652 715.651 -211.832C716.149 -211.817 716.65 -211.779 717.151 -211.719L715.851 -210.693ZM1056.02 253.262C1056.23 250.682 1055.83 248.106 1054.87 245.739L1042.89 254.763L1048.62 263.001C1049.04 263.601 1049.42 264.222 1049.76 264.861C1053.37 262.036 1055.64 257.844 1056.02 253.262ZM1047.1 264.065L1041.41 255.882L1029.47 264.88L1036.07 274.754L1048.24 265.97C1047.91 265.313 1047.52 264.676 1047.1 264.065ZM1034.56 275.84L1027.98 265.998L1016.43 274.703L1022.67 284.411L1034.56 275.84ZM1021.16 285.5L1014.94 275.825L1003.75 284.262L1009.66 293.8L1021.16 285.5ZM1008.14 294.891L1002.25 285.387L991.39 293.573L996.99 302.934L1008.14 294.891ZM995.469 304.031L989.889 294.704L979.329 302.661L984.637 311.842L995.469 304.031ZM983.12 312.937L977.831 303.79L967.553 311.535L972.587 320.533L983.12 312.937ZM971.069 321.628L966.055 312.664L956.038 320.212L960.814 329.023L971.069 321.628ZM959.294 330.119L954.538 321.343L944.77 328.703L949.302 337.325L959.294 330.119ZM947.775 338.427L943.261 329.84L628.435 567.075C620.588 572.994 609.373 571.43 603.444 563.598L279.622 136.223C276.972 132.728 275.711 128.391 276.075 124.029C276.492 118.979 279.057 114.342 283.1 111.29L673.679 -183.028L672.643 -184.999L257.206 114.604C253.3 117.425 250.835 121.794 250.433 126.589C250.11 130.502 251.203 134.403 253.512 137.583L577.884 584.877C583.212 592.227 593.555 593.887 600.92 588.569L947.775 338.427ZM674.174 -186.103L675.191 -184.167L679.008 -187.043L678.016 -188.873L674.174 -186.103ZM679.535 -189.969L680.508 -188.174L684.279 -191.015L683.808 -191.857C683.649 -192.141 683.484 -192.42 683.313 -192.694L679.535 -189.969ZM685.429 -192.767L685.778 -192.144L689.458 -194.918C689.123 -195.415 688.767 -195.895 688.392 -196.356L684.825 -193.784C685.034 -193.452 685.235 -193.113 685.429 -192.767ZM689.908 -197.449C690.273 -196.997 690.621 -196.528 690.952 -196.043L694.38 -198.627C694.005 -199.045 693.612 -199.445 693.203 -199.826L689.908 -197.449ZM694.739 -200.933C695.131 -200.555 695.508 -200.16 695.871 -199.75L698.978 -202.091C698.56 -202.434 698.129 -202.756 697.686 -203.059L694.739 -200.933ZM699.28 -204.208C699.698 -203.902 700.106 -203.579 700.502 -203.24L703.205 -205.277C702.743 -205.542 702.268 -205.788 701.782 -206.013L699.28 -204.208ZM703.491 -207.245C703.94 -207.008 704.38 -206.755 704.809 -206.485L706.944 -208.095C706.416 -208.277 705.876 -208.436 705.327 -208.569L703.491 -207.245ZM707.412 -209.893C707.846 -209.747 708.273 -209.587 708.692 -209.412L709.952 -210.361C709.487 -210.41 709.022 -210.44 708.558 -210.452C708.17 -210.281 707.788 -210.095 707.412 -209.893ZM1049.02 267.702C1049.92 270.057 1050.29 272.598 1050.08 275.129C1049.7 279.73 1047.49 283.917 1043.97 286.821C1043.62 286.139 1043.23 285.472 1042.79 284.824L1037.1 276.299L1049.02 267.702ZM1035.59 277.386L1041.25 285.852C1041.7 286.529 1042.1 287.227 1042.45 287.944L1030.33 296.323L1023.68 285.976L1035.59 277.386ZM1022.17 287.065L1028.8 297.381L1016.95 305.576L1010.64 295.382L1022.17 287.065ZM1009.12 296.473L1015.42 306.636L1003.95 314.569L997.947 304.534L1009.12 296.473ZM996.426 305.631L1002.41 315.635L991.28 323.332L985.572 313.459L996.426 305.631ZM984.054 314.553L989.743 324.394L978.931 331.872L973.5 322.165L984.054 314.553ZM971.982 323.259L977.395 332.935L966.876 340.209L961.706 330.67L971.982 323.259ZM960.187 331.766L965.339 341.272L955.099 348.354L950.175 338.986L960.187 331.766ZM948.648 340.087L953.554 349.422L574.523 611.554C570.789 614.132 566.272 615.113 561.793 614.305C557.322 613.498 553.429 611.002 550.833 607.274L225.912 140.069C223.667 136.839 222.603 132.908 222.932 129.005L222.925 128.996C223.347 123.913 225.995 119.336 230.185 116.435L670.886 -188.339C670.93 -188.259 670.973 -188.177 671.016 -188.096L671.771 -186.659L256.114 113.101C251.763 116.238 249.022 121.092 248.575 126.436C248.214 130.782 249.432 135.13 252.001 138.673L576.373 585.959C582.308 594.139 593.809 595.987 602.012 590.072L948.648 340.087ZM673.301 -187.763L672.672 -188.961C672.593 -189.111 672.513 -189.26 672.431 -189.408L676.173 -191.996C676.507 -191.518 676.821 -191.024 677.116 -190.515L673.301 -187.763ZM678.63 -191.607C678.338 -192.102 678.028 -192.585 677.702 -193.053L681.217 -195.484C681.579 -195.081 681.926 -194.66 682.258 -194.223L678.63 -191.607ZM683.768 -195.312C683.445 -195.739 683.108 -196.152 682.759 -196.551L686.016 -198.803C686.406 -198.467 686.782 -198.114 687.145 -197.747L683.768 -195.312ZM688.674 -198.85C688.326 -199.212 687.967 -199.56 687.596 -199.896L690.515 -201.915C690.934 -201.646 691.342 -201.361 691.738 -201.06L688.674 -198.85ZM693.309 -202.193C692.936 -202.492 692.552 -202.779 692.159 -203.052L694.62 -204.754C695.075 -204.555 695.522 -204.339 695.961 -204.105L693.309 -202.193ZM697.62 -205.302C697.216 -205.541 696.805 -205.765 696.387 -205.975L698.203 -207.231C698.717 -207.114 699.223 -206.975 699.72 -206.816L697.62 -205.302ZM701.551 -208.136C701.163 -208.29 700.769 -208.432 700.37 -208.562C700.723 -208.745 701.082 -208.915 701.446 -209.073C701.879 -209.065 702.314 -209.041 702.749 -209L701.551 -208.136ZM1044.14 296.995C1044.35 294.474 1044.02 292.002 1043.18 289.682L1031.33 297.878L1036.97 306.648C1037.41 307.339 1037.81 308.049 1038.16 308.776C1041.61 305.799 1043.76 301.613 1044.14 296.995ZM1035.41 307.648L1029.8 298.936L1017.93 307.149L1024.62 317.944L1036.38 310.129C1036.47 310.067 1036.57 310.004 1036.66 309.941C1036.3 309.155 1035.88 308.389 1035.41 307.648ZM1023.07 318.974L1016.4 308.208L1004.9 316.159L1011.27 326.812L1023.07 318.974ZM1009.71 327.847L1003.36 317.224L992.208 324.938L998.282 335.444L1009.71 327.847ZM996.728 336.476L990.672 326L979.838 333.493L985.631 343.849L996.728 336.476ZM984.078 344.881L978.301 334.556L967.762 341.845L973.292 352.047L984.078 344.881ZM971.738 353.08L966.225 342.908L955.966 350.003L961.247 360.05L971.738 353.08ZM959.686 361.088L954.421 351.071L575.587 613.078C571.444 615.943 566.427 617.027 561.462 616.132C556.49 615.228 552.177 612.456 549.302 608.328L224.38 141.123C221.891 137.54 220.715 133.181 221.075 128.844C221.543 123.204 224.478 118.126 229.129 114.912L669.927 -189.943C669.636 -190.385 669.329 -190.815 669.009 -191.232L203.171 118.276C198.69 121.256 195.858 126.041 195.417 131.41L195.424 131.419C195.087 135.38 196.094 139.238 198.312 142.554L523.782 629.679C526.39 633.566 530.346 636.219 534.944 637.133C539.543 638.047 544.225 637.128 548.126 634.538L959.686 361.088ZM670.568 -192.268C670.88 -191.859 671.178 -191.438 671.464 -191.005L675.039 -193.478C674.721 -193.858 674.39 -194.225 674.046 -194.579L670.568 -192.268ZM675.618 -195.623C675.947 -195.273 676.266 -194.911 676.573 -194.539L679.889 -196.832C679.543 -197.152 679.187 -197.459 678.821 -197.752L675.618 -195.623ZM680.442 -198.828C680.788 -198.535 681.126 -198.231 681.455 -197.915L684.477 -200.005C684.105 -200.266 683.724 -200.515 683.334 -200.75L680.442 -198.828ZM685.034 -201.879C685.397 -201.64 685.753 -201.389 686.101 -201.128L688.715 -202.936C688.309 -203.138 687.895 -203.326 687.473 -203.5L685.034 -201.879ZM689.303 -204.716C689.688 -204.531 690.066 -204.334 690.437 -204.127L692.476 -205.537C692.015 -205.675 691.549 -205.794 691.079 -205.896L689.303 -204.716ZM693.309 -207.222C693.669 -207.109 694.025 -206.986 694.379 -206.853L695.519 -207.642C695.123 -207.673 694.728 -207.691 694.333 -207.696C693.988 -207.549 693.646 -207.391 693.309 -207.222ZM1037.36 311.709C1038.12 313.989 1038.41 316.403 1038.21 318.855C1037.83 323.489 1035.73 327.683 1032.36 330.725C1032 329.955 1031.6 329.202 1031.14 328.47L1025.6 319.522L1037.36 311.709ZM1024.05 320.553L1029.56 329.453C1030.06 330.256 1030.49 331.086 1030.86 331.939C1030.56 332.155 1030.26 332.362 1029.95 332.561L1018.93 339.606L1012.23 328.406L1024.05 320.553ZM1010.67 329.442L1017.35 340.614L1005.61 348.121L999.212 337.054L1010.67 329.442ZM997.659 338.086L1004.04 349.124L992.655 356.404L986.54 345.474L997.659 338.086ZM984.987 346.506L991.085 357.407L980.028 364.477L974.18 353.686L984.987 346.506ZM972.626 354.718L978.459 365.48L967.713 372.351L962.115 361.702L972.626 354.718ZM960.554 362.739L966.136 373.359L521.714 657.512C513.316 662.881 502.114 660.434 496.725 652.058L170.705 145.022C168.542 141.663 167.571 137.785 167.902 133.807L167.901 133.815C168.37 128.16 171.378 123.166 176.157 120.108L666.853 -193.63C667.183 -193.315 667.504 -192.989 667.813 -192.652L202.159 116.733C197.192 120.032 194.072 125.326 193.575 131.259C193.217 135.647 194.314 139.905 196.767 143.582L522.246 630.7C525.115 635.009 529.507 637.94 534.589 638.957C539.671 639.966 544.853 638.953 549.163 636.084L960.554 362.739ZM669.387 -193.697C669.09 -194.029 668.784 -194.351 668.469 -194.663L671.648 -196.696C671.996 -196.434 672.336 -196.16 672.667 -195.877L669.387 -193.697ZM674.269 -196.941C673.956 -197.222 673.635 -197.494 673.307 -197.757L676.141 -199.569C676.51 -199.36 676.872 -199.139 677.228 -198.907L674.269 -196.941ZM678.903 -200.02C678.572 -200.253 678.236 -200.476 677.895 -200.69L680.312 -202.236C680.709 -202.081 681.1 -201.914 681.484 -201.735L678.903 -200.02ZM683.272 -202.923C682.924 -203.107 682.569 -203.283 682.209 -203.449L683.964 -204.571C684.249 -204.512 684.534 -204.446 684.818 -204.374C684.971 -204.336 685.123 -204.295 685.275 -204.253L683.272 -202.923ZM687.256 -205.57C686.931 -205.686 686.602 -205.794 686.269 -205.895C686.581 -206.046 686.897 -206.188 687.215 -206.321C687.586 -206.319 687.957 -206.305 688.327 -206.281L687.256 -205.57ZM1032.28 340.732C1032.48 338.348 1032.22 335.992 1031.53 333.755C1031.34 333.885 1031.15 334.012 1030.95 334.136L1019.89 341.212L1025.31 350.285C1025.78 351.063 1026.19 351.864 1026.55 352.682C1029.82 349.566 1031.9 345.307 1032.28 340.732ZM1023.71 351.248L1018.31 342.219L1006.55 349.741L1013.25 361.342L1023.51 355.019C1024.05 354.69 1024.56 354.334 1025.06 353.956C1024.68 353.027 1024.23 352.122 1023.71 351.248ZM1011.67 362.319L1004.98 350.744L993.569 358.038L999.99 369.515L1011.67 362.319ZM998.405 370.492L992 359.042L980.921 366.125L987.073 377.475L998.405 370.492ZM985.489 378.451L979.352 367.128L968.586 374.012L974.484 385.233L985.489 378.451ZM972.893 386.213L967.009 375.02L522.722 659.079C513.462 664.992 501.1 662.298 495.159 653.059L169.139 146.023C166.748 142.312 165.677 138.041 166.044 133.654C166.562 127.418 169.883 121.909 175.158 118.534L665.392 -194.902C665.085 -195.146 664.771 -195.381 664.451 -195.607L149.153 121.934C144.147 125.02 140.872 130.361 140.385 136.221C140.054 140.198 140.997 144.106 143.104 147.508L469.682 674.464C472.29 678.682 476.406 681.636 481.248 682.78C486.082 683.923 491.08 683.118 495.316 680.504L972.893 386.213ZM666.166 -196.664C666.466 -196.437 666.76 -196.202 667.048 -195.961L669.974 -197.832C669.649 -198.029 669.318 -198.219 668.981 -198.399L666.166 -196.664ZM670.783 -199.51C671.093 -199.325 671.398 -199.133 671.697 -198.933L674.204 -200.536C673.853 -200.688 673.499 -200.83 673.141 -200.963L670.783 -199.51ZM675.105 -202.173C675.426 -202.03 675.744 -201.88 676.059 -201.722L678.017 -202.974C677.625 -203.075 677.231 -203.164 676.837 -203.24L675.105 -202.173ZM679.223 -204.568C679.512 -204.483 679.799 -204.392 680.084 -204.296L681.095 -204.942C680.778 -204.959 680.46 -204.968 680.143 -204.969C679.834 -204.844 679.527 -204.71 679.223 -204.568ZM1025.69 355.797C1026.32 357.993 1026.55 360.291 1026.36 362.608C1025.98 367.197 1023.94 371.456 1020.73 374.637C1020.37 373.773 1019.95 372.928 1019.48 372.107L1014.18 362.949L1024.49 356.598C1024.9 356.345 1025.3 356.078 1025.69 355.797ZM1012.6 363.925L1017.87 373.044C1018.41 373.984 1018.87 374.958 1019.25 375.957C1018.56 376.509 1017.83 377.017 1017.07 377.475L1007.59 383.109L1000.9 371.136L1012.6 363.925ZM999.312 372.112L1006 384.059L994.384 390.965L987.958 379.108L999.312 372.112ZM986.374 380.084L992.786 391.916L981.519 398.617L975.349 386.878L986.374 380.084ZM973.758 387.858L979.914 399.571L468.901 703.495C464.501 706.104 459.344 706.855 454.383 705.606C449.414 704.355 445.235 701.244 442.607 696.858L115.488 149.992C113.427 146.546 112.511 142.617 112.844 138.631L112.853 138.624C113.361 132.469 116.837 126.914 122.142 123.758L661.796 -197.206C662.105 -197.049 662.41 -196.885 662.71 -196.714L148.171 120.353C142.663 123.74 139.064 129.619 138.528 136.06C138.163 140.438 139.198 144.73 141.518 148.473L468.097 675.421C470.972 680.07 475.498 683.316 480.822 684.57C486.155 685.826 491.651 684.944 496.3 682.068L973.758 387.858ZM664.498 -197.816C664.224 -197.989 663.945 -198.155 663.663 -198.316L666.002 -199.707C666.329 -199.593 666.653 -199.471 666.972 -199.341L664.498 -197.816ZM668.89 -200.522C668.605 -200.658 668.317 -200.787 668.026 -200.911L669.696 -201.905C670.056 -201.839 670.413 -201.764 670.768 -201.68L668.89 -200.522ZM672.922 -203.007C672.67 -203.089 672.416 -203.166 672.16 -203.239C672.44 -203.367 672.723 -203.488 673.007 -203.602C673.292 -203.603 673.577 -203.598 673.862 -203.587L672.922 -203.007ZM1020.45 384.479C1020.63 382.228 1020.43 379.99 1019.86 377.841C1019.27 378.277 1018.67 378.684 1018.03 379.061L1008.5 384.73L1013.65 393.929C1014.13 394.795 1014.56 395.686 1014.92 396.596C1018.08 393.36 1020.06 389.091 1020.45 384.479ZM1012.03 394.84L1006.9 385.68L995.27 392.599L1001.94 404.914L1010.64 399.916C1011.64 399.342 1012.58 398.686 1013.45 397.96C1013.06 396.89 1012.59 395.847 1012.03 394.84ZM1000.33 405.84L993.672 393.55L982.384 400.263L988.8 412.469L1000.33 405.84ZM987.183 413.398L980.78 401.217L469.865 705.089C465.043 707.959 459.389 708.78 453.94 707.402C448.49 706.032 443.902 702.621 441.023 697.806L113.903 150.94C111.646 147.155 110.639 142.842 111.003 138.472C111.561 131.728 115.369 125.636 121.193 122.173L659.724 -198.122C659.435 -198.232 659.144 -198.336 658.849 -198.434L95.1204 125.589C89.5171 128.815 85.8487 134.586 85.3126 141.027L85.3196 141.036C84.9947 145.031 85.8829 148.981 87.8966 152.47L415.565 719.256C420.997 728.654 433.083 731.892 442.504 726.479L987.183 413.398ZM660.946 -199.639C661.206 -199.533 661.463 -199.422 661.717 -199.308L663.558 -200.402C663.24 -200.473 662.921 -200.535 662.601 -200.591L660.946 -199.639ZM665.567 -201.797C665.641 -201.775 665.715 -201.752 665.789 -201.729L666.624 -202.226C666.379 -202.233 666.134 -202.235 665.888 -202.233C665.637 -202.134 665.386 -202.03 665.138 -201.92C665.281 -201.88 665.424 -201.839 665.567 -201.797ZM1014.02 399.872C1014.54 401.977 1014.72 404.16 1014.54 406.349C1014.15 410.984 1012.21 415.263 1009.1 418.553C1008.74 417.597 1008.31 416.661 1007.82 415.752L1002.83 406.54L1011.57 401.515C1012.43 401.02 1013.25 400.47 1014.02 399.872ZM1001.21 407.467L1006.18 416.637C1006.77 417.709 1007.25 418.821 1007.63 419.962C1006.58 420.866 1005.44 421.67 1004.2 422.356L996.305 426.748L989.661 414.108L1001.21 407.467ZM988.044 415.037L994.676 427.654L416.107 749.463C411.373 752.096 405.901 752.725 400.687 751.253C395.473 749.781 391.151 746.362 388.508 741.643L60.2889 154.947C58.3211 151.422 57.4524 147.449 57.7794 143.438C58.3364 136.702 62.1986 130.708 68.1073 127.421L655.475 -199.268C655.756 -199.222 656.036 -199.17 656.316 -199.113L94.1983 123.992C88.0601 127.522 84.0497 133.836 83.4697 140.884C83.1136 145.255 84.0785 149.579 86.2899 153.4L413.958 720.185C419.907 730.468 433.135 734.024 443.44 728.095L988.044 415.037ZM658.639 -200.448L659.412 -200.893C659.212 -200.896 659.012 -200.896 658.812 -200.894C658.571 -200.802 658.331 -200.704 658.092 -200.601C658.274 -200.553 658.457 -200.501 658.639 -200.448ZM1008.63 428.211C1008.8 426.091 1008.65 423.972 1008.18 421.92C1007.22 422.683 1006.2 423.372 1005.11 423.977L997.171 428.394L1002 437.576C1002.5 438.525 1002.93 439.502 1003.29 440.5C1006.34 437.161 1008.24 432.87 1008.63 428.211ZM1000.34 438.433L995.541 429.3L416.995 751.073C411.834 753.941 405.856 754.638 400.164 753.023C394.471 751.415 389.75 747.69 386.864 742.535L58.6457 155.838C56.4954 151.992 55.5499 147.646 55.9143 143.276C56.5254 135.918 60.7377 129.381 67.1976 125.792L652.139 -199.548C651.995 -199.548 651.852 -199.548 651.709 -199.545C650.845 -199.218 649.998 -198.831 649.172 -198.385L41.1033 129.247C34.88 132.601 30.8181 138.801 30.239 145.84L30.2379 145.848C29.9028 149.859 30.7512 153.862 32.6811 157.423L361.449 764.039C366.91 774.12 379.583 777.886 389.694 772.445L997.764 444.797C999.241 444.003 1000.6 443.048 1001.81 441.959C1001.43 440.75 1000.94 439.57 1000.34 438.433ZM1002.34 443.961C1001.2 444.895 999.971 445.726 998.647 446.439L390.569 774.086C379.561 780.017 365.749 775.908 359.799 764.922L31.0308 158.306C28.9263 154.424 28.0166 150.058 28.3727 145.686C29.0139 138.026 33.4364 131.268 40.2098 127.62L645.463 -198.503C644.324 -198.132 643.209 -197.663 642.127 -197.096L14.0972 131.088C7.56943 134.494 3.3057 140.917 2.69764 148.251L2.68953 148.25C2.35326 152.268 3.17305 156.301 5.06536 159.899L334.383 786.426C337.042 791.478 341.508 795.196 346.966 796.897C352.432 798.6 358.221 798.077 363.288 795.429L991.325 467.254C997.846 463.838 1002.11 457.423 1002.72 450.082C1002.89 448.022 1002.76 445.963 1002.34 443.961Z" fill="white"/>
</svg>
