<svg width="32" height="32" viewBox="0 0 32 32" fill="none" xmlns="http://www.w3.org/2000/svg">
<path d="M6.625 31L14.125 11L6.625 31ZM17.875 11L20.65 18.3983L17.875 11ZM22.4294 23.1433L25.375 31L22.4294 23.1433ZM12.25 7.66667C12.25 8.55072 12.6451 9.39857 13.3484 10.0237C14.0516 10.6488 15.0054 11 16 11C16.9946 11 17.9484 10.6488 18.6516 10.0237C19.3549 9.39857 19.75 8.55072 19.75 7.66667C19.75 6.78261 19.3549 5.93476 18.6516 5.30964C17.9484 4.68452 16.9946 4.33333 16 4.33333C15.0054 4.33333 14.0516 4.68452 13.3484 5.30964C12.6451 5.93476 12.25 6.78261 12.25 7.66667ZM1 16C3.86125 20.925 9.6025 24.3333 16 24.3333C22.3937 24.3333 28.1369 20.92 31 16M16 4.33333V1V4.33333Z" fill="#007ADA"/>
<path d="M6.625 31L14.125 11M17.875 11L20.65 18.3983M22.4294 23.1433L25.375 31M16 4.33333C16.9946 4.33333 17.9484 4.68452 18.6516 5.30964C19.3549 5.93477 19.75 6.78261 19.75 7.66667C19.75 8.55072 19.3549 9.39857 18.6516 10.0237C17.9484 10.6488 16.9946 11 16 11C15.0054 11 14.0516 10.6488 13.3484 10.0237C12.6451 9.39857 12.25 8.55072 12.25 7.66667C12.25 6.78261 12.6451 5.93477 13.3484 5.30964C14.0516 4.68452 15.0054 4.33333 16 4.33333ZM16 4.33333V1M1 16C3.86125 20.925 9.6025 24.3333 16 24.3333C22.3938 24.3333 28.1369 20.92 31 16" stroke="#007ADA" stroke-width="2" stroke-linecap="round" stroke-linejoin="round"/>
</svg>
