<svg width="38" height="38" viewBox="0 0 38 38" fill="none" xmlns="http://www.w3.org/2000/svg">
<g clip-path="url(#clip0_4371_4553)">
<path d="M29.7945 0.763672H7.70545C3.73354 0.763672 0.513672 3.98354 0.513672 7.95545V30.0445C0.513672 34.0164 3.73354 37.2363 7.70545 37.2363H29.7945C33.7664 37.2363 36.9863 34.0164 36.9863 30.0445V7.95545C36.9863 3.98354 33.7664 0.763672 29.7945 0.763672Z" fill="black" stroke="black" stroke-width="16.4384"/>
<path d="M30.9792 12.2849C29.7407 10.1628 28.0607 8.48277 25.9388 7.24437C23.8167 6.00591 21.4999 5.38684 18.9868 5.38684C16.4741 5.38684 14.1565 6.0061 12.0348 7.24437C9.91269 8.48271 8.23278 10.1628 6.99425 12.2849C5.75592 14.4069 5.13672 16.7241 5.13672 19.2365C5.13672 22.2545 6.01723 24.9684 7.77869 27.3788C9.53996 29.7894 11.8153 31.4574 14.6044 32.3831C14.9291 32.4434 15.1694 32.401 15.3257 32.257C15.482 32.1129 15.5601 31.9324 15.5601 31.7162C15.5601 31.6801 15.557 31.3557 15.551 30.7424C15.5448 30.1291 15.5419 29.5941 15.5419 29.1377L15.1271 29.2094C14.8626 29.2579 14.529 29.2784 14.1262 29.2726C13.7236 29.267 13.3056 29.2248 12.8729 29.1463C12.44 29.0686 12.0373 28.8882 11.6646 28.6057C11.292 28.3232 11.0275 27.9533 10.8712 27.4968L10.6909 27.0818C10.5707 26.8055 10.3814 26.4986 10.1229 26.1622C9.86437 25.8255 9.60293 25.5972 9.33847 25.477L9.2122 25.3866C9.12807 25.3265 9.04999 25.2541 8.9778 25.17C8.90566 25.0859 8.85166 25.0018 8.81559 24.9175C8.77946 24.8332 8.8094 24.764 8.90573 24.7098C9.00205 24.6555 9.17613 24.6292 9.42873 24.6292L9.78927 24.6831C10.0297 24.7313 10.3272 24.8752 10.682 25.1158C11.0366 25.3562 11.3281 25.6687 11.5565 26.0533C11.8332 26.5463 12.1665 26.922 12.5574 27.1806C12.948 27.4391 13.3419 27.5682 13.7385 27.5682C14.1352 27.5682 14.4778 27.5381 14.7665 27.4783C15.0548 27.4181 15.3254 27.3278 15.578 27.2076C15.6862 26.4018 15.9808 25.7827 16.4615 25.35C15.7763 25.2779 15.1602 25.1695 14.6131 25.0253C14.0662 24.8809 13.5011 24.6466 12.918 24.3216C12.3347 23.9972 11.8508 23.5942 11.4662 23.1136C11.0815 22.6326 10.7659 22.0012 10.5196 21.22C10.2732 20.4384 10.1499 19.5368 10.1499 18.5149C10.1499 17.0599 10.6249 15.8218 11.5747 14.7998C11.1298 13.7059 11.1718 12.4796 11.7009 11.1211C12.0495 11.0128 12.5666 11.094 13.2518 11.3644C13.9371 11.635 14.4389 11.8667 14.7576 12.0589C15.0764 12.251 15.3317 12.4137 15.5241 12.5457C16.6425 12.2333 17.7965 12.077 18.9867 12.077C20.1768 12.077 21.3311 12.2333 22.4495 12.5457L23.1348 12.1131C23.6034 11.8245 24.1568 11.5599 24.7936 11.3195C25.4308 11.0791 25.9181 11.0129 26.2549 11.1213C26.7957 12.4799 26.8439 13.7061 26.3988 14.8C27.3485 15.8219 27.8237 17.0604 27.8237 18.5151C27.8237 19.537 27.7001 20.4414 27.454 21.229C27.2077 22.0167 26.8893 22.6475 26.4987 23.1226C26.1076 23.5977 25.6206 23.9974 25.0376 24.3218C24.4545 24.6465 23.8892 24.8808 23.3423 25.0252C22.7952 25.1696 22.1791 25.2781 21.4939 25.3503C22.1189 25.8911 22.4314 26.7447 22.4314 27.9109V31.7157C22.4314 31.9319 22.5066 32.1123 22.657 32.2565C22.8073 32.4005 23.0446 32.4429 23.3693 32.3825C26.1588 31.457 28.4341 29.7889 30.1953 27.3783C31.9563 24.9679 32.8371 22.254 32.8371 19.236C32.8365 16.7239 32.217 14.4069 30.9792 12.2849Z" fill="white"/>
</g>
<defs>
<clipPath id="clip0_4371_4553">
<rect y="0.25" width="37.5" height="37.5" rx="6" fill="white"/>
</clipPath>
</defs>
</svg>
