<svg width="38" height="38" viewBox="0 0 38 38" fill="none" xmlns="http://www.w3.org/2000/svg">
<rect y="0.25" width="37.5" height="37.5" rx="6" fill="#F2F2F2"/>
<path fill-rule="evenodd" clip-rule="evenodd" d="M10.9012 19.0001C10.9012 18.1233 11.05 17.2826 11.3156 16.494L6.66656 13.0196C5.76049 14.82 5.25 16.8487 5.25 19.0001C5.25 21.1497 5.75986 23.1772 6.66468 24.9764L11.3112 21.4952C11.0481 20.7104 10.9012 19.8727 10.9012 19.0001Z" fill="#FBBC05"/>
<path fill-rule="evenodd" clip-rule="evenodd" d="M19.0635 11.0227C21.01 11.0227 22.7681 11.6977 24.1495 12.8023L28.1681 8.87497C25.7193 6.78859 22.5797 5.49994 19.0635 5.49994C13.6044 5.49994 8.91267 8.55526 6.66602 13.0195L11.3151 16.4939C12.3863 13.3116 15.4398 11.0227 19.0635 11.0227Z" fill="#EB4335"/>
<path fill-rule="evenodd" clip-rule="evenodd" d="M19.0635 26.9775C15.4398 26.9775 12.3863 24.6886 11.3151 21.5062L6.66602 24.9801C8.91267 29.4449 13.6044 32.5002 19.0635 32.5002C22.4328 32.5002 25.6496 31.3294 28.0639 29.1356L23.651 25.7968C22.4058 26.5645 20.8379 26.9775 19.0635 26.9775Z" fill="#34A853"/>
<path fill-rule="evenodd" clip-rule="evenodd" d="M32.2505 19.0001C32.2505 18.2024 32.125 17.3433 31.9366 16.5455H19.0645V21.7615H26.4738C26.1033 23.5398 25.0949 24.907 23.652 25.7968L28.0649 29.1356C30.601 26.832 32.2505 23.4005 32.2505 19.0001Z" fill="#4285F4"/>
</svg>
