<svg width="38" height="38" viewBox="0 0 38 38" fill="none" xmlns="http://www.w3.org/2000/svg">
<path d="M32.453 32.2031H26.8968V23.5C26.8968 21.425 26.8593 18.7531 24.0062 18.7531C21.1124 18.7531 20.6687 21.0156 20.6687 23.3468V32.2031H15.1124V14.3062H20.4468V16.7531H20.5218C21.6093 14.8969 23.6343 13.7844 25.7843 13.8625C31.4155 13.8625 32.4561 17.5656 32.4561 22.3875L32.453 32.1999V32.2031ZM8.84372 11.8594C7.9902 11.8553 7.17277 11.5146 6.56894 10.9114C5.96512 10.3081 5.62366 9.49103 5.61873 8.63752C5.61873 6.86877 7.07498 5.41253 8.84372 5.41253C10.6125 5.41253 12.0656 6.86877 12.0687 8.63752C12.0687 10.4063 10.6125 11.8594 8.84372 11.8594ZM11.6218 32.2031H6.05935V14.3062H11.6218V32.2031ZM35.2186 0.250046H3.26561C2.54109 0.245838 1.84417 0.527732 1.32632 1.03447C0.808464 1.54121 0.511515 2.23184 0.5 2.95629V35.0437C0.511515 35.7681 0.808464 36.4587 1.32632 36.9655C1.84417 37.4722 2.54109 37.7541 3.26561 37.7499H35.2217C35.9479 37.7558 36.6471 37.4748 37.1673 36.9681C37.6875 36.4613 37.9867 35.7698 37.9999 35.0437V2.95316C37.9867 2.22762 37.6873 1.53669 37.1669 1.03095C36.6466 0.525198 35.9474 0.24563 35.2217 0.253171L35.2186 0.250046Z" fill="#0A66C2"/>
</svg>
