<svg width="22" height="15" viewBox="0 0 22 15" fill="none" xmlns="http://www.w3.org/2000/svg">
<path d="M15.6182 2.15947C15.8895 2.05886 16.183 2.00391 16.4893 2.00391C17.8735 2.00391 18.9956 3.126 18.9956 4.51017C18.9956 5.89433 17.8735 7.01643 16.4893 7.01643C16.183 7.01643 15.8895 6.9615 15.6182 6.86085" stroke="#007AD9" stroke-linecap="round"/>
<path d="M16.9902 10.0234C19.3993 10.1187 20.5283 10.6633 21.0003 12.0284" stroke="#007AD9" stroke-linecap="round"/>
<path d="M4.48926 14.0329C5.18236 11.7199 6.96543 11.0254 11.0055 11.0254C15.0456 11.0254 16.8287 11.7199 17.5218 14.0329" stroke="#007AD9" stroke-linecap="round"/>
<path d="M14.5146 4.50877C14.5146 6.44661 12.9437 8.01754 11.0058 8.01754C9.068 8.01754 7.49707 6.44661 7.49707 4.50877C7.49707 2.57093 9.068 1 11.0058 1C12.9437 1 14.5146 2.57093 14.5146 4.50877Z" stroke="#007AD9"/>
<path d="M6.38281 2.26689C6.11143 2.16629 5.818 2.11133 5.51164 2.11133C4.12748 2.11133 3.00537 3.23342 3.00537 4.61759C3.00537 6.00175 4.12748 7.12386 5.51164 7.12386C5.818 7.12386 6.11143 7.06892 6.38281 6.96827" stroke="#007AD9" stroke-linecap="round"/>
<path d="M5.00977 10.1309C2.60074 10.2261 1.47172 10.7708 0.999743 12.1359" stroke="#007AD9" stroke-linecap="round"/>
</svg>
