<svg xmlns="http://www.w3.org/2000/svg" fill="none" viewBox="0.54 14.1 101.36 45.27">
<path d="M18.8781 27.3125V50.0151C18.8781 51.5927 17.5991 52.8717 16.0215 52.8717V52.8717V32.8002L10.7091 44.7279H8.72955L3.39217 32.8002V48.2081H3.18057C1.71977 48.2081 0.535553 47.0239 0.535553 45.5631V27.3125H3.6177L9.73187 40.9692L15.821 27.3125H18.8781Z" fill="#007AD9"/>
<path d="M59.3227 39.8918L59.3706 39.9479H59.4445H61.4927H61.8442L61.6136 39.6827L57.0125 34.3918C57.7226 34.2262 58.2744 33.9485 58.6513 33.5469C59.0769 33.0966 59.2973 32.588 59.2973 32.0257C59.2973 31.5489 59.1441 31.1162 58.8421 30.7325C58.5476 30.3457 58.1027 30.0466 57.5224 29.8273C56.9467 29.6058 56.2483 29.4981 55.4322 29.4981H51.8175H51.6574V29.6582V36.4552C51.6574 37.1587 52.2277 37.729 52.9312 37.729H53.5345H53.6946V37.5688V34.5647H54.771L59.3227 39.8918ZM56.7834 32.8754L56.7833 32.8754L56.7815 32.8768C56.5002 33.0894 56.0592 33.2087 55.4322 33.2087H53.6946V30.8769H55.4322C56.0707 30.8769 56.5172 30.9929 56.7985 31.1988L56.7985 31.1988L56.8005 31.2003C57.0774 31.3965 57.2149 31.6654 57.2149 32.0257C57.2149 32.3843 57.0737 32.6627 56.7834 32.8754Z" fill="#007AD9" stroke="#007AD9" stroke-width="0.320289"/>
<path d="M42.293 37.2824L42.293 37.2824L42.2948 37.2832C43.1393 37.6334 44.059 37.8076 45.0521 37.8076C46.0549 37.8076 46.9749 37.6335 47.81 37.2829L47.8105 37.2827C48.6553 36.9245 49.3267 36.427 49.8179 35.7872L49.8184 35.7865C50.3113 35.1367 50.5589 34.4047 50.5589 33.5954C50.5589 32.7861 50.3112 32.0575 49.8179 31.4149C49.3266 30.7751 48.6551 30.2813 47.8102 29.9307C46.9751 29.5724 46.055 29.3945 45.0521 29.3945C44.0587 29.3945 43.1387 29.5726 42.2939 29.9307C41.4589 30.2814 40.7881 30.7749 40.2873 31.4136L40.2873 31.4136L40.2863 31.4149C39.7929 32.0575 39.5453 32.7861 39.5453 33.5954C39.5453 34.4047 39.7929 35.1367 40.2857 35.7865L40.2857 35.7865L40.2873 35.7885C40.7879 36.427 41.4584 36.9242 42.293 37.2824ZM48.0375 32.1492L48.0375 32.1492L48.0389 32.1512C48.3295 32.562 48.4764 33.0413 48.4764 33.5954C48.4764 34.1494 48.3295 34.633 48.0382 35.0519L48.0375 35.0529C47.755 35.4657 47.358 35.7891 46.84 36.0212C46.3213 36.2461 45.7263 36.3605 45.0521 36.3605C44.3779 36.3605 43.7829 36.2461 43.2642 36.0212C42.7465 35.7892 42.344 35.4658 42.0512 35.0524C41.77 34.6337 41.6277 34.1499 41.6277 33.5954C41.6277 33.0406 41.7701 32.561 42.0509 32.1502C42.3435 31.7368 42.7458 31.4172 43.2633 31.1927C43.7822 30.9675 44.3775 30.8531 45.0521 30.8531C45.7267 30.8531 46.3219 30.9675 46.8408 31.1927C47.3585 31.4172 47.7552 31.7366 48.0375 32.1492Z" fill="#007AD9" stroke="#007AD9" stroke-width="0.320289"/>
<path d="M39.9101 30.7167H40.0702C40.0702 30.0437 39.5246 29.4981 38.8515 29.4981H33.664C32.991 29.4981 32.4454 30.0437 32.4454 30.7167H32.6055V30.8769H35.2467V38.8321V38.9923H35.4068H37.1238H37.2839V38.8321V30.8769H39.9101V30.7167Z" fill="#007AD9" stroke="#007AD9" stroke-width="0.320289"/>
<path d="M23.9172 37.2824L23.9172 37.2824L23.9191 37.2832C24.7636 37.6334 25.6833 37.8076 26.6763 37.8076C27.6791 37.8076 28.5992 37.6335 29.4342 37.2829L29.4347 37.2827C30.2796 36.9245 30.9509 36.427 31.4421 35.7872L31.4427 35.7865C31.9355 35.1367 32.1831 34.4047 32.1831 33.5954C32.1831 32.7861 31.9355 32.0575 31.4421 31.4149C30.9509 30.7751 30.2794 30.2813 29.4345 29.9307C28.5993 29.5724 27.6792 29.3945 26.6763 29.3945C25.6829 29.3945 24.7629 29.5726 23.9182 29.9307C23.0831 30.2814 22.4123 30.7749 21.9115 31.4136L21.9115 31.4136L21.9105 31.4149C21.4172 32.0575 21.1695 32.7861 21.1695 33.5954C21.1695 34.4047 21.4171 35.1367 21.9099 35.7865L21.9099 35.7865L21.9115 35.7885C22.4121 36.427 23.0826 36.9242 23.9172 37.2824ZM29.6618 32.1492L29.6618 32.1492L29.6632 32.1512C29.9537 32.562 30.1007 33.0413 30.1007 33.5954C30.1007 34.1494 29.9537 34.633 29.6624 35.0519L29.6618 35.0529C29.3792 35.4657 28.9822 35.7891 28.4642 36.0212C27.9455 36.2461 27.3505 36.3605 26.6763 36.3605C26.0021 36.3605 25.4071 36.2461 24.8884 36.0212C24.3707 35.7892 23.9683 35.4658 23.6755 35.0524C23.3942 34.6337 23.252 34.1499 23.252 33.5954C23.252 33.0406 23.3943 32.5609 23.6751 32.1502C23.9678 31.7368 24.37 31.4172 24.8876 31.1927C25.4065 30.9675 26.0017 30.8531 26.6763 30.8531C27.3509 30.8531 27.9462 30.9675 28.4651 31.1927C28.9827 31.4172 29.3794 31.7366 29.6618 32.1492Z" fill="#007AD9" stroke="#007AD9" stroke-width="0.320289"/>
<path d="M37.2297 41.3086V41.1484H37.0695H35.4686H35.3084V41.3086V50.1754C35.3084 50.5645 35.2096 50.8642 35.0256 51.0889C34.8497 51.2947 34.5887 51.4074 34.2157 51.4074C33.8428 51.4074 33.5819 51.2948 33.406 51.0891C33.2313 50.874 33.1316 50.5738 33.1229 50.1719L32.9628 50.1754V50.0153C32.477 50.0153 32.0135 50.2271 31.7296 50.5528C31.4403 50.8847 31.3345 51.3433 31.6 51.7933C31.7177 51.9928 31.8613 52.1741 32.0303 52.3371L32.0313 52.3381C32.5951 52.8722 33.3284 53.1337 34.2157 53.1337C35.1026 53.1337 35.8318 52.8724 36.3866 52.3376C36.9531 51.8007 37.2297 51.0734 37.2297 50.1754V41.3086Z" fill="#009400" stroke="#009400" stroke-width="0.320289"/>
<path d="M23.4072 47.2331L23.4072 47.2331L23.4089 47.234C23.5766 47.3272 23.8274 47.4022 24.1061 47.4636C24.3889 47.526 24.7153 47.5774 25.0436 47.6184C25.6996 47.7002 26.3747 47.7414 26.7447 47.7414C27.1201 47.7414 27.7146 47.7001 28.2914 47.618C28.8607 47.537 29.4417 47.4126 29.7714 47.2351L29.7721 47.2346C30.4103 46.8866 30.9141 46.3972 31.2815 45.7688C31.6501 45.1383 31.8324 44.4184 31.8324 43.6138C31.8324 42.8099 31.6551 42.0905 31.2963 41.4603C30.9386 40.8319 30.4487 40.3463 29.828 40.0069C29.5025 39.8289 28.9244 39.7044 28.3576 39.6234C27.7831 39.5413 27.1897 39.5 26.8143 39.5C26.4397 39.5 25.76 39.5412 25.0995 39.623C24.7688 39.664 24.4401 39.7155 24.1551 39.7778C23.874 39.8392 23.6213 39.9141 23.4515 40.0069C22.8308 40.3463 22.3409 40.8319 21.9832 41.4603C21.6244 42.0905 21.4471 42.8099 21.4471 43.6138C21.4471 44.4258 21.6193 45.1493 21.9683 45.7795L21.9683 45.7795L21.9689 45.7805C22.317 46.3993 22.797 46.8844 23.4072 47.2331ZM28.7564 45.7698L28.7564 45.7697L28.7549 45.7706C28.6901 45.8064 28.5625 45.8453 28.383 45.8817C28.2088 45.917 28.0021 45.9468 27.7912 45.9709C27.3686 46.0191 26.9412 46.043 26.7447 46.043C26.4365 46.043 25.8294 45.9886 25.2463 45.8787C24.9552 45.8238 24.6749 45.7559 24.4435 45.6759C24.2068 45.594 24.0444 45.507 23.9653 45.4252C23.5837 45.0089 23.3823 44.4126 23.3823 43.6138C23.3823 43.0759 23.4809 42.6349 23.6695 42.2834L23.6695 42.2835L23.6703 42.282C23.8617 41.9166 24.1147 41.6485 24.4279 41.4705C24.4894 41.4368 24.6338 41.3975 24.8489 41.3606C25.0564 41.325 25.3073 41.295 25.5623 41.2709C26.0732 41.2224 26.5889 41.1985 26.7865 41.1985C26.983 41.1985 27.4104 41.2223 27.833 41.2705C28.0439 41.2946 28.2506 41.3245 28.4247 41.3597C28.6043 41.3961 28.7319 41.4351 28.7966 41.4709C29.12 41.6496 29.3824 41.9186 29.5828 42.2846L29.5828 42.2847L29.5836 42.2861C29.7804 42.6369 29.8833 43.0769 29.8833 43.6138C29.8833 44.1494 29.7763 44.5938 29.5703 44.9543C29.361 45.3205 29.0896 45.5904 28.7564 45.7698Z" fill="#009400" stroke="#009400" stroke-width="0.320289"/>
<path d="M41.783 47.2897L41.783 47.2898L41.7846 47.2907C41.9524 47.3839 42.2032 47.4588 42.4819 47.5203C42.7647 47.5826 43.0911 47.6341 43.4194 47.675C44.0754 47.7569 44.7505 47.7981 45.1205 47.7981C45.4959 47.7981 46.0904 47.7568 46.6671 47.6747C47.2365 47.5936 47.8175 47.4692 48.1472 47.2917L48.1479 47.2913C48.7861 46.9432 49.2899 46.4538 49.6573 45.8255C50.0259 45.195 50.2082 44.475 50.2082 43.6704C50.2082 42.8665 50.0309 42.1472 49.6721 41.5169C49.3144 40.8886 48.8245 40.403 48.2038 40.0635C47.8783 39.8855 47.3002 39.7611 46.7334 39.6801C46.1589 39.598 45.5655 39.5567 45.1901 39.5567C44.8155 39.5567 44.1358 39.5979 43.4752 39.6797C43.1446 39.7206 42.8159 39.7721 42.5309 39.8344C42.2498 39.8959 41.9971 39.9707 41.8273 40.0635C41.2066 40.403 40.7167 40.8886 40.359 41.5169C40.0002 42.1472 39.8229 42.8665 39.8229 43.6704C39.8229 44.4825 39.9951 45.2059 40.3441 45.8362L40.3441 45.8362L40.3446 45.8371C40.6928 46.456 41.1728 46.9411 41.783 47.2897ZM47.1322 45.8264L47.1322 45.8264L47.1307 45.8272C47.0659 45.863 46.9383 45.902 46.7588 45.9383C46.5846 45.9736 46.3779 46.0035 46.167 46.0275C45.7444 46.0758 45.317 46.0996 45.1205 46.0996C44.8123 46.0996 44.2052 46.0453 43.6221 45.9353C43.331 45.8804 43.0507 45.8126 42.8193 45.7325C42.5826 45.6507 42.4202 45.5636 42.3411 45.4819C41.9595 45.0655 41.7581 44.4692 41.7581 43.6704C41.7581 43.1325 41.8567 42.6915 42.0453 42.3401L42.0453 42.3401L42.046 42.3387C42.2375 41.9732 42.4905 41.7051 42.8037 41.5271C42.8652 41.4934 43.0096 41.4542 43.2247 41.4173C43.4322 41.3817 43.6831 41.3517 43.9381 41.3275C44.449 41.2791 44.9647 41.2551 45.1623 41.2551C45.3587 41.2551 45.7862 41.2789 46.2088 41.3272C46.4197 41.3513 46.6264 41.3811 46.8005 41.4164C46.9801 41.4528 47.1077 41.4917 47.1724 41.5275C47.4958 41.7062 47.7582 41.9753 47.9586 42.3413L47.9586 42.3413L47.9594 42.3427C48.1562 42.6936 48.2591 43.1336 48.2591 43.6704C48.2591 44.206 48.1521 44.6505 47.9461 45.0109C47.7368 45.3772 47.4654 45.647 47.1322 45.8264Z" fill="#009400" stroke="#009400" stroke-width="0.320289"/>
<path d="M67.8507 26.9339L83.0773 14.6106L93.6294 31.1142L96.6884 50.4626L77.1198 51.3491L58.8341 44.3241L67.8507 26.9339Z" stroke="url(#paint0_radial_1570_71086)" stroke-width="0.449557"/>
<path d="M67.0638 27.9907L81.1585 14.3872L93.1088 29.9084L97.8424 48.9165L78.4255 51.5052L59.5972 46.1006L67.0638 27.9907Z" stroke="url(#paint1_radial_1570_71086)" stroke-width="0.449557"/>
<path d="M66.3732 29.1067L79.2286 14.3265L92.4862 28.747L98.8585 47.2703L79.7411 51.5414L60.5134 47.7983L66.3732 29.1067Z" stroke="url(#paint2_radial_1570_71086)" stroke-width="0.449557"/>
<path d="M65.7818 30.2818L77.3001 14.4374L91.7641 27.6476L99.7265 45.545L81.0542 51.466L61.5734 49.413L65.7818 30.2818Z" stroke="url(#paint3_radial_1570_71086)" stroke-width="0.449557"/>
<path d="M65.2953 31.5014L75.3889 14.7134L90.9492 26.6127L100.441 43.748L82.3559 51.2739L62.7703 50.9266L65.2953 31.5014Z" stroke="url(#paint4_radial_1570_71086)" stroke-width="0.449557"/>
<path d="M64.9168 32.7633L73.5088 15.1595L90.047 25.6574L100.996 41.9002L83.6358 50.9737L64.0945 52.3347L64.9168 32.7633Z" stroke="url(#paint5_radial_1570_71086)" stroke-width="0.449557"/>
<path d="M64.6492 34.0506L71.6743 15.765L89.0644 24.7815L101.388 40.0082L84.8841 50.5603L65.5358 53.6192L64.6492 34.0506Z" stroke="url(#paint6_radial_1570_71086)" stroke-width="0.449557"/>
<path d="M64.4966 35.3567L69.9012 16.5283L88.0111 23.9949L101.615 38.0896L86.0934 50.0399L67.0853 54.7736L64.4966 35.3567Z" stroke="url(#paint7_radial_1570_71086)" stroke-width="0.449557"/>
<path d="M64.4572 36.6756L68.2002 17.4478L86.8919 23.3076L101.672 36.163L87.2515 49.4206L68.7283 55.7929L64.4572 36.6756Z" stroke="url(#paint8_radial_1570_71086)" stroke-width="0.449557"/>
<path d="M64.5321 37.9881L66.5851 18.5073L85.7163 22.7157L101.561 34.2341L88.3505 48.698L70.4531 56.6605L64.5321 37.9881Z" stroke="url(#paint9_radial_1570_71086)" stroke-width="0.449557"/>
<path d="M64.7218 39.2875L65.0691 19.7019L84.4944 22.2269L101.282 32.3205L89.383 47.8808L72.2477 57.3728L64.7218 39.2875Z" stroke="url(#paint10_radial_1570_71086)" stroke-width="0.449557"/>
<path d="M65.024 40.5692L63.663 21.0278L83.2344 21.8502L100.838 30.4422L90.3403 46.9803L74.0975 57.9297L65.024 40.5692Z" stroke="url(#paint11_radial_1570_71086)" stroke-width="0.449557"/>
<path d="M65.437 41.8151L62.3781 22.4667L81.9467 21.5802L100.232 28.6052L91.2158 45.9954L75.9891 58.3187L65.437 41.8151Z" stroke="url(#paint12_radial_1570_71086)" stroke-width="0.449557"/>
<path d="M65.9574 43.0232L61.2237 24.0151L80.6406 21.4264L99.469 26.831L92.0024 44.9408L77.9077 58.5444L65.9574 43.0232Z" stroke="url(#paint13_radial_1570_71086)" stroke-width="0.449557"/>
<path d="M66.581 44.1837L60.2087 25.6605L79.3261 21.3894L98.5538 25.1324L92.694 43.8241L79.8386 58.6043L66.581 44.1837Z" stroke="url(#paint14_radial_1570_71086)" stroke-width="0.449557"/>
<path d="M67.3028 45.283L59.3404 27.3856L78.0127 21.4646L97.4935 23.5175L93.2851 42.6488L81.7668 58.4932L67.3028 45.283Z" stroke="url(#paint15_radial_1570_71086)" stroke-width="0.449557"/>
<path d="M68.1175 46.3111L58.6255 29.1758L76.7107 21.6499L96.2963 21.9972L93.7713 41.4225L83.6777 58.2104L68.1175 46.3111Z" stroke="url(#paint16_radial_1570_71086)" stroke-width="0.449557"/>
<path d="M87.9102 47.2161C88.3195 46.8701 88.4707 46.3319 88.3495 45.8454C100.265 34.7348 84.566 15.6137 71.0238 25.9542C70.5257 26.3409 70.3809 26.8425 70.4659 27.2934C65.42 31.4876 64.681 40.0706 69.5584 44.7284C73.9297 50.2874 82.3177 52.0553 87.9102 47.2161ZM71.2588 28.3129C71.6534 28.4959 72.1459 28.4896 72.6334 28.1514C84.212 19.0232 97.0518 35.1242 87.4949 44.8982C87.033 44.7305 86.4961 44.8182 86.1087 45.1733C81.7776 49.2961 74.5633 47.7109 71.0142 43.3074C66.6723 39.4905 67.1743 32.1389 71.2588 28.3129Z" fill="#009400"/>
<path d="M65.1589 53.2774C68.7035 52.4909 70.5577 54.1335 73.3048 56.1264C74.103 60.1401 80.3163 60.5039 81.7862 56.7841C84.0953 56.4769 86.3558 55.7618 88.4193 54.6827C91.6761 56.9934 96.7746 52.7876 95.0281 49.121C96.4721 47.2479 97.5805 45.1199 98.2851 42.8669C99.9108 42.5544 101.328 41.1666 101.449 39.4749C101.831 37.445 100.481 35.6532 99.3584 34.1579C98.0964 32.1625 97.8948 29.2241 97.2132 27.1646C98.6477 25.2147 97.511 22.8511 95.7788 21.5587C94.6169 20.7066 93.0999 21.0478 91.8191 20.7959C89.4612 20.0968 87.5245 18.6336 85.1562 17.828C84.749 15.0205 81.338 13.9735 78.874 14.8953C77.9804 15.2827 77.5267 16.223 76.9733 16.9304C75.0056 17.5102 71.1151 19.4002 69.2862 18.6636C68.6474 18.4115 67.7064 18.1813 66.9428 18.4537C64.7292 19.4214 62.5519 21.9437 63.5445 24.4836C62.1366 26.2271 61.0368 28.2114 60.2774 30.3192C60.0875 30.8447 60.374 31.4274 60.9063 31.5975C61.4273 31.7653 61.9855 31.4789 62.1531 30.958C62.4893 29.9123 62.9249 28.8961 63.4546 27.9323C63.9872 26.9598 64.6087 26.0344 65.3136 25.1794C66.2359 24.0528 63.1937 23.0286 67.2464 20.1933C67.985 19.7195 68.858 20.4106 69.671 20.5725C71.1376 20.6927 72.6859 20.004 74.1 19.6685C75.3415 19.2902 76.5608 18.8577 77.7632 18.3887C79.5931 16.9327 78.5806 15.6469 82.1705 16.4869C83.9902 17.0849 83.0346 18.8034 84.159 19.2672C86.9071 20.0568 89.3838 22.2992 92.3304 22.6267C93.1212 22.6817 93.8674 22.6109 94.5613 22.8867C94.7038 22.9549 94.8322 23.0457 94.9416 23.1586C97.2884 25.6238 95.3516 25.3225 95.4094 27.4488C96.2169 29.9795 96.3188 32.9176 97.8225 35.228C98.4549 36.1189 99.1794 37.0081 99.4945 38.0152C99.955 39.4532 99.0629 41.0109 97.4875 41.0163C97.0834 41.0325 96.7158 41.3039 96.5984 41.7141C95.9059 44.1462 94.6941 46.4272 93.0586 48.3544C92.7853 48.6782 92.7374 49.1568 92.9754 49.5349C93.5183 50.4191 93.4553 51.5782 92.5992 52.2096C91.9031 52.8791 90.9923 53.5201 90.034 53.1366C89.3942 52.904 88.7817 52.001 87.9907 52.4888C85.7874 53.7079 83.3402 54.4474 80.832 54.6552C80.3569 54.6957 79.944 55.0432 79.8438 55.534C79.5572 57.2103 77.2339 57.5149 76.0662 56.5811C75.5228 55.9358 75.5688 54.828 74.7874 54.3139C72.5461 52.6907 70.2669 50.6691 67.3091 50.5984C64.6119 50.6819 65.4058 51.4136 63.559 48.8843C63.5634 48.8874 63.5666 48.8958 63.5689 48.8974C63.569 48.8992 63.5695 48.899 63.5699 48.8989C63.514 47.8919 64.087 46.7383 63.8616 45.6728C63.5954 43.3958 63.0459 43.6838 62.4627 41.5705C62.7738 42.7833 62.273 40.8309 62.4627 41.5705C60.1247 42.4008 60.3398 42.5907 60.7132 44.0516C62.1464 46.8358 60.1223 48.2373 61.5123 50.3991C62.4031 51.6268 63.4626 53.203 65.1589 53.2774Z" fill="#009400"/>
<path d="M82.4507 29.832L80.3529 30.3857L78.9451 29.832L76.646 37.5018H79.0717L76.9478 43.2274L82.1493 35.5581H79.0183L82.4507 29.832Z" fill="#007AD9"/>
<defs>
<radialGradient id="paint0_radial_1570_71086" cx="0" cy="0" r="1" gradientUnits="userSpaceOnUse" gradientTransform="translate(79.5333 36.4658) rotate(99.211) scale(22.4779)">
<stop stop-color="#009400"/>
<stop offset="0.541667" stop-color="#007AD9"/>
<stop offset="1" stop-color="#D9D9D9" stop-opacity="0"/>
</radialGradient>
<radialGradient id="paint1_radial_1570_71086" cx="0" cy="0" r="1" gradientUnits="userSpaceOnUse" gradientTransform="translate(79.5327 36.4681) rotate(94.211) scale(22.4779)">
<stop stop-color="#009400"/>
<stop offset="0.541667" stop-color="#007AD9"/>
<stop offset="1" stop-color="#D9D9D9" stop-opacity="0"/>
</radialGradient>
<radialGradient id="paint2_radial_1570_71086" cx="0" cy="0" r="1" gradientUnits="userSpaceOnUse" gradientTransform="translate(79.5335 36.465) rotate(89.211) scale(22.4779)">
<stop stop-color="#009400"/>
<stop offset="0.541667" stop-color="#007AD9"/>
<stop offset="1" stop-color="#D9D9D9" stop-opacity="0"/>
</radialGradient>
<radialGradient id="paint3_radial_1570_71086" cx="0" cy="0" r="1" gradientUnits="userSpaceOnUse" gradientTransform="translate(79.5334 36.4651) rotate(84.211) scale(22.4779)">
<stop stop-color="#009400"/>
<stop offset="0.541667" stop-color="#007AD9"/>
<stop offset="1" stop-color="#D9D9D9" stop-opacity="0"/>
</radialGradient>
<radialGradient id="paint4_radial_1570_71086" cx="0" cy="0" r="1" gradientUnits="userSpaceOnUse" gradientTransform="translate(79.5335 36.4627) rotate(79.211) scale(22.4779)">
<stop stop-color="#009400"/>
<stop offset="0.541667" stop-color="#007AD9"/>
<stop offset="1" stop-color="#D9D9D9" stop-opacity="0"/>
</radialGradient>
<radialGradient id="paint5_radial_1570_71086" cx="0" cy="0" r="1" gradientUnits="userSpaceOnUse" gradientTransform="translate(79.5332 36.4648) rotate(74.211) scale(22.4779)">
<stop stop-color="#009400"/>
<stop offset="0.541667" stop-color="#007AD9"/>
<stop offset="1" stop-color="#D9D9D9" stop-opacity="0"/>
</radialGradient>
<radialGradient id="paint6_radial_1570_71086" cx="0" cy="0" r="1" gradientUnits="userSpaceOnUse" gradientTransform="translate(79.5326 36.4641) rotate(69.211) scale(22.4779)">
<stop stop-color="#009400"/>
<stop offset="0.541667" stop-color="#007AD9"/>
<stop offset="1" stop-color="#D9D9D9" stop-opacity="0"/>
</radialGradient>
<radialGradient id="paint7_radial_1570_71086" cx="0" cy="0" r="1" gradientUnits="userSpaceOnUse" gradientTransform="translate(79.5337 36.4638) rotate(64.211) scale(22.4779)">
<stop stop-color="#009400"/>
<stop offset="0.541667" stop-color="#007AD9"/>
<stop offset="1" stop-color="#D9D9D9" stop-opacity="0"/>
</radialGradient>
<radialGradient id="paint8_radial_1570_71086" cx="0" cy="0" r="1" gradientUnits="userSpaceOnUse" gradientTransform="translate(79.5336 36.4679) rotate(59.211) scale(22.4779)">
<stop stop-color="#009400"/>
<stop offset="0.541667" stop-color="#007AD9"/>
<stop offset="1" stop-color="#D9D9D9" stop-opacity="0"/>
</radialGradient>
<radialGradient id="paint9_radial_1570_71086" cx="0" cy="0" r="1" gradientUnits="userSpaceOnUse" gradientTransform="translate(79.533 36.4673) rotate(54.211) scale(22.4779)">
<stop stop-color="#009400"/>
<stop offset="0.541667" stop-color="#007AD9"/>
<stop offset="1" stop-color="#D9D9D9" stop-opacity="0"/>
</radialGradient>
<radialGradient id="paint10_radial_1570_71086" cx="0" cy="0" r="1" gradientUnits="userSpaceOnUse" gradientTransform="translate(79.5331 36.4651) rotate(49.211) scale(22.4779)">
<stop stop-color="#009400"/>
<stop offset="0.541667" stop-color="#007AD9"/>
<stop offset="1" stop-color="#D9D9D9" stop-opacity="0"/>
</radialGradient>
<radialGradient id="paint11_radial_1570_71086" cx="0" cy="0" r="1" gradientUnits="userSpaceOnUse" gradientTransform="translate(79.5329 36.4666) rotate(44.211) scale(22.4779)">
<stop stop-color="#009400"/>
<stop offset="0.541667" stop-color="#007AD9"/>
<stop offset="1" stop-color="#D9D9D9" stop-opacity="0"/>
</radialGradient>
<radialGradient id="paint12_radial_1570_71086" cx="0" cy="0" r="1" gradientUnits="userSpaceOnUse" gradientTransform="translate(79.5332 36.4636) rotate(39.211) scale(22.4779)">
<stop stop-color="#009400"/>
<stop offset="0.541667" stop-color="#007AD9"/>
<stop offset="1" stop-color="#D9D9D9" stop-opacity="0"/>
</radialGradient>
<radialGradient id="paint13_radial_1570_71086" cx="0" cy="0" r="1" gradientUnits="userSpaceOnUse" gradientTransform="translate(79.5335 36.4635) rotate(34.211) scale(22.4779)">
<stop stop-color="#009400"/>
<stop offset="0.541667" stop-color="#007AD9"/>
<stop offset="1" stop-color="#D9D9D9" stop-opacity="0"/>
</radialGradient>
<radialGradient id="paint14_radial_1570_71086" cx="0" cy="0" r="1" gradientUnits="userSpaceOnUse" gradientTransform="translate(79.5337 36.4657) rotate(29.211) scale(22.4779)">
<stop stop-color="#009400"/>
<stop offset="0.541667" stop-color="#007AD9"/>
<stop offset="1" stop-color="#D9D9D9" stop-opacity="0"/>
</radialGradient>
<radialGradient id="paint15_radial_1570_71086" cx="0" cy="0" r="1" gradientUnits="userSpaceOnUse" gradientTransform="translate(79.5335 36.4654) rotate(24.211) scale(22.4778)">
<stop stop-color="#009400"/>
<stop offset="0.541667" stop-color="#007AD9"/>
<stop offset="1" stop-color="#D9D9D9" stop-opacity="0"/>
</radialGradient>
<radialGradient id="paint16_radial_1570_71086" cx="0" cy="0" r="1" gradientUnits="userSpaceOnUse" gradientTransform="translate(79.5332 36.4612) rotate(19.211) scale(22.4779)">
<stop stop-color="#009400"/>
<stop offset="0.541667" stop-color="#007AD9"/>
<stop offset="1" stop-color="#D9D9D9" stop-opacity="0"/>
</radialGradient>
</defs>
</svg>