<svg width="20" height="20" viewBox="0 0 20 20" fill="none" xmlns="http://www.w3.org/2000/svg">
<path d="M10 2.70825C10.1658 2.70825 10.3248 2.7741 10.442 2.89131C10.5592 3.00852 10.625 3.16749 10.625 3.33325C10.625 3.49901 10.5592 3.65798 10.442 3.77519C10.3248 3.8924 10.1658 3.95825 10 3.95825C8.39769 3.95825 6.86097 4.59478 5.72794 5.72782C4.59491 6.86085 3.95837 8.39757 3.95837 9.99992C3.95837 11.6023 4.59491 13.139 5.72794 14.272C6.86097 15.4051 8.39769 16.0416 10 16.0416C10.1658 16.0416 10.3248 16.1074 10.442 16.2246C10.5592 16.3419 10.625 16.5008 10.625 16.6666C10.625 16.8323 10.5592 16.9913 10.442 17.1085C10.3248 17.2257 10.1658 17.2916 10 17.2916C8.06617 17.2916 6.21151 16.5234 4.84405 15.1559C3.4766 13.7885 2.70837 11.9338 2.70837 9.99992C2.70837 8.06605 3.4766 6.21138 4.84405 4.84393C6.21151 3.47648 8.06617 2.70825 10 2.70825Z" fill="#5391DA" stroke="#5391DA" stroke-width="0.5"/>
<path d="M13.725 7.9417C13.6146 7.82322 13.5545 7.66652 13.5574 7.5046C13.5603 7.34268 13.6258 7.18819 13.7404 7.07368C13.8549 6.95917 14.0094 6.89358 14.1713 6.89072C14.3332 6.88787 14.4899 6.94797 14.6084 7.05837L17.1084 9.55837C17.2254 9.67556 17.2912 9.83441 17.2912 10C17.2912 10.1657 17.2254 10.3245 17.1084 10.4417L14.6084 12.9417C14.5512 13.0031 14.4822 13.0524 14.4055 13.0865C14.3288 13.1207 14.2461 13.139 14.1621 13.1405C14.0782 13.142 13.9949 13.1266 13.917 13.0951C13.8392 13.0637 13.7685 13.0169 13.7092 12.9576C13.6498 12.8982 13.603 12.8275 13.5716 12.7497C13.5402 12.6719 13.5247 12.5885 13.5262 12.5046C13.5277 12.4207 13.5461 12.3379 13.5802 12.2613C13.6144 12.1846 13.6636 12.1156 13.725 12.0584L15.1584 10.625H8.33337C8.16761 10.625 8.00864 10.5592 7.89143 10.442C7.77422 10.3248 7.70837 10.1658 7.70837 10C7.70837 9.83427 7.77422 9.6753 7.89143 9.55809C8.00864 9.44088 8.16761 9.37504 8.33337 9.37504H15.1584L13.725 7.9417Z" fill="#5391DA" stroke="#5391DA" stroke-width="0.5"/>
</svg>
