<svg width="30" height="30" viewBox="0 0 30 30" fill="none" xmlns="http://www.w3.org/2000/svg">
<path d="M1.77765 26.6842L3.70238 27.5684V13.3105L0.212 22.5632C-0.376913 24.1737 0.298182 26.0211 1.77765 26.6842ZM29.7869 20.8421L22.6625 1.97368C22.4521 1.40139 22.0937 0.909438 21.6316 0.55866C21.1695 0.207881 20.6241 0.0136566 20.0627 0C19.6892 0 19.3014 0.063158 18.9279 0.236842L8.34187 5.05263C7.83093 5.29098 7.39291 5.68543 7.07976 6.18919C6.76661 6.69294 6.59147 7.28487 6.57513 7.89474C6.56077 8.28947 6.63258 8.74737 6.76186 9.1579L13.9437 28.0263C14.3603 29.2579 15.4232 29.9842 16.5436 30C16.917 30 17.2905 29.9211 17.6496 29.7632L28.2213 24.9474C28.924 24.631 29.4837 24.0209 29.7773 23.2511C30.0709 22.4812 30.0743 21.6147 29.7869 20.8421ZM9.46224 9.47368C9.08129 9.47368 8.71594 9.30733 8.44657 9.01122C8.1772 8.71511 8.02587 8.3135 8.02587 7.89474C8.02587 7.47597 8.1772 7.07436 8.44657 6.77825C8.71594 6.48214 9.08129 6.31579 9.46224 6.31579C10.2522 6.31579 10.8986 7.02632 10.8986 7.89474C10.8986 8.76316 10.2522 9.47368 9.46224 9.47368ZM6.58949 26.8421C6.58949 27.6796 6.89216 28.4829 7.4309 29.0751C7.96965 29.6673 8.70034 30 9.46224 30H11.545L6.58949 16.8316V26.8421Z" fill="#CCCCCC"/>
</svg>
