<svg width="172" height="109" viewBox="0 0 172 109" fill="none" xmlns="http://www.w3.org/2000/svg">
<path d="M27.3142 40.6768V74.4835C27.3142 76.8329 25.4096 78.7374 23.0603 78.7374V78.7374V48.8486L15.1497 66.6103H12.2018L4.25384 48.8486V71.7928H3.93867C1.7634 71.7928 0 70.0294 0 67.8541V40.6768H4.58967L13.6944 61.0131L22.7618 40.6768H27.3142Z" fill="#007AD9"/>
<path d="M87.5393 59.4079L87.6107 59.4915H87.7206H90.7708H91.2942L90.9507 59.0965L84.0991 51.2179C85.1566 50.9712 85.9783 50.5577 86.5395 49.9597C87.1732 49.2891 87.5015 48.5318 87.5015 47.6944C87.5015 46.9844 87.2735 46.34 86.8236 45.7687C86.3852 45.1927 85.7226 44.7473 84.8585 44.4207C84.0011 44.091 82.9612 43.9305 81.7459 43.9305H76.3633H76.1248V44.1689V54.2904C76.1248 55.338 76.9741 56.1873 78.0217 56.1873H78.92H79.1585V55.9488V51.4753H80.7613L87.5393 59.4079ZM83.758 48.9597L83.7579 48.9597L83.7551 48.9618C83.3363 49.2784 82.6796 49.456 81.7459 49.456H79.1585V45.9837H81.7459C82.6967 45.9837 83.3616 46.1564 83.7805 46.4631L83.7805 46.4631L83.7835 46.4653C84.1959 46.7574 84.4006 47.1579 84.4006 47.6944C84.4006 48.2284 84.1903 48.6429 83.758 48.9597Z" fill="#007AD9" stroke="#007AD9" stroke-width="0.47694"/>
<path d="M62.1808 55.5221L62.1808 55.5221L62.1835 55.5233C63.4411 56.0448 64.8107 56.3042 66.2894 56.3042C67.7827 56.3042 69.1527 56.045 70.3962 55.5229L70.397 55.5225C71.655 54.9892 72.6548 54.2483 73.3862 53.2956L73.3871 53.2945C74.1209 52.3269 74.4896 51.2368 74.4896 50.0317C74.4896 48.8266 74.1209 47.7416 73.3862 46.7847C72.6547 45.8319 71.6548 45.0966 70.3966 44.5746C69.153 44.0411 67.7828 43.7762 66.2894 43.7762C64.8101 43.7762 63.4401 44.0414 62.1822 44.5746C60.9387 45.0967 59.9398 45.8317 59.1941 46.7828L59.1941 46.7828L59.1926 46.7847C58.4579 47.7416 58.0892 48.8266 58.0892 50.0317C58.0892 51.2368 58.4579 52.3269 59.1917 53.2945L59.1917 53.2945L59.1941 53.2976C59.9396 54.2483 60.938 54.9887 62.1808 55.5221ZM70.7351 47.8782L70.7351 47.8782L70.7372 47.8812C71.1698 48.4929 71.3887 49.2066 71.3887 50.0317C71.3887 50.8568 71.1698 51.5769 70.7361 52.2007L70.7351 52.2021C70.3144 52.8169 69.7231 53.2984 68.9518 53.6441C68.1793 53.979 67.2934 54.1492 66.2894 54.1492C65.2854 54.1492 64.3994 53.979 63.627 53.6441C62.8561 53.2986 62.2568 52.817 61.8208 52.2014C61.4019 51.5779 61.1901 50.8575 61.1901 50.0317C61.1901 49.2056 61.4021 48.4913 61.8202 47.8797C62.256 47.2641 62.855 46.7882 63.6257 46.4538C64.3985 46.1185 65.2848 45.9481 66.2894 45.9481C67.294 45.9481 68.1803 46.1185 68.9531 46.4538C69.7239 46.7882 70.3146 47.2638 70.7351 47.8782Z" fill="#007AD9" stroke="#007AD9" stroke-width="0.47694"/>
<path d="M58.6322 45.7452H58.8707C58.8707 44.743 58.0582 43.9305 57.0559 43.9305H49.3312C48.3289 43.9305 47.5164 44.743 47.5164 45.7452H47.7549V45.9837H51.6879V57.83V58.0684H51.9264H54.4831H54.7216V57.83V45.9837H58.6322V45.7452Z" fill="#007AD9" stroke="#007AD9" stroke-width="0.47694"/>
<path d="M34.8175 55.5221L34.8175 55.5221L34.8202 55.5233C36.0778 56.0448 37.4474 56.3042 38.9261 56.3042C40.4194 56.3042 41.7894 56.045 43.033 55.5229L43.0337 55.5225C44.2918 54.9892 45.2915 54.2483 46.0229 53.2956L46.0238 53.2945C46.7577 52.3269 47.1264 51.2368 47.1264 50.0317C47.1264 48.8266 46.7576 47.7416 46.0229 46.7847C45.2914 45.8319 44.2915 45.0966 43.0334 44.5746C41.7897 44.0411 40.4196 43.7762 38.9261 43.7762C37.4468 43.7762 36.0768 44.0414 34.8189 44.5746C33.5755 45.0967 32.5766 45.8317 31.8308 46.7828L31.8308 46.7828L31.8293 46.7847C31.0946 47.7416 30.7259 48.8266 30.7259 50.0317C30.7259 51.2368 31.0946 52.3269 31.8284 53.2945L31.8284 53.2945L31.8308 53.2976C32.5763 54.2483 33.5747 54.9887 34.8175 55.5221ZM43.3718 47.8782L43.3718 47.8782L43.3739 47.8812C43.8065 48.4929 44.0254 49.2066 44.0254 50.0317C44.0254 50.8568 43.8065 51.5769 43.3728 52.2007L43.3718 52.2021C42.9511 52.8169 42.3599 53.2984 41.5885 53.6441C40.8161 53.979 39.9301 54.1492 38.9261 54.1492C37.9221 54.1492 37.0362 53.979 36.2637 53.6441C35.4928 53.2986 34.8935 52.817 34.4575 52.2014C34.0387 51.5779 33.8268 50.8575 33.8268 50.0317C33.8268 49.2056 34.0388 48.4913 34.457 47.8797C34.8928 47.2641 35.4918 46.7882 36.2624 46.4538C37.0352 46.1185 37.9216 45.9481 38.9261 45.9481C39.9307 45.9481 40.8171 46.1185 41.5898 46.4538C42.3606 46.7882 42.9513 47.2638 43.3718 47.8782Z" fill="#007AD9" stroke="#007AD9" stroke-width="0.47694"/>
<path d="M54.6407 61.5244V61.2859H54.4022H52.0182H51.7798V61.5244V74.7281C51.7798 75.3076 51.6327 75.7538 51.3586 76.0884C51.0967 76.3948 50.7081 76.5627 50.1525 76.5627C49.5972 76.5627 49.2087 76.395 48.9468 76.0887C48.6867 75.7684 48.5382 75.3214 48.5252 74.7229L48.2868 74.7281V74.4897C47.5634 74.4897 46.8732 74.8051 46.4504 75.2902C46.0197 75.7843 45.8621 76.4673 46.2574 77.1373C46.4327 77.4344 46.6465 77.7045 46.8982 77.9471L46.8997 77.9486C47.7393 78.744 48.8313 79.1334 50.1525 79.1334C51.4733 79.1334 52.5591 78.7442 53.3854 77.9479C54.2289 77.1483 54.6407 76.0654 54.6407 74.7281V61.5244Z" fill="#009400" stroke="#009400" stroke-width="0.47694"/>
<path d="M34.0582 70.3424L34.0582 70.3424L34.0607 70.3438C34.3105 70.4826 34.6839 70.5942 35.099 70.6857C35.5201 70.7785 36.0061 70.8552 36.4951 70.9162C37.4719 71.038 38.4772 71.0994 39.0282 71.0994C39.5872 71.0994 40.4725 71.0379 41.3313 70.9156C42.1792 70.795 43.0443 70.6097 43.5352 70.3453L43.5364 70.3447C44.4866 69.8264 45.2369 69.0977 45.784 68.162C46.3329 67.2231 46.6043 66.151 46.6043 64.9528C46.6043 63.7557 46.3403 62.6846 45.8061 61.746C45.2734 60.8103 44.5438 60.0872 43.6195 59.5818C43.1348 59.3167 42.274 59.1314 41.4299 59.0107C40.5744 58.8885 39.6908 58.827 39.1318 58.827C38.5741 58.827 37.5619 58.8883 36.5782 59.0102C36.0858 59.0712 35.5964 59.1478 35.1719 59.2406C34.7534 59.3321 34.377 59.4436 34.1243 59.5818C33.2 60.0872 32.4703 60.8103 31.9377 61.746C31.4035 62.6846 31.1395 63.7557 31.1395 64.9528C31.1395 66.1621 31.3958 67.2394 31.9156 68.1779L31.9164 68.1793C32.4348 69.1009 33.1496 69.8232 34.0582 70.3424ZM42.0238 68.1633L42.0238 68.1633L42.0215 68.1646C41.9251 68.2179 41.7351 68.2759 41.4677 68.33C41.2084 68.3826 40.9006 68.427 40.5866 68.4629C39.9573 68.5347 39.3208 68.5702 39.0282 68.5702C38.5693 68.5702 37.6651 68.4893 36.7968 68.3255C36.3634 68.2438 35.946 68.1427 35.6014 68.0236C35.249 67.9017 35.0071 67.7721 34.8893 67.6503C34.321 67.0303 34.0211 66.1423 34.0211 64.9528C34.0211 64.1519 34.168 63.4952 34.4488 62.9718L34.4488 62.9718L34.4499 62.9697C34.735 62.4255 35.1117 62.0263 35.5782 61.7612C35.6698 61.711 35.8848 61.6526 36.2051 61.5976C36.5141 61.5446 36.8877 61.5 37.2675 61.464C38.0282 61.3919 38.7962 61.3562 39.0903 61.3562C39.383 61.3562 40.0195 61.3916 40.6488 61.4635C40.9628 61.4993 41.2706 61.5438 41.5299 61.5963C41.7973 61.6505 41.9873 61.7085 42.0837 61.7618C42.5653 62.0279 42.956 62.4286 43.2545 62.9736L43.2544 62.9736L43.2556 62.9757C43.5487 63.4982 43.7019 64.1534 43.7019 64.9528C43.7019 65.7504 43.5425 66.4123 43.2358 66.949C42.9242 67.4944 42.5199 67.8962 42.0238 68.1633Z" fill="#009400" stroke="#009400" stroke-width="0.47694"/>
<path d="M61.4215 70.4264L61.4215 70.4264L61.424 70.4278C61.6737 70.5666 62.0472 70.6782 62.4623 70.7697C62.8834 70.8625 63.3694 70.9392 63.8584 71.0002C64.8352 71.122 65.8405 71.1834 66.3914 71.1834C66.9504 71.1834 67.8357 71.1218 68.6946 70.9996C69.5425 70.879 70.4075 70.6937 70.8985 70.4293L70.8996 70.4287C71.8499 69.9104 72.6002 69.1817 73.1473 68.246C73.6962 67.307 73.9676 66.235 73.9676 65.0368C73.9676 63.8397 73.7036 62.7685 73.1694 61.83C72.6367 60.8943 71.9071 60.1712 70.9828 59.6657C70.4981 59.4007 69.6373 59.2153 68.7932 59.0947C67.9377 58.9725 67.0541 58.9109 66.4951 58.9109C65.9373 58.9109 64.9252 58.9723 63.9415 59.0941C63.4491 59.1551 62.9597 59.2318 62.5352 59.3246C62.1166 59.4161 61.7403 59.5275 61.4876 59.6657C60.5632 60.1712 59.8336 60.8943 59.301 61.83C58.7667 62.7685 58.5027 63.8397 58.5027 65.0368C58.5027 66.246 58.7591 67.3234 59.2789 68.2619L59.2797 68.2632C59.7981 69.1849 60.5129 69.9072 61.4215 70.4264ZM69.3871 68.2473L69.3871 68.2473L69.3848 68.2486C69.2884 68.3019 69.0984 68.3599 68.831 68.414C68.5717 68.4666 68.2639 68.511 67.9498 68.5469C67.3206 68.6187 66.684 68.6542 66.3914 68.6542C65.9326 68.6542 65.0284 68.5733 64.1601 68.4095C63.7267 68.3278 63.3093 68.2267 62.9647 68.1075C62.6123 67.9857 62.3704 67.856 62.2526 67.7343C61.6843 67.1143 61.3844 66.2263 61.3844 65.0368C61.3844 64.2359 61.5313 63.5792 61.8121 63.0558L61.8121 63.0558L61.8132 63.0537C62.0983 62.5095 62.475 62.1103 62.9415 61.8452C63.0331 61.795 63.2481 61.7366 63.5684 61.6816C63.8774 61.6286 64.2509 61.5839 64.6308 61.5479C65.3915 61.4758 66.1594 61.4402 66.4536 61.4402C66.7462 61.4402 67.3827 61.4756 68.012 61.5475C68.3261 61.5833 68.6338 61.6277 68.8932 61.6803C69.1606 61.7345 69.3506 61.7925 69.447 61.8458C69.9286 62.1119 70.3193 62.5126 70.6177 63.0576L70.6177 63.0576L70.6189 63.0597C70.912 63.5822 71.0652 64.2374 71.0652 65.0368C71.0652 65.8344 70.9058 66.4963 70.5991 67.033C70.2875 67.5784 69.8832 67.9802 69.3871 68.2473Z" fill="#009400" stroke="#009400" stroke-width="0.47694"/>
<path d="M100.238 40.1122L122.912 21.7617L138.625 46.3371L143.18 75.1485L114.04 76.4687L86.8114 66.0077L100.238 40.1122Z" stroke="url(#paint0_radial_1586_1948)" stroke-width="0.669431"/>
<path d="M99.066 41.6822L120.054 21.4254L137.849 44.5378L144.898 72.8426L115.985 76.6974L87.9476 68.6494L99.066 41.6822Z" stroke="url(#paint1_radial_1586_1948)" stroke-width="0.669431"/>
<path d="M98.038 43.3461L117.181 21.3371L136.923 42.8106L146.412 70.3933L117.944 76.7534L89.3122 71.1797L98.038 43.3461Z" stroke="url(#paint2_radial_1586_1948)" stroke-width="0.669431"/>
<path d="M97.1577 45.0931L114.31 21.4994L135.848 41.1706L147.704 67.8214L119.9 76.6384L90.891 73.5813L97.1577 45.0931Z" stroke="url(#paint3_radial_1586_1948)" stroke-width="0.669431"/>
<path d="M96.4324 46.9129L111.463 21.9141L134.633 39.6333L148.768 65.1493L121.837 76.3561L92.6725 75.8389L96.4324 46.9129Z" stroke="url(#paint4_radial_1586_1948)" stroke-width="0.669431"/>
<path d="M95.8689 48.7915L108.663 22.5779L133.29 38.2102L149.595 62.3971L123.743 75.9084L94.6444 77.9351L95.8689 48.7915Z" stroke="url(#paint5_radial_1586_1948)" stroke-width="0.669431"/>
<path d="M95.4701 50.71L105.931 23.4811L131.827 36.9075L150.177 59.5814L125.602 75.2944L96.7902 79.8495L95.4701 50.71Z" stroke="url(#paint6_radial_1586_1948)" stroke-width="0.669431"/>
<path d="M95.243 52.6547L103.291 24.6176L130.258 35.736L150.515 56.7243L127.403 74.5193L99.0977 81.5682L95.243 52.6547Z" stroke="url(#paint7_radial_1586_1948)" stroke-width="0.669431"/>
<path d="M95.1844 54.6144L100.758 25.9826L128.592 34.7083L150.601 53.8512L129.127 73.593L101.544 83.0819L95.1844 54.6144Z" stroke="url(#paint8_radial_1586_1948)" stroke-width="0.669431"/>
<path d="M95.2961 56.5673L98.3532 27.5587L126.841 33.8254L150.435 50.9772L130.764 72.5153L104.113 84.3722L95.2961 56.5673Z" stroke="url(#paint9_radial_1586_1948)" stroke-width="0.669431"/>
<path d="M95.5786 58.5039L96.0958 29.3392L125.022 33.0991L150.021 48.1294L132.301 71.3001L106.785 85.4345L95.5786 58.5039Z" stroke="url(#paint10_radial_1586_1948)" stroke-width="0.669431"/>
<path d="M96.0281 60.4153L94.0015 31.3165L123.145 32.5411L149.359 45.3353L133.726 69.9621L109.539 86.2667L96.0281 60.4153Z" stroke="url(#paint11_radial_1586_1948)" stroke-width="0.669431"/>
<path d="M96.6437 62.2666L92.0886 33.4552L121.228 32.135L148.457 42.5959L135.031 68.4915L112.357 86.842L96.6437 62.2666Z" stroke="url(#paint12_radial_1586_1948)" stroke-width="0.669431"/>
<path d="M97.4189 64.0711L90.3701 35.7663L119.284 31.9115L147.321 39.9595L136.202 66.9267L115.214 87.1835L97.4189 64.0711Z" stroke="url(#paint13_radial_1586_1948)" stroke-width="0.669431"/>
<path d="M98.3477 65.7965L88.8587 38.2137L117.326 31.8536L145.958 37.4273L137.232 65.261L118.089 87.27L98.3477 65.7965Z" stroke="url(#paint14_radial_1586_1948)" stroke-width="0.669431"/>
<path d="M99.4218 67.4328L87.5649 40.782L115.37 31.965L144.378 35.0221L138.112 63.5103L120.96 87.104L99.4218 67.4328Z" stroke="url(#paint15_radial_1586_1948)" stroke-width="0.669431"/>
<path d="M100.635 68.9661L86.5006 43.4502L113.431 32.2434L142.596 32.7605L138.836 61.6865L123.806 86.6853L100.635 68.9661Z" stroke="url(#paint16_radial_1586_1948)" stroke-width="0.669431"/>
<path d="M130.107 70.3063C130.716 69.7912 130.942 68.9897 130.761 68.2652C148.505 51.7202 125.127 23.2468 104.961 38.6449C104.219 39.2208 104.004 39.9677 104.13 40.6391C96.6164 46.8848 95.516 59.6659 102.779 66.6019C109.288 74.8798 121.779 77.5125 130.107 70.3063ZM105.311 42.1572C105.899 42.4297 106.632 42.4205 107.358 41.9168C124.6 28.3239 143.72 52.3001 129.488 66.8547C128.801 66.6049 128.001 66.7356 127.424 67.2643C120.975 73.4038 110.232 71.0431 104.947 64.4858C98.4812 58.802 99.2288 47.8547 105.311 42.1572Z" fill="#009400"/>
<path d="M96.229 79.3332C101.507 78.162 104.268 80.608 108.359 83.5756C109.548 89.5524 118.8 90.0942 120.989 84.555C124.427 84.0976 127.793 83.0326 130.866 81.4258C135.715 84.8666 143.308 78.6038 140.707 73.144C142.857 70.3548 144.508 67.1859 145.557 63.8311C147.978 63.3657 150.088 61.2991 150.268 58.78C150.837 55.7573 148.827 53.0891 147.155 50.8625C145.276 47.8912 144.976 43.5156 143.961 40.4489C146.097 37.5454 144.404 34.0256 141.825 32.1012C140.095 30.8323 137.836 31.3404 135.928 30.9653C132.417 29.9243 129.533 27.7454 126.007 26.5458C125.4 22.3652 120.321 20.8062 116.652 22.1787C115.321 22.7556 114.646 24.1558 113.822 25.2093C110.892 26.0726 105.098 28.8869 102.375 27.7902C101.424 27.4148 100.022 27.0719 98.8854 27.4776C95.5892 28.9186 92.3469 32.6745 93.825 36.4567C91.7285 39.0529 90.0908 42.0077 88.96 45.1464C88.6773 45.9289 89.1038 46.7966 89.8965 47.0499C90.6722 47.2997 91.5035 46.8732 91.7531 46.0976C92.2537 44.5404 92.9024 43.0272 93.6911 41.5921C94.4842 40.1438 95.4097 38.766 96.4593 37.4927C97.8328 35.8152 93.3026 34.29 99.3375 30.068C100.437 29.3624 101.737 30.3915 102.948 30.6327C105.132 30.8117 107.437 29.786 109.543 29.2864C111.392 28.7232 113.207 28.0791 114.998 27.3808C117.723 25.2126 116.215 23.298 121.561 24.5488C124.27 25.4393 122.848 27.9983 124.522 28.689C128.614 29.8647 132.302 33.2038 136.69 33.6916C137.867 33.7734 138.979 33.6681 140.012 34.0787C140.224 34.1803 140.415 34.3155 140.578 34.4836C144.073 38.1545 141.189 37.7058 141.275 40.872C142.477 44.6406 142.629 49.0155 144.868 52.456C145.81 53.7826 146.889 55.1067 147.358 56.6065C148.043 58.7477 146.715 61.0673 144.369 61.0754C143.767 61.0995 143.22 61.5036 143.045 62.1143C142.014 65.736 140.21 69.1326 137.774 72.0024C137.367 72.4846 137.296 73.1972 137.65 73.7603C138.459 75.077 138.365 76.803 137.09 77.7431C136.053 78.7401 134.697 79.6946 133.27 79.1235C132.318 78.7772 131.405 77.4325 130.228 78.1589C126.947 79.9742 123.303 81.0754 119.568 81.3849C118.86 81.4451 118.245 81.9626 118.096 82.6935C117.669 85.1896 114.21 85.6431 112.471 84.2527C111.662 83.2918 111.73 81.6422 110.567 80.8767C107.229 78.4596 103.835 75.4491 99.4308 75.3439C95.4144 75.4682 96.5966 76.5578 93.8465 72.7915C93.8532 72.796 93.8579 72.8087 93.8613 72.8109C93.8615 72.8136 93.8623 72.8133 93.8628 72.8132C93.7795 71.3136 94.6329 69.5959 94.2971 68.0093C93.9008 64.6186 93.0826 65.0475 92.2141 61.9005C92.6774 63.7066 91.9316 60.7992 92.2141 61.9005C88.7326 63.1369 89.0529 63.4198 89.6089 65.5951C91.7431 69.7411 88.729 71.828 90.7989 75.0471C92.1253 76.8754 93.7031 79.2224 96.229 79.3332Z" fill="#009400"/>
<path d="M121.979 44.4307L118.856 45.2552L116.759 44.4307L113.335 55.8518H116.948L113.785 64.378L121.53 52.9575H116.868L121.979 44.4307Z" fill="#007AD9"/>
<defs>
<radialGradient id="paint0_radial_1586_1948" cx="0" cy="0" r="1" gradientUnits="userSpaceOnUse" gradientTransform="translate(117.634 54.306) rotate(99.211) scale(33.4716)">
<stop stop-color="#009400"/>
<stop offset="0.541667" stop-color="#007AD9"/>
<stop offset="1" stop-color="#D9D9D9" stop-opacity="0"/>
</radialGradient>
<radialGradient id="paint1_radial_1586_1948" cx="0" cy="0" r="1" gradientUnits="userSpaceOnUse" gradientTransform="translate(117.633 54.3058) rotate(94.211) scale(33.4716)">
<stop stop-color="#009400"/>
<stop offset="0.541667" stop-color="#007AD9"/>
<stop offset="1" stop-color="#D9D9D9" stop-opacity="0"/>
</radialGradient>
<radialGradient id="paint2_radial_1586_1948" cx="0" cy="0" r="1" gradientUnits="userSpaceOnUse" gradientTransform="translate(117.635 54.3034) rotate(89.211) scale(33.4716)">
<stop stop-color="#009400"/>
<stop offset="0.541667" stop-color="#007AD9"/>
<stop offset="1" stop-color="#D9D9D9" stop-opacity="0"/>
</radialGradient>
<radialGradient id="paint3_radial_1586_1948" cx="0" cy="0" r="1" gradientUnits="userSpaceOnUse" gradientTransform="translate(117.635 54.3007) rotate(84.211) scale(33.4716)">
<stop stop-color="#009400"/>
<stop offset="0.541667" stop-color="#007AD9"/>
<stop offset="1" stop-color="#D9D9D9" stop-opacity="0"/>
</radialGradient>
<radialGradient id="paint4_radial_1586_1948" cx="0" cy="0" r="1" gradientUnits="userSpaceOnUse" gradientTransform="translate(117.634 54.3008) rotate(79.211) scale(33.4716)">
<stop stop-color="#009400"/>
<stop offset="0.541667" stop-color="#007AD9"/>
<stop offset="1" stop-color="#D9D9D9" stop-opacity="0"/>
</radialGradient>
<radialGradient id="paint5_radial_1586_1948" cx="0" cy="0" r="1" gradientUnits="userSpaceOnUse" gradientTransform="translate(117.634 54.3034) rotate(74.211) scale(33.4716)">
<stop stop-color="#009400"/>
<stop offset="0.541667" stop-color="#007AD9"/>
<stop offset="1" stop-color="#D9D9D9" stop-opacity="0"/>
</radialGradient>
<radialGradient id="paint6_radial_1586_1948" cx="0" cy="0" r="1" gradientUnits="userSpaceOnUse" gradientTransform="translate(117.633 54.304) rotate(69.211) scale(33.4716)">
<stop stop-color="#009400"/>
<stop offset="0.541667" stop-color="#007AD9"/>
<stop offset="1" stop-color="#D9D9D9" stop-opacity="0"/>
</radialGradient>
<radialGradient id="paint7_radial_1586_1948" cx="0" cy="0" r="1" gradientUnits="userSpaceOnUse" gradientTransform="translate(117.635 54.3033) rotate(64.211) scale(33.4716)">
<stop stop-color="#009400"/>
<stop offset="0.541667" stop-color="#007AD9"/>
<stop offset="1" stop-color="#D9D9D9" stop-opacity="0"/>
</radialGradient>
<radialGradient id="paint8_radial_1586_1948" cx="0" cy="0" r="1" gradientUnits="userSpaceOnUse" gradientTransform="translate(117.634 54.3052) rotate(59.211) scale(33.4716)">
<stop stop-color="#009400"/>
<stop offset="0.541667" stop-color="#007AD9"/>
<stop offset="1" stop-color="#D9D9D9" stop-opacity="0"/>
</radialGradient>
<radialGradient id="paint9_radial_1586_1948" cx="0" cy="0" r="1" gradientUnits="userSpaceOnUse" gradientTransform="translate(117.634 54.3027) rotate(54.211) scale(33.4716)">
<stop stop-color="#009400"/>
<stop offset="0.541667" stop-color="#007AD9"/>
<stop offset="1" stop-color="#D9D9D9" stop-opacity="0"/>
</radialGradient>
<radialGradient id="paint10_radial_1586_1948" cx="0" cy="0" r="1" gradientUnits="userSpaceOnUse" gradientTransform="translate(117.634 54.301) rotate(49.211) scale(33.4716)">
<stop stop-color="#009400"/>
<stop offset="0.541667" stop-color="#007AD9"/>
<stop offset="1" stop-color="#D9D9D9" stop-opacity="0"/>
</radialGradient>
<radialGradient id="paint11_radial_1586_1948" cx="0" cy="0" r="1" gradientUnits="userSpaceOnUse" gradientTransform="translate(117.633 54.3062) rotate(44.211) scale(33.4716)">
<stop stop-color="#009400"/>
<stop offset="0.541667" stop-color="#007AD9"/>
<stop offset="1" stop-color="#D9D9D9" stop-opacity="0"/>
</radialGradient>
<radialGradient id="paint12_radial_1586_1948" cx="0" cy="0" r="1" gradientUnits="userSpaceOnUse" gradientTransform="translate(117.634 54.2977) rotate(39.211) scale(33.4716)">
<stop stop-color="#009400"/>
<stop offset="0.541667" stop-color="#007AD9"/>
<stop offset="1" stop-color="#D9D9D9" stop-opacity="0"/>
</radialGradient>
<radialGradient id="paint13_radial_1586_1948" cx="0" cy="0" r="1" gradientUnits="userSpaceOnUse" gradientTransform="translate(117.635 54.3031) rotate(34.211) scale(33.4716)">
<stop stop-color="#009400"/>
<stop offset="0.541667" stop-color="#007AD9"/>
<stop offset="1" stop-color="#D9D9D9" stop-opacity="0"/>
</radialGradient>
<radialGradient id="paint14_radial_1586_1948" cx="0" cy="0" r="1" gradientUnits="userSpaceOnUse" gradientTransform="translate(117.635 54.3037) rotate(29.211) scale(33.4716)">
<stop stop-color="#009400"/>
<stop offset="0.541667" stop-color="#007AD9"/>
<stop offset="1" stop-color="#D9D9D9" stop-opacity="0"/>
</radialGradient>
<radialGradient id="paint15_radial_1586_1948" cx="0" cy="0" r="1" gradientUnits="userSpaceOnUse" gradientTransform="translate(117.634 54.3027) rotate(24.211) scale(33.4715)">
<stop stop-color="#009400"/>
<stop offset="0.541667" stop-color="#007AD9"/>
<stop offset="1" stop-color="#D9D9D9" stop-opacity="0"/>
</radialGradient>
<radialGradient id="paint16_radial_1586_1948" cx="0" cy="0" r="1" gradientUnits="userSpaceOnUse" gradientTransform="translate(117.634 54.2987) rotate(19.211) scale(33.4716)">
<stop stop-color="#009400"/>
<stop offset="0.541667" stop-color="#007AD9"/>
<stop offset="1" stop-color="#D9D9D9" stop-opacity="0"/>
</radialGradient>
</defs>
</svg>
