<svg width="32" height="32" viewBox="0 0 32 32" fill="none" xmlns="http://www.w3.org/2000/svg">
<path fill-rule="evenodd" clip-rule="evenodd" d="M16 32C8.4576 32 4.6864 32 2.3424 29.656C0 27.3152 0 23.5424 0 16C0 8.4576 0 4.6864 2.3424 2.3424C4.688 0 8.4576 0 16 0C23.5424 0 27.3136 0 29.656 2.3424C32 4.688 32 8.4576 32 16C32 23.5424 32 27.3136 29.656 29.656C27.3152 32 23.5424 32 16 32ZM11.152 11.152C11.377 10.9273 11.682 10.8011 12 10.8011C12.318 10.8011 12.623 10.9273 12.848 11.152L16 14.304L19.152 11.152C19.3795 10.94 19.6804 10.8246 19.9912 10.8301C20.3021 10.8356 20.5987 10.9615 20.8186 11.1814C21.0385 11.4013 21.1644 11.6979 21.1699 12.0088C21.1754 12.3196 21.06 12.6205 20.848 12.848L17.696 16L20.848 19.152C20.9659 19.2619 21.0605 19.3943 21.1261 19.5415C21.1916 19.6887 21.2269 19.8476 21.2297 20.0088C21.2326 20.1699 21.203 20.3299 21.1426 20.4794C21.0822 20.6288 20.9924 20.7645 20.8785 20.8785C20.7645 20.9924 20.6288 21.0822 20.4794 21.1426C20.3299 21.203 20.1699 21.2326 20.0088 21.2297C19.8476 21.2269 19.6887 21.1916 19.5415 21.1261C19.3943 21.0605 19.2619 20.9659 19.152 20.848L16 17.696L12.848 20.848C12.7381 20.9659 12.6057 21.0605 12.4585 21.1261C12.3113 21.1916 12.1524 21.2269 11.9912 21.2297C11.8301 21.2326 11.6701 21.203 11.5206 21.1426C11.3712 21.0822 11.2355 20.9924 11.1215 20.8785C11.0076 20.7645 10.9178 20.6288 10.8574 20.4794C10.7971 20.3299 10.7674 20.1699 10.7703 20.0088C10.7731 19.8476 10.8084 19.6887 10.874 19.5415C10.9395 19.3943 11.0341 19.2619 11.152 19.152L14.304 16L11.152 12.848C10.9273 12.623 10.8011 12.318 10.8011 12C10.8011 11.682 10.9273 11.377 11.152 11.152Z" fill="#F11A1A"/>
</svg>
