<svg width="161" height="98" viewBox="0 0 161 98" fill="none" xmlns="http://www.w3.org/2000/svg">
<path d="M25.5602 34.065V65.7009C25.5602 67.8994 23.778 69.6816 21.5795 69.6816V41.7121L14.1768 58.3332H11.4183L3.98069 41.7121V63.1829H3.68582C1.6502 63.1829 0 61.5327 0 59.4971V34.065H4.29495L12.815 53.0955L21.3002 34.065H25.5602Z" fill="#007AD9"/>
<path d="M81.9213 51.5915L81.9881 51.6697H82.091H84.9452H85.4351L85.1136 51.3001L78.702 43.9274C79.6916 43.6965 80.4605 43.3096 80.9857 42.75C81.5787 42.1224 81.8859 41.4138 81.8859 40.6302C81.8859 39.9657 81.6725 39.3628 81.2516 38.8282C80.8413 38.2892 80.2213 37.8723 79.4127 37.5667C78.6103 37.2581 77.6371 37.1079 76.4999 37.1079H71.4629H71.2397V37.3311V46.8026C71.2397 47.7829 72.0345 48.5777 73.0148 48.5777H73.8554H74.0786V48.3545V44.1683H75.5785L81.9213 51.5915ZM78.3827 41.8142L78.3827 41.8142L78.3801 41.8162C77.9881 42.1124 77.3736 42.2786 76.4999 42.2786H74.0786V39.0293H76.4999C77.3896 39.0293 78.0118 39.1909 78.4038 39.4779L78.4038 39.4779L78.4066 39.4799C78.7925 39.7533 78.9841 40.1281 78.9841 40.6302C78.9841 41.1299 78.7873 41.5178 78.3827 41.8142Z" fill="#007AD9" stroke="#007AD9" stroke-width="0.446322"/>
<path d="M58.1917 47.9566L58.1917 47.9566L58.1942 47.9577C59.371 48.4457 60.6527 48.6884 62.0364 48.6884C63.4339 48.6884 64.7159 48.4459 65.8796 47.9573L65.8803 47.957C67.0575 47.4579 67.9931 46.7646 68.6776 45.8731L68.6784 45.872C69.3651 44.9665 69.7101 43.9465 69.7101 42.8187C69.7101 41.691 69.3651 40.6757 68.6776 39.7803C67.993 38.8886 67.0573 38.2006 65.88 37.7121C64.7162 37.2128 63.434 36.9649 62.0364 36.9649C60.6522 36.9649 59.3701 37.2131 58.193 37.7121C57.0294 38.2007 56.0946 38.8884 55.3967 39.7785L55.3967 39.7785L55.3953 39.7803C54.7078 40.6757 54.3628 41.691 54.3628 42.8187C54.3628 43.9465 54.7078 44.9665 55.3945 45.872L55.3945 45.872L55.3967 45.8749C56.0943 46.7646 57.0286 47.4574 58.1917 47.9566ZM66.1967 40.8035L66.1967 40.8035L66.1986 40.8063C66.6035 41.3788 66.8083 42.0466 66.8083 42.8187C66.8083 43.5908 66.6034 44.2647 66.1976 44.8485L66.1967 44.8498C65.803 45.4251 65.2497 45.8757 64.5278 46.1991C63.805 46.5125 62.976 46.6719 62.0364 46.6719C61.0969 46.6719 60.2678 46.5125 59.545 46.1991C58.8236 45.8758 58.2628 45.4252 57.8548 44.8491C57.4628 44.2656 57.2646 43.5915 57.2646 42.8187C57.2646 42.0457 57.463 41.3773 57.8543 40.805C58.2621 40.2289 58.8226 39.7835 59.5438 39.4706C60.2669 39.1569 61.0964 38.9973 62.0364 38.9973C62.9765 38.9973 63.806 39.1569 64.5291 39.4706C65.2504 39.7835 65.8032 40.2286 66.1967 40.8035Z" fill="#007AD9" stroke="#007AD9" stroke-width="0.446322"/>
<path d="M54.8703 39.0293H55.0934V38.8062C55.0934 37.8682 54.3331 37.1079 53.3952 37.1079H46.1665C45.2286 37.1079 44.4682 37.8682 44.4682 38.8062V39.0293H44.6914H48.3719V50.1149V50.338H48.5951H50.9876H51.2108V50.1149V39.0293H54.8703Z" fill="#007AD9" stroke="#007AD9" stroke-width="0.446322"/>
<path d="M32.5843 47.9565L32.5843 47.9566L32.5868 47.9576C33.7636 48.4457 35.0452 48.6884 36.429 48.6884C37.8264 48.6884 39.1085 48.4458 40.2722 47.9572L40.2729 47.9569C41.4501 47.4578 42.3857 46.7645 43.0701 45.873L43.0709 45.872C43.7577 44.9665 44.1027 43.9464 44.1027 42.8187C44.1027 41.6909 43.7576 40.6756 43.0701 39.7802C42.3856 38.8886 41.4499 38.2005 40.2725 37.712C39.1088 37.2128 37.8266 36.9648 36.429 36.9648C35.0447 36.9648 33.7627 37.213 32.5855 37.712C31.4219 38.2006 30.4872 38.8884 29.7893 39.7784L29.7893 39.7784L29.7879 39.7802C29.1004 40.6756 28.7554 41.6909 28.7554 42.8187C28.7554 43.9464 29.1004 44.9665 29.7871 45.872L29.7871 45.872L29.7893 45.8748C30.4869 46.7645 31.4212 47.4574 32.5843 47.9565ZM40.5892 40.8035L40.5892 40.8035L40.5912 40.8063C40.996 41.3787 41.2009 42.0466 41.2009 42.8187C41.2009 43.5908 40.996 44.2646 40.5902 44.8484L40.5892 44.8497C40.1955 45.425 39.6423 45.8756 38.9204 46.1991C38.1976 46.5125 37.3686 46.6718 36.429 46.6718C35.4895 46.6718 34.6604 46.5125 33.9376 46.1991C33.2162 45.8758 32.6554 45.4251 32.2474 44.8491C31.8554 44.2656 31.6572 43.5914 31.6572 42.8187C31.6572 42.0456 31.8556 41.3772 32.2468 40.8049C32.6547 40.2288 33.2152 39.7834 33.9364 39.4705C34.6595 39.1568 35.489 38.9973 36.429 38.9973C37.3691 38.9973 38.1985 39.1568 38.9217 39.4705C39.643 39.7835 40.1958 40.2285 40.5892 40.8035Z" fill="#007AD9" stroke="#007AD9" stroke-width="0.446322"/>
<path d="M51.1338 53.5729V53.3497H50.9106H48.6798H48.4566V53.5729V65.9287C48.4566 66.471 48.3189 66.8885 48.0624 67.2016C47.8173 67.4884 47.4537 67.6455 46.9338 67.6455C46.4142 67.6455 46.0506 67.4885 45.8056 67.202C45.5622 66.9022 45.4232 66.4839 45.411 65.9239L45.4063 65.7055H45.1879C44.511 65.7055 43.8651 66.0008 43.4694 66.4547C43.0664 66.9171 42.9189 67.5562 43.2888 68.1832C43.4529 68.4612 43.653 68.7139 43.8885 68.941L43.8899 68.9424C44.6755 69.6867 45.6974 70.0511 46.9338 70.0511C48.1698 70.0511 49.1859 69.6869 49.9591 68.9417C50.7484 68.1935 51.1338 67.1801 51.1338 65.9287V53.5729Z" fill="#009400" stroke="#009400" stroke-width="0.446322"/>
<path d="M31.8714 61.8254L31.8738 61.8267C32.1075 61.9566 32.457 62.061 32.8454 62.1466C33.2395 62.2335 33.6943 62.3052 34.1518 62.3623C35.0659 62.4764 36.0067 62.5338 36.5223 62.5338C37.0454 62.5338 37.8738 62.4762 38.6775 62.3618C39.471 62.2489 40.2805 62.0755 40.7399 61.8282L40.741 61.8276C41.6302 61.3425 42.3324 60.6606 42.8443 59.785C43.3579 58.9064 43.6119 57.9031 43.6119 56.7819C43.6119 55.6617 43.3649 54.6593 42.8649 53.781C42.3665 52.9054 41.6837 52.2288 40.8188 51.7557C40.3652 51.5077 39.5597 51.3343 38.7698 51.2214C37.9692 51.107 37.1424 51.0494 36.6193 51.0494C36.0973 51.0494 35.1501 51.1068 34.2296 51.2208C33.7688 51.2779 33.3109 51.3496 32.9137 51.4365C32.522 51.5221 32.1698 51.6264 31.9333 51.7557C31.0683 52.2288 30.3855 52.9054 29.8871 53.781C29.3872 54.6593 29.1401 55.6617 29.1401 56.7819C29.1401 57.9135 29.38 58.9217 29.8664 59.7999L29.8671 59.8012C30.3523 60.6636 31.0212 61.3396 31.8714 61.8254ZM39.3256 59.7863L39.3256 59.7862L39.3234 59.7874C39.2332 59.8373 39.0554 59.8916 38.8052 59.9423C38.5625 59.9914 38.2745 60.033 37.9806 60.0666C37.3917 60.1338 36.7961 60.167 36.5223 60.167C36.0929 60.167 35.2468 60.0913 34.4342 59.938C34.0286 59.8616 33.638 59.767 33.3155 59.6554C32.9858 59.5414 32.7594 59.4201 32.6492 59.3061C32.1174 58.7259 31.8367 57.895 31.8367 56.7819C31.8367 56.0324 31.9742 55.4179 32.237 54.9281L32.237 54.9281L32.238 54.9261C32.5048 54.4169 32.8573 54.0433 33.2938 53.7952C33.3795 53.7483 33.5808 53.6936 33.8805 53.6422C34.1696 53.5926 34.5192 53.5508 34.8746 53.5171C35.5866 53.4496 36.3052 53.4162 36.5805 53.4162C36.8543 53.4162 37.4499 53.4494 38.0388 53.5166C38.3326 53.5502 38.6207 53.5918 38.8634 53.6409C39.1136 53.6916 39.2914 53.7459 39.3816 53.7958C39.8323 54.0448 40.1979 54.4198 40.4772 54.9298L40.4772 54.9298L40.4783 54.9318C40.7525 55.4207 40.8959 56.0338 40.8959 56.7819C40.8959 57.5283 40.7467 58.1476 40.4597 58.6499C40.1681 59.1603 39.7898 59.5363 39.3256 59.7863Z" fill="#009400" stroke="#009400" stroke-width="0.446322"/>
<path d="M57.4789 61.9054L57.4812 61.9067C57.7149 62.0366 58.0644 62.141 58.4528 62.2266C58.8469 62.3135 59.3017 62.3852 59.7593 62.4423C60.6733 62.5564 61.6141 62.6138 62.1297 62.6138C62.6528 62.6138 63.4812 62.5562 64.2849 62.4418C65.0784 62.3289 65.8879 62.1555 66.3473 61.9081L66.3484 61.9076C67.2376 61.4225 67.9398 60.7406 68.4517 59.865C68.9653 58.9863 69.2193 57.9831 69.2193 56.8619C69.2193 55.7417 68.9723 54.7393 68.4724 53.861C67.9739 52.9854 67.2912 52.3087 66.4262 51.8357C65.9726 51.5877 65.1671 51.4142 64.3772 51.3014C63.5767 51.187 62.7498 51.1294 62.2267 51.1294C61.7047 51.1294 60.7576 51.1868 59.837 51.3008C59.3763 51.3579 58.9183 51.4296 58.5211 51.5165C58.1294 51.6021 57.7772 51.7064 57.5407 51.8357C56.6757 52.3087 55.993 52.9854 55.4945 53.861C54.9946 54.7393 54.7475 55.7417 54.7475 56.8619C54.7475 57.9935 54.9874 59.0016 55.4738 59.8799L55.4746 59.8811C55.9597 60.7436 56.6286 61.4196 57.4789 61.9054ZM64.933 59.8662L64.933 59.8662L64.9308 59.8674C64.8406 59.9173 64.6628 59.9715 64.4126 60.0222C64.1699 60.0714 63.8819 60.113 63.588 60.1465C62.9991 60.2138 62.4035 60.2469 62.1297 60.2469C61.7003 60.2469 60.8542 60.1712 60.0416 60.018C59.6361 59.9415 59.2454 59.847 58.923 59.7354C58.5932 59.6214 58.3668 59.5001 58.2566 59.3861C57.7248 58.8059 57.4442 57.975 57.4442 56.8619C57.4442 56.1124 57.5816 55.4978 57.8444 55.0081L57.8444 55.0081L57.8455 55.0061C58.1122 54.4969 58.4647 54.1233 58.9012 53.8752C58.987 53.8283 59.1882 53.7736 59.4879 53.7222C59.7771 53.6726 60.1266 53.6308 60.4821 53.5971C61.194 53.5296 61.9126 53.4962 62.1879 53.4962C62.4617 53.4962 63.0573 53.5294 63.6462 53.5966C63.9401 53.6302 64.2281 53.6717 64.4708 53.7209C64.721 53.7716 64.8988 53.8259 64.989 53.8758C65.4397 54.1248 65.8053 54.4997 66.0846 55.0098L66.0846 55.0098L66.0857 55.0118C66.36 55.5007 66.5033 56.1138 66.5033 56.8619C66.5033 57.6082 66.3542 58.2276 66.0672 58.7299C65.7755 59.2402 65.3972 59.6163 64.933 59.8662Z" fill="#009400" stroke="#009400" stroke-width="0.446322"/>
<path d="M93.8012 33.5354L115.019 16.3629L129.724 39.3607L133.986 66.3225L106.718 67.5579L81.2366 57.7686L93.8012 33.5354Z" stroke="url(#paint0_radial_4371_343)" stroke-width="0.626456"/>
<path d="M92.7074 35.0048L112.348 16.0483L129.001 37.677L135.597 64.1647L108.54 67.772L82.3027 60.2408L92.7074 35.0048Z" stroke="url(#paint1_radial_4371_343)" stroke-width="0.626456"/>
<path d="M91.7424 36.5634L109.656 15.9673L128.131 36.0623L137.011 61.8743L110.371 67.8261L83.5768 62.6102L91.7424 36.5634Z" stroke="url(#paint2_radial_4371_343)" stroke-width="0.626456"/>
<path d="M90.9175 38.1997L106.968 16.1206L127.124 34.529L138.219 59.4689L112.2 67.7198L85.0531 64.859L90.9175 38.1997Z" stroke="url(#paint3_radial_4371_343)" stroke-width="0.626456"/>
<path d="M90.2429 39.9042L104.308 16.5103L125.991 33.0919L139.218 56.9699L114.017 67.4572L86.7243 66.9732L90.2429 39.9042Z" stroke="url(#paint4_radial_4371_343)" stroke-width="0.626456"/>
<path d="M89.7158 41.6604L101.689 17.1296L124.735 31.7584L139.992 54.3926L115.801 67.0365L88.5699 68.9331L89.7158 41.6604Z" stroke="url(#paint5_radial_4371_343)" stroke-width="0.626455"/>
<path d="M89.3406 43.4558L99.1299 17.9749L123.363 30.5394L140.536 51.7577L117.538 66.4619L90.576 70.7246L89.3406 43.4558Z" stroke="url(#paint6_radial_4371_343)" stroke-width="0.626456"/>
<path d="M89.1282 45.2747L96.6595 19.0375L121.895 29.4421L140.852 49.083L119.223 65.7357L92.7355 72.332L89.1282 45.2747Z" stroke="url(#paint7_radial_4371_343)" stroke-width="0.626456"/>
<path d="M89.0733 47.1077L94.2892 20.314L120.336 28.4796L140.932 46.3936L120.837 64.8679L95.0251 73.7477L89.0733 47.1077Z" stroke="url(#paint8_radial_4371_343)" stroke-width="0.626456"/>
<path d="M89.1797 48.936L92.0405 21.7896L118.7 27.654L140.779 43.7047L122.371 63.8602L97.4306 74.9558L89.1797 48.936Z" stroke="url(#paint9_radial_4371_343)" stroke-width="0.626456"/>
<path d="M89.4405 50.7498L89.9244 23.4573L116.993 26.9759L140.387 41.0412L123.806 62.7244L99.9278 75.9515L89.4405 50.7498Z" stroke="url(#paint10_radial_4371_343)" stroke-width="0.626456"/>
<path d="M89.8639 52.5352L87.9673 25.3044L115.24 26.4503L139.771 38.4233L125.142 61.4691L102.508 76.727L89.8639 52.5352Z" stroke="url(#paint11_radial_4371_343)" stroke-width="0.626456"/>
<path d="M90.44 54.2724L86.1774 27.3105L113.446 26.0752L138.927 35.8645L126.363 60.0976L105.144 77.2701L90.44 54.2724Z" stroke="url(#paint12_radial_4371_343)" stroke-width="0.626456"/>
<path d="M91.1643 55.9577L84.5679 29.47L111.625 25.8626L137.862 33.3939L127.458 58.6299L107.817 77.5864L91.1643 55.9577Z" stroke="url(#paint13_radial_4371_343)" stroke-width="0.626456"/>
<path d="M92.0333 57.5711L83.1535 31.7591L109.793 25.8073L136.587 31.0232L128.422 57.07L110.508 77.6661L92.0333 57.5711Z" stroke="url(#paint14_radial_4371_343)" stroke-width="0.626456"/>
<path d="M93.0395 59.1049L81.9439 34.1651L107.964 25.9141L135.11 28.7749L129.246 55.4343L113.195 77.5133L93.0395 59.1049Z" stroke="url(#paint15_radial_4371_343)" stroke-width="0.626455"/>
<path d="M94.1748 60.5415L80.9477 36.6635L106.149 26.1762L133.442 26.6602L129.923 53.7292L115.858 77.1231L94.1748 60.5415Z" stroke="url(#paint16_radial_4371_343)" stroke-width="0.626456"/>
<path d="M121.756 61.7934C122.327 61.3114 122.537 60.5613 122.369 59.8834C138.973 44.4008 117.096 17.7557 98.2252 32.1651C97.5311 32.704 97.3293 33.403 97.4478 34.0312C90.4164 39.8759 89.3867 51.8363 96.1833 58.3269C102.275 66.0732 113.963 68.5369 121.756 61.7934ZM98.5527 35.4519C99.1026 35.7069 99.7889 35.6982 100.468 35.2269C116.603 22.5069 134.495 44.9434 121.178 58.5634C120.534 58.3297 119.786 58.452 119.246 58.9468C113.211 64.692 103.157 62.4829 98.2118 56.3467C92.1615 51.0279 92.861 40.7835 98.5527 35.4519Z" fill="#009400"/>
<path d="M90.0529 70.2399C94.9922 69.1438 97.5761 71.4329 101.404 74.2099C102.517 79.803 111.175 80.31 113.223 75.1264C116.441 74.6984 119.591 73.7018 122.466 72.1981C127.004 75.418 134.109 69.5573 131.675 64.448C133.688 61.8378 135.232 58.8723 136.214 55.7329C138.48 55.2974 140.454 53.3635 140.623 51.0061C141.155 48.1774 139.274 45.6806 137.71 43.5969C135.951 40.8163 135.67 36.7216 134.72 33.8518C136.719 31.1347 135.135 27.8409 132.722 26.04C131.102 24.8526 128.989 25.328 127.204 24.977C123.918 24.0029 121.219 21.9639 117.919 20.8413C117.352 16.9291 112.598 15.4701 109.165 16.7545C107.92 17.2944 107.287 18.6047 106.516 19.5906C103.774 20.3985 98.3528 23.0321 95.8043 22.0058C94.9142 21.6544 93.6029 21.3336 92.5388 21.7133C89.4542 23.0617 86.42 26.5765 87.8032 30.1159C85.8413 32.5454 84.3088 35.3105 83.2506 38.2477C82.986 38.98 83.3851 39.792 84.1269 40.0291C84.8529 40.2628 85.6308 39.8637 85.8644 39.1379C86.3328 37.6806 86.9399 36.2646 87.6779 34.9216C88.4201 33.5663 89.2862 32.2769 90.2684 31.0854C91.5538 29.5156 87.3144 28.0883 92.9619 24.1373C93.991 23.4771 95.2076 24.4401 96.3406 24.6658C98.3842 24.8333 100.542 23.8735 102.512 23.4059C104.242 22.8788 105.941 22.2762 107.617 21.6227C110.167 19.5937 108.756 17.8019 113.759 18.9725C116.294 19.8058 114.963 22.2005 116.529 22.8469C120.359 23.9471 123.81 27.0718 127.916 27.5283C129.018 27.6049 130.058 27.5063 131.025 27.8906C131.224 27.9856 131.403 28.1122 131.555 28.2695C134.825 31.7048 132.126 31.2848 132.207 34.2478C133.332 37.7744 133.474 41.8685 135.569 45.0881C136.451 46.3296 137.46 47.5686 137.899 48.9721C138.541 50.9759 137.298 53.1466 135.103 53.1541C134.54 53.1767 134.027 53.5548 133.864 54.1264C132.899 57.5156 131.21 60.6941 128.931 63.3797C128.55 63.8309 128.483 64.4978 128.815 65.0247C129.572 66.2569 129.484 67.8721 128.291 68.7519C127.321 69.6849 126.052 70.578 124.716 70.0436C123.825 69.7196 122.971 68.4611 121.869 69.141C118.799 70.8397 115.388 71.8702 111.893 72.1598C111.231 72.2162 110.656 72.7005 110.516 73.3844C110.117 75.7203 106.879 76.1447 105.252 74.8435C104.495 73.9443 104.559 72.4006 103.47 71.6842C100.347 69.4223 97.1708 66.6051 93.0491 66.5066C89.2906 66.623 90.3969 67.6426 87.8234 64.1181C87.8296 64.1224 87.834 64.1342 87.8372 64.1363C87.8374 64.1388 87.8381 64.1386 87.8386 64.1384C87.7607 62.7351 88.5593 61.1277 88.2451 59.6429C87.8742 56.4699 87.1085 56.8713 86.2958 53.9263C86.0314 52.8957 86.7293 55.6164 86.2958 53.9263C83.0378 55.0833 83.3375 55.348 83.8578 57.3837C85.855 61.2636 83.0344 63.2165 84.9714 66.229C86.2127 67.9398 87.6892 70.1362 90.0529 70.2399Z" fill="#009400"/>
<path d="M114.147 37.5781L111.224 38.3496L109.262 37.5781L106.059 48.2658H109.439L106.479 56.2445L113.727 45.5574H109.364L114.147 37.5781Z" fill="#007AD9"/>
<defs>
<radialGradient id="paint0_radial_4371_343" cx="0" cy="0" r="1" gradientUnits="userSpaceOnUse" gradientTransform="translate(110.081 46.818) rotate(99.211) scale(31.3228)">
<stop stop-color="#009400"/>
<stop offset="0.541667" stop-color="#007AD9"/>
<stop offset="1" stop-color="#D9D9D9" stop-opacity="0"/>
</radialGradient>
<radialGradient id="paint1_radial_4371_343" cx="0" cy="0" r="1" gradientUnits="userSpaceOnUse" gradientTransform="translate(110.083 46.8179) rotate(94.211) scale(31.3228)">
<stop stop-color="#009400"/>
<stop offset="0.541667" stop-color="#007AD9"/>
<stop offset="1" stop-color="#D9D9D9" stop-opacity="0"/>
</radialGradient>
<radialGradient id="paint2_radial_4371_343" cx="0" cy="0" r="1" gradientUnits="userSpaceOnUse" gradientTransform="translate(110.081 46.8172) rotate(89.211) scale(31.3228)">
<stop stop-color="#009400"/>
<stop offset="0.541667" stop-color="#007AD9"/>
<stop offset="1" stop-color="#D9D9D9" stop-opacity="0"/>
</radialGradient>
<radialGradient id="paint3_radial_4371_343" cx="0" cy="0" r="1" gradientUnits="userSpaceOnUse" gradientTransform="translate(110.08 46.8162) rotate(84.211) scale(31.3228)">
<stop stop-color="#009400"/>
<stop offset="0.541667" stop-color="#007AD9"/>
<stop offset="1" stop-color="#D9D9D9" stop-opacity="0"/>
</radialGradient>
<radialGradient id="paint4_radial_4371_343" cx="0" cy="0" r="1" gradientUnits="userSpaceOnUse" gradientTransform="translate(110.084 46.8178) rotate(79.211) scale(31.3228)">
<stop stop-color="#009400"/>
<stop offset="0.541667" stop-color="#007AD9"/>
<stop offset="1" stop-color="#D9D9D9" stop-opacity="0"/>
</radialGradient>
<radialGradient id="paint5_radial_4371_343" cx="0" cy="0" r="1" gradientUnits="userSpaceOnUse" gradientTransform="translate(110.084 46.8184) rotate(74.211) scale(31.3228)">
<stop stop-color="#009400"/>
<stop offset="0.541667" stop-color="#007AD9"/>
<stop offset="1" stop-color="#D9D9D9" stop-opacity="0"/>
</radialGradient>
<radialGradient id="paint6_radial_4371_343" cx="0" cy="0" r="1" gradientUnits="userSpaceOnUse" gradientTransform="translate(110.08 46.819) rotate(69.211) scale(31.3228)">
<stop stop-color="#009400"/>
<stop offset="0.541667" stop-color="#007AD9"/>
<stop offset="1" stop-color="#D9D9D9" stop-opacity="0"/>
</radialGradient>
<radialGradient id="paint7_radial_4371_343" cx="0" cy="0" r="1" gradientUnits="userSpaceOnUse" gradientTransform="translate(110.082 46.8175) rotate(64.211) scale(31.3228)">
<stop stop-color="#009400"/>
<stop offset="0.541667" stop-color="#007AD9"/>
<stop offset="1" stop-color="#D9D9D9" stop-opacity="0"/>
</radialGradient>
<radialGradient id="paint8_radial_4371_343" cx="0" cy="0" r="1" gradientUnits="userSpaceOnUse" gradientTransform="translate(110.082 46.8184) rotate(59.211) scale(31.3228)">
<stop stop-color="#009400"/>
<stop offset="0.541667" stop-color="#007AD9"/>
<stop offset="1" stop-color="#D9D9D9" stop-opacity="0"/>
</radialGradient>
<radialGradient id="paint9_radial_4371_343" cx="0" cy="0" r="1" gradientUnits="userSpaceOnUse" gradientTransform="translate(110.083 46.8167) rotate(54.211) scale(31.3228)">
<stop stop-color="#009400"/>
<stop offset="0.541667" stop-color="#007AD9"/>
<stop offset="1" stop-color="#D9D9D9" stop-opacity="0"/>
</radialGradient>
<radialGradient id="paint10_radial_4371_343" cx="0" cy="0" r="1" gradientUnits="userSpaceOnUse" gradientTransform="translate(110.08 46.8167) rotate(49.211) scale(31.3228)">
<stop stop-color="#009400"/>
<stop offset="0.541667" stop-color="#007AD9"/>
<stop offset="1" stop-color="#D9D9D9" stop-opacity="0"/>
</radialGradient>
<radialGradient id="paint11_radial_4371_343" cx="0" cy="0" r="1" gradientUnits="userSpaceOnUse" gradientTransform="translate(110.082 46.8182) rotate(44.211) scale(31.3228)">
<stop stop-color="#009400"/>
<stop offset="0.541667" stop-color="#007AD9"/>
<stop offset="1" stop-color="#D9D9D9" stop-opacity="0"/>
</radialGradient>
<radialGradient id="paint12_radial_4371_343" cx="0" cy="0" r="1" gradientUnits="userSpaceOnUse" gradientTransform="translate(110.083 46.8151) rotate(39.211) scale(31.3228)">
<stop stop-color="#009400"/>
<stop offset="0.541667" stop-color="#007AD9"/>
<stop offset="1" stop-color="#D9D9D9" stop-opacity="0"/>
</radialGradient>
<radialGradient id="paint13_radial_4371_343" cx="0" cy="0" r="1" gradientUnits="userSpaceOnUse" gradientTransform="translate(110.082 46.8168) rotate(34.211) scale(31.3228)">
<stop stop-color="#009400"/>
<stop offset="0.541667" stop-color="#007AD9"/>
<stop offset="1" stop-color="#D9D9D9" stop-opacity="0"/>
</radialGradient>
<radialGradient id="paint14_radial_4371_343" cx="0" cy="0" r="1" gradientUnits="userSpaceOnUse" gradientTransform="translate(110.083 46.8161) rotate(29.211) scale(31.3228)">
<stop stop-color="#009400"/>
<stop offset="0.541667" stop-color="#007AD9"/>
<stop offset="1" stop-color="#D9D9D9" stop-opacity="0"/>
</radialGradient>
<radialGradient id="paint15_radial_4371_343" cx="0" cy="0" r="1" gradientUnits="userSpaceOnUse" gradientTransform="translate(110.083 46.8178) rotate(24.211) scale(31.3228)">
<stop stop-color="#009400"/>
<stop offset="0.541667" stop-color="#007AD9"/>
<stop offset="1" stop-color="#D9D9D9" stop-opacity="0"/>
</radialGradient>
<radialGradient id="paint16_radial_4371_343" cx="0" cy="0" r="1" gradientUnits="userSpaceOnUse" gradientTransform="translate(110.082 46.8156) rotate(19.211) scale(31.3228)">
<stop stop-color="#009400"/>
<stop offset="0.541667" stop-color="#007AD9"/>
<stop offset="1" stop-color="#D9D9D9" stop-opacity="0"/>
</radialGradient>
</defs>
</svg>
