<svg width="35" height="24" viewBox="0 0 35 24" fill="none" xmlns="http://www.w3.org/2000/svg">
<path opacity="0.7" d="M28 7.71429V5.14286H26.25V3.42857C26.25 2.51926 25.8812 1.64719 25.2249 1.00421C24.5685 0.361223 23.6783 0 22.75 0H3.5C2.57174 0 1.6815 0.361223 1.02513 1.00421C0.368749 1.64719 0 2.51926 0 3.42857V15.4286C0 16.3379 0.368749 17.21 1.02513 17.8529C1.6815 18.4959 2.57174 18.8571 3.5 18.8571H22.75C23.6783 18.8571 24.5685 18.4959 25.2249 17.8529C25.8812 17.21 26.25 16.3379 26.25 15.4286V13.7143H28V11.1429H35V7.71429H28ZM21 15.4286H5.25V13.7143H21V15.4286ZM21 12H5.25V10.2857H21V12ZM21 8.57143H5.25V6.85714H21V8.57143ZM21 5.14286H5.25V3.42857H21V5.14286ZM1.75 20.5714H24.5V24H1.75V20.5714Z" fill="#ECECEC"/>
</svg>
