<svg width="1442" height="2623" viewBox="0 0 1442 2623" fill="none" xmlns="http://www.w3.org/2000/svg">
<g clip-path="url(#clip0_4458_3874)">
<rect width="1442" height="2623" fill="#F1FFF1"/>
<path d="M377.867 1223V1316.76L346.889 1285.79V1223H346.321L346.418 1223.1V1285.32L315.44 1254.35V1223H314.968V1254.35L283.991 1285.32V1223H94.818V1254.35L63.8404 1285.32V1223H63.2719L32.391 1253.88V1223H31.9192V1254.35L0.941589 1285.32V1223H-188V1317.57H-94.218L-125.196 1348.54H-188V1349.11L-187.903 1349.01H-125.67L-156.647 1379.98H-188V1380.46H-156.647L-125.67 1411.43H-188V1411.9H-125.67L-156.647 1442.87H-188V1443.34H-157.119L-188 1474.22V1474.79H-125.67L-156.647 1505.76H-188V1789H0.936874V1726.68L31.9145 1757.65V1789H32.3863V1757.65L63.3639 1726.68V1788.9L63.2672 1789H63.8356V1726.21L94.8133 1695.24V1789H283.986V1757.65L284.083 1757.56L283.986 1757.46V1726.68L314.964 1757.65V1789H315.435V1758.12L346.316 1789H346.885V1726.68L377.862 1757.65V1789H378.098V1505.76H284.316L315.294 1474.79H378.096V1474.22L377.999 1474.32H315.766L346.743 1443.35H378.096V1442.88H346.743L315.766 1411.9H378.096V1411.43H315.766L346.743 1380.46H378.096V1379.99H347.215L378.096 1349.11V1348.55H315.766L346.743 1317.57H378.096V1223H377.86H377.867ZM315.202 1254.78L346.415 1285.99V1317.1H283.986V1285.99L315.2 1254.78H315.202ZM346.887 1286.46L377.532 1317.1H346.887V1286.46ZM158.049 1757.32L127.072 1726.35H189.305L220.283 1757.32H158.049ZM32.7212 1694.43L63.6988 1663.46H126.404L157.382 1694.43H32.7212ZM-30.8474 1757.32H-93.081L-62.1034 1726.35H0.130188L-30.8474 1757.32ZM-156.315 1568.99L-125.337 1538.01V1600.24L-156.315 1631.21V1568.99ZM-94.2203 1506.24L-124.865 1536.88V1506.24H-94.2203ZM-93.4136 1443.01V1380.32L-62.436 1349.35V1474.46L-93.4136 1505.43V1443.21L-93.3169 1443.11L-93.4136 1443.02V1443.01ZM0.132538 1285.65H-62.1011L-93.0787 1254.68H-30.8451L0.132538 1285.65ZM126.6 1254.68H188.834L157.856 1285.65H95.6223L126.6 1254.68ZM283.656 1537.68L314.633 1568.65H252.4L221.422 1537.68H283.656ZM251.971 1568.89L220.757 1600.1H189.64V1537.68H220.757L251.971 1568.89V1568.89ZM283.519 1726.21V1756.99L221.425 1694.9H283.519V1726.02L283.422 1726.11L283.519 1726.21ZM158.052 1694.43L126.838 1663.22L158.052 1632.02H189.168V1694.43H158.052V1694.43ZM126.407 1662.99H64.1729L95.1506 1632.02H157.384L126.407 1662.99ZM-125 1725.88L-155.977 1694.9H-31.3168L-62.2945 1725.88H-125ZM-93.883 1632.35V1694.43H-155.977L-93.883 1632.35ZM95.2874 1286.46L125.932 1317.1H95.2874V1286.46ZM220.755 1286.13L251.732 1317.1H127.072L158.049 1286.13H220.755ZM283.517 1380.32V1443.01L252.539 1473.99V1348.87L283.517 1317.9V1380.12L283.42 1380.22L283.517 1380.32V1380.32ZM158.521 1631.54L189.166 1600.9V1631.54H158.521ZM32.7212 1631.54L63.6988 1600.57H95.2874H188.834L157.856 1631.54H32.7212ZM-30.5125 1694.43V1663.79L0.132538 1694.43H-30.5125ZM0.465118 1694.9V1725.54L-30.1799 1694.9H0.465118ZM-30.9843 1694.43H-93.4136V1663.32L-62.2001 1632.11L-30.9866 1663.32V1694.43H-30.9843ZM-30.5125 1380.32L0.465118 1349.35V1411.43V1473.99L-30.5125 1443.01V1380.32ZM32.1527 1317.67L32.2495 1317.57H126.404L157.382 1348.54H32.2471L1.26945 1317.57H32.0537L32.1504 1317.67H32.1527ZM221.09 1505.43V1443.21L252.067 1412.24V1474.46L221.09 1505.43ZM-62.4336 1631.68L-93.4113 1662.65V1538.01L-62.4336 1568.98V1631.68V1631.68ZM-62.7662 1506.23L-93.4113 1536.87V1506.23H-62.7662ZM-93.3122 1537.44L-62.4313 1506.57V1568.32L-93.3122 1537.44ZM0.941589 1505.76V1443.68L31.9192 1474.65V1537.34L0.941589 1568.32V1505.76ZM31.5866 1348.54H0.941589V1317.9L31.5866 1348.54ZM0.941589 1349.01H32.0584L63.2719 1380.22L32.0584 1411.43H0.941589V1349.01V1349.01ZM220.62 1443.01L189.643 1473.98V1380.32L189.739 1380.22L189.643 1380.12V1349.35L220.62 1380.32V1443.01ZM220.62 1505.43L189.739 1474.55L220.62 1443.68V1505.43ZM189.171 1599.76L158.193 1568.79V1443.68L189.074 1474.55L189.171 1474.65V1505.76V1599.76V1599.76ZM63.7035 1380.46H126.409L157.387 1411.43H126.605L126.508 1411.33L126.411 1411.43H94.8227H32.7283L63.7059 1380.46H63.7035ZM157.721 1505.43L126.744 1474.46V1412.24L157.721 1443.21V1505.43ZM63.8427 1443.21L94.8203 1412.24V1443.01L94.7236 1443.11L94.8203 1443.2V1506V1537.34L63.8427 1568.31V1443.2V1443.21ZM94.4878 1411.9L63.8427 1442.54V1411.9H94.4878ZM94.8203 1538.01V1600.1H32.7259L94.8203 1538.01ZM95.2921 1411.9H125.937L95.2921 1442.54V1411.9ZM126.27 1412.23V1473.98L95.3888 1443.11L126.27 1412.23ZM127.076 1411.9H157.858L157.955 1412L158.052 1411.9H189.168V1473.98L127.074 1411.9H127.076ZM158.526 1411.43L189.171 1380.79V1411.43H158.526ZM157.955 1411.33L127.074 1380.46H188.836L157.955 1411.33ZM63.3686 1411.9V1443.01L32.1551 1474.22L0.941589 1443.01V1411.9H63.3709H63.3686ZM32.391 1474.65L63.3686 1443.68V1505.9L32.391 1536.87V1474.65ZM63.3686 1506.57V1568.79L32.391 1599.76V1537.54L63.3686 1506.57ZM31.9192 1599.76L1.0383 1568.88L31.9192 1538.01V1599.76ZM31.5866 1600.09H0.941589V1569.45L31.5866 1600.09ZM95.2921 1506V1443.68L126.27 1474.65V1537.34L95.2921 1568.31V1506ZM126.741 1475.12L157.719 1506.09V1568.31L126.741 1537.34V1475.12ZM189.171 1317.56V1379.65L127.076 1317.56H189.171ZM188.838 1379.98H126.605L95.627 1349.01H157.861L188.838 1379.98ZM94.9595 1349.01L125.937 1379.98H63.7035L32.7259 1349.01H94.9595ZM95.2921 1568.98L126.506 1537.78L157.719 1568.98V1600.1H95.2897V1568.98H95.2921ZM158.193 1569.46L188.838 1600.1H158.193V1569.46ZM189.643 1475.12L220.288 1505.76H189.643V1475.12ZM252.072 1411.57L221.094 1442.54V1380.31L252.072 1349.34V1411.57ZM220.858 1379.89L189.645 1348.68V1317.57H252.074V1348.68L220.861 1379.89H220.858ZM0.472198 1348.21L-30.1729 1317.57H0.472198V1348.21ZM-30.5054 1317.9L0.375488 1348.78L-30.5054 1379.65V1317.9ZM-61.9548 1631.68V1569.46L-30.9772 1600.43V1662.65L-61.9548 1631.68ZM-30.9772 1599.76L-61.9548 1568.79V1506.57L-30.9772 1537.54V1599.76ZM-61.6222 1506.23H0.472198V1568.32L-61.6222 1506.23ZM32.0607 1600.57L32.1575 1600.66L32.2542 1600.57H63.036L0.941589 1662.65V1600.57H32.0584H32.0607ZM221.429 1505.76L283.524 1443.68V1505.76H221.429ZM252.546 1348.21V1317.57H283.191L252.546 1348.21ZM126.51 1317L95.6294 1286.12H157.391L126.51 1317ZM-30.1705 1317.1L0.474548 1286.46V1317.1H-30.1705ZM-30.7389 1317L-61.6199 1286.12H0.141968L-30.7389 1317ZM-31.3074 1317.57L-93.4018 1379.65V1317.57H-31.3074ZM-30.9748 1317.9V1380.12L-61.9525 1411.09V1348.87L-30.9748 1317.9ZM-61.9525 1411.76L-30.9748 1380.79V1443.01L-61.9525 1473.98V1411.76ZM-30.7389 1443.44L0.474548 1474.65V1505.76H-61.9548V1474.65L-30.7413 1443.44H-30.7389ZM-62.4242 1505.76H-93.0692L-62.4242 1475.12V1505.76ZM-30.7389 1694.99L0.141968 1725.87H-61.6199L-30.7389 1694.99ZM-30.5031 1663.12V1538.01L0.377853 1568.88L0.474548 1568.98V1600.56V1663.12L0.377853 1663.22L0.474548 1663.31V1694.09L-30.5031 1663.12ZM1.28127 1662.98L32.2589 1632.01H94.4925L63.5148 1662.98H1.28127ZM63.0431 1663.45L32.1622 1694.33L1.28127 1663.45H63.0431ZM189.65 1694.42V1632.34L251.744 1694.42H189.65ZM189.982 1632.01H252.216L283.193 1662.98H220.96L189.982 1632.01ZM189.982 1631.53L220.863 1600.66L251.744 1631.53H189.982ZM189.65 1631.2V1600.56H220.295L189.65 1631.2ZM189.65 1537.2V1506.56L220.295 1537.2H189.65ZM283.517 1254.21H252.872L283.517 1223.57V1254.21ZM283.517 1254.68V1317.1H252.4L221.186 1285.89L252.4 1254.68H283.517V1254.68ZM220.755 1285.65H158.521L189.499 1254.68H251.732L220.755 1285.65ZM0.936874 1317.1V1286.46L31.5819 1317.1H0.936874ZM-93.7462 1254.68L-62.7686 1285.65H-125.002L-155.98 1254.68H-93.7462ZM-125.002 1286.12H-62.2968L-31.3192 1317.1H-155.98L-125.002 1286.12ZM-93.8854 1506.57V1537.35L-93.9821 1537.44L-93.8854 1537.54V1631.68L-124.863 1662.65V1537.54L-93.8854 1506.57V1506.57ZM-125.335 1600.9V1663.12L-156.312 1694.1V1631.87L-125.335 1600.9ZM-156.784 1694.1L-187.667 1663.22L-156.786 1632.35V1694.1L-156.784 1694.1ZM-125.431 1726.11L-156.645 1757.32H-187.764V1694.9H-156.647L-125.434 1726.11L-125.431 1726.11ZM-125 1726.35H-62.7662L-93.7439 1757.32H-155.98L-125.002 1726.35H-125ZM0.93924 1663.79L31.5843 1694.43H0.93924V1663.79ZM95.2897 1695.24L125.935 1725.87H95.2897V1695.24ZM95.6223 1694.9H189.168H220.757L251.735 1725.87H126.602L95.6247 1694.9H95.6223ZM189.973 1726.35H252.206L283.184 1757.32H220.95L189.973 1726.35ZM283.184 1757.79L252.303 1788.67L221.422 1757.79H283.184ZM315.301 1694.43L315.204 1694.33L315.108 1694.43H252.402L221.425 1663.46H346.559L377.537 1694.43H315.303H315.301ZM283.852 1662.98L252.874 1632.01H315.108L346.085 1662.98H283.852ZM315.108 1631.54H252.402L221.425 1600.57H346.085L315.108 1631.54ZM221.425 1600.1L252.402 1569.13H315.108L346.085 1600.1H221.422H221.425ZM315.775 1569.13H377.537L346.656 1600L315.775 1569.13ZM315.303 1568.65L284.326 1537.68H346.559L377.537 1568.65H315.303ZM220.953 1537.21L189.975 1506.24H220.759L220.856 1506.33L220.953 1506.24H315.108L346.085 1537.21H220.953ZM252.209 1254.21H127.074L158.049 1223.24H283.184L252.206 1254.21L252.209 1254.21ZM157.382 1223.24L95.2874 1285.32V1223.24H157.382ZM94.8156 1285.79L94.7189 1285.89L94.8156 1285.98V1317.1H32.7212L94.8156 1255.01V1285.79ZM63.3663 1223.57V1285.79L32.3886 1316.76V1254.54L63.3663 1223.57ZM31.9169 1255.01V1316.76L1.03593 1285.89L31.9169 1255.01ZM0.465118 1223.24V1285.32L-61.6293 1223.24H0.465118ZM-62.2968 1223.24L-31.3192 1254.21H-156.452L-187.432 1223.24H-62.2992H-62.2968ZM-157.119 1254.21H-187.764V1223.57L-157.119 1254.21ZM-187.764 1254.68H-156.647L-125.434 1285.89L-156.647 1317.1H-187.764V1254.68ZM-93.8854 1317.9V1348.54H-124.53L-93.8854 1317.9ZM-125.002 1349.01H-93.8854V1411.43H-125.002L-125.099 1411.33L-156.216 1380.22L-125.002 1349.02V1349.01ZM-93.8854 1411.9V1442.54L-124.53 1411.9H-93.8854ZM-125.099 1412L-94.218 1442.87H-155.98L-125.099 1412ZM-187.432 1474.32L-156.454 1443.35H-94.2203L-125.198 1474.32H-187.432ZM-93.8854 1443.68V1505.76H-155.98L-93.8854 1443.68ZM-125.335 1506.24V1537.35L-156.548 1568.55L-187.764 1537.35V1506.24H-125.335ZM-187.764 1538.01L-156.786 1568.99V1631.68L-187.764 1662.65V1538.01V1538.01ZM-157.119 1694.43H-187.764V1663.79L-157.119 1694.43ZM-187.764 1757.79H-157.119L-187.764 1788.43V1757.79ZM-156.452 1757.79H-31.3192L-62.2968 1788.76H-187.432L-156.454 1757.79H-156.452ZM-61.6293 1788.76L0.465118 1726.68V1788.76H-61.6293ZM32.1527 1757.22L1.03593 1726.11L0.93924 1726.01V1694.9H32.056L32.1527 1695L32.2495 1694.9H63.3663V1726.01L32.1527 1757.22ZM63.838 1694.9H94.483L63.838 1725.54V1694.9ZM95.2874 1726.35H126.404L157.618 1757.55L126.404 1788.76H95.2874V1726.34V1726.35ZM127.072 1788.76L158.049 1757.79H220.755L251.732 1788.76H127.069H127.072ZM252.872 1788.76L283.517 1758.12V1788.76H252.872ZM283.988 1694.9H314.633L283.988 1725.54V1694.9ZM284.085 1726.11L314.966 1695.24V1756.99L284.085 1726.11ZM346.415 1788.43L315.438 1757.46V1695.24L346.415 1726.21V1788.43ZM377.865 1756.99L315.77 1694.9H377.865V1756.99ZM377.865 1694.1L347.22 1663.46H377.865V1694.1ZM346.748 1662.99L315.534 1631.78L346.748 1600.57H377.865V1662.99H346.748V1662.99ZM377.865 1600.1H347.22L377.865 1569.46V1600.1ZM315.77 1506.24H377.865V1568.32L315.77 1506.24ZM283.986 1505.43V1474.79H314.631L283.986 1505.43ZM315.103 1474.32H283.986V1411.9H315.103L315.2 1412L346.316 1443.11L315.103 1474.32V1474.32ZM283.986 1411.43V1380.79L314.631 1411.43H283.986ZM315.2 1411.33L284.319 1380.46H346.08L315.2 1411.33ZM377.53 1349.01L346.552 1379.98H284.319L315.296 1349.01H377.53ZM283.984 1379.65V1317.57H346.078L283.984 1379.65Z" fill="url(#paint0_radial_4458_3874)"/>
<g opacity="0.11">
<path d="M109.985 389.754L122.938 385.784L131.858 388.893L144.321 340.473L129.185 341.069L141.032 304.822L110.46 353.952L129.995 353.183L109.985 389.754Z" fill="#5391DA"/>
<path d="M206.02 407.038L109.249 491.865L35.7197 386.254L10.6431 260.035L138.869 249.162L260.717 290.555L206.02 407.038Z" stroke="url(#paint1_radial_4458_3874)" stroke-width="2.95333"/>
<path d="M210.912 399.919L121.903 492.857L39.4485 394.057L3.46663 270.503L130.257 248.496L255.249 279.112L210.912 399.919Z" stroke="url(#paint2_radial_4458_3874)" stroke-width="2.95333"/>
<path d="M215.16 392.4L134.589 492.742L43.8377 401.505L-2.7757 281.557L121.614 248.583L248.798 268.189L215.16 392.4Z" stroke="url(#paint3_radial_4458_3874)" stroke-width="2.95333"/>
<path d="M218.736 384.537L147.217 491.519L48.859 408.538L-8.03108 293.11L113.012 249.42L241.421 257.866L218.736 384.537Z" stroke="url(#paint4_radial_4458_3874)" stroke-width="2.95333"/>
<path d="M221.616 376.382L159.693 489.19L54.4774 415.097L-12.2565 305.066L104.518 250.993L233.174 248.215L221.616 376.382Z" stroke="url(#paint5_radial_4458_3874)" stroke-width="2.95333"/>
<path d="M223.773 368.015L171.918 485.791L60.6447 421.15L-15.425 317.354L96.1922 253.309L224.117 239.329L223.773 368.015Z" stroke="url(#paint6_radial_4458_3874)" stroke-width="2.95333"/>
<path d="M225.198 359.489L183.805 481.337L67.3214 426.64L-17.5052 329.869L88.1054 256.34L214.325 231.263L225.198 359.489Z" stroke="url(#paint7_radial_4458_3874)" stroke-width="2.95333"/>
<path d="M225.864 350.883L195.248 475.874L74.441 431.537L-18.497 342.528L80.3033 260.074L203.857 224.092L225.864 350.883Z" stroke="url(#paint8_radial_4458_3874)" stroke-width="2.95333"/>
<path d="M225.783 342.231L206.178 469.416L81.9663 435.777L-18.3757 355.206L72.8622 264.455L192.81 217.841L225.783 342.231Z" stroke="url(#paint9_radial_4458_3874)" stroke-width="2.95333"/>
<path d="M224.949 333.633L216.504 462.042L89.8325 439.357L-17.1499 367.838L65.8314 269.48L181.26 212.59L224.949 333.633Z" stroke="url(#paint10_radial_4458_3874)" stroke-width="2.95333"/>
<path d="M223.369 325.148L226.147 453.804L97.9809 442.246L-14.8276 380.323L59.2654 275.107L169.296 208.373L223.369 325.148Z" stroke="url(#paint11_radial_4458_3874)" stroke-width="2.95333"/>
<path d="M221.055 316.815L235.036 444.74L106.35 444.396L-11.4263 392.541L53.2146 281.268L157.01 205.198L221.055 316.815Z" stroke="url(#paint12_radial_4458_3874)" stroke-width="2.95333"/>
<path d="M218.022 308.733L243.098 434.952L114.872 445.825L-6.97514 404.432L47.7217 287.949L144.493 203.122L218.022 308.733Z" stroke="url(#paint13_radial_4458_3874)" stroke-width="2.95333"/>
<path d="M214.293 300.936L250.275 424.489L123.485 446.496L-1.50688 415.881L42.8296 295.073L131.839 202.135L214.293 300.936Z" stroke="url(#paint14_radial_4458_3874)" stroke-width="2.95333"/>
<path d="M209.903 293.487L256.516 413.434L132.126 446.408L4.94185 426.803L38.5806 302.591L119.151 202.249L209.903 293.487Z" stroke="url(#paint15_radial_4458_3874)" stroke-width="2.95333"/>
<path d="M204.88 286.452L261.77 401.88L140.727 445.57L12.318 437.124L35.003 310.453L106.522 203.471L204.88 286.452Z" stroke="url(#paint16_radial_4458_3874)" stroke-width="2.95333"/>
<path d="M199.263 279.894L265.997 389.924L149.223 443.997L20.5665 446.775L32.1251 318.609L94.0475 205.801L199.263 279.894Z" stroke="url(#paint17_radial_4458_3874)" stroke-width="2.95333"/>
<path d="M68.8513 279.116C66.254 281.493 65.4004 285.065 66.3219 288.227C-9.0272 364.238 98.9648 485.701 185.191 414.326C188.36 411.658 189.181 408.328 188.507 405.391C220.547 376.555 223.181 320.023 189.961 290.707C159.832 255.345 104.313 245.905 68.8513 279.116ZM183.039 398.903C180.401 397.804 177.17 397.972 174.057 400.318C100.408 463.229 11.9654 360.852 72.1767 294.224C75.2519 295.206 78.7537 294.491 81.2046 292.061C108.571 263.878 156.338 272.422 180.773 300.411C210.26 324.345 208.863 372.733 183.039 398.903Z" fill="#5391DA"/>
<path d="M216.631 233.454C193.566 239.533 180.97 229.229 162.423 216.856C156.146 190.715 115.266 189.931 106.578 214.729C91.4995 217.342 76.8453 222.62 63.5789 230.236C41.6034 215.909 9.22083 244.834 21.6324 268.451C12.637 281.12 5.91091 295.376 1.86771 310.347C-8.72377 312.818 -17.6668 322.294 -18.0264 333.43C-20.009 346.854 -10.6857 358.267 -2.92881 367.793C5.8707 380.566 7.95231 399.802 12.9587 413.145C4.04573 426.315 12.1179 441.538 23.8221 449.574C31.6694 454.867 41.5392 452.236 50.0119 453.559C65.6705 457.539 78.7616 466.644 94.5159 471.32C97.914 489.645 120.576 495.636 136.512 488.95C142.278 486.176 145.013 479.886 148.463 475.099C161.23 470.785 186.281 457.374 198.476 461.737C202.735 463.227 208.971 464.495 213.913 462.509C228.194 455.586 241.836 438.466 234.664 422.05C243.456 410.241 250.163 396.932 254.603 382.899C255.714 379.4 253.683 375.65 250.145 374.67C246.682 373.704 243.091 375.728 242.125 379.19C240.189 386.142 237.592 392.925 234.364 399.388C231.119 405.91 227.278 412.144 222.872 417.939C217.108 425.573 237.343 431.51 211.471 451.169C206.745 454.47 200.836 450.159 195.457 449.305C185.799 448.895 175.813 453.816 166.618 456.384C158.566 459.188 150.673 462.342 142.902 465.73C131.266 475.761 138.244 483.94 114.461 479.353C102.362 475.897 108.191 464.37 100.69 461.615C82.4471 457.142 65.6097 443.062 46.183 441.673C40.9778 441.516 36.0977 442.173 31.4712 440.542C30.518 440.131 29.6518 439.568 28.9049 438.855C12.8626 423.279 25.6545 424.757 24.7262 410.814C18.7715 394.41 17.344 375.15 6.87675 360.372C2.49555 354.687 -2.49008 349.037 -4.81842 342.507C-8.21255 333.187 -2.75925 322.731 7.58103 322.289C10.2295 322.078 12.5727 320.202 13.2374 317.479C17.1551 301.335 24.5204 286.049 34.7589 272.975C36.4692 270.779 36.6603 267.625 35 265.204C31.2084 259.54 31.3226 251.915 36.7793 247.55C41.1758 242.975 46.9888 238.532 53.3786 240.803C57.6382 242.164 61.8922 247.934 66.9585 244.527C81.1072 235.955 96.9805 230.469 113.391 228.457C116.499 228.069 119.121 225.681 119.651 222.433C121.1 211.356 136.272 208.756 144.179 214.584C147.912 218.68 147.896 225.964 153.158 229.137C168.29 239.213 183.774 251.895 203.208 251.596C220.892 250.351 215.491 245.753 228.268 261.879C228.238 261.86 228.215 261.805 228.2 261.796C228.198 261.784 228.195 261.785 228.192 261.786C228.819 268.382 225.356 276.102 227.111 283.038C229.446 297.917 232.979 295.884 237.353 309.606C238.789 314.412 234.997 301.725 237.353 309.606C252.486 303.552 251.025 302.361 248.196 292.868C238.069 274.961 250.994 265.239 241.311 251.407C235.147 243.577 227.785 233.505 216.631 233.454Z" fill="#5391DA"/>
</g>
<path d="M1583.82 118V241.584L1543 200.762V118H1542.25L1542.37 118.127V200.138L1501.54 159.316V118H1500.92V159.316L1460.09 200.138V118H1210.76V159.316L1169.93 200.138V118H1169.18L1128.48 158.694V118H1127.86V159.316L1087.03 200.138V118H838V242.644H961.607L920.778 283.466H838V284.215L838.127 284.088H920.153L879.323 324.909H838V325.531H879.323L920.153 366.353H838V366.974H920.153L879.323 407.796H838V408.418H878.702L838 449.115V449.864H920.153L879.323 490.686H838V863.997H1087.02V781.859L1127.85 822.681V863.997H1128.47V822.681L1169.3 781.859V863.87L1169.18 863.997H1169.92V781.237L1210.75 740.416V864H1460.09V822.684L1460.22 822.557L1460.09 822.429V781.862L1500.92 822.684V864H1501.54V823.306L1542.24 864H1542.99V781.862L1583.82 822.684V864H1584.13V490.689H1460.52L1501.35 449.867H1584.13V449.118L1584 449.246H1501.97L1542.8 408.424H1584.13V407.802H1542.8L1501.97 366.981H1584.13V366.359H1501.97L1542.8 325.537H1584.13V324.916H1543.42L1584.13 284.221V283.472H1501.97L1542.8 242.65H1584.13V118H1583.82H1583.82ZM1501.23 159.885L1542.37 201.017V242.022H1460.09V201.017L1501.23 159.885H1501.23ZM1542.99 201.639L1583.38 242.022H1542.99V201.639ZM1294.1 822.246L1253.27 781.424H1335.3L1376.13 822.246H1294.1ZM1128.92 739.356L1169.74 698.534H1252.39L1293.22 739.356H1128.92ZM1045.13 822.246H963.105L1003.93 781.424H1085.96L1045.13 822.246ZM879.762 574.017L920.591 533.196V615.206L879.762 656.028V574.017ZM961.604 491.311L921.213 531.694V491.311H961.604ZM962.667 407.983V325.351L1003.5 284.529V449.429L962.667 490.251V408.241L962.794 408.113L962.667 407.986V407.983ZM1085.96 200.579H1003.94L963.108 159.757H1045.13L1085.96 200.579ZM1252.65 159.757H1334.67L1293.85 200.579H1211.82L1252.65 159.757ZM1459.65 532.757L1500.48 573.579H1418.46L1377.63 532.757H1459.65ZM1417.89 573.89L1376.75 615.022H1335.74V532.754H1376.75L1417.89 573.887V573.89ZM1459.47 781.241V821.807L1377.63 739.981H1459.47V780.986L1459.34 781.113L1459.47 781.241ZM1294.1 739.356L1252.96 698.223L1294.1 657.091H1335.12V739.359H1294.1V739.356ZM1252.39 697.912H1170.37L1211.2 657.091H1293.22L1252.39 697.912ZM921.036 780.802L880.206 739.981H1044.51L1003.68 780.802H921.036ZM962.048 657.529V739.356H880.206L962.048 657.529ZM1211.38 201.639L1251.77 242.022H1211.38V201.639ZM1376.75 201.201L1417.58 242.022H1253.27L1294.1 201.201H1376.75ZM1459.47 325.351V407.983L1418.64 448.804V283.904L1459.47 243.082V325.093L1459.34 325.22L1459.47 325.348V325.351ZM1294.72 656.466L1335.11 616.082V656.466H1294.72ZM1128.92 656.466L1169.74 615.644H1211.38H1334.67L1293.85 656.466H1128.92ZM1045.57 739.356V698.972L1085.96 739.356H1045.57ZM1086.4 739.977V780.361L1046.01 739.977H1086.4ZM1044.95 739.356H962.667V698.351L1003.81 657.218L1044.95 698.351V739.356H1044.95ZM1045.57 325.351L1086.4 284.529V366.356V448.804L1045.57 407.983V325.351ZM1128.17 242.772L1128.29 242.644H1252.39L1293.22 283.466H1128.29L1087.46 242.644H1128.04L1128.16 242.772H1128.17ZM1377.19 490.248V408.238L1418.02 367.416V449.426L1377.19 490.248ZM1003.5 656.646L962.67 697.468V533.189L1003.5 574.011V656.643V656.646ZM1003.06 491.308L962.67 531.691V491.308H1003.06ZM962.801 532.44L1003.5 491.746V573.135L962.801 532.44ZM1087.03 490.686V408.859L1127.86 449.681V532.313L1087.03 573.135V490.686ZM1127.42 283.463H1087.03V243.079L1127.42 283.463ZM1087.03 284.084H1128.04L1169.18 325.217L1128.04 366.35H1087.03V284.081V284.084ZM1376.57 407.98L1335.74 448.801V325.348L1335.87 325.22L1335.74 325.093V284.526L1376.57 325.348V407.98ZM1376.57 490.248L1335.87 449.553L1376.57 408.859V490.248ZM1335.12 614.581L1294.29 573.759V408.859L1334.99 449.553L1335.12 449.681V490.686V614.578V614.581ZM1169.75 325.531H1252.4L1293.23 366.353H1252.66L1252.53 366.225L1252.4 366.353H1210.77H1128.92L1169.75 325.531H1169.75ZM1293.67 490.248L1252.84 449.426V367.416L1293.67 408.238V490.248ZM1169.93 408.238L1210.76 367.416V407.98L1210.64 408.107L1210.76 408.234V490.994V532.31L1169.93 573.132V408.231V408.238ZM1210.32 366.974L1169.93 407.358V366.974H1210.32ZM1210.76 533.193V615.019H1128.92L1210.76 533.193ZM1211.38 366.974H1251.78L1211.38 407.358V366.974ZM1252.21 367.413V448.801L1211.51 408.107L1252.21 367.413ZM1253.28 366.974H1293.85L1293.98 367.102L1294.1 366.974H1335.12V448.801L1253.27 366.974H1253.28ZM1294.73 366.353L1335.12 325.969V366.353H1294.73ZM1293.98 366.225L1253.27 325.531H1334.68L1293.98 366.225ZM1169.31 366.974V407.98L1128.17 449.112L1087.03 407.98V366.974H1169.31H1169.31ZM1128.48 449.681L1169.31 408.859V490.869L1128.48 531.691V449.681ZM1169.31 491.746V573.756L1128.48 614.578V532.568L1169.31 491.746ZM1127.86 614.578L1087.16 573.884L1127.86 533.189V614.578ZM1127.42 615.016H1087.03V574.633L1127.42 615.016ZM1211.38 490.994V408.856L1252.21 449.678V532.31L1211.38 573.132V490.994ZM1252.84 450.299L1293.67 491.121V573.132L1252.84 532.31V450.299ZM1335.12 242.638V324.465L1253.28 242.638H1335.12ZM1334.68 324.906H1252.66L1211.83 284.084H1293.85L1334.68 324.906ZM1210.95 284.084L1251.78 324.906H1169.75L1128.92 284.084H1210.95ZM1211.38 574.014L1252.53 532.882L1293.67 574.014V615.019H1211.38V574.014H1211.38ZM1294.29 574.636L1334.68 615.019H1294.29V574.636ZM1335.74 450.303L1376.13 490.686H1335.74V450.303ZM1418.02 366.533L1377.2 407.355V325.344L1418.02 284.523V366.533ZM1376.88 324.779L1335.74 283.646V242.641H1418.03V283.646L1376.89 324.779H1376.88ZM1086.41 283.025L1046.02 242.641H1086.41V283.025ZM1045.58 243.082L1086.28 283.777L1045.58 324.471V243.082ZM1004.13 656.646V574.636L1044.96 615.458V697.468L1004.13 656.646ZM1044.96 614.581L1004.13 573.759V491.749L1044.96 532.571V614.581ZM1004.57 491.308H1086.41V573.135L1004.57 491.308ZM1128.04 615.641L1128.17 615.769L1128.3 615.641H1168.87L1087.03 697.468V615.641H1128.04H1128.04ZM1377.64 490.686L1459.48 408.859V490.686H1377.64ZM1418.65 283.025V242.641H1459.04L1418.65 283.025ZM1252.53 241.892L1211.83 201.198H1293.23L1252.53 241.892ZM1046.02 242.019L1086.41 201.636V242.019H1046.02ZM1045.27 241.892L1004.57 201.198H1085.98L1045.27 241.892ZM1044.52 242.641L962.682 324.468V242.641H1044.52ZM1044.96 243.079V325.09L1004.13 365.911V283.901L1044.96 243.079ZM1004.13 366.791L1044.96 325.969V407.98L1004.13 448.801V366.791ZM1045.27 408.545L1086.41 449.678V490.683H1004.13V449.678L1045.27 408.545H1045.27ZM1003.51 490.683H963.121L1003.51 450.299V490.683ZM1045.27 740.099L1085.98 780.793H1004.57L1045.27 740.099ZM1045.58 698.086V533.189L1086.29 573.884L1086.41 574.011V615.638V698.086L1086.29 698.214L1086.41 698.341V738.908L1045.58 698.086ZM1087.48 697.903L1128.31 657.081H1210.33L1169.5 697.903H1087.48ZM1168.88 698.525L1128.18 739.219L1087.48 698.525H1168.88ZM1335.75 739.346V657.52L1417.59 739.346H1335.75ZM1336.19 657.078H1418.21L1459.04 697.9H1377.02L1336.19 657.078ZM1336.19 656.457L1376.89 615.762L1417.59 656.457H1336.19ZM1335.75 656.018V615.635H1376.14L1335.75 656.018ZM1335.75 532.123V491.74L1376.14 532.123H1335.75ZM1459.47 159.133H1419.08L1459.47 118.749V159.133ZM1459.47 159.754V242.022H1418.46L1377.32 200.89L1418.46 159.757H1459.47V159.754ZM1376.75 200.576H1294.72L1335.55 159.754H1417.58L1376.75 200.576ZM1087.02 242.019V201.636L1127.41 242.019H1087.02ZM962.228 159.754L1003.06 200.576H921.032L880.203 159.754H962.228ZM921.032 201.198H1003.68L1044.51 242.019H880.203L921.032 201.198ZM962.045 491.749V532.316L961.918 532.443L962.045 532.571V656.646L921.216 697.468V532.568L962.045 491.746V491.749ZM920.594 616.082V698.093L879.765 738.914V656.904L920.594 616.082ZM879.143 738.914L838.438 698.223L879.14 657.529V738.918L879.143 738.914ZM920.467 781.11L879.327 822.243H838.311V739.974H879.323L920.464 781.107L920.467 781.11ZM921.036 781.421H1003.06L962.232 822.243H880.203L921.032 781.421H921.036ZM1087.03 698.972L1127.42 739.356H1087.03V698.972ZM1211.38 740.416L1251.77 780.799H1211.38V740.416ZM1211.82 739.977H1335.12H1376.75L1417.58 780.799H1252.65L1211.82 739.977H1211.82ZM1336.18 781.421H1418.2L1459.03 822.243H1377.01L1336.18 781.421ZM1459.03 822.864L1418.33 863.559L1377.63 822.864H1459.03ZM1501.36 739.353L1501.23 739.225L1501.11 739.353H1418.46L1377.63 698.531H1542.56L1583.39 739.353H1501.36H1501.36ZM1459.91 697.909L1419.08 657.088H1501.11L1541.94 697.909H1459.91ZM1501.11 656.466H1418.46L1377.63 615.644H1541.94L1501.11 656.466ZM1377.63 615.022L1418.46 574.201H1501.11L1541.94 615.022H1377.63H1377.63ZM1501.99 574.201H1583.39L1542.69 614.895L1501.99 574.201ZM1501.36 573.579L1460.54 532.757H1542.56L1583.39 573.579H1501.36ZM1377.01 532.136L1336.18 491.314H1376.75L1376.88 491.441L1377.01 491.314H1501.11L1541.94 532.136H1377.01ZM1418.2 159.136H1253.27L1294.1 118.311H1459.03L1418.2 159.133L1418.2 159.136ZM1293.22 118.311L1211.38 200.138V118.311H1293.22ZM1210.76 200.759L1210.63 200.887L1210.76 201.014V242.019H1128.92L1210.76 160.193V200.759ZM1169.31 118.749V200.759L1128.48 241.581V159.574L1169.31 118.749ZM1127.86 160.193V241.581L1087.15 200.887L1127.86 160.193ZM1086.4 118.311V200.138L1004.56 118.311H1086.4ZM1003.68 118.311L1044.51 159.133H879.582L838.749 118.311H1003.68H1003.68ZM878.702 159.133H838.311V118.749L878.702 159.133ZM838.311 159.754H879.323L920.464 200.887L879.323 242.019H838.311V159.754ZM962.045 243.082V283.466H921.654L962.045 243.082ZM921.032 284.088H962.045V366.356H921.032L920.905 366.228L879.892 325.223L921.032 284.091V284.088ZM962.045 366.978V407.361L921.654 366.978H962.045ZM920.905 367.105L961.607 407.799H880.203L920.905 367.105ZM838.749 449.246L879.578 408.424H961.604L920.774 449.246H838.749ZM962.045 408.862V490.689H880.203L962.045 408.862ZM920.594 491.311V532.316L879.454 573.449L838.311 532.316V491.311H920.594ZM838.311 533.196L879.14 574.017V656.649L838.311 697.471V533.193V533.196ZM878.702 739.356H838.311V698.972L878.702 739.356ZM838.311 822.867H878.702L838.311 863.251V822.867ZM879.582 822.867H1044.51L1003.68 863.689H838.749L879.578 822.867H879.582ZM1004.56 863.689L1086.4 781.862V863.689H1004.56ZM1128.17 822.115L1087.15 781.11L1087.03 780.983V739.977H1128.04L1128.17 740.105L1128.29 739.977H1169.31V780.983L1128.17 822.115ZM1169.93 739.977H1210.32L1169.93 780.361V739.977ZM1211.38 781.421H1252.39L1293.53 822.553L1252.39 863.686H1211.38V781.418V781.421ZM1253.27 863.689L1294.1 822.867H1376.75L1417.58 863.689H1253.27H1253.27ZM1419.08 863.689L1459.47 823.306V863.689H1419.08ZM1460.09 739.977H1500.48L1460.09 780.361V739.977ZM1460.22 781.11L1500.92 740.416V821.804L1460.22 781.11ZM1542.37 863.248L1501.54 822.426V740.416L1542.37 781.237V863.248ZM1583.82 821.804L1501.98 739.977H1583.82V821.804ZM1583.82 738.918L1543.43 698.534H1583.82V738.918ZM1542.81 697.912L1501.67 656.78L1542.81 615.647H1583.82V697.916H1542.81V697.912ZM1583.82 615.022H1543.43L1583.82 574.639V615.022ZM1501.98 491.311H1583.82V573.138L1501.98 491.311ZM1460.09 490.248V449.864H1500.48L1460.09 490.248ZM1501.1 449.243H1460.09V366.974H1501.1L1501.23 367.102L1542.24 408.107L1501.1 449.24V449.243ZM1460.09 366.353V325.969L1500.48 366.353H1460.09ZM1501.23 366.225L1460.53 325.531H1541.93L1501.23 366.225ZM1583.38 284.088L1542.55 324.909H1460.53L1501.36 284.088H1583.38ZM1460.08 324.471V242.644H1541.93L1460.08 324.471Z" fill="url(#paint18_radial_4458_3874)"/>
</g>
<defs>
<radialGradient id="paint0_radial_4458_3874" cx="0" cy="0" r="1" gradientUnits="userSpaceOnUse" gradientTransform="translate(86.6684 1506) scale(277.192 277.141)">
<stop offset="0.0519785" stop-color="#009400"/>
<stop offset="1" stop-color="white"/>
</radialGradient>
<radialGradient id="paint1_radial_4458_3874" cx="0" cy="0" r="1" gradientUnits="userSpaceOnUse" gradientTransform="translate(126.87 347.485) rotate(-83.0418) scale(147.667)">
<stop stop-color="#009400"/>
<stop offset="0.541667" stop-color="#A0A0A0"/>
<stop offset="1" stop-color="#D9D9D9" stop-opacity="0"/>
</radialGradient>
<radialGradient id="paint2_radial_4458_3874" cx="0" cy="0" r="1" gradientUnits="userSpaceOnUse" gradientTransform="translate(126.873 347.491) rotate(-88.0418) scale(147.667)">
<stop stop-color="#009400"/>
<stop offset="0.541667" stop-color="#A0A0A0"/>
<stop offset="1" stop-color="#D9D9D9" stop-opacity="0"/>
</radialGradient>
<radialGradient id="paint3_radial_4458_3874" cx="0" cy="0" r="1" gradientUnits="userSpaceOnUse" gradientTransform="translate(126.871 347.496) rotate(-93.0418) scale(147.667)">
<stop stop-color="#009400"/>
<stop offset="0.541667" stop-color="#A0A0A0"/>
<stop offset="1" stop-color="#D9D9D9" stop-opacity="0"/>
</radialGradient>
<radialGradient id="paint4_radial_4458_3874" cx="0" cy="0" r="1" gradientUnits="userSpaceOnUse" gradientTransform="translate(126.869 347.498) rotate(-98.0418) scale(147.667)">
<stop stop-color="#009400"/>
<stop offset="0.541667" stop-color="#A0A0A0"/>
<stop offset="1" stop-color="#D9D9D9" stop-opacity="0"/>
</radialGradient>
<radialGradient id="paint5_radial_4458_3874" cx="0" cy="0" r="1" gradientUnits="userSpaceOnUse" gradientTransform="translate(126.87 347.491) rotate(-103.042) scale(147.667)">
<stop stop-color="#009400"/>
<stop offset="0.541667" stop-color="#A0A0A0"/>
<stop offset="1" stop-color="#D9D9D9" stop-opacity="0"/>
</radialGradient>
<radialGradient id="paint6_radial_4458_3874" cx="0" cy="0" r="1" gradientUnits="userSpaceOnUse" gradientTransform="translate(126.87 347.491) rotate(-108.042) scale(147.667)">
<stop stop-color="#009400"/>
<stop offset="0.541667" stop-color="#A0A0A0"/>
<stop offset="1" stop-color="#D9D9D9" stop-opacity="0"/>
</radialGradient>
<radialGradient id="paint7_radial_4458_3874" cx="0" cy="0" r="1" gradientUnits="userSpaceOnUse" gradientTransform="translate(126.875 347.489) rotate(-113.042) scale(147.667)">
<stop stop-color="#009400"/>
<stop offset="0.541667" stop-color="#A0A0A0"/>
<stop offset="1" stop-color="#D9D9D9" stop-opacity="0"/>
</radialGradient>
<radialGradient id="paint8_radial_4458_3874" cx="0" cy="0" r="1" gradientUnits="userSpaceOnUse" gradientTransform="translate(126.869 347.498) rotate(-118.042) scale(147.667)">
<stop stop-color="#009400"/>
<stop offset="0.541667" stop-color="#A0A0A0"/>
<stop offset="1" stop-color="#D9D9D9" stop-opacity="0"/>
</radialGradient>
<radialGradient id="paint9_radial_4458_3874" cx="0" cy="0" r="1" gradientUnits="userSpaceOnUse" gradientTransform="translate(126.871 347.488) rotate(-123.042) scale(147.667)">
<stop stop-color="#009400"/>
<stop offset="0.541667" stop-color="#A0A0A0"/>
<stop offset="1" stop-color="#D9D9D9" stop-opacity="0"/>
</radialGradient>
<radialGradient id="paint10_radial_4458_3874" cx="0" cy="0" r="1" gradientUnits="userSpaceOnUse" gradientTransform="translate(126.871 347.49) rotate(-128.042) scale(147.667)">
<stop stop-color="#009400"/>
<stop offset="0.541667" stop-color="#A0A0A0"/>
<stop offset="1" stop-color="#D9D9D9" stop-opacity="0"/>
</radialGradient>
<radialGradient id="paint11_radial_4458_3874" cx="0" cy="0" r="1" gradientUnits="userSpaceOnUse" gradientTransform="translate(126.872 347.5) rotate(-133.042) scale(147.667)">
<stop stop-color="#009400"/>
<stop offset="0.541667" stop-color="#A0A0A0"/>
<stop offset="1" stop-color="#D9D9D9" stop-opacity="0"/>
</radialGradient>
<radialGradient id="paint12_radial_4458_3874" cx="0" cy="0" r="1" gradientUnits="userSpaceOnUse" gradientTransform="translate(126.873 347.493) rotate(-138.042) scale(147.667)">
<stop stop-color="#009400"/>
<stop offset="0.541667" stop-color="#A0A0A0"/>
<stop offset="1" stop-color="#D9D9D9" stop-opacity="0"/>
</radialGradient>
<radialGradient id="paint13_radial_4458_3874" cx="0" cy="0" r="1" gradientUnits="userSpaceOnUse" gradientTransform="translate(126.872 347.502) rotate(-143.042) scale(147.667)">
<stop stop-color="#009400"/>
<stop offset="0.541667" stop-color="#A0A0A0"/>
<stop offset="1" stop-color="#D9D9D9" stop-opacity="0"/>
</radialGradient>
<radialGradient id="paint14_radial_4458_3874" cx="0" cy="0" r="1" gradientUnits="userSpaceOnUse" gradientTransform="translate(126.869 347.502) rotate(-148.042) scale(147.667)">
<stop stop-color="#009400"/>
<stop offset="0.541667" stop-color="#A0A0A0"/>
<stop offset="1" stop-color="#D9D9D9" stop-opacity="0"/>
</radialGradient>
<radialGradient id="paint15_radial_4458_3874" cx="0" cy="0" r="1" gradientUnits="userSpaceOnUse" gradientTransform="translate(126.87 347.495) rotate(-153.042) scale(147.667)">
<stop stop-color="#009400"/>
<stop offset="0.541667" stop-color="#A0A0A0"/>
<stop offset="1" stop-color="#D9D9D9" stop-opacity="0"/>
</radialGradient>
<radialGradient id="paint16_radial_4458_3874" cx="0" cy="0" r="1" gradientUnits="userSpaceOnUse" gradientTransform="translate(126.87 347.492) rotate(-158.042) scale(147.667)">
<stop stop-color="#009400"/>
<stop offset="0.541667" stop-color="#A0A0A0"/>
<stop offset="1" stop-color="#D9D9D9" stop-opacity="0"/>
</radialGradient>
<radialGradient id="paint17_radial_4458_3874" cx="0" cy="0" r="1" gradientUnits="userSpaceOnUse" gradientTransform="translate(126.87 347.5) rotate(-163.042) scale(147.667)">
<stop stop-color="#009400"/>
<stop offset="0.541667" stop-color="#A0A0A0"/>
<stop offset="1" stop-color="#D9D9D9" stop-opacity="0"/>
</radialGradient>
<radialGradient id="paint18_radial_4458_3874" cx="0" cy="0" r="1" gradientUnits="userSpaceOnUse" gradientTransform="translate(1200.02 491) scale(365.345 365.278)">
<stop offset="0.0519785" stop-color="#009400"/>
<stop offset="1" stop-color="white"/>
</radialGradient>
<clipPath id="clip0_4458_3874">
<rect width="1442" height="2623" fill="white"/>
</clipPath>
</defs>
</svg>
