<svg width="30" height="30" viewBox="0 0 30 30" fill="none" xmlns="http://www.w3.org/2000/svg">
<path d="M13.0625 19.375C13.5625 19.875 14.2083 20.12 15 20.11C15.7917 20.1 16.375 19.8133 16.75 19.25L23.75 8.75L13.25 15.75C12.6875 16.125 12.3908 16.6979 12.36 17.4688C12.3292 18.2396 12.5633 18.875 13.0625 19.375ZM15 5C16.2292 5 17.4117 5.17167 18.5475 5.515C19.6833 5.85833 20.7508 6.37417 21.75 7.0625L19.375 8.5625C18.6875 8.20833 17.9742 7.94292 17.235 7.76625C16.4958 7.58958 15.7508 7.50083 15 7.5C12.2292 7.5 9.86958 8.47417 7.92125 10.4225C5.97292 12.3708 4.99917 14.73 5 17.5C5 18.375 5.12 19.2396 5.36 20.0938C5.6 20.9479 5.93833 21.75 6.375 22.5H23.625C24.1042 21.7083 24.4533 20.8854 24.6725 20.0312C24.8917 19.1771 25.0008 18.2917 25 17.375C25 16.625 24.9113 15.8958 24.7338 15.1875C24.5563 14.4792 24.2908 13.7917 23.9375 13.125L25.4375 10.75C26.0625 11.7292 26.5575 12.7708 26.9225 13.875C27.2875 14.9792 27.48 16.125 27.5 17.3125C27.52 18.5 27.3846 19.6354 27.0937 20.7188C26.8029 21.8021 26.3758 22.8333 25.8125 23.8125C25.5833 24.1875 25.2708 24.4792 24.875 24.6875C24.4792 24.8958 24.0625 25 23.625 25H6.375C5.9375 25 5.52083 24.8958 5.125 24.6875C4.72917 24.4792 4.41667 24.1875 4.1875 23.8125C3.64583 22.875 3.22917 21.8804 2.9375 20.8288C2.64583 19.7771 2.5 18.6675 2.5 17.5C2.5 15.7708 2.82833 14.1512 3.485 12.6412C4.14167 11.1312 5.0375 9.80833 6.1725 8.6725C7.3075 7.53667 8.63542 6.64083 10.1562 5.985C11.6771 5.32917 13.2917 5.00083 15 5Z" fill="white"/>
</svg>
