<svg width="208" height="222" viewBox="0 0 208 222" fill="none" xmlns="http://www.w3.org/2000/svg">
<g opacity="0.5">
<path d="M78.2672 131.574L47.0442 89.0838L92.7458 62.7839L145.155 56.9892L145.081 109.718L123.894 158.003L78.2672 131.574Z" stroke="url(#paint0_radial_1841_342)" stroke-width="1.21012"/>
<path d="M81.0035 133.825L46.196 94.2171L89.4315 64.0341L141.136 53.6938L145.658 106.228L128.76 156.176L81.0035 133.825Z" stroke="url(#paint1_radial_1841_342)" stroke-width="1.21012"/>
<path d="M83.9231 135.82L45.796 99.3966L86.2364 65.5602L136.843 50.7528L145.926 102.693L133.446 153.924L83.9231 135.82Z" stroke="url(#paint2_radial_1841_342)" stroke-width="1.21012"/>
<path d="M87.0033 137.556L45.8468 104.595L83.1843 67.3625L132.308 48.2008L145.883 99.1521L137.916 151.275L87.0033 137.556Z" stroke="url(#paint3_radial_1841_342)" stroke-width="1.21012"/>
<path d="M90.2281 139.022L46.3555 109.773L80.3059 69.4278L127.573 46.0576L145.537 95.6318L142.143 148.251L90.2281 139.022Z" stroke="url(#paint4_radial_1841_342)" stroke-width="1.21012"/>
<path d="M93.5727 140.196L47.3178 114.882L77.6227 71.7317L122.673 44.3308L144.889 92.1507L146.094 144.866L93.5727 140.196Z" stroke="url(#paint5_radial_1841_342)" stroke-width="1.21012"/>
<path d="M97.0036 141.077L48.7184 119.89L75.1472 74.2632L117.638 43.0402L143.938 88.7418L149.732 141.151L97.0036 141.077Z" stroke="url(#paint6_radial_1841_342)" stroke-width="1.21012"/>
<path d="M100.496 141.65L50.5481 124.753L72.8997 76.9957L112.507 42.1882L142.69 85.4238L153.031 137.129L100.496 141.65Z" stroke="url(#paint7_radial_1841_342)" stroke-width="1.21012"/>
<path d="M104.026 141.924L52.7957 129.444L70.8999 79.9204L107.323 41.7933L141.16 82.2337L155.967 132.841L104.026 141.924Z" stroke="url(#paint8_radial_1841_342)" stroke-width="1.21012"/>
<path d="M107.562 141.885L55.4387 133.917L69.1578 83.0044L102.119 41.848L139.352 79.1854L158.513 128.309L107.562 141.885Z" stroke="url(#paint9_radial_1841_342)" stroke-width="1.21012"/>
<path d="M111.083 141.54L58.4635 138.145L67.693 86.2306L96.9422 42.3579L137.287 76.3083L160.657 123.575L111.083 141.54Z" stroke="url(#paint10_radial_1841_342)" stroke-width="1.21012"/>
<path d="M114.572 140.889L61.8572 142.094L66.5269 89.572L91.8411 43.317L134.991 73.6219L162.392 118.672L114.572 140.889Z" stroke="url(#paint11_radial_1841_342)" stroke-width="1.21012"/>
<path d="M117.969 139.934L65.5593 145.728L65.6337 92.9997L86.8201 44.7145L132.447 71.1433L163.67 113.634L117.969 139.934Z" stroke="url(#paint12_radial_1841_342)" stroke-width="1.21012"/>
<path d="M121.293 138.687L69.5877 149.027L65.0662 96.4928L81.9637 46.5448L129.721 68.8964L164.528 108.504L121.293 138.687Z" stroke="url(#paint13_radial_1841_342)" stroke-width="1.21012"/>
<path d="M124.486 137.152L73.8792 151.96L64.7962 100.019L77.2761 48.7886L126.799 66.8928L164.927 103.316L124.486 137.152Z" stroke="url(#paint14_radial_1841_342)" stroke-width="1.21012"/>
<path d="M127.531 135.353L78.4076 154.514L64.8323 103.563L72.7997 51.4398L123.712 65.1589L164.869 98.1205L127.531 135.353Z" stroke="url(#paint15_radial_1841_342)" stroke-width="1.21012"/>
<path d="M130.403 133.292L83.1358 156.662L65.1715 107.088L68.5657 54.4686L120.48 63.6982L164.353 92.9473L130.403 133.292Z" stroke="url(#paint16_radial_1841_342)" stroke-width="1.21012"/>
<path d="M135.307 80.189C134.428 79.045 133 78.5708 131.676 78.8357C103.298 45.3998 49.9106 85.2113 76.0141 122.924C76.9913 124.312 78.3219 124.765 79.5449 124.593C90.1889 138.687 113.175 141.753 126.312 129.223C141.809 118.167 147.616 95.8347 135.307 80.189ZM82.3858 122.589C82.9274 121.551 82.9726 120.226 82.1244 118.872C59.034 86.5916 103.941 54.089 129.022 81.0147C128.513 82.2356 128.681 83.6903 129.587 84.7765C140.129 96.9405 134.96 116.14 122.674 125.13C111.865 136.325 92.1607 134.052 82.3858 122.589Z" fill="#009400"/>
<path d="M148.749 142.125C147.079 132.495 151.729 127.716 157.433 120.58C168.325 118.937 170.084 102.276 160.266 97.8567C159.731 91.6093 158.092 85.4412 155.449 79.7573C162.072 71.2905 151.403 57.0528 141.325 61.2884C136.47 57.1703 130.887 53.9227 124.918 51.7453C124.282 47.3345 120.728 43.3501 116.194 42.8114C110.784 41.5295 105.797 44.9339 101.635 47.7653C96.1111 50.908 88.1848 51.0807 82.5616 52.6548C77.4989 48.5527 71.0005 51.3122 67.3079 55.8074C64.8708 58.8246 65.5976 62.9464 64.7593 66.3587C62.5835 72.611 58.4057 77.6347 55.9421 83.9016C48.342 84.6438 45.0983 93.6841 47.2672 100.425C48.1967 102.877 50.668 104.215 52.5008 105.792C53.8126 111.155 58.4056 121.854 56.1955 126.679C55.4374 128.365 54.7 130.866 55.3367 132.954C57.6607 139.027 64.1692 145.199 71.1234 142.849C75.6345 146.853 80.8318 150.06 86.4041 152.366C87.7932 152.943 89.3959 152.246 89.9203 150.836C90.4367 149.456 89.7368 147.919 88.3572 147.403C85.5877 146.368 82.9101 145.069 80.3851 143.524C77.8369 141.969 75.427 140.182 73.2163 138.179C70.3031 135.558 67.1669 143.609 60.0523 132.356C58.871 130.31 60.839 128.05 61.3766 125.884C61.884 121.956 60.2265 117.706 59.502 113.862C58.6408 110.476 57.6311 107.143 56.5211 103.851C52.8359 98.7476 49.2514 101.309 51.961 91.7612C53.7976 86.9436 58.2982 89.7288 59.6868 86.7637C62.155 79.4737 68.4956 73.0957 69.7464 65.214C69.9936 63.0946 69.8971 61.0792 70.7258 59.248C70.9271 58.8733 71.1874 58.5395 71.5047 58.2597C78.4281 52.2589 77.3745 57.429 83.0991 57.5407C90.0054 55.6872 97.9182 55.7823 104.319 52.0294C106.794 50.4409 109.276 48.6045 112.024 47.8838C115.948 46.8263 120.025 49.4205 119.841 53.6573C119.834 54.7459 120.518 55.7685 121.606 56.1357C128.059 58.3032 134.04 61.848 139.016 66.4878C139.853 67.2633 141.133 67.4523 142.18 66.8598C144.626 65.5112 147.735 65.8262 149.325 68.2075C151.037 70.1633 152.647 72.6927 151.495 75.2213C150.789 76.9124 148.284 78.4459 149.497 80.634C152.498 86.7117 154.179 93.3848 154.422 100.155C154.471 101.437 155.354 102.592 156.661 102.923C161.133 103.904 161.66 110.189 159.002 113.212C157.199 114.592 154.226 114.329 152.745 116.365C148.099 122.188 142.377 128.063 141.815 136.007C141.701 143.27 143.768 141.227 136.735 145.875C136.744 145.863 136.767 145.856 136.772 145.85C136.777 145.85 136.776 145.848 136.776 145.847C134.061 145.871 131.031 144.185 128.138 144.658C121.982 145.087 122.688 146.601 116.932 147.904C120.232 147.22 114.919 148.321 116.932 147.904C118.871 154.295 119.408 153.74 123.383 152.92C131.05 149.416 134.564 155.034 140.551 151.568C143.964 149.327 148.336 146.676 148.749 142.125Z" fill="#009400"/>
</g>
<mask id="mask0_1841_342" style="mask-type:alpha" maskUnits="userSpaceOnUse" x="41" y="65" width="130" height="130">
<circle cx="105.762" cy="129.762" r="64.7617" fill="#C3E5C3"/>
</mask>
<g mask="url(#mask0_1841_342)">
<path d="M130.853 194.63C113.55 194.63 96.2459 194.63 78.9421 194.63C78.7175 194.367 78.7821 194.066 78.8242 193.766C79.426 189.475 80.0438 185.18 80.3693 180.863C80.6174 177.572 80.9791 174.299 81.3194 171.02C81.6018 168.3 81.2755 165.6 80.9685 162.904C80.5988 159.658 80.1359 156.424 79.7003 153.497C80.1246 156.671 80.57 160.152 80.9566 163.64C81.1015 164.947 81.1858 166.259 81.3034 167.567C81.4433 169.124 81.2468 170.671 81.0321 172.206C80.6081 175.239 80.3607 178.285 80.1394 181.339C79.9556 183.873 79.5094 186.386 79.2123 188.912C79.026 190.497 78.8453 192.082 78.6044 193.659C78.5527 193.998 78.536 194.35 78.2948 194.63C73.4618 194.63 68.6288 194.63 63.7958 194.63C63.6651 193.924 63.7003 193.205 63.7642 192.507C63.9809 190.136 63.8556 187.764 63.8644 185.394C63.8721 183.318 64.1261 181.267 64.3252 179.209C64.5243 177.151 64.7439 175.094 64.9137 173.033C65.0166 171.784 65.2571 170.556 65.4385 169.319C65.7265 167.356 65.7003 165.356 66.0854 163.409C67.0614 158.477 67.5963 153.472 68.5407 148.536C69.1961 145.11 70.156 141.79 72.0208 138.781C73.661 136.134 75.9228 134.181 78.628 132.738C83.0628 130.374 87.5434 128.097 92.2813 126.378C92.4232 126.327 92.5662 126.279 92.7101 126.233C93.5759 125.956 93.574 125.956 93.763 126.81C93.8246 127.089 93.976 127.327 94.1272 127.563C95.7193 130.046 97.841 131.886 100.575 133.051C102.628 133.927 104.705 134.676 106.915 135.04C109.271 135.427 111.468 134.946 113.549 133.868C114.619 133.314 115.689 132.753 116.65 132.004C118.137 130.846 119.123 129.32 119.936 127.657C120.378 126.754 120.373 126.775 121.341 127.08C123.869 127.879 126.482 128.378 128.972 129.318C131.996 130.459 134.888 131.832 137.441 133.84C139.512 135.468 140.952 137.564 141.888 140.011C143.369 143.885 144.162 147.917 144.641 152.024C144.945 154.635 145.258 157.245 145.491 159.864C145.603 161.129 145.794 162.395 145.776 163.664C145.74 166.219 146.141 168.733 146.365 171.264C146.585 173.732 146.875 176.192 147.102 178.66C147.308 180.891 147.468 183.126 147.564 185.361C147.688 188.246 147.81 191.134 147.73 194.024C147.723 194.242 147.712 194.457 147.553 194.63C142.202 194.63 136.851 194.63 131.5 194.63C131.227 194.286 131.322 193.895 131.356 193.511C131.476 192.116 131.658 190.719 131.544 189.319C131.355 186.997 131.225 184.672 131.316 182.345C131.403 180.105 131.304 177.867 131.284 175.63C131.262 173.216 131.588 170.858 132.1 168.515C132.787 165.368 133.029 162.162 133.37 158.97C133.605 156.765 133.522 154.536 133.771 152.329C133.801 152.057 133.89 151.791 133.863 151.513C133.633 153.188 133.394 154.86 133.376 156.558C133.353 158.609 132.972 160.631 132.824 162.67C132.594 165.848 131.744 168.912 131.287 172.045C130.984 174.119 130.983 176.206 131.138 178.3C131.236 179.631 131.236 180.971 131.107 182.306C130.997 183.445 130.993 184.593 131.086 185.73C131.248 187.708 131.351 189.685 131.305 191.669C131.288 192.401 131.161 193.127 131.149 193.861C131.144 194.143 131.059 194.415 130.853 194.63Z" fill="#DA0000"/>
<path d="M147.553 194.629C147.548 192.774 147.602 190.917 147.518 189.065C147.463 187.86 147.484 186.652 147.401 185.45C147.303 184.013 147.269 182.57 147.139 181.137C146.953 179.084 146.828 177.025 146.544 174.981C146.396 173.918 146.358 172.84 146.248 171.771C146.147 170.789 145.974 169.813 145.905 168.829C145.788 167.157 145.541 165.492 145.595 163.807C145.625 162.904 145.491 162.007 145.387 161.11C145.321 160.534 145.29 159.951 145.254 159.375C145.137 157.485 144.868 155.613 144.673 153.733C144.322 150.335 143.807 146.958 142.895 143.655C142.441 142.014 141.937 140.387 141.198 138.851C140.093 136.553 138.476 134.674 136.359 133.241C133.609 131.379 130.625 130.018 127.467 129.002C125.928 128.507 124.381 128.066 122.804 127.723C122.004 127.549 121.252 127.218 120.449 126.962C120.061 127.86 119.616 128.716 119.106 129.538C118.068 131.214 116.62 132.44 114.891 133.344C114.224 133.693 113.578 134.078 112.884 134.384C111.319 135.077 109.697 135.422 107.989 135.343C106.866 135.291 105.781 135.015 104.696 134.75C102.927 134.319 101.275 133.575 99.6394 132.806C97.1478 131.634 95.2795 129.764 93.8356 127.449C93.5987 127.069 93.3852 126.668 93.6692 126.139C92.7215 126.359 91.9162 126.716 91.0922 127.013C89.041 127.751 87.0812 128.695 85.1316 129.664C83.5874 130.431 82.0179 131.147 80.4791 131.925C78.6892 132.83 76.9583 133.841 75.4026 135.117C74.4841 135.87 73.6753 136.737 72.9747 137.702C71.6467 139.531 70.6654 141.529 69.9625 143.677C69.2784 145.768 68.8064 147.904 68.451 150.071C68.2112 151.533 67.9515 152.992 67.7221 154.455C67.5226 155.728 67.3562 157.006 67.1696 158.281C66.9363 159.875 66.6231 161.456 66.3286 163.039C66.1558 163.969 66.0273 164.902 65.9829 165.851C65.9358 166.858 65.7806 167.859 65.6768 168.863C65.5157 170.422 65.1482 171.952 65.0697 173.526C65.0173 174.575 64.8268 175.616 64.7357 176.664C64.6835 177.263 64.6503 177.864 64.5808 178.463C64.4519 179.572 64.3305 180.682 64.2246 181.794C64.1532 182.543 64.0753 183.295 64.0672 184.046C64.0425 186.354 64.0725 188.662 64.0353 190.97C64.018 192.045 63.9056 193.118 63.9124 194.196C63.9134 194.351 63.8613 194.492 63.7959 194.629C63.6232 194.629 63.4506 194.629 63.2781 194.629C63.4202 191.483 63.3838 188.335 63.4353 185.187C63.4695 183.096 63.7415 181.019 63.9651 178.94C64.1793 176.947 64.3799 174.953 64.5591 172.957C64.6498 171.946 64.8252 170.95 64.9548 169.946C65.1615 168.343 65.3878 166.743 65.5344 165.133C65.7006 163.308 66.0546 161.511 66.3567 159.705C66.6942 157.687 66.9573 155.656 67.2991 153.639C67.8062 150.647 68.2199 147.635 69.1043 144.718C69.8139 142.377 70.7691 140.154 72.1172 138.102C73.2951 136.309 74.771 134.825 76.552 133.636C78.1137 132.594 79.7479 131.677 81.4361 130.861C83.4711 129.877 85.5159 128.912 87.567 127.962C89.7397 126.955 91.9992 126.175 94.3052 125.543C94.9924 125.355 95.4384 124.985 95.759 124.385C96.1516 123.651 96.3758 122.872 96.4225 122.043C96.5115 120.465 96.354 118.904 96.1244 117.343C95.9852 116.396 95.5766 115.535 95.3789 114.61C95.0995 113.302 94.9763 111.97 94.7506 110.655C94.7367 110.574 94.718 110.494 94.7005 110.409C93.3269 110.434 92.4126 109.78 91.9818 108.532C91.4039 106.858 91.0382 105.131 90.9596 103.355C90.9325 102.741 91.0445 102.155 91.4806 101.678C91.6111 101.636 91.6693 101.715 91.7144 101.817C91.3117 103.619 91.6854 105.364 92.1017 107.107C92.2019 107.527 92.3025 107.946 92.4688 108.345C92.6804 108.852 92.9816 109.298 93.4709 109.575C93.7283 109.721 94.0356 109.939 94.3088 109.744C94.5437 109.577 94.3613 109.26 94.332 109.012C94.246 108.285 94.1613 107.558 94.1237 106.827C94.0335 105.078 93.1675 103.579 92.5953 101.984C92.4963 101.708 92.2905 101.581 92.0211 101.525C91.9241 101.476 91.8434 101.417 91.8828 101.289C92.0205 101.192 92.1584 101.096 92.3066 100.992C92.32 100.77 92.1767 100.595 92.0906 100.406C91.6003 99.3278 91.1073 98.2507 90.6895 97.1418C89.8742 94.9777 89.7561 92.7724 90.3637 90.5413C90.7538 89.1086 91.2075 87.6933 91.5938 86.2597C91.9794 84.8287 92.8751 83.9102 94.2487 83.4061C95.6023 82.9095 96.9908 82.506 98.3033 81.8982C98.9674 81.5906 99.6441 81.3083 100.297 80.9791C101.439 80.4037 102.642 80.0089 103.876 79.6929C105.018 79.4005 106.142 79.4523 107.244 79.8643C107.869 80.0979 108.491 80.3419 109.099 80.6169C110.529 81.2642 112.035 81.5932 113.586 81.7645C114.099 81.8212 114.613 81.8946 115.117 82.0052C116.363 82.2786 117.319 82.9551 117.917 84.1021C118.046 84.3504 118.188 84.5924 118.317 84.8406C118.714 85.601 119.255 86.2112 119.995 86.6755C121.549 87.6507 122.314 89.0953 122.453 90.9193C122.636 93.3212 122.147 95.5861 121.19 97.7731C120.748 98.7815 120.271 99.769 119.613 100.688C120.836 101.384 121.184 102.522 121.184 103.793C121.185 105.712 120.719 107.505 119.556 109.071C119.378 109.311 119.167 109.533 118.945 109.736C118.229 110.392 117.898 110.482 116.941 110.316C116.674 111.286 116.36 112.248 116.156 113.233C116.04 113.794 116.108 114.393 116.087 114.975C116.023 116.849 115.958 118.723 115.888 120.597C115.855 121.466 115.954 122.311 116.205 123.149C116.663 124.674 117.63 125.71 119.145 126.155C120.981 126.695 122.808 127.261 124.671 127.719C128.857 128.749 132.826 130.342 136.436 132.746C139.205 134.59 141.117 137.094 142.25 140.216C143.251 142.978 143.958 145.814 144.451 148.707C144.93 151.513 145.184 154.346 145.507 157.172C145.756 159.357 145.957 161.548 146.073 163.742C146.157 165.335 146.239 166.928 146.386 168.516C146.609 170.92 146.879 173.319 147.112 175.721C147.306 177.738 147.509 179.755 147.649 181.776C147.92 185.65 148.023 189.531 148.025 193.415C148.025 193.819 148.078 194.232 147.941 194.629C147.812 194.629 147.683 194.629 147.553 194.629Z" fill="#010101"/>
<path d="M130.853 194.628C131.076 192.831 131.163 191.027 131.105 189.218C131.07 188.101 130.953 186.988 130.892 185.874C130.822 184.609 130.833 183.34 130.932 182.067C131.036 180.718 131.049 179.355 130.9 178.002C130.839 177.442 130.879 176.882 130.859 176.323C130.768 173.769 131.117 171.263 131.677 168.78C132.016 167.271 132.309 165.759 132.438 164.21C132.576 162.564 132.884 160.933 133.022 159.288C133.105 158.305 133.191 157.318 133.192 156.325C133.193 154.69 133.408 153.07 133.687 151.46C133.727 151.227 133.763 150.997 133.968 150.84C134.151 150.912 134.089 151.06 134.08 151.167C134.018 151.916 133.939 152.663 133.878 153.412C133.815 154.183 133.723 154.955 133.719 155.726C133.714 156.998 133.665 158.266 133.559 159.531C133.496 160.279 133.378 161.023 133.283 161.768C133.212 162.322 133.107 162.872 133.068 163.427C132.944 165.21 132.626 166.961 132.268 168.709C131.996 170.032 131.739 171.357 131.608 172.709C131.387 174.991 131.484 177.275 131.554 179.553C131.582 180.439 131.479 181.309 131.501 182.188C131.529 183.287 131.455 184.39 131.515 185.486C131.58 186.665 131.636 187.846 131.72 189.025C131.789 189.986 131.763 190.955 131.684 191.927C131.611 192.824 131.455 193.721 131.501 194.628C131.285 194.628 131.069 194.628 130.853 194.628Z" fill="#010001"/>
<path d="M78.2949 194.63C78.3311 193.812 78.5214 193.015 78.6138 192.204C78.711 191.351 78.8331 190.501 78.9382 189.648C79.0879 188.433 79.2287 187.217 79.3799 186.002C79.4859 185.15 79.6107 184.3 79.7135 183.448C79.842 182.382 79.9633 181.315 80.0731 180.247C80.1083 179.905 80.1027 179.558 80.1062 179.213C80.1224 177.575 80.3766 175.961 80.5741 174.34C80.735 173.018 80.9365 171.701 81.0349 170.37C81.0905 169.618 81.1694 168.867 81.1236 168.115C81.0412 166.765 80.9394 165.416 80.7954 164.069C80.7017 163.193 80.6073 162.318 80.4987 161.443C80.3347 160.123 80.1713 158.802 80.0072 157.481C79.9146 156.735 79.8195 155.989 79.7287 155.243C79.6431 154.54 79.5572 153.836 79.4815 153.132C79.4638 152.967 79.4258 152.79 79.5673 152.604C79.781 152.724 79.7957 152.952 79.8237 153.138C80.0602 154.709 80.2873 156.282 80.5059 157.856C80.7629 159.706 81.057 161.552 81.2428 163.409C81.3732 164.712 81.5519 166.015 81.5497 167.331C81.5488 167.825 81.6962 168.311 81.6483 168.81C81.5233 170.114 81.5217 171.428 81.316 172.727C81.1818 173.575 81.1216 174.434 81.0136 175.287C80.7812 177.124 80.7223 178.972 80.5969 180.817C80.5054 182.163 80.3291 183.508 80.1409 184.849C79.9171 186.443 79.7843 188.051 79.5768 189.648C79.3887 191.095 79.2727 192.553 78.9771 193.986C78.9341 194.194 78.9523 194.415 78.9422 194.63C78.7265 194.63 78.5107 194.63 78.2949 194.63Z" fill="#010101"/>
<path d="M91.8828 101.289C91.9416 101.343 92.0004 101.397 92.0591 101.452C92.0404 101.705 91.9041 101.84 91.6519 101.86C91.5948 101.8 91.5378 101.739 91.4807 101.678C91.5524 101.484 91.6849 101.353 91.8828 101.289Z" fill="#14100F"/>
<path d="M117.01 101.859C117.038 104.246 116.914 106.507 116.722 108.761C116.533 110.97 115.811 113.051 115.019 115.105C114.81 115.647 114.58 116.184 114.314 116.699C112.921 119.402 110.745 121.038 107.738 121.622C104.653 122.221 101.944 121.396 99.4409 119.641C99.1763 119.456 98.9227 119.254 98.6664 119.057C97.154 117.894 96.1551 116.397 95.8132 114.509C95.0752 110.434 94.4258 106.35 94.62 102.181C94.723 99.971 95.1331 97.8209 95.795 95.7158C95.9106 95.3483 96.0821 94.9965 96.2471 94.6466C96.6222 93.8505 97.2351 93.3088 98.0409 92.9587C98.9823 92.5497 99.9817 92.3932 100.982 92.2418C102.815 91.9644 104.651 91.7319 106.51 91.6825C107.716 91.6505 108.896 91.3458 110.085 91.1402C111.023 90.9778 111.971 90.9229 112.917 91.0794C114.43 91.3299 115.468 92.17 115.983 93.6233C116.46 94.9696 116.737 96.3591 116.884 97.7802C117.029 99.1785 117.011 100.579 117.01 101.859Z" fill="#FDCDAF"/>
<path d="M117.27 104.026C117.394 103.787 117.392 103.53 117.392 103.269C117.388 101.889 117.449 100.505 117.375 99.1284C117.267 97.0949 117.075 95.0671 116.299 93.145C115.815 91.945 114.971 91.173 113.742 90.7847C112.709 90.4582 111.662 90.4804 110.617 90.6426C109.348 90.8395 108.091 91.118 106.821 91.3077C106.293 91.3867 105.744 91.3482 105.206 91.3269C104.082 91.2826 102.98 91.4833 101.876 91.6236C100.944 91.7421 100.003 91.8574 99.095 92.1166C98.1823 92.3771 97.2785 92.6686 96.607 93.4052C96.03 94.038 95.6534 94.7883 95.3913 95.5875C94.9364 96.9744 94.6068 98.3959 94.3862 99.8389C94.2958 100.431 94.2441 101.032 94.2249 101.631C94.1981 102.47 94.2182 103.311 94.2182 104.145C93.9903 104.188 93.9911 104.033 93.9493 103.918C93.1067 101.592 92.0568 99.3509 91.1264 97.0608C90.7605 96.1603 90.6006 95.215 90.447 94.2578C90.2002 92.7197 90.553 91.279 90.9818 89.835C91.2751 88.8469 91.6309 87.8703 91.8306 86.8631C92.18 85.1014 93.2429 84.079 94.9039 83.5691C96.9864 82.9298 98.9877 82.0945 100.939 81.1234C102.096 80.548 103.346 80.1818 104.619 79.9694C105.703 79.7884 106.754 80.0389 107.758 80.4907C108.895 81.002 110.03 81.5238 111.257 81.797C112.261 82.0207 113.28 82.1474 114.299 82.28C115.778 82.4724 117.021 83.0623 117.676 84.5224C117.808 84.8168 117.967 85.0995 118.123 85.3826C118.505 86.0761 119.066 86.5832 119.724 87.0216C121.287 88.063 122.035 89.5222 122.072 91.4279C122.107 93.2886 121.817 95.0648 121.154 96.7907C120.605 98.2218 119.896 99.5704 119.069 100.862C118.628 101.549 118.242 102.271 117.845 102.985C117.668 103.305 117.53 103.646 117.515 104.021C117.435 104.087 117.353 104.089 117.27 104.026Z" fill="#1F120C"/>
<path d="M115.599 116.088C115.548 117.703 115.502 119.318 115.442 120.933C115.41 121.827 115.537 122.691 115.826 123.538C116.325 125.003 117.308 125.985 118.752 126.517C119.015 126.613 119.277 126.717 119.547 126.788C119.868 126.872 119.893 127.036 119.767 127.312C118.964 129.061 117.92 130.64 116.348 131.783C114.916 132.825 113.362 133.673 111.693 134.281C109.657 135.024 107.605 134.918 105.524 134.406C103.419 133.887 101.409 133.122 99.4829 132.16C97.2123 131.025 95.4638 129.288 94.1596 127.11C93.8693 126.625 93.8671 126.603 94.3581 126.324C95.9511 125.42 96.6487 123.981 96.7871 122.229C96.8959 120.85 96.8224 119.473 96.5846 118.107C96.5611 117.972 96.4942 117.825 96.6082 117.652C96.8686 117.95 97.1004 118.257 97.3739 118.52C99.5303 120.597 102.012 122.079 105.063 122.227C109.091 122.422 112.363 121.018 114.444 117.374C114.83 116.698 115.107 115.974 115.448 115.279C115.835 115.486 115.578 115.813 115.599 116.088Z" fill="#FDCDAF"/>
<path d="M120.722 104.212C120.66 105.385 120.437 106.629 119.857 107.786C119.506 108.488 119.036 109.1 118.389 109.56C118.177 109.711 117.956 109.846 117.696 109.897C117.226 109.988 117.029 109.786 117.073 109.315C117.141 108.587 117.226 107.856 117.229 107.125C117.235 105.395 117.772 103.831 118.631 102.358C118.794 102.079 118.975 101.811 119.13 101.528C119.287 101.243 119.481 101.257 119.715 101.413C119.918 101.548 120.056 101.742 120.183 101.942C120.604 102.602 120.718 103.34 120.722 104.212Z" fill="#FDCDAF"/>
<path d="M91.652 101.861C91.7877 101.724 91.9235 101.588 92.0592 101.452C92.3499 101.309 92.5374 101.314 92.6738 101.69C93.1288 102.945 93.6145 104.189 94.1101 105.428C94.2936 105.887 94.2305 106.365 94.2831 106.832C94.3821 107.709 94.4624 108.589 94.587 109.464C94.6765 110.093 94.6104 110.147 93.9861 109.986C93.198 109.783 92.6733 109.281 92.3649 108.536C91.9999 107.653 91.8391 106.717 91.6421 105.791C91.4944 105.097 91.3667 104.398 91.3372 103.683C91.3111 103.049 91.3636 102.437 91.652 101.861Z" fill="#FDCDAF"/>
<path d="M115.599 116.088C115.482 115.83 115.699 115.511 115.448 115.279C115.432 115.081 115.553 114.936 115.693 114.646C115.729 115.22 115.752 115.657 115.599 116.088Z" fill="#C4A38E"/>
<path d="M117.27 104.026C117.352 104.025 117.434 104.023 117.515 104.021C117.436 104.166 117.355 104.177 117.27 104.026Z" fill="#3E3C3D"/>
<path d="M94.1697 104.48C94.1761 104.498 94.1909 104.517 94.1872 104.532C94.173 104.587 94.1439 104.593 94.1167 104.546C94.1094 104.534 94.117 104.507 94.1266 104.492C94.1327 104.483 94.1548 104.484 94.1697 104.48Z" fill="#313131"/>
<path d="M93.8652 126.083L93.9083 126.07L93.9038 126.106L93.8652 126.083Z" fill="#51514C"/>
</g>
<defs>
<radialGradient id="paint0_radial_1841_342" cx="0" cy="0" r="1" gradientUnits="userSpaceOnUse" gradientTransform="translate(105.365 101.359) rotate(11.8858) scale(60.5059)">
<stop stop-color="#009400"/>
<stop offset="0.541667" stop-color="#D90000"/>
<stop offset="1" stop-color="#D9D9D9" stop-opacity="0"/>
</radialGradient>
<radialGradient id="paint1_radial_1841_342" cx="0" cy="0" r="1" gradientUnits="userSpaceOnUse" gradientTransform="translate(105.364 101.362) rotate(6.88581) scale(60.5059)">
<stop stop-color="#009400"/>
<stop offset="0.541667" stop-color="#D90000"/>
<stop offset="1" stop-color="#D9D9D9" stop-opacity="0"/>
</radialGradient>
<radialGradient id="paint2_radial_1841_342" cx="0" cy="0" r="1" gradientUnits="userSpaceOnUse" gradientTransform="translate(105.362 101.358) rotate(1.88581) scale(60.5059)">
<stop stop-color="#009400"/>
<stop offset="0.541667" stop-color="#D90000"/>
<stop offset="1" stop-color="#D9D9D9" stop-opacity="0"/>
</radialGradient>
<radialGradient id="paint3_radial_1841_342" cx="0" cy="0" r="1" gradientUnits="userSpaceOnUse" gradientTransform="translate(105.357 101.357) rotate(-3.11419) scale(60.5059)">
<stop stop-color="#009400"/>
<stop offset="0.541667" stop-color="#D90000"/>
<stop offset="1" stop-color="#D9D9D9" stop-opacity="0"/>
</radialGradient>
<radialGradient id="paint4_radial_1841_342" cx="0" cy="0" r="1" gradientUnits="userSpaceOnUse" gradientTransform="translate(105.357 101.36) rotate(-8.11419) scale(60.5059)">
<stop stop-color="#009400"/>
<stop offset="0.541667" stop-color="#D90000"/>
<stop offset="1" stop-color="#D9D9D9" stop-opacity="0"/>
</radialGradient>
<radialGradient id="paint5_radial_1841_342" cx="0" cy="0" r="1" gradientUnits="userSpaceOnUse" gradientTransform="translate(105.362 101.359) rotate(-13.1142) scale(60.5059)">
<stop stop-color="#009400"/>
<stop offset="0.541667" stop-color="#D90000"/>
<stop offset="1" stop-color="#D9D9D9" stop-opacity="0"/>
</radialGradient>
<radialGradient id="paint6_radial_1841_342" cx="0" cy="0" r="1" gradientUnits="userSpaceOnUse" gradientTransform="translate(105.363 101.361) rotate(-18.1142) scale(60.5059)">
<stop stop-color="#009400"/>
<stop offset="0.541667" stop-color="#D90000"/>
<stop offset="1" stop-color="#D9D9D9" stop-opacity="0"/>
</radialGradient>
<radialGradient id="paint7_radial_1841_342" cx="0" cy="0" r="1" gradientUnits="userSpaceOnUse" gradientTransform="translate(105.362 101.357) rotate(-23.1142) scale(60.5059)">
<stop stop-color="#009400"/>
<stop offset="0.541667" stop-color="#D90000"/>
<stop offset="1" stop-color="#D9D9D9" stop-opacity="0"/>
</radialGradient>
<radialGradient id="paint8_radial_1841_342" cx="0" cy="0" r="1" gradientUnits="userSpaceOnUse" gradientTransform="translate(105.362 101.359) rotate(-28.1142) scale(60.5059)">
<stop stop-color="#009400"/>
<stop offset="0.541667" stop-color="#D90000"/>
<stop offset="1" stop-color="#D9D9D9" stop-opacity="0"/>
</radialGradient>
<radialGradient id="paint9_radial_1841_342" cx="0" cy="0" r="1" gradientUnits="userSpaceOnUse" gradientTransform="translate(105.357 101.358) rotate(-33.1142) scale(60.5059)">
<stop stop-color="#009400"/>
<stop offset="0.541667" stop-color="#D90000"/>
<stop offset="1" stop-color="#D9D9D9" stop-opacity="0"/>
</radialGradient>
<radialGradient id="paint10_radial_1841_342" cx="0" cy="0" r="1" gradientUnits="userSpaceOnUse" gradientTransform="translate(105.354 101.359) rotate(-38.1142) scale(60.5059)">
<stop stop-color="#009400"/>
<stop offset="0.541667" stop-color="#D90000"/>
<stop offset="1" stop-color="#D9D9D9" stop-opacity="0"/>
</radialGradient>
<radialGradient id="paint11_radial_1841_342" cx="0" cy="0" r="1" gradientUnits="userSpaceOnUse" gradientTransform="translate(105.363 101.361) rotate(-43.1142) scale(60.5059)">
<stop stop-color="#009400"/>
<stop offset="0.541667" stop-color="#D90000"/>
<stop offset="1" stop-color="#D9D9D9" stop-opacity="0"/>
</radialGradient>
<radialGradient id="paint12_radial_1841_342" cx="0" cy="0" r="1" gradientUnits="userSpaceOnUse" gradientTransform="translate(105.35 101.359) rotate(-48.1142) scale(60.5059)">
<stop stop-color="#009400"/>
<stop offset="0.541667" stop-color="#D90000"/>
<stop offset="1" stop-color="#D9D9D9" stop-opacity="0"/>
</radialGradient>
<radialGradient id="paint13_radial_1841_342" cx="0" cy="0" r="1" gradientUnits="userSpaceOnUse" gradientTransform="translate(105.36 101.359) rotate(-53.1142) scale(60.5059)">
<stop stop-color="#009400"/>
<stop offset="0.541667" stop-color="#D90000"/>
<stop offset="1" stop-color="#D9D9D9" stop-opacity="0"/>
</radialGradient>
<radialGradient id="paint14_radial_1841_342" cx="0" cy="0" r="1" gradientUnits="userSpaceOnUse" gradientTransform="translate(105.361 101.355) rotate(-58.1142) scale(60.5059)">
<stop stop-color="#009400"/>
<stop offset="0.541667" stop-color="#D90000"/>
<stop offset="1" stop-color="#D9D9D9" stop-opacity="0"/>
</radialGradient>
<radialGradient id="paint15_radial_1841_342" cx="0" cy="0" r="1" gradientUnits="userSpaceOnUse" gradientTransform="translate(105.359 101.358) rotate(-63.1142) scale(60.5058)">
<stop stop-color="#009400"/>
<stop offset="0.541667" stop-color="#D90000"/>
<stop offset="1" stop-color="#D9D9D9" stop-opacity="0"/>
</radialGradient>
<radialGradient id="paint16_radial_1841_342" cx="0" cy="0" r="1" gradientUnits="userSpaceOnUse" gradientTransform="translate(105.352 101.359) rotate(-68.1142) scale(60.5059)">
<stop stop-color="#009400"/>
<stop offset="0.541667" stop-color="#D90000"/>
<stop offset="1" stop-color="#D9D9D9" stop-opacity="0"/>
</radialGradient>
</defs>
</svg>
