<svg width="150" height="150" viewBox="0 0 150 150" fill="none" xmlns="http://www.w3.org/2000/svg">
<path d="M75 150C116.421 150 150 116.421 150 75C150 33.5786 116.421 0 75 0C33.5786 0 0 33.5786 0 75C0 116.421 33.5786 150 75 150Z" fill="#C75C5C"/>
<g opacity="0.2">
<path d="M39.8437 117.187C29.5312 117.187 25.3125 109.922 30.4687 101.016L65.625 39.8437C70.7812 30.9375 79.2187 30.9375 84.375 39.8437L119.531 101.016C124.687 109.922 120.469 117.187 110.156 117.187H39.8437Z" fill="#231F20"/>
</g>
<path d="M39.8437 112.5C29.5312 112.5 25.3125 105.234 30.4687 96.3281L65.625 35.1562C70.7812 26.25 79.2187 26.25 84.375 35.1562L119.531 96.3281C124.687 105.234 120.469 112.5 110.156 112.5H39.8437Z" fill="#F5CF87"/>
<path d="M79.6875 75C79.6875 77.5781 77.5781 79.6875 75 79.6875C72.4219 79.6875 70.3125 77.5781 70.3125 75V56.25C70.3125 53.6719 72.4219 51.5625 75 51.5625C77.5781 51.5625 79.6875 53.6719 79.6875 56.25V75Z" fill="#4F5D73"/>
<path d="M79.6875 93.75C79.6875 96.3281 77.5781 98.4375 75 98.4375C72.4219 98.4375 70.3125 96.3281 70.3125 93.75C70.3125 91.1719 72.4219 89.0625 75 89.0625C77.5781 89.0625 79.6875 91.1719 79.6875 93.75Z" fill="#4F5D73"/>
</svg>
