<svg width="28" height="28" viewBox="0 0 28 28" fill="none" xmlns="http://www.w3.org/2000/svg">
<path d="M5 28C4.0111 28 3.0444 27.7068 2.22215 27.1574C1.39991 26.6079 0.759043 25.8271 0.380605 24.9134C0.00216642 23.9998 -0.0968503 22.9945 0.0960759 22.0246C0.289002 21.0546 0.765206 20.1637 1.46447 19.4645C2.16373 18.7652 3.05465 18.289 4.02455 18.0961C4.99446 17.9031 5.99979 18.0022 6.91342 18.3806C7.82705 18.759 8.60794 19.3999 9.15735 20.2222C9.70676 21.0444 10 22.0111 10 23C9.99841 24.3256 9.47112 25.5964 8.53378 26.5338C7.59644 27.4711 6.3256 27.9984 5 28ZM5 20C4.40666 20 3.82664 20.1759 3.33329 20.5056C2.83994 20.8352 2.45543 21.3038 2.22836 21.852C2.0013 22.4001 1.94189 23.0033 2.05765 23.5853C2.1734 24.1672 2.45912 24.7018 2.87868 25.1213C3.29824 25.5409 3.83279 25.8266 4.41473 25.9424C4.99667 26.0581 5.59987 25.9987 6.14805 25.7716C6.69623 25.5446 7.16477 25.1601 7.49441 24.6667C7.82406 24.1734 8 23.5933 8 23C7.99921 22.2046 7.68288 21.442 7.12045 20.8796C6.55801 20.3171 5.79541 20.0008 5 20Z" fill="#3376E4"/>
<path d="M22 24H12V22H22V15H6C5.46973 14.9995 4.96133 14.7886 4.58637 14.4136C4.21141 14.0387 4.00053 13.5303 4 13V6C4.00053 5.46973 4.21141 4.96133 4.58637 4.58637C4.96133 4.21141 5.46973 4.00053 6 4H16V6H6V13H22C22.5303 13.0005 23.0387 13.2114 23.4136 13.5864C23.7886 13.9613 23.9995 14.4697 24 15V22C23.9995 22.5303 23.7886 23.0387 23.4136 23.4136C23.0387 23.7886 22.5303 23.9995 22 24Z" fill="#3376E4"/>
<path d="M26 10H20C19.4697 9.99947 18.9613 9.78859 18.5864 9.41363C18.2114 9.03867 18.0005 8.53027 18 8V2C18.0005 1.46973 18.2114 0.961329 18.5864 0.586371C18.9613 0.211413 19.4697 0.000529477 20 0H26C26.5303 0.000529477 27.0387 0.211413 27.4136 0.586371C27.7886 0.961329 27.9995 1.46973 28 2V8C27.9995 8.53027 27.7886 9.03867 27.4136 9.41363C27.0387 9.78859 26.5303 9.99947 26 10ZM20 2V8H26V2H20Z" fill="#3376E4"/>
</svg>
