<svg width="30" height="30" viewBox="0 0 30 30" fill="none" xmlns="http://www.w3.org/2000/svg">
<path d="M5.35715 29.9994C4.2976 29.9994 3.26185 29.6853 2.38088 29.0966C1.4999 28.508 0.81326 27.6713 0.407791 26.6924C0.00232116 25.7135 -0.103768 24.6364 0.102938 23.5972C0.309645 22.558 0.819863 21.6034 1.56907 20.8542C2.31828 20.105 3.27283 19.5948 4.31202 19.3881C5.3512 19.1814 6.42834 19.2875 7.40723 19.6929C8.38612 20.0984 9.2228 20.7851 9.81145 21.666C10.4001 22.547 10.7143 23.5828 10.7143 24.6423C10.7126 26.0626 10.1476 27.4242 9.14334 28.4285C8.13905 29.4328 6.77743 29.9977 5.35715 29.9994ZM5.35715 21.428C4.72142 21.428 4.09997 21.6165 3.57138 21.9697C3.0428 22.3229 2.63081 22.8249 2.38753 23.4122C2.14425 23.9996 2.0806 24.6459 2.20462 25.2694C2.32865 25.8929 2.63478 26.4656 3.0843 26.9151C3.53383 27.3647 4.10656 27.6708 4.73007 27.7948C5.35358 27.9189 5.99987 27.8552 6.5872 27.6119C7.17453 27.3686 7.67654 26.9566 8.02973 26.4281C8.38292 25.8995 8.57143 25.278 8.57143 24.6423C8.57058 23.7901 8.23166 22.973 7.62905 22.3704C7.02644 21.7678 6.20937 21.4289 5.35715 21.428Z" fill="#CCCCCC"/>
<path d="M23.5714 25.7137H12.8571V23.5709H23.5714V16.0709H6.4285C5.86035 16.0703 5.31564 15.8444 4.9139 15.4426C4.51216 15.0409 4.28621 14.4962 4.28564 13.928V6.42801C4.28621 5.85987 4.51216 5.31515 4.9139 4.91341C5.31564 4.51167 5.86035 4.28572 6.4285 4.28516H17.1428V6.42801H6.4285V13.928H23.5714C24.1395 13.9286 24.6842 14.1545 25.086 14.5563C25.4877 14.958 25.7136 15.5027 25.7142 16.0709V23.5709C25.7136 24.139 25.4877 24.6837 25.086 25.0855C24.6842 25.4872 24.1395 25.7132 23.5714 25.7137Z" fill="#CCCCCC"/>
<path d="M27.8571 10.7143H21.4285C20.8604 10.7137 20.3156 10.4878 19.9139 10.086C19.5122 9.68429 19.2862 9.13958 19.2856 8.57143V2.14286C19.2862 1.57471 19.5122 1.03 19.9139 0.628255C20.3156 0.226514 20.8604 0.000567296 21.4285 0H27.8571C28.4252 0.000567296 28.9699 0.226514 29.3717 0.628255C29.7734 1.03 29.9994 1.57471 29.9999 2.14286V8.57143C29.9994 9.13958 29.7734 9.68429 29.3717 10.086C28.9699 10.4878 28.4252 10.7137 27.8571 10.7143ZM21.4285 2.14286V8.57143H27.8571V2.14286H21.4285Z" fill="#CCCCCC"/>
</svg>
