<svg width="100" height="100" viewBox="0 0 100 100" fill="none" xmlns="http://www.w3.org/2000/svg">
<path d="M66.6668 41.6667C66.6668 46.0869 64.9109 50.3262 61.7853 53.4518C58.6597 56.5774 54.4204 58.3333 50.0002 58.3333C45.5799 58.3333 41.3407 56.5774 38.215 53.4518C35.0894 50.3262 33.3335 46.0869 33.3335 41.6667C33.3335 37.2464 35.0894 33.0072 38.215 29.8816C41.3407 26.7559 45.5799 25 50.0002 25C54.4204 25 58.6597 26.7559 61.7853 29.8816C64.9109 33.0072 66.6668 37.2464 66.6668 41.6667Z" fill="#007ADA"/>
<path fill-rule="evenodd" clip-rule="evenodd" d="M48.3002 91.634C26.0772 90.7423 8.3335 72.4423 8.3335 50.0007C8.3335 26.9882 26.9877 8.33398 50.0002 8.33398C73.0127 8.33398 91.6668 26.9882 91.6668 50.0007C91.6668 73.0132 73.0127 91.6673 50.0002 91.6673H49.4293C49.0516 91.6673 48.6752 91.6562 48.3002 91.634ZM23.2627 76.2923C22.9511 75.3977 22.8451 74.4444 22.9524 73.5031C23.0597 72.5619 23.3777 71.6569 23.8826 70.8554C24.3876 70.0538 25.0665 69.3763 25.8692 68.8731C26.6718 68.3699 27.5775 68.0539 28.5189 67.9486C44.7606 66.1507 55.3397 66.3132 71.5022 67.9861C72.445 68.0842 73.3529 68.3963 74.1568 68.8983C74.9607 69.4004 75.6394 70.0793 76.1413 70.8834C76.6432 71.6874 76.955 72.5954 77.0529 73.5381C77.1508 74.4809 77.0323 75.4335 76.7064 76.3236C83.6337 69.3153 87.513 59.8548 87.5002 50.0007C87.5002 29.2902 70.7106 12.5007 50.0002 12.5007C29.2897 12.5007 12.5002 29.2902 12.5002 50.0007C12.5002 60.2423 16.6064 69.5257 23.2627 76.2923Z" fill="#007ADA"/>
</svg>
