<svg width="30" height="30" viewBox="0 0 30 30" fill="none" xmlns="http://www.w3.org/2000/svg">
<path d="M2.14286 17.0466C2.14286 19.1722 2.8 21.1239 4.11429 22.9016C5.42857 24.6792 7.19286 26.0134 9.40714 26.9041C9.12429 26.5365 8.91428 26.1541 8.77714 25.7568C8.64 25.3633 8.57143 24.9581 8.57143 24.5411C8.57143 23.8157 8.73786 23.1279 9.07071 22.4778C9.40214 21.8277 9.86929 21.2429 10.4721 20.7235L15 16.869L19.5707 20.7235C20.1707 21.2417 20.6307 21.8264 20.9507 22.4778C21.2707 23.1292 21.43 23.8169 21.4286 24.5411C21.4286 24.9568 21.36 25.3627 21.2229 25.7587C21.0857 26.1547 20.8757 26.5365 20.5929 26.9041C22.81 26.0147 24.5743 24.6805 25.8857 22.9016C27.1971 21.1226 27.8543 19.171 27.8571 17.0466C27.8571 15.5046 27.5271 14.047 26.8671 12.6739C26.2071 11.3009 25.2514 10.0753 24 8.99704C23.2857 9.39798 22.5357 9.69899 21.75 9.90007C20.9643 10.1012 20.1607 10.2011 19.3393 10.1999C17.0964 10.1999 15.1629 9.5676 13.5386 8.30311C11.9143 7.03861 10.9907 5.45769 10.7679 3.56033C9.375 4.55342 8.14286 5.5977 7.07143 6.69319C6 7.78867 5.09786 8.9113 4.365 10.0611C3.63214 11.2108 3.07929 12.3705 2.70643 13.54C2.33357 14.7095 2.14571 15.8784 2.14286 17.0466ZM15 19.4523L11.9464 22.0429C11.5536 22.3822 11.25 22.7677 11.0357 23.1995C10.8214 23.6313 10.7143 24.0785 10.7143 24.5411C10.7143 25.528 11.1336 26.3761 11.9721 27.0855C12.8107 27.7948 13.82 28.1495 15 28.1495C16.18 28.1495 17.1886 27.7948 18.0257 27.0855C18.8629 26.3761 19.2829 25.528 19.2857 24.5411C19.2857 24.0476 19.1786 23.593 18.9643 23.1773C18.75 22.7615 18.4464 22.3834 18.0536 22.0429L15 19.4523ZM12.8571 0V2.79793C12.8571 4.36837 13.4829 5.68653 14.7343 6.75241C15.9857 7.81705 17.5207 8.34937 19.3393 8.34937C20.0107 8.34937 20.6636 8.25129 21.2979 8.05514C21.935 7.86023 22.5364 7.57895 23.1021 7.21133L24.0236 6.58401C25.8979 7.78436 27.3621 9.30977 28.4164 11.1603C29.4721 13.012 30 14.9741 30 17.0466C30 20.6575 28.545 23.7188 25.635 26.2306C22.725 28.7423 19.18 29.9988 15 30C10.82 30.0012 7.275 28.7448 4.365 26.2306C1.455 23.7164 0 20.6551 0 17.0466C0 13.8749 1.15286 10.7729 3.45857 7.74056C5.76429 4.70824 8.89714 2.12805 12.8571 0Z" fill="white"/>
</svg>
