<svg width="38" height="38" viewBox="0 0 38 38" fill="none" xmlns="http://www.w3.org/2000/svg">
<g clip-path="url(#clip0_4371_4543)">
<path d="M32.375 0.25H6.125C3.0184 0.25 0.5 2.7684 0.5 5.875V32.125C0.5 35.2316 3.0184 37.75 6.125 37.75H32.375C35.4816 37.75 38 35.2316 38 32.125V5.875C38 2.7684 35.4816 0.25 32.375 0.25Z" fill="#1DA1F2"/>
<path d="M32.5078 11.3828C31.6395 11.9588 30.6201 12.2646 29.5781 12.2617C30.6921 11.6055 31.5262 10.5629 31.9219 9.33202C30.9985 10.1126 29.8349 10.5522 28.626 10.5771C27.8289 9.76081 26.7886 9.22498 25.6612 9.05008C24.5338 8.87517 23.3801 9.07062 22.3731 9.60709C21.3662 10.1436 20.5605 10.9921 20.0767 12.0254C19.593 13.0587 19.4575 14.221 19.6904 15.3379C17.6392 15.2296 15.6336 14.6911 13.804 13.7573C11.9743 12.8236 10.3616 11.5155 9.07031 9.91796C8.43846 11.0613 8.25346 12.3985 8.55115 13.6704C8.84884 14.9424 9.60803 16.0585 10.6816 16.8027C9.87138 16.8142 9.06937 16.6387 8.33789 16.29C8.35759 17.4698 8.77241 18.609 9.51599 19.5252C10.2596 20.4413 11.2889 21.0817 12.4395 21.3437C11.6736 21.5437 10.8725 21.5688 10.0957 21.417C10.4308 22.4622 11.0837 23.3767 11.9634 24.0332C12.843 24.6897 13.9056 25.0553 15.0029 25.0791C12.6854 26.485 10.0231 27.2203 7.3125 27.2031C9.58267 28.6852 12.2196 29.5082 14.9298 29.5804C17.6399 29.6527 20.317 28.9714 22.6629 27.6125C25.0088 26.2535 26.9316 24.2702 28.2171 21.8832C29.5027 19.4963 30.1006 16.7994 29.9443 14.0928C30.9108 13.3024 31.7723 12.3917 32.5078 11.3828Z" fill="white"/>
</g>
<defs>
<clipPath id="clip0_4371_4543">
<rect width="37.5" height="37.5" fill="white" transform="translate(0.5 0.25)"/>
</clipPath>
</defs>
</svg>
