<svg width="498" height="500" viewBox="0 0 498 500" fill="none" xmlns="http://www.w3.org/2000/svg">
<g opacity="0.11">
<path d="M231.979 292.756L244.932 288.786L253.852 291.895L266.315 243.475L251.18 244.071L263.026 207.824L232.454 256.954L251.99 256.185L231.979 292.756Z" fill="#5391DA"/>
<path d="M328.014 310.04L231.243 394.867L157.714 289.256L132.637 163.037L260.863 152.164L382.711 193.557L328.014 310.04Z" stroke="url(#paint0_radial_4540_368)" stroke-width="2.95333"/>
<path d="M332.906 302.921L243.897 395.859L161.443 297.059L125.461 173.505L252.251 151.498L377.243 182.113L332.906 302.921Z" stroke="url(#paint1_radial_4540_368)" stroke-width="2.95333"/>
<path d="M337.154 295.402L256.583 395.744L165.832 304.506L119.218 184.559L243.608 151.585L370.793 171.19L337.154 295.402Z" stroke="url(#paint2_radial_4540_368)" stroke-width="2.95333"/>
<path d="M340.73 287.539L269.211 394.521L170.853 311.54L113.963 196.112L235.006 152.422L363.415 160.868L340.73 287.539Z" stroke="url(#paint3_radial_4540_368)" stroke-width="2.95333"/>
<path d="M343.61 279.383L281.687 392.192L176.472 318.099L109.738 208.068L226.512 153.995L355.168 151.217L343.61 279.383Z" stroke="url(#paint4_radial_4540_368)" stroke-width="2.95333"/>
<path d="M345.767 271.017L293.912 388.793L182.639 324.152L106.569 220.356L218.186 156.311L346.111 142.331L345.767 271.017Z" stroke="url(#paint5_radial_4540_368)" stroke-width="2.95333"/>
<path d="M347.192 262.491L305.799 384.338L189.316 329.642L104.489 232.871L210.1 159.341L336.319 134.265L347.192 262.491Z" stroke="url(#paint6_radial_4540_368)" stroke-width="2.95333"/>
<path d="M347.858 253.884L317.243 378.876L196.435 334.539L103.497 245.53L202.297 163.076L325.851 127.094L347.858 253.884Z" stroke="url(#paint7_radial_4540_368)" stroke-width="2.95333"/>
<path d="M347.778 245.233L328.172 372.417L203.96 338.779L103.618 258.208L194.856 167.457L314.804 120.843L347.778 245.233Z" stroke="url(#paint8_radial_4540_368)" stroke-width="2.95333"/>
<path d="M346.943 236.635L338.498 365.044L211.827 342.359L104.844 270.84L187.826 172.482L303.254 115.592L346.943 236.635Z" stroke="url(#paint9_radial_4540_368)" stroke-width="2.95333"/>
<path d="M345.363 228.15L348.141 356.806L219.975 345.248L107.167 283.325L181.26 178.109L291.29 111.375L345.363 228.15Z" stroke="url(#paint10_radial_4540_368)" stroke-width="2.95333"/>
<path d="M343.049 219.818L357.03 347.742L228.344 347.398L110.568 295.543L175.209 184.27L279.005 108.2L343.049 219.818Z" stroke="url(#paint11_radial_4540_368)" stroke-width="2.95333"/>
<path d="M340.016 211.735L365.093 337.954L236.866 348.827L115.019 307.434L169.716 190.951L266.487 106.124L340.016 211.735Z" stroke="url(#paint12_radial_4540_368)" stroke-width="2.95333"/>
<path d="M336.287 203.938L372.269 327.491L245.479 349.498L120.487 318.883L164.824 198.075L253.833 105.137L336.287 203.938Z" stroke="url(#paint13_radial_4540_368)" stroke-width="2.95333"/>
<path d="M331.897 196.489L378.51 316.436L254.12 349.41L126.936 329.805L160.575 205.593L241.145 105.251L331.897 196.489Z" stroke="url(#paint14_radial_4540_368)" stroke-width="2.95333"/>
<path d="M326.874 189.454L383.764 304.882L262.721 348.572L134.312 340.126L156.997 213.455L228.516 106.473L326.874 189.454Z" stroke="url(#paint15_radial_4540_368)" stroke-width="2.95333"/>
<path d="M321.258 182.896L387.991 292.926L271.217 346.999L142.561 349.777L154.119 221.611L216.042 108.803L321.258 182.896Z" stroke="url(#paint16_radial_4540_368)" stroke-width="2.95333"/>
<path d="M190.845 182.118C188.248 184.495 187.395 188.067 188.316 191.229C112.967 267.24 220.959 388.703 307.185 317.328C310.354 314.66 311.176 311.33 310.501 308.393C342.541 279.557 345.175 223.025 311.955 193.709C281.826 158.347 226.307 148.907 190.845 182.118ZM305.033 301.905C302.395 300.806 299.164 300.974 296.051 303.32C222.403 366.23 133.96 263.854 194.171 197.226C197.246 198.208 200.748 197.493 203.199 195.063C230.565 166.88 278.332 175.423 302.767 203.413C332.254 227.347 330.857 275.735 305.033 301.905Z" fill="#5391DA"/>
<path d="M338.625 136.456C315.56 142.535 302.965 132.23 284.417 119.858C278.14 93.7168 237.261 92.933 228.572 117.731C213.494 120.344 198.839 125.622 185.573 133.238C163.598 118.911 131.215 147.836 143.627 171.453C134.631 184.122 127.905 198.378 123.862 213.349C113.27 215.82 104.327 225.296 103.968 236.432C101.985 249.856 111.308 261.269 119.065 270.795C127.865 283.568 129.946 302.804 134.953 316.147C126.04 329.317 134.112 344.54 145.816 352.576C153.664 357.869 163.533 355.238 172.006 356.561C187.665 360.541 200.756 369.646 216.51 374.322C219.908 392.647 242.57 398.638 258.506 391.952C264.272 389.178 267.007 382.888 270.457 378.101C283.224 373.787 308.275 360.376 320.471 364.739C324.729 366.229 330.965 367.497 335.908 365.511C350.188 358.587 363.83 341.468 356.658 325.052C365.45 313.243 372.157 299.934 376.597 285.901C377.708 282.402 375.678 278.652 372.139 277.672C368.676 276.706 365.085 278.73 364.12 282.192C362.183 289.144 359.586 295.927 356.358 302.39C353.113 308.912 349.272 315.146 344.866 320.941C339.102 328.575 359.337 334.512 333.465 354.171C328.74 357.472 322.83 353.161 317.451 352.307C307.794 351.897 297.807 356.818 288.612 359.386C280.56 362.19 272.668 365.343 264.896 368.732C253.26 378.763 260.238 386.942 236.456 382.355C224.356 378.899 230.185 367.372 222.685 364.617C204.441 360.144 187.604 346.064 168.177 344.675C162.972 344.518 158.092 345.175 153.465 343.544C152.512 343.133 151.646 342.57 150.899 341.857C134.857 326.281 147.649 327.759 146.72 313.816C140.766 297.412 139.338 278.152 128.871 263.374C124.49 257.689 119.504 252.039 117.176 245.509C113.782 236.189 119.235 225.733 129.575 225.291C132.224 225.08 134.567 223.204 135.231 220.481C139.149 204.337 146.515 189.051 156.753 175.977C158.463 173.781 158.654 170.627 156.994 168.206C153.203 162.542 153.317 154.917 158.773 150.552C163.17 145.977 168.983 141.534 175.373 143.805C179.632 145.166 183.886 150.935 188.953 147.529C203.101 138.957 218.975 133.471 235.386 131.459C238.493 131.071 241.115 128.683 241.645 125.435C243.094 114.357 258.266 111.758 266.173 117.586C269.906 121.682 269.89 128.966 275.153 132.139C290.285 142.215 305.768 154.897 325.202 154.598C342.886 153.353 337.486 148.755 350.262 164.881C350.232 164.862 350.209 164.807 350.194 164.798C350.192 164.786 350.189 164.787 350.186 164.788C350.814 171.384 347.35 179.104 349.105 186.04C351.44 200.919 354.973 198.886 359.347 212.608C356.991 204.727 360.783 217.414 359.347 212.608C374.48 206.554 373.019 205.363 370.191 195.87C360.064 177.963 372.989 168.24 363.306 154.409C357.141 146.579 349.779 136.507 338.625 136.456Z" fill="#5391DA"/>
</g>
<defs>
<radialGradient id="paint0_radial_4540_368" cx="0" cy="0" r="1" gradientUnits="userSpaceOnUse" gradientTransform="translate(248.864 250.487) rotate(-83.0418) scale(147.667)">
<stop stop-color="#009400"/>
<stop offset="0.541667" stop-color="#A0A0A0"/>
<stop offset="1" stop-color="#D9D9D9" stop-opacity="0"/>
</radialGradient>
<radialGradient id="paint1_radial_4540_368" cx="0" cy="0" r="1" gradientUnits="userSpaceOnUse" gradientTransform="translate(248.867 250.492) rotate(-88.0418) scale(147.667)">
<stop stop-color="#009400"/>
<stop offset="0.541667" stop-color="#A0A0A0"/>
<stop offset="1" stop-color="#D9D9D9" stop-opacity="0"/>
</radialGradient>
<radialGradient id="paint2_radial_4540_368" cx="0" cy="0" r="1" gradientUnits="userSpaceOnUse" gradientTransform="translate(248.865 250.498) rotate(-93.0418) scale(147.667)">
<stop stop-color="#009400"/>
<stop offset="0.541667" stop-color="#A0A0A0"/>
<stop offset="1" stop-color="#D9D9D9" stop-opacity="0"/>
</radialGradient>
<radialGradient id="paint3_radial_4540_368" cx="0" cy="0" r="1" gradientUnits="userSpaceOnUse" gradientTransform="translate(248.863 250.5) rotate(-98.0418) scale(147.667)">
<stop stop-color="#009400"/>
<stop offset="0.541667" stop-color="#A0A0A0"/>
<stop offset="1" stop-color="#D9D9D9" stop-opacity="0"/>
</radialGradient>
<radialGradient id="paint4_radial_4540_368" cx="0" cy="0" r="1" gradientUnits="userSpaceOnUse" gradientTransform="translate(248.865 250.492) rotate(-103.042) scale(147.667)">
<stop stop-color="#009400"/>
<stop offset="0.541667" stop-color="#A0A0A0"/>
<stop offset="1" stop-color="#D9D9D9" stop-opacity="0"/>
</radialGradient>
<radialGradient id="paint5_radial_4540_368" cx="0" cy="0" r="1" gradientUnits="userSpaceOnUse" gradientTransform="translate(248.864 250.493) rotate(-108.042) scale(147.667)">
<stop stop-color="#009400"/>
<stop offset="0.541667" stop-color="#A0A0A0"/>
<stop offset="1" stop-color="#D9D9D9" stop-opacity="0"/>
</radialGradient>
<radialGradient id="paint6_radial_4540_368" cx="0" cy="0" r="1" gradientUnits="userSpaceOnUse" gradientTransform="translate(248.869 250.491) rotate(-113.042) scale(147.667)">
<stop stop-color="#009400"/>
<stop offset="0.541667" stop-color="#A0A0A0"/>
<stop offset="1" stop-color="#D9D9D9" stop-opacity="0"/>
</radialGradient>
<radialGradient id="paint7_radial_4540_368" cx="0" cy="0" r="1" gradientUnits="userSpaceOnUse" gradientTransform="translate(248.864 250.5) rotate(-118.042) scale(147.667)">
<stop stop-color="#009400"/>
<stop offset="0.541667" stop-color="#A0A0A0"/>
<stop offset="1" stop-color="#D9D9D9" stop-opacity="0"/>
</radialGradient>
<radialGradient id="paint8_radial_4540_368" cx="0" cy="0" r="1" gradientUnits="userSpaceOnUse" gradientTransform="translate(248.865 250.49) rotate(-123.042) scale(147.667)">
<stop stop-color="#009400"/>
<stop offset="0.541667" stop-color="#A0A0A0"/>
<stop offset="1" stop-color="#D9D9D9" stop-opacity="0"/>
</radialGradient>
<radialGradient id="paint9_radial_4540_368" cx="0" cy="0" r="1" gradientUnits="userSpaceOnUse" gradientTransform="translate(248.865 250.492) rotate(-128.042) scale(147.667)">
<stop stop-color="#009400"/>
<stop offset="0.541667" stop-color="#A0A0A0"/>
<stop offset="1" stop-color="#D9D9D9" stop-opacity="0"/>
</radialGradient>
<radialGradient id="paint10_radial_4540_368" cx="0" cy="0" r="1" gradientUnits="userSpaceOnUse" gradientTransform="translate(248.866 250.502) rotate(-133.042) scale(147.667)">
<stop stop-color="#009400"/>
<stop offset="0.541667" stop-color="#A0A0A0"/>
<stop offset="1" stop-color="#D9D9D9" stop-opacity="0"/>
</radialGradient>
<radialGradient id="paint11_radial_4540_368" cx="0" cy="0" r="1" gradientUnits="userSpaceOnUse" gradientTransform="translate(248.867 250.495) rotate(-138.042) scale(147.667)">
<stop stop-color="#009400"/>
<stop offset="0.541667" stop-color="#A0A0A0"/>
<stop offset="1" stop-color="#D9D9D9" stop-opacity="0"/>
</radialGradient>
<radialGradient id="paint12_radial_4540_368" cx="0" cy="0" r="1" gradientUnits="userSpaceOnUse" gradientTransform="translate(248.866 250.504) rotate(-143.042) scale(147.667)">
<stop stop-color="#009400"/>
<stop offset="0.541667" stop-color="#A0A0A0"/>
<stop offset="1" stop-color="#D9D9D9" stop-opacity="0"/>
</radialGradient>
<radialGradient id="paint13_radial_4540_368" cx="0" cy="0" r="1" gradientUnits="userSpaceOnUse" gradientTransform="translate(248.863 250.504) rotate(-148.042) scale(147.667)">
<stop stop-color="#009400"/>
<stop offset="0.541667" stop-color="#A0A0A0"/>
<stop offset="1" stop-color="#D9D9D9" stop-opacity="0"/>
</radialGradient>
<radialGradient id="paint14_radial_4540_368" cx="0" cy="0" r="1" gradientUnits="userSpaceOnUse" gradientTransform="translate(248.864 250.497) rotate(-153.042) scale(147.667)">
<stop stop-color="#009400"/>
<stop offset="0.541667" stop-color="#A0A0A0"/>
<stop offset="1" stop-color="#D9D9D9" stop-opacity="0"/>
</radialGradient>
<radialGradient id="paint15_radial_4540_368" cx="0" cy="0" r="1" gradientUnits="userSpaceOnUse" gradientTransform="translate(248.864 250.494) rotate(-158.042) scale(147.667)">
<stop stop-color="#009400"/>
<stop offset="0.541667" stop-color="#A0A0A0"/>
<stop offset="1" stop-color="#D9D9D9" stop-opacity="0"/>
</radialGradient>
<radialGradient id="paint16_radial_4540_368" cx="0" cy="0" r="1" gradientUnits="userSpaceOnUse" gradientTransform="translate(248.865 250.502) rotate(-163.042) scale(147.667)">
<stop stop-color="#009400"/>
<stop offset="0.541667" stop-color="#A0A0A0"/>
<stop offset="1" stop-color="#D9D9D9" stop-opacity="0"/>
</radialGradient>
</defs>
</svg>
