<svg width="579" height="56" viewBox="0 0 579 56" fill="none" xmlns="http://www.w3.org/2000/svg">
<path d="M75.3242 21.413C75.3347 21.4119 75.3449 21.4086 75.3542 21.4035C75.3635 21.3984 75.3717 21.3914 75.3783 21.3831C75.3848 21.3748 75.3897 21.3652 75.3925 21.355C75.3954 21.3448 75.3962 21.3341 75.3949 21.3236L75.3769 21.0734C75.3711 20.96 75.3115 20.9062 75.1981 20.912C64.7137 21.4292 54.2178 22.1431 43.7102 23.0535C40.5213 23.3283 37.7417 22.843 35.3715 21.5976C35.0395 21.4216 34.835 21.1534 34.7578 20.7927L34.5653 19.8412C34.4948 19.4806 34.2936 19.219 33.9615 19.0564C33.6294 18.8938 33.3947 18.6452 33.2574 18.3108C33.0611 17.8359 33.2195 17.6172 33.7326 17.6545C34.0991 17.6774 34.4363 17.6001 34.7444 17.4225C34.9301 17.314 35.0794 17.152 35.1726 16.9579C35.2658 16.7637 35.2986 16.5464 35.2667 16.3344C35.2349 16.1224 35.1399 15.9255 34.9942 15.7695C34.8484 15.6135 34.6587 15.5057 34.4499 15.4601C31.5083 14.8036 29.0043 13.6171 26.9378 11.9007C26.8627 11.8374 26.8071 11.7542 26.7774 11.6606C26.7477 11.567 26.7451 11.4669 26.7699 11.3719C26.7947 11.2769 26.8459 11.1908 26.9176 11.1237C26.9893 11.0565 27.0785 11.0111 27.1749 10.9926C30.7804 10.321 34.3774 9.43939 38.0613 8.95846C56.094 6.60078 74.1906 4.95358 92.352 4.01695C120.945 2.54932 147.813 1.94144 172.959 2.1933C185.378 2.31803 533.581 -0.307192 547.999 0.800005C550.858 1.01258 553.693 1.59498 556.529 2.10738C556.789 2.15623 557.026 2.28622 557.207 2.47836C557.387 2.67049 557.5 2.91469 557.531 3.17532C557.75 4.97709 557.656 6.7831 557.248 8.59326C556.757 10.7694 556.508 12.4142 556.499 13.5275C556.486 15.1874 556.473 16.8707 556.459 18.5773C556.46 18.6949 556.434 18.8111 556.382 18.9172C556.331 19.0232 556.256 19.1164 556.163 19.1897C556.07 19.2631 555.962 19.3146 555.846 19.3406C555.73 19.3666 555.609 19.3663 555.493 19.3397C554.635 19.1463 553.781 19.1762 552.932 19.4295C552.498 19.5661 552.453 19.7791 552.797 20.0685C553.115 20.3376 553.477 20.5072 553.883 20.577C554.094 20.6185 554.291 20.7133 554.456 20.8528C554.621 20.9922 554.749 21.1717 554.827 21.3745C554.971 21.749 554.998 22.1192 554.908 22.4852C554.798 22.9777 554.989 23.2592 555.482 23.3298C560.716 24.1111 566.496 24.9768 572.822 25.9267C573.841 26.0748 574.928 26.35 576.085 26.7525C576.332 26.8392 576.551 26.9908 576.719 27.1911C576.886 27.3914 576.996 27.6329 577.036 27.8901C577.495 30.6337 577.677 33.3053 577.583 35.9046C577.481 38.6939 577.575 33.1145 577.583 35.9046C577.585 36.5247 577.907 34.6705 577.563 35.1544C577.36 35.4395 577.442 35.2905 577.593 35.605L577.328 36.1526C577.505 36.5074 577.163 33.7912 576.987 34.1499C576.2 35.797 579.775 36.0886 577.583 35.9046C576.597 35.8235 576.945 35.2079 577.795 35.708C578.345 36.0323 576.849 35.9788 577.583 35.9046C578.157 35.8492 577.8 35.6297 577.576 36.1546C576.935 37.6395 578.934 34.5753 577.583 35.9046C576.871 36.599 576.156 37.2868 575.437 37.9678C575.202 38.1926 575.12 38.4653 575.191 38.7859C575.294 39.2467 575.187 39.6158 574.872 39.8934C574.657 40.085 574.4 40.173 574.1 40.1573C572.474 40.0511 570.81 40.1646 569.107 40.4979C569.011 40.5151 568.923 40.5633 568.858 40.6352C568.793 40.7071 568.753 40.7988 568.744 40.8967C568.735 40.9945 568.758 41.0932 568.81 41.1781C568.862 41.2629 568.939 41.3293 569.03 41.3673L574.104 43.4174C574.247 43.4755 574.376 43.5658 574.479 43.6814C574.582 43.7969 574.657 43.9346 574.698 44.0837C574.739 44.2329 574.746 44.3896 574.717 44.5417C574.688 44.6937 574.625 44.8372 574.532 44.9608C574.141 45.4844 573.65 45.6539 573.058 45.4692C572.745 45.3734 572.435 45.3776 572.128 45.4819C565.028 47.9459 556.389 47.7977 549.091 47.5C545.605 47.3525 207.332 50.5228 203.839 50.5286C199.139 50.5315 194.431 50.2443 189.819 50.3779C181.11 50.6358 172.126 50.7715 162.865 50.7851C160.912 50.783 158.931 50.9307 156.922 51.2282C155.16 51.4809 153.047 51.4443 150.582 51.1181C150.349 51.0896 150.264 50.9623 150.325 50.7361C150.353 50.643 150.394 50.5533 150.448 50.467C150.495 50.3941 150.565 50.3446 150.659 50.3187C151.12 50.1824 151.525 49.9489 151.874 49.6183C152.19 49.3074 152.128 49.1303 151.688 49.0868C149.897 48.906 148.279 48.9665 146.837 49.2685C146.51 49.3326 146.187 49.3167 145.867 49.2208C144.357 48.7822 142.89 48.874 141.465 49.4961C141.157 49.6337 140.84 49.6612 140.514 49.5786L139.087 49.2073C138.675 49.0974 138.679 48.9941 139.1 48.8974L140.773 48.5006C140.839 48.486 140.898 48.451 140.942 48.4008C140.986 48.3505 141.011 48.2879 141.015 48.2225L141.037 47.9627C141.044 47.8643 141.028 47.7655 140.99 47.6747C140.951 47.5838 140.892 47.5034 140.816 47.4402C140.74 47.377 140.65 47.3328 140.554 47.3113C140.458 47.2898 140.358 47.2916 140.262 47.3165C138.852 47.6854 137.355 47.8503 135.768 47.8111C135.601 47.8031 135.502 47.719 135.47 47.5587L135.334 47.0176C135.27 46.7371 135.381 46.6213 135.667 46.6702C137.265 46.9229 138.929 46.826 140.66 46.3796C142.303 45.9626 143.839 46.4547 145.487 46.6878C145.834 46.7372 146.138 46.6529 146.399 46.435C146.52 46.3292 146.621 46.2067 146.702 46.0673C146.858 45.8019 147.092 45.6871 147.405 45.7229C149.303 45.9579 151.177 45.8526 153.028 45.4072C154.056 45.162 155.097 45.0569 156.15 45.0919C156.349 45.0986 156.547 45.0581 156.727 44.9737C156.907 44.8893 157.065 44.7634 157.187 44.6064C157.309 44.4493 157.393 44.2654 157.43 44.07C157.468 43.8745 157.458 43.6729 157.403 43.4818C157.117 42.5195 156.542 41.9683 155.676 41.8281C155.601 41.8176 155.525 41.8224 155.453 41.842C155.38 41.8616 155.312 41.8957 155.254 41.9421C155.195 41.9885 155.147 42.0463 155.113 42.1119C155.078 42.1774 155.057 42.2493 155.052 42.3232C154.943 43.5023 154.256 44.2936 152.993 44.697C152.646 44.8076 152.397 44.6956 152.246 44.3611L151.194 42.0027C151.024 41.628 151.097 41.3119 151.412 41.0544C151.962 40.612 152.539 40.6099 153.142 41.048C153.414 41.2368 153.707 41.2892 154.021 41.205C154.281 41.127 154.493 40.9654 154.655 40.72C154.688 40.6672 154.707 40.6061 154.708 40.5435C154.709 40.4809 154.693 40.4192 154.662 40.3652C154.63 40.3112 154.584 40.2669 154.529 40.2373C154.474 40.2077 154.411 40.194 154.349 40.1975L148.057 40.4179C147.957 40.4171 147.896 40.4699 147.876 40.5764L147.812 41.016C147.77 41.2556 147.869 41.3764 148.109 41.3783L149.899 41.4324C150.023 41.4374 150.144 41.4792 150.245 41.5526C150.345 41.626 150.422 41.7277 150.465 41.8448C150.508 41.9619 150.515 42.0891 150.486 42.2103C150.457 42.3315 150.392 42.4412 150.3 42.5257L147.671 44.915C147.383 45.1727 147.066 45.2168 146.72 45.0474C145.917 44.6411 145.088 44.5046 144.233 44.6378C144.071 44.6638 143.904 44.6271 143.768 44.5351C143.631 44.443 143.534 44.3025 143.497 44.142L142.839 41.3667C142.755 41.0127 142.533 40.8309 142.173 40.8214C140.76 40.7769 139.488 41.0336 138.357 41.5913C138.063 41.7357 137.786 41.7135 137.528 41.5248C136.686 40.9315 135.921 41.1287 135.233 42.1167C135.031 42.4217 134.777 42.4697 134.472 42.2607C134.26 42.1256 134.124 41.9379 134.066 41.6975C134.031 41.555 133.949 41.4285 133.831 41.3386C133.714 41.2487 133.569 41.2007 133.42 41.2023L132.92 41.2184C132.5 41.2284 132.378 41.4241 132.555 41.8055C132.772 42.2606 133.062 42.6595 133.426 43.0024C133.77 43.3318 133.705 43.528 133.231 43.5909C132.611 43.666 131.976 43.8843 131.326 44.2459C131.045 44.4103 130.751 44.4314 130.446 44.3089C130.319 44.2613 130.193 44.2169 130.067 44.1759C129.741 44.0734 129.49 44.1647 129.314 44.45C128.761 45.3457 128.053 45.4401 127.192 44.7333C126.795 44.4034 126.448 44.4474 126.151 44.865C125.76 45.4086 125.211 45.741 124.503 45.8621C124.229 45.9133 123.97 45.8912 123.724 45.7959C122.953 45.4831 122.984 45.3367 123.817 45.3566C125.057 45.3798 125.783 44.5721 125.996 42.9338C126.074 42.3611 125.855 42.2126 125.34 42.4886C125.246 42.5412 125.149 42.5971 125.048 42.6563C124.868 42.7682 124.726 42.9137 124.625 43.093C124.172 43.8961 123.5 44.1474 122.609 43.8471C122.553 43.8309 122.494 43.8268 122.437 43.835C122.38 43.8431 122.326 43.8634 122.279 43.8945C122.111 44.0065 122.04 44.1459 122.065 44.3128C122.104 44.4931 122.033 44.5892 121.853 44.6011C120.746 44.679 120.291 45.2755 120.489 46.3904C120.572 46.8511 120.397 46.993 119.965 46.8163C119.414 46.5852 118.834 46.5173 118.227 46.6125C115.917 46.9743 113.785 46.8975 111.829 46.382C111.74 46.3579 111.659 46.3099 111.595 46.2434C111.531 46.1769 111.486 46.0945 111.466 46.0052C111.446 45.916 111.451 45.8234 111.481 45.7379C111.511 45.6523 111.564 45.577 111.635 45.5205C112.092 45.1441 112.342 44.676 112.387 44.1163C112.416 43.7632 112.251 43.5786 111.891 43.5624C109.212 43.4346 106.737 43.5584 104.468 43.9338C98.0791 44.9967 91.8435 45.6842 85.7608 45.9962C84.6937 46.0478 83.8149 46.3209 83.1243 46.8154C83.0248 46.884 82.9059 46.9186 82.7852 46.914C82.6644 46.9095 82.5485 46.866 82.4545 46.7901C82.2888 46.6621 82.1567 46.5044 82.0582 46.317C81.894 46.0023 81.6317 45.8736 81.2712 45.9307C79.8362 46.1394 78.4461 46.1418 77.101 45.9378C75.9124 45.7584 75.0066 46.4913 73.8756 46.6124C67.2295 47.3499 60.7111 48.3985 54.0877 48.7962C51.6399 48.9369 49.0578 49.1932 46.3414 49.5651C41.6163 50.1978 36.8053 50.2998 31.9086 51.1312C29.7724 51.4877 27.6468 51.7642 25.5319 51.9609C19.9076 52.4765 13.1858 53.5301 5.36626 55.1217C5.29219 55.1355 5.21547 55.119 5.15235 55.0755C5.08923 55.0321 5.04467 54.9652 5.02809 54.8891L4.97038 54.5986C4.93212 54.3783 5.02313 54.2524 5.24339 54.2208C7.63578 53.9296 9.64421 52.8655 12.0685 52.3346C18.6535 50.8932 24.943 49.6961 30.9374 48.7434C46.9914 46.2035 66.58 43.478 89.7038 40.5672C92.7336 40.1911 95.5422 39.9432 98.13 39.8237C98.6235 39.8009 99.0447 39.6442 99.3937 39.3536C99.7024 39.1027 99.6637 38.9324 99.2777 38.8427C96.9018 38.3139 95.3029 39.4413 93.0918 39.5639C88.6831 39.8024 84.7872 40.1217 81.4039 40.5216C68.4381 42.0326 55.3749 43.6929 42.2134 45.5024C36.8273 46.2499 31.7287 46.0596 26.2795 47.1966C25.1576 47.4344 24.2633 47.1274 23.5967 46.2754C23.3788 46.0004 23.1061 45.9215 22.7785 46.0389C21.3145 46.5407 19.7466 46.6984 18.0746 46.5118C17.9434 46.4958 17.8105 46.5168 17.6915 46.5725C17.5724 46.6282 17.4721 46.7163 17.4021 46.8265C17.1794 47.1648 16.9125 47.206 16.6011 46.9502C16.3163 46.7146 16.3574 46.5816 16.7243 46.5511C19.0459 46.3561 20.818 45.6734 22.0406 44.5031C22.269 44.2915 22.5398 44.1837 22.8532 44.1795C24.0866 44.1759 25.2359 43.8483 26.3011 43.1967C26.6896 42.9597 27.1034 42.903 27.5425 43.0265C29.8907 43.6784 32.0444 43.222 34.0035 41.6574C34.1307 41.5572 34.2139 41.4109 34.2357 41.249C34.2574 41.0872 34.2161 40.9222 34.1203 40.7883C33.6058 40.0976 33.5114 39.3835 33.8373 38.646C33.9934 38.2939 33.8778 38.153 33.4906 38.2233C32.8095 38.3579 32.1648 38.5228 31.5566 38.718C31.1289 38.8547 31.1107 39.0345 31.5023 39.2576L31.8806 39.4806C32.1262 39.6159 32.2213 39.82 32.1658 40.0929C32.0965 40.419 31.8417 40.6037 31.4014 40.6469C30.1471 40.7636 29.1062 40.4421 28.2789 39.6822C28.0273 39.4602 27.7314 39.3579 27.3913 39.3752C26.7043 39.4164 26.0466 39.5379 25.4184 39.7396C24.8837 39.9087 24.8823 40.0754 25.4144 40.2396C25.6006 40.301 25.8003 40.3326 26.0137 40.3343C27.2935 40.3644 27.3775 40.7018 26.2657 41.3463C25.683 41.6817 24.9984 41.8464 24.2117 41.8401C23.7251 41.8363 23.5236 41.5947 23.6074 41.1153L23.7016 40.5861C23.7992 40.0468 23.6069 39.912 23.1248 40.1815C21.9931 40.8059 20.8618 40.9737 19.7307 40.6847C19.3514 40.5884 18.9779 40.6088 18.6102 40.7459C17.1392 41.2876 15.7418 41.3799 14.4179 41.0228C14.0653 40.9267 13.7284 40.9573 13.4071 41.1148L11.1683 42.2172C11.01 42.2914 10.8386 42.3326 10.6649 42.3381C10.4911 42.3436 10.3186 42.3133 10.158 42.2492C8.54974 41.6031 6.91166 41.3602 5.24366 41.5204C4.83668 41.5572 4.45727 41.4808 4.10542 41.2914C2.97029 40.6691 1.82025 40.6733 0.655225 41.3041C0.616459 41.325 0.573435 41.3368 0.52943 41.3386C0.485425 41.3404 0.441602 41.3322 0.401259 41.3145C0.360917 41.2969 0.325104 41.2702 0.296585 41.2367C0.268066 41.2031 0.247573 41.1635 0.236646 41.1208L0.139327 40.7801C0.092055 40.5961 0.110709 40.4008 0.192159 40.2267C0.273609 40.0526 0.41293 39.9103 0.586895 39.8235C3.20365 38.5575 6.11522 37.5238 9.32167 36.7224C9.43725 36.6931 9.54503 36.639 9.63754 36.5638C9.73005 36.4886 9.80504 36.3941 9.85729 36.2869C9.90955 36.1798 9.93783 36.0625 9.94012 35.9433C9.94241 35.8241 9.91866 35.7058 9.87056 35.5967C9.28126 34.2387 9.60916 33.2412 10.8542 32.6044C11.5838 32.2368 11.5386 32.0564 10.7185 32.0633L9.27829 32.0819C8.84492 32.0852 8.60658 31.8733 8.56329 31.4463C8.06175 26.5722 3.42278 42.836 3.64328 37.7076C3.6501 37.5732 3.70349 37.4455 3.79395 37.3474C3.88442 37.2493 4.00615 37.187 4.13755 37.1715C5.14529 37.0394 6.14722 36.7973 7.14338 36.4452C12.679 34.4889 18.5789 33.2554 23.9256 32.4276C38.4037 30.2118 53.0951 28.7977 67.795 26.3537C67.9284 26.3348 67.989 26.2619 67.9767 26.1352L67.9768 26.1252C67.9579 25.9783 67.8751 25.9077 67.7284 25.9132C57.3231 26.5377 46.9879 27.5928 36.7224 29.0785C35.0204 29.3251 33.6058 28.6439 32.1312 27.9522C32.0398 27.9106 31.9628 27.843 31.9097 27.7577C31.8566 27.6725 31.8299 27.5735 31.8328 27.4732C31.8357 27.3728 31.8682 27.2756 31.9261 27.1936C31.9841 27.1116 32.065 27.0486 32.1586 27.0124C33.5096 26.4697 34.7792 26.1064 35.9673 25.9224C48.757 23.9167 61.8757 22.4135 75.3242 21.413ZM83.697 20.7883C83.6965 20.7712 83.6037 20.757 83.4239 20.7464C83.2442 20.7358 82.9809 20.729 82.6492 20.7265C82.3175 20.7239 81.9238 20.7257 81.4906 20.7316C81.0575 20.7375 80.5933 20.7475 80.1247 20.761C79.1784 20.7882 78.2713 20.828 77.6028 20.8716C76.9343 20.9152 76.5591 20.9591 76.5599 20.9936C76.5604 21.0106 76.6532 21.0249 76.8329 21.0355C77.0127 21.0461 77.276 21.0529 77.6077 21.0554C77.9394 21.0579 78.3331 21.0562 78.7663 21.0503C79.1994 21.0443 79.6636 21.0344 80.1322 21.0209C81.0785 20.9937 81.9857 20.9539 82.6542 20.9102C83.3227 20.8666 83.6977 20.8228 83.697 20.7883ZM35.5935 39.1199C35.6718 39.2226 35.7806 39.2978 35.9043 39.3347C36.028 39.3716 36.1602 39.3683 36.2819 39.3253C36.7632 39.1691 36.9955 38.8776 36.9789 38.4508C36.9625 37.9974 36.7306 37.8022 36.2835 37.8653L35.3924 37.9983C34.9919 38.0551 34.9138 38.2445 35.1579 38.5664L35.5935 39.1199ZM40.4946 38.9986C40.2366 38.7499 40.0456 38.4584 39.9215 38.1241C39.8106 37.8232 39.6145 37.7549 39.3332 37.9194L38.5997 38.3536C38.305 38.5246 38.2131 38.7673 38.3239 39.0815C39.4479 42.3804 44.0078 39.8763 46.1834 39.1835C46.2235 39.1705 46.257 39.1474 46.2839 39.1143C46.3647 39.015 46.3723 38.8983 46.3067 38.7645C46.275 38.7 46.2235 38.6469 46.1594 38.6124C46.0953 38.5779 46.0216 38.5637 45.9482 38.5716L41.2029 39.2242C41.0779 39.242 40.9496 39.2309 40.8271 39.1919C40.7047 39.1529 40.5911 39.0869 40.4946 38.9986ZM162.092 39.8186C160.909 39.356 160.13 39.2631 159.754 39.5402C158.768 40.2658 158.888 40.73 160.113 40.9331C160.759 41.0448 161.386 41.0398 161.993 40.9179C163.262 40.6612 163.295 40.2948 162.092 39.8186ZM176.035 40.2201C176.039 40.1638 175.999 40.1046 175.916 40.0458C175.833 39.987 175.709 39.9298 175.551 39.8774C175.393 39.8251 175.204 39.7786 174.995 39.7406C174.786 39.7027 174.561 39.6741 174.334 39.6563C174.106 39.6386 173.879 39.6321 173.667 39.6372C173.455 39.6424 173.261 39.6591 173.097 39.6863C172.933 39.7136 172.802 39.7509 172.71 39.7961C172.619 39.8414 172.57 39.8936 172.565 39.9499C172.561 40.0062 172.602 40.0655 172.685 40.1243C172.768 40.1831 172.892 40.2403 173.05 40.2927C173.208 40.345 173.397 40.3915 173.605 40.4295C173.814 40.4674 174.039 40.496 174.267 40.5138C174.495 40.5315 174.721 40.538 174.933 40.5329C175.145 40.5277 175.339 40.511 175.503 40.4837C175.668 40.4565 175.799 40.4192 175.89 40.3739C175.981 40.3287 176.031 40.2764 176.035 40.2201ZM166.912 42.3568C165.373 43.0646 163.508 43.3133 161.316 43.1026C160.197 42.9938 159.52 43.4085 159.286 44.3466C159.256 44.4714 159.262 44.6024 159.303 44.7241C159.345 44.8458 159.419 44.9529 159.519 45.0328C159.619 45.1127 159.739 45.1618 159.865 45.1745C159.991 45.1871 160.118 45.1627 160.23 45.1041C162.011 44.2048 163.814 43.7524 165.641 43.7468C165.981 43.7428 166.295 43.6486 166.583 43.4642C167.374 42.9371 168.105 42.3629 168.777 41.7415C168.985 41.5432 169.107 41.2974 169.143 41.0043C169.186 40.6513 169.085 40.3572 168.84 40.1219C168.489 39.7791 168.245 39.8406 168.108 40.3062L167.8 41.3238C167.663 41.8027 167.367 42.147 166.912 42.3568ZM146.957 41.5392C146.972 41.4312 146.953 41.3196 146.901 41.2108C146.849 41.102 146.765 40.9981 146.654 40.905C146.543 40.8119 146.407 40.7315 146.254 40.6683C146.102 40.6051 145.934 40.5603 145.763 40.5367C145.591 40.513 145.418 40.5108 145.254 40.5302C145.089 40.5497 144.937 40.5903 144.805 40.65C144.673 40.7096 144.564 40.7869 144.485 40.8776C144.405 40.9683 144.357 41.0706 144.342 41.1785C144.327 41.2865 144.346 41.3981 144.398 41.5069C144.45 41.6158 144.534 41.7197 144.645 41.8128C144.755 41.9059 144.891 41.9863 145.044 42.0495C145.197 42.1127 145.364 42.1574 145.536 42.1811C145.708 42.2048 145.881 42.207 146.045 42.1875C146.209 42.1681 146.362 42.1274 146.494 42.0678C146.626 42.0082 146.735 41.9308 146.814 41.8402C146.893 41.7495 146.942 41.6472 146.957 41.5392ZM35.2002 40.8069C35.1537 40.7932 35.1103 40.7928 35.0702 40.8059C34.6091 40.9489 34.6148 41.0656 35.0875 41.156C35.6466 41.2738 36.1631 41.2945 36.637 41.2182C36.7839 41.1927 36.8446 41.1065 36.8191 40.9596C36.8065 40.8595 36.7739 40.7693 36.7212 40.6889C36.5763 40.4611 36.3769 40.3861 36.123 40.4641C35.9224 40.5292 35.7384 40.6245 35.5707 40.7498C35.4567 40.8289 35.3332 40.8479 35.2002 40.8069ZM128.936 43.007C129.454 43.1778 129.732 43.0233 129.769 42.5436C129.792 42.2571 129.66 42.0827 129.374 42.0204C129.101 41.9583 128.884 42.0132 128.722 42.1853C128.664 42.2469 128.622 42.3224 128.601 42.4046C128.579 42.4869 128.579 42.5732 128.601 42.6554C128.622 42.7377 128.664 42.8131 128.723 42.8746C128.781 42.9361 128.855 42.9817 128.936 43.007ZM117.995 43.1006C116.544 42.7558 115.101 42.7278 113.665 43.0164C113.615 43.0268 113.568 43.0499 113.529 43.0836C113.491 43.1172 113.461 43.1601 113.445 43.2077C113.428 43.2554 113.425 43.3063 113.434 43.355C113.444 43.4037 113.468 43.4487 113.502 43.4851C115.002 45.1504 116.502 45.1422 118.002 43.4607C118.069 43.3849 118.155 43.329 118.251 43.299C118.348 43.269 118.45 43.2661 118.548 43.2906C118.646 43.3152 118.735 43.3662 118.806 43.438C118.877 43.5099 118.927 43.5999 118.95 43.6982C119.041 44.0455 119.218 44.347 119.483 44.6024C119.728 44.8377 119.935 44.8093 120.104 44.5173C120.394 44.0396 120.856 43.7999 121.489 43.7982C121.749 43.7936 121.89 43.6647 121.912 43.4115L121.934 43.1517C121.941 43.1118 121.925 43.0883 121.885 43.0813C120.88 42.8467 119.877 42.8521 118.875 43.0976C118.581 43.1686 118.287 43.1696 117.995 43.1006ZM148.719 47.6833C149.058 47.886 149.43 47.9823 149.837 47.9721C150.331 47.9627 150.375 47.8197 149.971 47.5432C149.626 47.3071 149.247 47.0975 148.836 46.9142C148.656 46.8328 148.493 46.8082 148.346 46.8403C148.106 46.8918 147.961 47.0373 147.913 47.2769C147.892 47.3501 147.912 47.4102 147.971 47.4574C148.077 47.5382 148.207 47.5793 148.36 47.5805C148.487 47.5882 148.607 47.6224 148.719 47.6833ZM164.056 49.1735C164.127 49.0401 164.079 48.8502 163.922 48.6457C163.766 48.4411 163.513 48.2386 163.221 48.0827C163.076 48.0055 162.926 47.9421 162.778 47.896C162.631 47.85 162.49 47.8222 162.362 47.8144C162.235 47.8065 162.124 47.8186 162.036 47.8501C161.948 47.8816 161.885 47.9318 161.85 47.9979C161.779 48.1313 161.827 48.3212 161.983 48.5257C162.14 48.7303 162.392 48.9328 162.685 49.0887C162.83 49.1659 162.98 49.2294 163.127 49.2754C163.275 49.3214 163.416 49.3492 163.543 49.3571C163.671 49.365 163.781 49.3528 163.869 49.3213C163.957 49.2898 164.021 49.2396 164.056 49.1735ZM154.677 49.3304C155.112 49.8872 155.622 49.9212 156.206 49.4325C156.269 49.3817 156.316 49.3137 156.342 49.2368C156.367 49.1598 156.369 49.0772 156.349 48.9988C156.328 48.9204 156.286 48.8497 156.226 48.795C156.166 48.7404 156.092 48.7042 156.012 48.6909C155.532 48.6071 155.026 48.6198 154.491 48.7289C154.158 48.7996 154.12 48.9427 154.378 49.158C154.464 49.2321 154.564 49.2895 154.677 49.3304Z" fill="#009400"/>
</svg>
