<svg width="894" height="670" viewBox="0 0 894 670" fill="none" xmlns="http://www.w3.org/2000/svg">
<path d="M1069.68 0V177.248L1011.12 118.7V0H1010.05L1010.23 0.18278V117.804L951.675 59.2565V0H950.783V59.2565L892.225 117.804V0H534.623V59.2565L476.065 117.804V0H474.99L416.615 58.3649V0H415.723V59.2565L357.164 117.804V0H0V178.768H177.28L118.722 237.316H0V238.39L0.182814 238.208H117.826L59.2673 296.755H0V297.647H59.2673L117.826 356.195H0V357.086H117.826L59.2673 415.634H0V416.525H58.3755L0 474.895V475.969H117.826L59.2673 534.517H0V1069.93H357.156V952.126L415.714 1010.67V1069.93H416.606V1010.67L475.164 952.126V1069.75L474.981 1069.93H476.056V951.234L534.614 892.686V1069.93H892.216V1010.68L892.398 1010.49L892.216 1010.31V952.13L950.774 1010.68V1069.93H951.666V1011.57L1010.04 1069.93H1011.12V952.13L1069.67 1010.68V1069.93H1070.12V534.521H892.84L951.398 475.974H1070.12V474.899L1069.93 475.082H952.29L1010.85 416.534H1070.12V415.643H1010.85L952.29 357.095H1070.12V356.203H952.29L1010.85 297.656H1070.12V296.764H1011.74L1070.12 238.399V237.325H952.29L1010.85 178.777H1070.12V0H1069.67H1069.68ZM951.224 60.0724L1010.23 119.066V177.877H892.216V119.066L951.22 60.0724H951.224ZM1011.12 119.957L1069.05 177.877H1011.12V119.957ZM654.152 1010.05L595.594 951.502H713.237L771.795 1010.05H654.152ZM417.239 891.166L475.797 832.618H594.332L652.89 891.166H417.239ZM297.072 1010.05H179.429L237.988 951.502H355.631L297.072 1010.05ZM59.896 654.033L118.454 595.485V713.107L59.896 771.654V654.033ZM177.276 535.413L119.346 593.332V535.413H177.276ZM178.801 415.901V297.388L237.359 238.841V475.345L178.801 533.893V416.271L178.984 416.089L178.801 415.906V415.901ZM355.635 118.437H237.992L179.434 59.8896H297.077L355.635 118.437ZM594.702 59.8896H712.345L653.786 118.437H536.144L594.702 59.8896ZM891.591 594.857L950.15 653.404H832.507L773.948 594.857H891.591ZM831.695 653.85L772.691 712.844H713.87V594.852H772.691L831.695 653.846V653.85ZM891.333 951.238V1009.42L773.953 892.062H891.333V950.873L891.15 951.056L891.333 951.238ZM654.156 891.166L595.152 832.173L654.156 773.179H712.978V891.171H654.156V891.166ZM594.336 831.727H476.693L535.252 773.179H652.895L594.336 831.727ZM119.092 950.61L60.5336 892.062H296.185L237.627 950.61H119.092ZM177.913 773.808V891.166H60.5336L177.913 773.808ZM535.51 119.957L593.44 177.877H535.51V119.957ZM772.687 119.329L831.245 177.877H595.594L654.152 119.329H772.687ZM891.328 297.388V415.901L832.77 474.449V237.944L891.328 179.397V297.018L891.145 297.201L891.328 297.384V297.388ZM655.044 772.283L712.973 714.364V772.283H655.044ZM417.239 772.283L475.797 713.735H535.51H712.345L653.786 772.283H417.239ZM297.705 891.166V833.247L355.635 891.166H297.705ZM356.264 892.058V949.977L298.334 892.058H356.264ZM296.814 891.166H178.801V832.355L237.805 773.362L296.809 832.355V891.166H296.814ZM297.705 297.388L356.264 238.841V356.199V474.449L297.705 415.901V297.388ZM416.164 178.951L416.347 178.768H594.332L652.89 237.316H416.343L357.784 178.768H415.977L416.16 178.951H416.164ZM773.32 533.888V416.267L831.878 357.719V475.341L773.32 533.888ZM237.364 772.542L178.805 831.089V595.476L237.364 654.024V772.537V772.542ZM236.735 535.409L178.805 593.328V535.409H236.735ZM178.992 594.402L237.368 536.037V652.767L178.992 594.402ZM357.164 534.517V417.158L415.723 475.706V594.219L357.164 652.767V534.517ZM415.094 237.311H357.164V179.392L415.094 237.311ZM357.164 238.203H415.986L474.99 297.197L415.986 356.19H357.164V238.199V238.203ZM772.432 415.897L713.874 474.445V297.384L714.057 297.201L713.874 297.018V238.836L772.432 297.384V415.897ZM772.432 533.888L714.057 475.523L772.432 417.158V533.888ZM712.982 712.211L654.424 653.663V417.158L712.8 475.523L712.982 475.706V534.517V712.206V712.211ZM475.806 297.647H594.341L652.899 356.195H594.711L594.528 356.012L594.345 356.195H534.632H417.252L475.811 297.647H475.806ZM653.532 533.888L594.974 475.341V357.719L653.532 416.267V533.888ZM476.069 416.267L534.628 357.719V415.897L534.445 416.08L534.628 416.262V534.958V594.215L476.069 652.762V416.258V416.267ZM533.999 357.086L476.069 415.005V357.086H533.999ZM534.628 595.481V712.839H417.248L534.628 595.481ZM535.519 357.086H593.449L535.519 415.005V357.086ZM594.078 357.715V474.445L535.702 416.08L594.078 357.715ZM595.603 357.086H653.791L653.974 357.269L654.156 357.086H712.978V474.445L595.598 357.086H595.603ZM655.053 356.195L712.982 298.275V356.195H655.053ZM653.974 356.012L595.598 297.647H712.349L653.974 356.012ZM475.173 357.086V415.897L416.169 474.89L357.164 415.897V357.086H475.177H475.173ZM416.615 475.706L475.173 417.158V534.78L416.615 593.328V475.706ZM475.173 536.037V653.659L416.615 712.206V594.585L475.173 536.037ZM415.723 712.206L357.347 653.841L415.723 595.476V712.206ZM415.094 712.835H357.164V654.916L415.094 712.835ZM535.519 534.958V417.154L594.078 475.702V594.215L535.519 652.762V534.958ZM594.969 476.593L653.528 535.141V652.762L594.969 594.215V476.593ZM712.982 178.759V296.118L595.603 178.759H712.982ZM712.354 296.751H594.711L536.152 238.203H653.795L712.354 296.751ZM534.891 238.203L593.449 296.751H475.806L417.248 238.203H534.891ZM535.519 654.029L594.524 595.035L653.528 654.029V712.839H535.515V654.029H535.519ZM654.424 654.92L712.354 712.839H654.424V654.92ZM713.874 476.598L771.804 534.517H713.874V476.598ZM831.887 356.453L773.329 415.001V297.379L831.887 238.832V356.453ZM772.883 296.568L713.879 237.574V178.764H831.892V237.574L772.887 296.568H772.883ZM356.277 236.683L298.348 178.764H356.277V236.683ZM297.719 179.397L356.094 237.762L297.719 296.127V179.397ZM238.269 772.542V654.92L296.827 713.468V831.089L238.269 772.542ZM296.827 712.211L238.269 653.663V536.042L296.827 594.589V712.211ZM238.897 535.409H356.277V652.767L238.897 535.409ZM415.99 713.731L416.173 713.914L416.356 713.731H474.544L357.164 831.089V713.731H415.986H415.99ZM773.962 534.517L891.342 417.158V534.517H773.962ZM832.783 236.683V178.764H890.713L832.783 236.683ZM594.532 177.689L536.157 119.324H652.908L594.532 177.689ZM298.352 177.872L356.282 119.953V177.872H298.352ZM297.277 177.689L238.902 119.324H355.653L297.277 177.689ZM296.203 178.764L178.823 296.122V178.764H296.203ZM296.832 179.392V297.014L238.273 355.561V237.94L296.832 179.392ZM238.273 356.823L296.832 298.275V415.897L238.273 474.445V356.823ZM297.277 416.708L356.282 475.702V534.512H238.269V475.702L297.273 416.708H297.277ZM237.381 534.512H179.452L237.381 476.593V534.512ZM297.277 892.232L355.653 950.597H238.902L297.277 892.232ZM297.723 831.976V595.476L356.099 653.841L356.282 654.024V713.726V831.976L356.099 832.159L356.282 832.342V890.524L297.723 831.976ZM357.807 831.713L416.365 773.166H534.008L475.449 831.713H357.807ZM474.558 832.605L416.182 890.97L357.807 832.605H474.558ZM713.888 891.153V773.794L831.267 891.153H713.888ZM714.516 773.161H832.159L890.717 831.709H773.075L714.516 773.161ZM714.516 772.27L772.892 713.905L831.267 772.27H714.516ZM713.888 771.641V713.722H771.817L713.888 771.641ZM713.888 593.947V536.028L771.817 593.947H713.888ZM891.328 58.9935H833.399L891.328 1.07439V58.9935ZM891.328 59.8851V177.877H832.507L773.503 118.883L832.507 59.8896H891.328V59.8851ZM772.687 118.433H655.044L713.602 59.8851H831.245L772.687 118.433ZM357.156 177.872V119.953L415.085 177.872H357.156ZM178.172 59.8851L236.73 118.433H119.088L60.5292 59.8851H178.172ZM119.088 119.324H237.622L296.181 177.872H60.5292L119.088 119.324ZM177.909 536.042V594.224L177.726 594.406L177.909 594.589V772.542L119.351 831.089V594.585L177.909 536.037V536.042ZM118.459 714.364V831.985L59.9005 890.533V772.912L118.459 714.364ZM59.0087 890.533L0.628701 832.173L59.0042 773.808V890.538L59.0087 890.533ZM118.276 951.051L59.2718 1010.04H0.445887V892.053H59.2673L118.272 951.047L118.276 951.051ZM119.092 951.497H236.735L178.176 1010.04H60.5292L119.088 951.497H119.092ZM357.16 833.247L415.09 891.166H357.16V833.247ZM535.515 892.686L593.445 950.605H535.515V892.686ZM536.144 892.058H712.978H772.691L831.249 950.605H594.706L536.148 892.058H536.144ZM714.498 951.497H832.141L890.7 1010.04H773.057L714.498 951.497ZM890.7 1010.94L832.324 1069.3L773.948 1010.94H890.7ZM951.412 891.162L951.229 890.979L951.046 891.162H832.511L773.953 832.614H1010.5L1069.06 891.162H951.416H951.412ZM891.961 831.722L833.403 773.175H951.046L1009.6 831.722H891.961ZM951.046 772.283H832.511L773.953 713.735H1009.6L951.046 772.283ZM773.953 712.844L832.511 654.296H951.046L1009.6 712.844H773.948H773.953ZM952.308 654.296H1069.06L1010.68 712.661L952.308 654.296ZM951.416 653.404L892.858 594.857H1010.5L1069.06 653.404H951.416ZM773.061 593.965L714.503 535.417H772.696L772.878 535.6L773.061 535.417H951.046L1009.6 593.965H773.061ZM832.146 58.998H595.598L654.152 0.445806H890.7L832.141 58.9935L832.146 58.998ZM652.89 0.445806L535.51 117.804V0.445806H652.89ZM534.619 118.696L534.436 118.879L534.619 119.061V177.872H417.239L534.619 60.5137V118.696ZM475.169 1.07439V118.696L416.61 177.244V59.6265L475.169 1.07439ZM415.718 60.5137V177.244L357.343 118.879L415.718 60.5137ZM356.264 0.445806V117.804L238.884 0.445806H356.264ZM237.622 0.445806L296.181 58.9935H59.6374L1.07459 0.445806H237.618H237.622ZM58.3755 58.9935H0.445887V1.07439L58.3755 58.9935ZM0.445887 59.8851H59.2673L118.272 118.879L59.2673 177.872H0.445887V59.8851ZM177.909 179.397V237.316H119.979L177.909 179.397ZM119.088 238.208H177.909V356.199H119.088L118.905 356.016L60.0833 297.205L119.088 238.212V238.208ZM177.909 357.091V415.01L119.979 357.091H177.909ZM118.905 357.273L177.28 415.638H60.5292L118.905 357.273ZM1.07459 475.082L59.6329 416.534H177.276L118.717 475.082H1.07459ZM177.909 417.163V534.521H60.5292L177.909 417.163ZM118.459 535.413V594.224L59.4546 653.217L0.445887 594.224V535.413H118.459ZM0.445887 595.485L59.0042 654.033V772.546L0.445887 831.094V595.481V595.485ZM58.3755 891.166H0.445887V833.247L58.3755 891.166ZM0.445887 1010.94H58.3755L0.445887 1068.86V1010.94ZM59.6374 1010.94H296.181L237.622 1069.49H1.07459L59.6329 1010.94H59.6374ZM238.884 1069.49L356.264 952.13V1069.49H238.884ZM416.164 1009.86L357.343 951.051L357.16 950.868V892.058H415.981L416.164 892.241L416.347 892.058H475.169V950.868L416.164 1009.86ZM476.06 892.058H533.99L476.06 949.977V892.058ZM535.51 951.497H594.332L653.336 1010.49L594.332 1069.48H535.51V951.493V951.497ZM595.594 1069.49L654.152 1010.94H772.687L831.245 1069.49H595.589H595.594ZM833.399 1069.49L891.328 1011.57V1069.49H833.399ZM892.22 892.058H950.15L892.22 949.977V892.058ZM892.403 951.051L950.778 892.686V1009.42L892.403 951.051ZM1010.23 1068.86L951.67 1010.31V892.686L1010.23 951.234V1068.86ZM1069.68 1009.42L952.299 892.058H1069.68V1009.42ZM1069.68 890.538L1011.75 832.618H1069.68V890.538ZM1010.86 831.727L951.853 772.733L1010.86 713.74H1069.68V831.731H1010.86V831.727ZM1069.68 712.844H1011.75L1069.68 654.925V712.844ZM952.299 535.413H1069.68V652.771L952.299 535.413ZM892.216 533.888V475.969H950.145L892.216 533.888ZM951.037 475.078H892.216V357.086H951.037L951.22 357.269L1010.04 416.08L951.037 475.073V475.078ZM892.216 356.195V298.275L950.145 356.195H892.216ZM951.22 356.012L892.844 297.647H1009.6L951.22 356.012ZM1069.05 238.208L1010.49 296.755H892.844L951.403 238.208H1069.05ZM892.211 296.127V178.768H1009.59L892.211 296.127Z" fill="url(#paint0_radial_4322_3530)"/>
<defs>
<radialGradient id="paint0_radial_4322_3530" cx="0" cy="0" r="1" gradientUnits="userSpaceOnUse" gradientTransform="translate(519.218 534.967) scale(523.988 523.892)">
<stop stop-color="white"/>
<stop offset="1" stop-color="#5A5A5A" stop-opacity="0"/>
</radialGradient>
</defs>
</svg>
