<svg width="447" height="58" viewBox="0 0 447 58" fill="none" xmlns="http://www.w3.org/2000/svg">
<path d="M75.326 23.8027C75.3365 23.8015 75.3467 23.7983 75.356 23.7932C75.3653 23.788 75.3735 23.7811 75.3801 23.7728C75.3866 23.7645 75.3915 23.7549 75.3943 23.7447C75.3972 23.7345 75.398 23.7238 75.3967 23.7133L75.3787 23.4631C75.3729 23.3497 75.3133 23.2959 75.1999 23.3017C64.7155 23.8189 54.2196 24.5328 43.712 25.4432C40.5231 25.718 37.7435 25.2327 35.3733 23.9873C35.0413 23.8113 34.8368 23.543 34.7596 23.1824L34.5671 22.2309C34.4966 21.8703 34.2954 21.6087 33.9633 21.4461C33.6312 21.2834 33.3965 21.0349 33.2592 20.7005C33.0629 20.2256 33.2213 20.0068 33.7344 20.0442C34.1009 20.0671 34.4381 19.9898 34.7462 19.8122C34.9319 19.7037 35.0812 19.5417 35.1744 19.3476C35.2675 19.1534 35.3004 18.9361 35.2685 18.7241C35.2367 18.512 35.1417 18.3152 34.996 18.1592C34.8502 18.0032 34.6605 17.8954 34.4517 17.8498C31.5101 17.1932 29.0061 16.0068 26.9396 14.2904C26.8645 14.2271 26.8089 14.1438 26.7792 14.0502C26.7495 13.9566 26.7469 13.8565 26.7717 13.7615C26.7965 13.6665 26.8477 13.5804 26.9194 13.5133C26.9911 13.4462 27.0803 13.4008 27.1767 13.3822C30.7822 12.7107 34.3792 11.8291 38.0631 11.3481C56.0958 8.99044 74.1924 7.34325 92.3538 6.40661C120.947 4.93899 147.815 4.3311 172.961 4.58297C185.38 4.70769 401.401 -0.489897 415.82 0.6173C418.678 0.829873 421.513 1.41227 424.35 1.92467C424.609 1.97352 424.847 2.10352 425.027 2.29565C425.207 2.48778 425.321 2.73199 425.351 2.99261C425.57 4.79439 425.476 6.6004 425.068 8.41056C424.578 10.5867 424.328 12.2315 424.319 13.3448C424.306 15.0047 424.293 16.688 424.279 18.3946C424.28 18.5122 424.254 18.6284 424.203 18.7345C424.152 18.8405 424.077 18.9337 423.984 19.007C423.891 19.0803 423.782 19.1319 423.666 19.1579C423.55 19.1839 423.43 19.1836 423.313 19.157C422.455 18.9636 421.601 18.9935 420.753 19.2468C420.318 19.3834 420.273 19.5964 420.618 19.8857C420.936 20.1549 421.297 20.3245 421.704 20.3943C421.914 20.4358 422.111 20.5306 422.276 20.6701C422.441 20.8095 422.569 20.989 422.647 21.1918C422.791 21.5663 422.818 21.9365 422.729 22.3025C422.618 22.795 422.809 23.0765 423.302 23.1471C428.536 23.9284 434.316 24.7941 440.642 25.744C441.661 25.8921 442.749 26.1673 443.906 26.5698C444.153 26.6565 444.372 26.8081 444.539 27.0084C444.706 27.2087 444.816 27.4502 444.857 27.7074C445.315 30.451 445.497 33.1226 445.403 35.7219C445.301 38.5112 445.395 32.9318 445.403 35.7219C445.405 36.342 445.727 34.4878 445.383 34.9717C445.181 35.2568 445.262 35.1078 445.413 35.4223L445.149 35.9699C445.326 36.3246 444.983 33.6085 444.807 33.9671C444.021 35.6143 447.595 35.9059 445.403 35.7219C444.417 35.6408 444.766 35.0252 445.615 35.5253C446.166 35.8496 444.669 35.7961 445.403 35.7219C445.977 35.6665 445.621 35.447 445.397 35.9719C444.755 37.4568 446.754 34.3926 445.403 35.7219C444.691 36.4163 443.976 37.1041 443.257 37.7851C443.022 38.0099 442.94 38.2826 443.011 38.6032C443.114 39.064 443.008 39.4331 442.692 39.7107C442.477 39.9023 442.22 39.9903 441.92 39.9746C440.294 39.8684 438.63 39.9819 436.927 40.3151C436.831 40.3324 436.744 40.3806 436.678 40.4525C436.613 40.5244 436.573 40.6161 436.564 40.714C436.556 40.8118 436.579 40.9105 436.63 40.9954C436.682 41.0802 436.759 41.1466 436.85 41.1846L441.924 43.2347C442.068 43.2928 442.196 43.3831 442.299 43.4986C442.402 43.6142 442.477 43.7519 442.518 43.901C442.56 44.0502 442.566 44.2069 442.537 44.359C442.509 44.511 442.445 44.6544 442.352 44.7781C441.961 45.3017 441.47 45.4712 440.878 45.2865C440.566 45.1907 440.255 45.1949 439.948 45.2992C432.848 47.7632 424.209 47.615 416.911 47.3173C413.426 47.1698 207.334 52.9125 203.841 52.9182C199.14 52.9211 194.433 52.634 189.821 52.7676C181.112 53.0255 172.128 53.1612 162.867 53.1748C160.914 53.1727 158.933 53.3204 156.924 53.6179C155.161 53.8706 153.048 53.8339 150.584 53.5078C150.351 53.4793 150.265 53.3519 150.327 53.1258C150.355 53.0326 150.395 52.943 150.449 52.8567C150.497 52.7838 150.567 52.7343 150.661 52.7084C151.122 52.572 151.527 52.3385 151.876 52.0079C152.192 51.6971 152.13 51.5199 151.69 51.4765C149.898 51.2956 148.281 51.3562 146.839 51.6582C146.512 51.7223 146.188 51.7064 145.869 51.6105C144.359 51.1719 142.892 51.2637 141.467 51.8858C141.159 52.0234 140.842 52.0509 140.516 51.9683L139.089 51.597C138.676 51.4871 138.681 51.3838 139.101 51.2871L140.775 50.8903C140.841 50.8757 140.9 50.8406 140.944 50.7904C140.988 50.7402 141.013 50.6776 141.017 50.6122L141.039 50.3524C141.046 50.254 141.03 50.1552 140.991 50.0643C140.953 49.9735 140.893 49.8931 140.818 49.8299C140.742 49.7667 140.652 49.7225 140.556 49.701C140.459 49.6795 140.359 49.6813 140.264 49.7062C138.854 50.0751 137.356 50.2399 135.77 50.2007C135.603 50.1928 135.504 50.1086 135.472 49.9484L135.336 49.4073C135.272 49.1268 135.383 49.011 135.669 49.0599C137.267 49.3125 138.931 49.2157 140.661 48.7693C142.305 48.3523 143.841 48.8444 145.489 49.0774C145.835 49.1268 146.139 49.0426 146.401 48.8246C146.522 48.7189 146.623 48.5964 146.704 48.457C146.859 48.1916 147.094 48.0768 147.407 48.1126C149.305 48.3476 151.179 48.2423 153.029 47.7969C154.058 47.5517 155.099 47.4466 156.152 47.4816C156.351 47.4883 156.549 47.4478 156.729 47.3634C156.909 47.279 157.067 47.1531 157.189 46.996C157.311 46.8389 157.395 46.6551 157.432 46.4596C157.47 46.2642 157.46 46.0626 157.405 45.8714C157.119 44.9092 156.543 44.3579 155.678 44.2178C155.603 44.2073 155.527 44.212 155.454 44.2317C155.382 44.2513 155.314 44.2854 155.256 44.3318C155.197 44.3782 155.149 44.436 155.114 44.5015C155.08 44.5671 155.059 44.639 155.054 44.7128C154.944 45.892 154.258 46.6833 152.995 47.0866C152.647 47.1972 152.398 47.0853 152.248 46.7507L151.196 44.3924C151.026 44.0177 151.098 43.7016 151.414 43.444C151.964 43.0017 152.541 42.9996 153.144 43.4377C153.416 43.6265 153.709 43.6788 154.023 43.5946C154.283 43.5167 154.494 43.355 154.656 43.1096C154.69 43.0569 154.709 42.9958 154.71 42.9332C154.711 42.8706 154.695 42.8089 154.663 42.7549C154.632 42.7008 154.586 42.6566 154.531 42.627C154.475 42.5974 154.413 42.5836 154.351 42.5872L148.059 42.8075C147.959 42.8068 147.898 42.8596 147.877 42.9661L147.814 43.4056C147.772 43.6453 147.871 43.7661 148.111 43.768L149.901 43.8221C150.025 43.8271 150.146 43.8689 150.246 43.9423C150.347 44.0157 150.424 44.1174 150.467 44.2345C150.51 44.3516 150.517 44.4788 150.488 44.6C150.459 44.7212 150.394 44.8309 150.302 44.9153L147.673 47.3046C147.384 47.5624 147.067 47.6065 146.722 47.4371C145.919 47.0308 145.09 46.8942 144.235 47.0275C144.072 47.0535 143.906 47.0168 143.769 46.9247C143.633 46.8327 143.536 46.6922 143.499 46.5316L142.841 43.7564C142.757 43.4024 142.535 43.2206 142.175 43.2111C140.762 43.1666 139.49 43.4233 138.359 43.981C138.065 44.1254 137.788 44.1032 137.53 43.9145C136.688 43.3211 135.923 43.5184 135.235 44.5063C135.032 44.8114 134.779 44.8594 134.474 44.6503C134.261 44.5153 134.126 44.3276 134.068 44.0871C134.033 43.9447 133.95 43.8182 133.833 43.7283C133.716 43.6384 133.571 43.5904 133.422 43.592L132.922 43.608C132.502 43.6181 132.38 43.8138 132.557 44.1952C132.774 44.6503 133.064 45.0492 133.428 45.3921C133.772 45.7215 133.707 45.9177 133.233 45.9806C132.612 46.0557 131.977 46.274 131.328 46.6356C131.047 46.8 130.753 46.821 130.447 46.6986C130.321 46.651 130.195 46.6066 130.068 46.5656C129.743 46.4631 129.492 46.5544 129.316 46.8397C128.762 47.7353 128.055 47.8297 127.194 47.1229C126.796 46.7931 126.449 46.8371 126.153 47.2547C125.762 47.7983 125.213 48.1307 124.505 48.2518C124.231 48.3029 123.971 48.2809 123.725 48.1856C122.954 47.8728 122.986 47.7264 123.819 47.7463C125.059 47.7694 125.785 46.9618 125.998 45.3235C126.076 44.7507 125.857 44.6023 125.342 44.8783C125.248 44.9309 125.151 44.9867 125.05 45.0459C124.869 45.1579 124.728 45.3034 124.627 45.4826C124.174 46.2857 123.502 46.5371 122.611 46.2367C122.554 46.2206 122.496 46.2165 122.439 46.2246C122.382 46.2328 122.328 46.2531 122.28 46.2841C122.113 46.3961 122.042 46.5356 122.067 46.7025C122.106 46.8828 122.035 46.9789 121.855 46.9908C120.747 47.0687 120.293 47.6652 120.491 48.7801C120.574 49.2407 120.399 49.3827 119.967 49.206C119.416 48.9749 118.836 48.907 118.229 49.0022C115.919 49.364 113.786 49.2872 111.83 48.7717C111.741 48.7476 111.66 48.6996 111.596 48.6331C111.532 48.5666 111.488 48.4841 111.468 48.3949C111.448 48.3057 111.453 48.2131 111.483 48.1276C111.513 48.042 111.566 47.9667 111.637 47.9101C112.094 47.5337 112.344 47.0657 112.388 46.506C112.418 46.1529 112.253 45.9683 111.893 45.9521C109.214 45.8243 106.739 45.9481 104.469 46.3235C98.0808 47.3864 91.8453 48.0739 85.7626 48.3859C84.6955 48.4374 83.8167 48.7105 83.1261 49.2051C83.0266 49.2737 82.9077 49.3083 82.787 49.3037C82.6662 49.2991 82.5502 49.2557 82.4563 49.1798C82.2906 49.0518 82.1585 48.8941 82.06 48.7066C81.8958 48.392 81.6335 48.2633 81.273 48.3204C79.838 48.5291 78.4479 48.5315 77.1028 48.3275C75.9142 48.1481 75.0084 48.881 73.8774 49.0021C67.2313 49.7396 60.7129 50.7882 54.0895 51.1859C51.6417 51.3266 49.0596 51.5829 46.3432 51.9548C41.6181 52.5875 36.8071 52.6895 31.9104 53.5209C29.7742 53.8773 27.6486 54.1539 25.5337 54.3505C19.9094 54.8661 13.1876 55.9198 5.36806 57.5114C5.29398 57.5252 5.21727 57.5086 5.15415 57.4652C5.09103 57.4218 5.04646 57.3549 5.02989 57.2788L4.97218 56.9883C4.93392 56.768 5.02493 56.642 5.24519 56.6104C7.63758 56.3193 9.64601 55.2551 12.0703 54.7243C18.6553 53.2829 24.9448 52.0858 30.9392 51.1331C46.9932 48.5931 66.5818 45.8677 89.7056 42.9568C92.7354 42.5807 95.544 42.3329 98.1318 42.2133C98.6253 42.1906 99.0465 42.0339 99.3955 41.7433C99.7042 41.4924 99.6655 41.3221 99.2795 41.2324C96.9036 40.7036 95.3047 41.831 93.0936 41.9536C88.6849 42.1921 84.789 42.5114 81.4057 42.9113C68.4399 44.4223 55.3767 46.0826 42.2152 47.892C36.8291 48.6395 31.7305 48.4493 26.2813 49.5863C25.1594 49.8241 24.2651 49.517 23.5985 48.6651C23.3806 48.39 23.1079 48.3112 22.7803 48.4286C21.3163 48.9304 19.7484 49.088 18.0764 48.9015C17.9451 48.8854 17.8123 48.9065 17.6933 48.9622C17.5742 49.0179 17.4739 49.106 17.4039 49.2162C17.1812 49.5545 16.9143 49.5957 16.6029 49.3399C16.3181 49.1043 16.3592 48.9713 16.7261 48.9408C19.0477 48.7458 20.8198 48.0631 22.0424 46.8927C22.2708 46.6812 22.5416 46.5734 22.855 46.5692C24.0884 46.5656 25.2377 46.238 26.3029 45.5864C26.6914 45.3494 27.1052 45.2927 27.5443 45.4162C29.8925 46.068 32.0462 45.6117 34.0053 44.0471C34.1325 43.9468 34.2157 43.8006 34.2375 43.6387C34.2592 43.4769 34.2179 43.3119 34.1221 43.178C33.6076 42.4873 33.5132 41.7732 33.839 41.0357C33.9952 40.6836 33.8796 40.5427 33.4924 40.613C32.8113 40.7476 32.1666 40.9125 31.5584 41.1077C31.1306 41.2443 31.1125 41.4242 31.5041 41.6473L31.8824 41.8703C32.128 42.0055 32.2231 42.2097 32.1676 42.4826C32.0983 42.8087 31.8435 42.9934 31.4032 43.0366C30.1489 43.1533 29.108 42.8317 28.2807 42.0719C28.0291 41.8499 27.7332 41.7475 27.3931 41.7648C26.7061 41.8061 26.0484 41.9275 25.4202 42.1293C24.8855 42.2984 24.8841 42.465 25.4162 42.6292C25.6024 42.6907 25.8021 42.7223 26.0154 42.724C27.2953 42.7541 27.3793 43.0914 26.2675 43.736C25.6848 44.0714 25.0002 44.236 24.2135 44.2298C23.7269 44.226 23.5254 43.9844 23.6092 43.505L23.7034 42.9758C23.801 42.4365 23.6087 42.3017 23.1266 42.5712C21.9949 43.1956 20.8636 43.3634 19.7325 43.0744C19.3532 42.9781 18.9797 42.9985 18.612 43.1356C17.141 43.6773 15.7435 43.7696 14.4197 43.4125C14.0671 43.3164 13.7302 43.347 13.4089 43.5045L11.1701 44.6069C11.0118 44.6811 10.8404 44.7222 10.6667 44.7277C10.4929 44.7333 10.3204 44.703 10.1598 44.6389C8.55154 43.9928 6.91345 43.7499 5.24546 43.91C4.83848 43.9468 4.45906 43.8705 4.10721 43.681C2.97208 43.0587 1.82205 43.063 0.657023 43.6938C0.618257 43.7147 0.575233 43.7265 0.531228 43.7283C0.487223 43.7301 0.4434 43.7219 0.403057 43.7042C0.362715 43.6865 0.326902 43.6599 0.298383 43.6263C0.269864 43.5928 0.24937 43.5532 0.238444 43.5105L0.141125 43.1697C0.0938527 42.9858 0.112507 42.7905 0.193957 42.6164C0.275407 42.4423 0.414728 42.3 0.588693 42.2132C3.20545 40.9472 6.11701 39.9135 9.32347 39.1121C9.43905 39.0828 9.54683 39.0287 9.63934 38.9534C9.73185 38.8782 9.80684 38.7838 9.85909 38.6766C9.91135 38.5695 9.93963 38.4522 9.94192 38.333C9.94421 38.2138 9.92046 38.0955 9.87235 37.9864C9.28305 36.6284 9.61096 35.6309 10.856 34.9941C11.5856 34.6265 11.5404 34.4461 10.7203 34.453L9.28009 34.4716C8.84671 34.4748 8.60838 34.263 8.56509 33.836C8.06355 28.9619 3.42458 45.2257 3.64508 40.0973C3.6519 39.9628 3.70528 39.8352 3.79575 39.7371C3.88622 39.639 4.00795 39.5766 4.13934 39.5612C5.14709 39.4291 6.14902 39.187 7.14517 38.8349C12.6808 36.8785 18.5807 35.6451 23.9274 34.8173C38.4055 32.6015 53.0969 31.1874 67.7967 28.7434C67.9302 28.7245 67.9908 28.6516 67.9785 28.5248L67.9786 28.5148C67.9597 28.368 67.8769 28.2974 67.7302 28.3029C57.3249 28.9274 46.9897 29.9825 36.7242 31.4682C35.0222 31.7147 33.6076 31.0336 32.133 30.3419C32.0416 30.3003 31.9646 30.2326 31.9115 30.1474C31.8584 30.0622 31.8316 29.9632 31.8346 29.8629C31.8375 29.7625 31.87 29.6653 31.9279 29.5833C31.9859 29.5013 32.0668 29.4383 32.1604 29.4021C33.5114 28.8594 34.781 28.4961 35.9691 28.3121C48.7588 26.3064 61.8775 24.8032 75.326 23.8027ZM83.6988 23.178C83.6983 23.1609 83.6055 23.1467 83.4257 23.1361C83.246 23.1255 82.9827 23.1187 82.651 23.1162C82.3193 23.1136 81.9256 23.1154 81.4924 23.1213C81.0593 23.1272 80.5951 23.1372 80.1265 23.1507C79.1802 23.1779 78.2731 23.2177 77.6046 23.2613C76.9361 23.3049 76.5609 23.3488 76.5617 23.3832C76.5622 23.4003 76.655 23.4146 76.8347 23.4252C77.0145 23.4358 77.2778 23.4425 77.6095 23.4451C77.9412 23.4476 78.3349 23.4459 78.7681 23.4399C79.2012 23.434 79.6654 23.424 80.134 23.4106C81.0803 23.3833 81.9875 23.3435 82.656 23.2999C83.3245 23.2563 83.6995 23.2124 83.6988 23.178ZM35.5953 41.5096C35.6736 41.6123 35.7824 41.6875 35.9061 41.7244C36.0298 41.7613 36.162 41.758 36.2837 41.715C36.765 41.5588 36.9973 41.2673 36.9807 40.8405C36.9643 40.387 36.7324 40.1919 36.2853 40.255L35.3942 40.388C34.9937 40.4448 34.9156 40.6342 35.1597 40.9561L35.5953 41.5096ZM40.4964 41.3883C40.2384 41.1396 40.0474 40.8481 39.9233 40.5137C39.8124 40.2128 39.6163 40.1446 39.3349 40.3091L38.6015 40.7433C38.3068 40.9143 38.2149 41.1569 38.3257 41.4711C39.4497 44.7701 44.0096 42.266 46.1852 41.5732C46.2253 41.5602 46.2588 41.5371 46.2857 41.504C46.3665 41.4046 46.3741 41.288 46.3085 41.1542C46.2768 41.0897 46.2253 41.0366 46.1612 41.0021C46.0971 40.9676 46.0233 40.9534 45.95 40.9613L41.2047 41.6139C41.0797 41.6316 40.9514 41.6206 40.8289 41.5816C40.7065 41.5426 40.5929 41.4766 40.4964 41.3883ZM162.094 42.2083C160.911 41.7456 160.131 41.6528 159.756 41.9299C158.77 42.6554 158.89 43.1197 160.115 43.3227C160.761 43.4345 161.387 43.4294 161.995 43.3076C163.264 43.0509 163.297 42.6845 162.094 42.2083ZM176.037 42.6098C176.041 42.5535 176.001 42.4943 175.918 42.4355C175.835 42.3767 175.71 42.3194 175.552 42.2671C175.394 42.2147 175.206 42.1683 174.997 42.1303C174.788 42.0924 174.563 42.0637 174.335 42.046C174.108 42.0282 173.881 42.0217 173.669 42.0269C173.457 42.0321 173.263 42.0488 173.099 42.076C172.935 42.1033 172.803 42.1406 172.712 42.1858C172.621 42.2311 172.572 42.2833 172.567 42.3396C172.563 42.3959 172.603 42.4552 172.686 42.514C172.77 42.5728 172.894 42.63 173.052 42.6824C173.21 42.7347 173.398 42.7812 173.607 42.8191C173.816 42.8571 174.041 42.8857 174.269 42.9035C174.496 42.9212 174.723 42.9277 174.935 42.9225C175.147 42.9174 175.341 42.9007 175.505 42.8734C175.669 42.8462 175.801 42.8089 175.892 42.7636C175.983 42.7184 176.032 42.6661 176.037 42.6098ZM166.914 44.7465C165.375 45.4543 163.51 45.7029 161.318 45.4923C160.199 45.3835 159.522 45.7982 159.288 46.7363C159.258 46.8611 159.264 46.9921 159.305 47.1138C159.346 47.2355 159.421 47.3426 159.521 47.4225C159.62 47.5023 159.74 47.5515 159.866 47.5642C159.993 47.5768 160.119 47.5524 160.232 47.4938C162.012 46.5945 163.816 46.1421 165.643 46.1365C165.983 46.1325 166.297 46.0383 166.585 45.8539C167.376 45.3268 168.107 44.7526 168.779 44.1312C168.987 43.9328 169.109 43.6871 169.145 43.394C169.187 43.041 169.086 42.7469 168.842 42.5116C168.491 42.1688 168.247 42.2302 168.11 42.6958L167.802 43.7135C167.665 44.1924 167.369 44.5367 166.914 44.7465ZM146.959 43.9289C146.974 43.8209 146.955 43.7093 146.903 43.6005C146.851 43.4917 146.767 43.3878 146.656 43.2947C146.545 43.2016 146.409 43.1211 146.256 43.0579C146.103 42.9947 145.936 42.95 145.765 42.9263C145.593 42.9027 145.42 42.9005 145.255 42.9199C145.091 42.9394 144.939 42.98 144.807 43.0396C144.675 43.0992 144.566 43.1766 144.486 43.2673C144.407 43.358 144.358 43.4602 144.344 43.5682C144.329 43.6762 144.348 43.7878 144.4 43.8966C144.452 44.0054 144.535 44.1094 144.646 44.2024C144.757 44.2955 144.893 44.376 145.046 44.4392C145.199 44.5024 145.366 44.5471 145.538 44.5708C145.709 44.5945 145.882 44.5967 146.047 44.5772C146.211 44.5578 146.364 44.5171 146.496 44.4575C146.628 44.3979 146.736 44.3205 146.816 44.2298C146.895 44.1391 146.944 44.0369 146.959 43.9289ZM35.202 43.1966C35.1554 43.1829 35.1121 43.1825 35.072 43.1955C34.6109 43.3386 34.6166 43.4553 35.0893 43.5457C35.6484 43.6634 36.1649 43.6842 36.6388 43.6079C36.7857 43.5824 36.8464 43.4962 36.8209 43.3493C36.8083 43.2492 36.7757 43.159 36.723 43.0786C36.5781 42.8507 36.3787 42.7758 36.1248 42.8538C35.9242 42.9189 35.7402 43.0141 35.5725 43.1395C35.4585 43.2186 35.335 43.2376 35.202 43.1966ZM128.938 45.3967C129.456 45.5674 129.734 45.4129 129.771 44.9332C129.794 44.6467 129.662 44.4724 129.375 44.4101C129.103 44.3479 128.885 44.4029 128.724 44.5749C128.666 44.6365 128.624 44.712 128.602 44.7943C128.581 44.8766 128.581 44.9629 128.603 45.0451C128.624 45.1273 128.666 45.2028 128.725 45.2643C128.783 45.3258 128.856 45.3714 128.938 45.3967ZM117.996 45.4903C116.546 45.1455 115.103 45.1174 113.667 45.4061C113.617 45.4165 113.57 45.4396 113.531 45.4732C113.492 45.5069 113.463 45.5497 113.446 45.5974C113.43 45.6451 113.426 45.6959 113.436 45.7447C113.446 45.7934 113.469 45.8384 113.503 45.8748C115.004 47.54 116.504 47.5319 118.004 45.8504C118.07 45.7746 118.157 45.7186 118.253 45.6887C118.349 45.6587 118.452 45.6558 118.55 45.6803C118.648 45.7048 118.737 45.7558 118.808 45.8277C118.879 45.8996 118.929 45.9896 118.952 46.0878C119.042 46.4352 119.22 46.7367 119.485 46.9921C119.729 47.2274 119.936 47.199 120.105 46.907C120.396 46.4292 120.858 46.1896 121.491 46.1879C121.751 46.1833 121.892 46.0544 121.914 45.8012L121.936 45.5414C121.943 45.5015 121.927 45.478 121.887 45.471C120.882 45.2364 119.879 45.2418 118.877 45.4872C118.583 45.5583 118.289 45.5593 117.996 45.4903ZM148.721 50.073C149.06 50.2757 149.432 50.3719 149.839 50.3618C150.332 50.3524 150.377 50.2094 149.972 49.9329C149.628 49.6968 149.249 49.4871 148.837 49.3039C148.658 49.2225 148.495 49.1978 148.348 49.23C148.107 49.2814 147.963 49.427 147.914 49.6666C147.894 49.7398 147.913 49.7999 147.973 49.8471C148.079 49.9279 148.209 49.969 148.362 49.9702C148.489 49.9778 148.608 50.0121 148.721 50.073ZM164.058 51.5632C164.129 51.4298 164.081 51.2399 163.924 51.0354C163.768 50.8308 163.515 50.6283 163.223 50.4724C163.078 50.3952 162.927 50.3317 162.78 50.2857C162.633 50.2396 162.491 50.2119 162.364 50.204C162.237 50.1962 162.126 50.2083 162.038 50.2398C161.95 50.2713 161.887 50.3215 161.851 50.3876C161.78 50.521 161.828 50.7109 161.985 50.9154C162.142 51.12 162.394 51.3225 162.687 51.4784C162.831 51.5556 162.982 51.619 163.129 51.6651C163.276 51.7111 163.418 51.7389 163.545 51.7468C163.672 51.7546 163.783 51.7425 163.871 51.711C163.959 51.6795 164.023 51.6293 164.058 51.5632ZM154.678 51.7201C155.114 52.2769 155.624 52.3109 156.208 51.8221C156.271 51.7714 156.318 51.7034 156.343 51.6265C156.369 51.5495 156.371 51.4669 156.351 51.3885C156.33 51.3101 156.287 51.2393 156.228 51.1847C156.168 51.1301 156.093 51.0939 156.014 51.0806C155.534 50.9968 155.027 51.0095 154.493 51.1186C154.159 51.1893 154.122 51.3323 154.38 51.5477C154.466 51.6217 154.565 51.6792 154.678 51.7201Z" fill="#009400"/>
</svg>
