<svg width="804" height="526" viewBox="0 0 804 526" fill="none" xmlns="http://www.w3.org/2000/svg">
<path d="M803.2 -276.569V-143.633L759.281 -187.544V-276.569H758.475L758.612 -276.432V-188.216L714.694 -232.127V-276.569H714.025V-232.127L670.106 -188.216V-276.569H401.905V-232.127L357.986 -188.216V-276.569H357.18L313.398 -232.796V-276.569H312.73V-232.127L268.811 -188.216V-276.569H0.9375V-142.493H133.898L89.9789 -98.5824H0.9375V-97.7766L1.07461 -97.9137H89.3067L45.388 -54.0029H0.9375V-53.3342H45.388L89.3067 -9.42343H0.9375V-8.75473H89.3067L45.388 35.156H0.9375V35.8248H44.7192L0.9375 79.6018V80.4076H89.3067L45.388 124.318H0.9375V525.878H268.804V437.525L312.723 481.436V525.878H313.392V481.436L357.311 437.525V525.741L357.173 525.878H357.979V436.856L401.898 392.945V525.881H670.099V481.439L670.236 481.302L670.099 481.165V437.528L714.018 481.439V525.881H714.687V482.108L758.468 525.881H759.274V437.528L803.193 481.439V525.881H803.528V124.322H670.567L714.486 80.4109H803.524V79.6051L803.387 79.7422H715.155L759.074 35.8315H803.524V35.1628H759.074L715.155 -8.74805H803.524V-9.41675H715.155L759.074 -53.3275H803.524V-53.9962H759.743L803.524 -97.7699V-98.5757H715.155L759.074 -142.486H803.524V-276.569H803.19H803.2ZM714.356 -231.515L758.609 -187.27V-143.162H670.099V-187.27L714.352 -231.515H714.356ZM759.278 -186.601L802.725 -143.162H759.278V-186.601ZM491.552 480.968L447.633 437.057H535.865L579.784 480.968H491.552ZM313.867 391.805L357.785 347.895H446.686L490.605 391.805H313.867ZM223.742 480.968H135.51L179.428 437.057H267.66L223.742 480.968ZM45.8595 213.955L89.7783 170.045V258.261L45.8595 302.172V213.955ZM133.894 124.99L90.4471 168.43V124.99H133.894ZM135.038 35.3567V-53.5281L178.957 -97.4389V79.9395L135.038 123.85V35.6342L135.175 35.4971L135.038 35.36V35.3567ZM267.664 -187.741H179.432L135.513 -231.652H223.745L267.664 -187.741ZM446.964 -231.652H535.196L491.277 -187.741H403.045L446.964 -231.652ZM669.631 169.573L713.55 213.484H625.318L581.399 169.573H669.631ZM624.709 213.818L580.456 258.063H536.34V169.57H580.456L624.709 213.815V213.818ZM669.437 436.86V480.496L581.402 392.477H669.437V436.585L669.3 436.722L669.437 436.86ZM491.555 391.805L447.302 347.56L491.555 303.315H535.671V391.809H491.555V391.805ZM446.69 347.226H358.458L402.376 303.315H490.608L446.69 347.226ZM90.2565 436.388L46.3377 392.477H223.076L179.157 436.388H90.2565ZM134.373 303.786V391.805H46.3377L134.373 303.786ZM402.57 -186.601L446.018 -143.162H402.57V-186.601ZM580.453 -187.073L624.371 -143.162H447.633L491.552 -187.073H580.453ZM669.434 -53.5281V35.3567L625.515 79.2674V-98.111L669.434 -142.022V-53.8057L669.297 -53.6686L669.434 -53.5315V-53.5281ZM492.22 302.643L535.668 259.204V302.643H492.22ZM313.867 302.643L357.785 258.732H402.57H535.196L491.277 302.643H313.867ZM224.217 391.805V348.366L267.664 391.805H224.217ZM268.135 392.474V435.913L224.688 392.474H268.135ZM223.548 391.805H135.038V347.697L179.291 303.452L223.544 347.697V391.805H223.548ZM224.217 -53.5281L268.135 -97.4389V-9.4201V79.2674L224.217 35.3567V-53.5281ZM313.061 -142.356L313.198 -142.493H446.686L490.605 -98.5824H313.194L269.276 -142.493H312.92L313.057 -142.356H313.061ZM580.927 123.847V35.6308L624.846 -8.27997V79.9361L580.927 123.847ZM178.96 302.837L135.041 346.748V170.038L178.96 213.949V302.834V302.837ZM178.489 124.987L135.041 168.426V124.987H178.489ZM135.182 169.232L178.963 125.458V213.006L135.182 169.232ZM268.811 124.318V36.2995L312.73 80.2103V169.095L268.811 213.006V124.318ZM312.258 -98.5858H268.811V-142.025L312.258 -98.5858ZM268.811 -97.917H312.927L357.18 -53.6719L312.927 -9.42679H268.811V-97.9204V-97.917ZM580.262 35.3533L536.343 79.2641V-53.5315L536.48 -53.6686L536.343 -53.8057V-97.4423L580.262 -53.5315V35.3533ZM580.262 123.847L536.48 80.0732L580.262 36.2995V123.847ZM535.674 257.589L491.755 213.678V36.2995L535.537 80.0732L535.674 80.2103V124.318V257.585V257.589ZM357.792 -53.3342H446.693L490.612 -9.42343H446.971L446.833 -9.56052L446.696 -9.42343H401.911H313.877L357.795 -53.3342H357.792ZM491.087 123.847L447.168 79.9361V-8.27997L491.087 35.6308V123.847ZM357.989 35.6308L401.908 -8.27997V35.3533L401.771 35.4904L401.908 35.6275V124.649V169.092L357.989 213.003V35.6241V35.6308ZM401.437 -8.75473L357.989 34.6846V-8.75473H401.437ZM401.908 170.041V258.06H313.873L401.908 170.041ZM402.577 -8.75473H446.024L402.577 34.6846V-8.75473ZM446.496 -8.28329V79.2641L402.714 35.4904L446.496 -8.28329ZM447.639 -8.75473H491.281L491.418 -8.61765L491.555 -8.75473H535.671V79.2641L447.636 -8.75473H447.639ZM492.227 -9.42343L535.674 -52.8628V-9.42343H492.227ZM491.418 -9.56052L447.636 -53.3342H535.199L491.418 -9.56052ZM357.317 -8.75473V35.3533L313.064 79.5984L268.811 35.3533V-8.75473H357.321H357.317ZM313.398 80.2103L357.317 36.2995V124.516L313.398 168.426V80.2103ZM357.317 125.458V213.675L313.398 257.585V169.369L357.317 125.458ZM312.73 257.585L268.948 213.812L312.73 170.038V257.585ZM312.258 258.057H268.811V214.617L312.258 258.057ZM402.577 124.649V36.2962L446.496 80.207V169.092L402.577 213.003V124.649ZM447.165 80.8757L491.083 124.786V213.003L447.165 169.092V80.8757ZM535.674 -142.5V-54.4811L447.639 -142.5H535.674ZM535.203 -54.0063H446.971L403.052 -97.917H491.284L535.203 -54.0063ZM402.105 -97.917L446.024 -54.0063H357.792L313.873 -97.917H402.105ZM402.577 213.952L446.83 169.707L491.083 213.952V258.06H402.574V213.952H402.577ZM491.755 214.621L535.203 258.06H491.755V214.621ZM536.343 80.879L579.79 124.318H536.343V80.879ZM624.853 -9.22952L580.934 34.6813V-53.5348L624.853 -97.4456V-9.22952ZM580.6 -54.1434L536.346 -98.3885V-142.497H624.856V-98.3885L580.603 -54.1434H580.6ZM268.145 -99.0572L224.698 -142.497H268.145V-99.0572ZM224.227 -142.022L268.008 -98.248L224.227 -54.4744V-142.022ZM179.639 302.837V214.621L223.558 258.532V346.748L179.639 302.837ZM223.558 257.589L179.639 213.678V125.462L223.558 169.373V257.589ZM180.111 124.987H268.145V213.006L180.111 124.987ZM312.93 258.729L313.067 258.866L313.204 258.729H356.846L268.811 346.748V258.729H312.927H312.93ZM581.409 124.318L669.444 36.2995V124.318H581.409ZM625.525 -99.0572V-142.497H668.972L625.525 -99.0572ZM446.837 -143.302L403.055 -187.076H490.619L446.837 -143.302ZM224.701 -143.165L268.149 -186.605V-143.165H224.701ZM223.896 -143.302L180.114 -187.076H267.677L223.896 -143.302ZM223.09 -142.497L135.055 -54.4777V-142.497H223.09ZM223.561 -142.025V-53.809L179.642 -9.89822V-98.1143L223.561 -142.025ZM179.642 -8.952L223.561 -52.8628V35.3533L179.642 79.2641V-8.952ZM223.896 35.9618L268.149 80.207V124.315H179.639V80.207L223.892 35.9618H223.896ZM178.974 124.315H135.526L178.974 80.8757V124.315ZM223.896 392.604L267.677 436.378H180.114L223.896 392.604ZM224.23 347.413V170.038L268.012 213.812L268.149 213.949V258.726V347.413L268.012 347.55L268.149 347.687V391.324L224.23 347.413ZM269.292 347.216L313.211 303.305H401.443L357.525 347.216H269.292ZM356.856 347.884L313.074 391.658L269.292 347.884H356.856ZM536.353 391.795V303.776L624.388 391.795H536.353ZM536.825 303.302H625.057L668.976 347.212H580.743L536.825 303.302ZM536.825 302.633L580.606 258.859L624.388 302.633H536.825ZM536.353 302.161V258.722H579.8L536.353 302.161ZM536.353 168.891V125.452L579.8 168.891H536.353ZM669.434 -232.324H625.986L669.434 -275.764V-232.324ZM669.434 -231.655V-143.162H625.318L581.064 -187.407L625.318 -231.652H669.434V-231.655ZM580.453 -187.745H492.22L536.139 -231.655H624.371L580.453 -187.745ZM268.804 -143.165V-186.605L312.251 -143.165H268.804ZM134.567 -231.655L178.485 -187.745H90.2531L46.3344 -231.655H134.567ZM90.2531 -187.076H179.154L223.073 -143.165H46.3344L90.2531 -187.076ZM134.369 125.462V169.098L134.232 169.236L134.369 169.373V302.837L90.4505 346.748V169.369L134.369 125.458V125.462ZM89.7816 259.204V347.42L45.8629 391.331V303.114L89.7816 259.204ZM45.194 391.331L1.40903 347.56L45.1907 303.786V391.334L45.194 391.331ZM89.6445 436.719L45.3913 480.964H1.27192V392.471H45.388L89.6412 436.716L89.6445 436.719ZM90.2565 437.054H178.489L134.57 480.964H46.3344L90.2531 437.054H90.2565ZM268.808 348.366L312.255 391.805H268.808V348.366ZM402.574 392.945L446.021 436.385H402.574V392.945ZM403.045 392.474H535.671H580.456L624.375 436.385H446.967L403.049 392.474H403.045ZM536.811 437.054H625.043L668.962 480.964H580.73L536.811 437.054ZM668.962 481.633L625.181 525.407L581.399 481.633H668.962ZM714.496 391.802L714.359 391.665L714.222 391.802H625.321L581.402 347.891H758.813L802.732 391.802H714.5H714.496ZM669.909 347.222L625.99 303.312H714.222L758.141 347.222H669.909ZM714.222 302.643H625.321L581.402 258.732H758.141L714.222 302.643ZM581.402 258.063L625.321 214.153H714.222L758.141 258.063H581.399H581.402ZM715.168 214.153H802.732L758.95 257.926L715.168 214.153ZM714.5 213.484L670.581 169.573H758.813L802.732 213.484H714.5ZM580.733 168.905L536.815 124.994H580.459L580.596 125.131L580.733 124.994H714.222L758.141 168.905H580.733ZM625.047 -232.321H447.636L491.552 -276.235H668.962L625.043 -232.324L625.047 -232.321ZM490.605 -276.235L402.57 -188.216V-276.235H490.605ZM401.901 -187.547L401.764 -187.41L401.901 -187.273V-143.165H313.867L401.901 -231.184V-187.547ZM357.314 -275.764V-187.547L313.395 -143.637V-231.849L357.314 -275.764ZM312.726 -231.184V-143.637L268.945 -187.41L312.726 -231.184ZM268.135 -276.235V-188.216L180.101 -276.235H268.135ZM179.154 -276.235L223.073 -232.324H45.6656L1.74344 -276.235H179.151H179.154ZM44.7192 -232.324H1.27192V-275.764L44.7192 -232.324ZM1.27192 -231.655H45.388L89.6412 -187.41L45.388 -143.165H1.27192V-231.655ZM134.369 -142.022V-98.5824H90.922L134.369 -142.022ZM90.2531 -97.9137H134.369V-9.4201H90.2531L90.116 -9.55719L46 -53.6652L90.2531 -97.9104V-97.9137ZM134.369 -8.7514V34.6879L90.922 -8.7514H134.369ZM90.116 -8.61432L133.898 35.1594H46.3344L90.116 -8.61432ZM1.74344 79.7422L45.6622 35.8315H133.894L89.9756 79.7422H1.74344ZM134.369 36.3029V124.322H46.3344L134.369 36.3029ZM89.7816 124.99V169.098L45.5284 213.344L1.27192 169.098V124.99H89.7816ZM1.27192 170.045L45.1907 213.955V302.84L1.27192 346.751V170.041V170.045ZM44.7192 391.805H1.27192V348.366L44.7192 391.805ZM1.27192 481.636H44.7192L1.27192 525.076V481.636ZM45.6656 481.636H223.073L179.154 525.547H1.74344L45.6622 481.636H45.6656ZM180.101 525.547L268.135 437.528V525.547H180.101ZM313.061 480.827L268.945 436.719L268.808 436.582V392.474H312.924L313.061 392.611L313.198 392.474H357.314V436.582L313.061 480.827ZM357.983 392.474H401.43L357.983 435.913V392.474ZM402.57 437.054H446.686L490.94 481.299L446.686 525.544H402.57V437.05V437.054ZM447.633 525.547L491.552 481.636H580.453L624.371 525.547H447.629H447.633ZM625.986 525.547L669.434 482.108V525.547H625.986ZM670.103 392.474H713.55L670.103 435.913V392.474ZM670.24 436.719L714.021 392.945V480.493L670.24 436.719ZM758.609 525.072L714.69 481.161V392.945L758.609 436.856V525.072ZM803.196 480.493L715.162 392.474H803.196V480.493ZM803.196 391.334L759.749 347.895H803.196V391.334ZM759.08 347.226L714.827 302.981L759.08 258.736H803.196V347.229H759.08V347.226ZM803.196 258.063H759.749L803.196 214.624V258.063ZM715.162 124.99H803.196V213.009L715.162 124.99ZM670.099 123.847V80.4076H713.546L670.099 123.847ZM714.215 79.7389H670.099V-8.75473H714.215L714.352 -8.61765L758.468 35.4904L714.215 79.7355V79.7389ZM670.099 -9.42343V-52.8628L713.546 -9.42343H670.099ZM714.352 -9.56052L670.571 -53.3342H758.134L714.352 -9.56052ZM802.722 -97.9137L758.803 -54.0029H670.571L714.49 -97.9137H802.722ZM670.096 -54.4744V-142.493H758.131L670.096 -54.4744Z" fill="url(#paint0_radial_4388_701)"/>
<defs>
<radialGradient id="paint0_radial_4388_701" cx="0" cy="0" r="1" gradientUnits="userSpaceOnUse" gradientTransform="translate(390.351 124.656) scale(392.991 392.919)">
<stop stop-color="white"/>
<stop offset="1" stop-color="#5A5A5A" stop-opacity="0"/>
</radialGradient>
</defs>
</svg>
