<svg width="605" height="746" viewBox="0 0 605 746" fill="none" xmlns="http://www.w3.org/2000/svg">
<path d="M745.825 0V123.584L704.996 82.7625V0H704.246L704.374 0.127442V82.1377L663.545 41.316V0H662.923V41.316L622.094 82.1377V0H372.76V41.316L331.931 82.1377V0H331.182L290.48 40.6943V0H289.858V41.316L249.029 82.1377V0H0V124.644H123.607L82.7775 165.466H0V166.215L0.127465 166.088H82.1527L41.3235 206.909H0V207.531H41.3235L82.1527 248.353H0V248.974H82.1527L41.3235 289.796H0V290.418H40.7017L0 331.115V331.864H82.1527L41.3235 372.686H0V745.997H249.023V663.859L289.852 704.681V745.997H290.474V704.681L331.303 663.859V745.87L331.175 745.997H331.925V663.237L372.754 622.416V746H622.088V704.684L622.215 704.557L622.088 704.429V663.862L662.917 704.684V746H663.539V705.306L704.24 746H704.989V663.862L745.819 704.684V746H746.13V372.689H622.523L663.352 331.867H746.126V331.118L745.999 331.246H663.974L704.803 290.424H746.126V289.802H704.803L663.974 248.981H746.126V248.359H663.974L704.803 207.537H746.126V206.916H705.425L746.126 166.221V165.472H663.974L704.803 124.65H746.126V0H745.816H745.825ZM663.231 41.8848L704.371 83.0174V124.022H622.088V83.0174L663.228 41.8848H663.231ZM704.993 83.639L745.383 124.022H704.993V83.639ZM456.1 704.246L415.271 663.424H497.296L538.126 704.246H456.1ZM290.915 621.356L331.744 580.534H414.391L455.221 621.356H290.915ZM207.13 704.246H125.105L165.934 663.424H247.96L207.13 704.246ZM41.7618 456.017L82.591 415.196V497.206L41.7618 538.028V456.017ZM123.604 373.311L83.2128 413.694V373.311H123.604ZM124.667 289.983V207.351L165.496 166.529V331.429L124.667 372.251V290.241L124.794 290.113L124.667 289.986V289.983ZM247.963 82.5791H165.937L125.108 41.7574H207.134L247.963 82.5791ZM414.649 41.7574H496.675L455.845 82.5791H373.82L414.649 41.7574ZM621.652 414.757L662.482 455.579H580.456L539.627 414.757H621.652ZM579.891 455.89L538.75 497.022H497.738V414.754H538.75L579.891 455.887V455.89ZM621.472 663.241V703.807L539.63 621.981H621.472V662.986L621.345 663.113L621.472 663.241ZM456.103 621.356L414.963 580.223L456.103 539.091H497.116V621.359H456.103V621.356ZM414.395 579.912H332.369L373.198 539.091H455.224L414.395 579.912ZM83.0356 662.802L42.2064 621.981H206.512L165.683 662.802H83.0356ZM124.048 539.529V621.356H42.2064L124.048 539.529ZM373.379 83.639L413.77 124.022H373.379V83.639ZM538.747 83.2008L579.576 124.022H415.271L456.1 83.2008H538.747ZM621.469 207.351V289.983L580.64 330.804V165.904L621.469 125.082V207.093L621.341 207.22L621.469 207.348V207.351ZM456.722 538.466L497.113 498.082V538.466H456.722ZM290.915 538.466L331.744 497.644H373.379H496.675L455.845 538.466H290.915ZM207.572 621.356V580.972L247.963 621.356H207.572ZM248.401 621.977V662.361L208.01 621.977H248.401ZM206.95 621.356H124.667V580.351L165.807 539.218L206.947 580.351V621.356H206.95ZM207.572 207.351L248.401 166.529V248.356V330.804L207.572 289.983V207.351ZM290.166 124.772L290.293 124.644H414.391L455.221 165.466H290.29L249.461 124.644H290.035L290.163 124.772H290.166ZM539.189 372.248V290.238L580.018 249.416V331.426L539.189 372.248ZM165.499 538.646L124.67 579.468V415.189L165.499 456.011V538.643V538.646ZM165.061 373.308L124.67 413.691V373.308H165.061ZM124.801 414.44L165.502 373.746V455.135L124.801 414.44ZM249.029 372.686V290.859L289.858 331.681V414.313L249.029 455.135V372.686ZM289.42 165.463H249.029V125.079L289.42 165.463ZM249.029 166.084H290.042L331.182 207.217L290.042 248.35H249.029V166.081V166.084ZM538.57 289.98L497.741 330.801V207.348L497.868 207.22L497.741 207.093V166.526L538.57 207.348V289.98ZM538.57 372.248L497.868 331.553L538.57 290.859V372.248ZM497.119 496.581L456.29 455.759V290.859L496.992 331.553L497.119 331.681V372.686V496.578V496.581ZM331.751 207.531H414.398L455.227 248.353H414.656L414.528 248.225L414.401 248.353H372.766H290.925L331.754 207.531H331.751ZM455.668 372.248L414.839 331.426V249.416L455.668 290.238V372.248ZM331.934 290.238L372.763 249.416V289.98L372.636 290.107L372.763 290.234V372.994V414.31L331.934 455.132V290.231V290.238ZM372.325 248.974L331.934 289.358V248.974H372.325ZM372.763 415.193V497.019H290.921L372.763 415.193ZM373.385 248.974H413.776L373.385 289.358V248.974ZM414.214 249.413V330.801L373.512 290.107L414.214 249.413ZM415.277 248.974H455.849L455.976 249.102L456.103 248.974H497.116V330.801L415.274 248.974H415.277ZM456.728 248.353L497.119 207.969V248.353H456.728ZM455.976 248.225L415.274 207.531H496.678L455.976 248.225ZM331.309 248.974V289.98L290.169 331.112L249.029 289.98V248.974H331.312H331.309ZM290.48 331.681L331.309 290.859V372.869L290.48 413.691V331.681ZM331.309 373.746V455.756L290.48 496.578V414.568L331.309 373.746ZM289.858 496.578L249.156 455.884L289.858 415.189V496.578ZM289.42 497.016H249.029V456.633L289.42 497.016ZM373.385 372.994V290.856L414.214 331.678V414.31L373.385 455.132V372.994ZM414.836 332.299L455.665 373.121V455.132L414.836 414.31V332.299ZM497.119 124.638V206.465L415.277 124.638H497.119ZM496.681 206.906H414.656L373.826 166.084H455.852L496.681 206.906ZM372.947 166.084L413.776 206.906H331.751L290.921 166.084H372.947ZM373.385 456.014L414.525 414.882L455.665 456.014V497.019H373.382V456.014H373.385ZM456.29 456.636L496.681 497.019H456.29V456.636ZM497.741 332.303L538.132 372.686H497.741V332.303ZM580.024 248.533L539.195 289.355V207.344L580.024 166.523V248.533ZM538.884 206.779L497.744 165.646V124.641H580.027V165.646L538.887 206.779H538.884ZM248.41 165.025L208.02 124.641H248.41V165.025ZM207.581 125.082L248.283 165.777L207.581 206.471V125.082ZM166.13 538.646V456.636L206.959 497.458V579.468L166.13 538.646ZM206.959 496.581L166.13 455.759V373.749L206.959 414.571V496.581ZM166.569 373.308H248.41V455.135L166.569 373.308ZM290.045 497.641L290.172 497.769L290.3 497.641H330.871L249.029 579.468V497.641H290.042H290.045ZM539.636 372.686L621.478 290.859V372.686H539.636ZM580.649 165.025V124.641H621.04L580.649 165.025ZM414.531 123.892L373.83 83.1977H455.233L414.531 123.892ZM208.023 124.019L248.413 83.6359V124.019H208.023ZM207.273 123.892L166.572 83.1977H247.975L207.273 123.892ZM206.524 124.641L124.682 206.468V124.641H206.524ZM206.963 125.079V207.09L166.133 247.911V165.901L206.963 125.079ZM166.133 248.791L206.963 207.969V289.98L166.133 330.801V248.791ZM207.273 290.545L248.413 331.678V372.683H166.13V331.678L207.27 290.545H207.273ZM165.512 372.683H125.121L165.512 332.299V372.683ZM207.273 622.099L247.975 662.793H166.572L207.273 622.099ZM207.584 580.086V415.189L248.286 455.884L248.413 456.011V497.638V580.086L248.286 580.214L248.413 580.341V620.908L207.584 580.086ZM249.477 579.903L290.306 539.081H372.331L331.502 579.903H249.477ZM330.88 580.525L290.178 621.219L249.477 580.525H330.88ZM497.75 621.346V539.52L579.592 621.346H497.75ZM498.189 539.078H580.214L621.043 579.9H539.018L498.189 539.078ZM498.189 538.457L538.89 497.762L579.592 538.457H498.189ZM497.75 538.018V497.635H538.141L497.75 538.018ZM497.75 414.123V373.74L538.141 414.123H497.75ZM621.469 41.1326H581.078L621.469 0.749108V41.1326ZM621.469 41.7542V124.022H580.456L539.316 82.8899L580.456 41.7574H621.469V41.7542ZM538.747 82.576H456.722L497.551 41.7542H579.576L538.747 82.576ZM249.023 124.019V83.6359L289.414 124.019H249.023ZM124.228 41.7542L165.058 82.576H83.0325L42.2033 41.7542H124.228ZM83.0325 83.1977H165.679L206.509 124.019H42.2033L83.0325 83.1977ZM124.045 373.749V414.316L123.918 414.443L124.045 414.571V538.646L83.2159 579.468V414.568L124.045 373.746V373.749ZM82.5941 498.082V580.093L41.7649 620.914V538.904L82.5941 498.082ZM41.1432 620.914L0.438355 580.223L41.1401 539.529V620.918L41.1432 620.914ZM82.4667 663.11L41.3266 704.243H0.31089V621.974H41.3235L82.4635 663.107L82.4667 663.11ZM83.0356 663.421H165.061L124.232 704.243H42.2033L83.0325 663.421H83.0356ZM249.026 580.972L289.417 621.356H249.026V580.972ZM373.382 622.416L413.773 662.799H373.382V622.416ZM373.82 621.977H497.116H538.75L579.58 662.799H414.653L373.823 621.977H373.82ZM498.176 663.421H580.201L621.031 704.243H539.005L498.176 663.421ZM621.031 704.864L580.329 745.559L539.627 704.864H621.031ZM663.361 621.353L663.234 621.225L663.106 621.353H580.459L539.63 580.531H704.56L745.39 621.353H663.364H663.361ZM621.91 579.909L581.081 539.088H663.106L703.936 579.909H621.91ZM663.106 538.466H580.459L539.63 497.644H703.936L663.106 538.466ZM539.63 497.022L580.459 456.201H663.106L703.936 497.022H539.627H539.63ZM663.986 456.201H745.39L704.688 496.895L663.986 456.201ZM663.364 455.579L622.535 414.757H704.56L745.39 455.579H663.364ZM539.008 414.136L498.179 373.314H538.754L538.881 373.441L539.008 373.314H663.106L703.936 414.136H539.008ZM580.205 41.1357H415.274L456.1 0.310833H621.031L580.201 41.1326L580.205 41.1357ZM455.221 0.310833L373.379 82.1377V0.310833H455.221ZM372.757 82.7594L372.63 82.8868L372.757 83.0143V124.019H290.915L372.757 42.1925V82.7594ZM331.306 0.749108V82.7594L290.477 123.581V41.574L331.306 0.749108ZM289.855 42.1925V123.581L249.153 82.8868L289.855 42.1925ZM248.401 0.310833V82.1377L166.559 0.310833H248.401ZM165.679 0.310833L206.509 41.1326H41.5815L0.749245 0.310833H165.676H165.679ZM40.7017 41.1326H0.31089V0.749108L40.7017 41.1326ZM0.31089 41.7542H41.3235L82.4635 82.8868L41.3235 124.019H0.31089V41.7542ZM124.045 125.082V165.466H83.6543L124.045 125.082ZM83.0325 166.088H124.045V248.356H83.0325L82.905 248.228L41.8924 207.223L83.0325 166.091V166.088ZM124.045 248.978V289.361L83.6543 248.978H124.045ZM82.905 249.105L123.607 289.799H42.2033L82.905 249.105ZM0.749245 331.246L41.5784 290.424H123.604L82.7744 331.246H0.749245ZM124.045 290.862V372.689H42.2033L124.045 290.862ZM82.5941 373.311V414.316L41.4541 455.449L0.31089 414.316V373.311H82.5941ZM0.31089 415.196L41.1401 456.017V538.649L0.31089 579.471V415.193V415.196ZM40.7017 621.356H0.31089V580.972L40.7017 621.356ZM0.31089 704.867H40.7017L0.31089 745.251V704.867ZM41.5815 704.867H206.509L165.679 745.689H0.749245L41.5784 704.867H41.5815ZM166.559 745.689L248.401 663.862V745.689H166.559ZM290.166 704.115L249.153 663.11L249.026 662.983V621.977H290.039L290.166 622.105L290.293 621.977H331.306V662.983L290.166 704.115ZM331.928 621.977H372.319L331.928 662.361V621.977ZM373.379 663.421H414.391L455.531 704.553L414.391 745.686H373.379V663.418V663.421ZM415.271 745.689L456.1 704.867H538.747L579.576 745.689H415.268H415.271ZM581.078 745.689L621.469 705.306V745.689H581.078ZM622.091 621.977H662.482L622.091 662.361V621.977ZM622.218 663.11L662.92 622.416V703.804L622.218 663.11ZM704.371 745.248L663.542 704.426V622.416L704.371 663.237V745.248ZM745.822 703.804L663.98 621.977H745.822V703.804ZM745.822 620.918L705.431 580.534H745.822V620.918ZM704.809 579.912L663.669 538.78L704.809 497.647H745.822V579.916H704.809V579.912ZM745.822 497.022H705.431L745.822 456.639V497.022ZM663.98 373.311H745.822V455.138L663.98 373.311ZM622.088 372.248V331.864H662.478L622.088 372.248ZM663.1 331.243H622.088V248.974H663.1L663.228 249.102L704.24 290.107L663.1 331.24V331.243ZM622.088 248.353V207.969L662.478 248.353H622.088ZM663.228 248.225L622.526 207.531H703.929L663.228 248.225ZM745.38 166.088L704.551 206.909H622.526L663.355 166.088H745.38ZM622.084 206.471V124.644H703.926L622.084 206.471Z" fill="url(#paint0_radial_4322_3532)"/>
<defs>
<radialGradient id="paint0_radial_4322_3532" cx="0" cy="0" r="1" gradientUnits="userSpaceOnUse" gradientTransform="translate(362.019 373) scale(365.345 365.278)">
<stop offset="0.0519785" stop-color="#009400"/>
<stop offset="1" stop-color="white"/>
</radialGradient>
</defs>
</svg>
