<svg width="32" height="36" viewBox="0 0 32 36" fill="none" xmlns="http://www.w3.org/2000/svg">
<path d="M19.8099 0L22.0956 0V7.5H19.8099V0ZM15.2384 4.28571H17.5241V7.5H15.2384V4.28571ZM10.667 2.14286H12.9527V7.5H10.667V2.14286Z" fill="#3376E4"/>
<g clip-path="url(#clip0_1608_889)">
<path d="M31.2493 16.3125H27.5075L26.4675 13.875C25.3987 11.3689 22.8481 9.75 19.9687 9.75H12.0312C9.15246 9.75 6.60121 11.3689 5.53183 13.875L4.49183 16.3125H0.750581C0.262456 16.3125 -0.0956692 16.7426 0.0230808 17.1861L0.398081 18.5924C0.481206 18.9053 0.781206 19.125 1.12558 19.125H2.37996C1.54058 19.8123 0.999956 20.8113 0.999956 21.9375V24.75C0.999956 25.6945 1.38496 26.5471 1.99996 27.2068V30.375C1.99996 31.4104 2.89558 32.25 3.99996 32.25H5.99996C7.10433 32.25 7.99996 31.4104 7.99996 30.375V28.5H24V30.375C24 31.4104 24.8956 32.25 26 32.25H28C29.1043 32.25 30 31.4104 30 30.375V27.2068C30.615 26.5477 31 25.6951 31 24.75V21.9375C31 20.8113 30.4593 19.8123 29.6206 19.125H30.875C31.2193 19.125 31.5193 18.9053 31.6025 18.5924L31.9775 17.1861C32.0956 16.7426 31.7375 16.3125 31.2493 16.3125ZM9.24558 15.2678C9.70121 14.2002 10.8043 13.5 12.0312 13.5H19.9687C21.1956 13.5 22.2987 14.2002 22.7543 15.2678L24 18.1875H7.99996L9.24558 15.2678ZM5.99996 24.7383C4.79996 24.7383 3.99996 23.9906 3.99996 22.8691C3.99996 21.7477 4.79996 21 5.99996 21C7.19996 21 8.99996 22.6822 8.99996 23.8037C8.99996 24.9252 7.19996 24.7383 5.99996 24.7383ZM26 24.7383C24.8 24.7383 23 24.9252 23 23.8037C23 22.6822 24.8 21 26 21C27.2 21 28 21.7477 28 22.8691C28 23.9906 27.2 24.7383 26 24.7383Z" fill="#3376E4"/>
</g>
<defs>
<clipPath id="clip0_1608_889">
<rect width="32" height="30" fill="white" transform="translate(0 6)"/>
</clipPath>
</defs>
</svg>
