<svg width="30" height="30" viewBox="0 0 30 30" fill="none" xmlns="http://www.w3.org/2000/svg">
<path d="M21.3286 0C22.5357 0.000188998 23.7081 0.392893 24.6596 1.11575C25.6112 1.83861 26.2873 2.85018 26.5808 3.98984L27.2223 6.48754H28.7436C29.0456 6.48755 29.3374 6.594 29.565 6.78721C29.7926 6.98042 29.9406 7.2473 29.9817 7.53852L29.9933 7.70395C29.9933 7.9979 29.884 8.2819 29.6855 8.50343C29.487 8.72496 29.2128 8.86904 28.9136 8.90901L28.7436 8.92037H27.8505L28.1971 10.26C28.7477 10.5856 29.2029 11.0437 29.5187 11.5903C29.8345 12.1369 30.0003 12.7535 30 13.3805V27.1617C30 27.9145 29.6928 28.6364 29.1459 29.1687C28.5991 29.701 27.8574 30 27.084 30H24.5779C23.8045 30 23.0628 29.701 22.5159 29.1687C21.9691 28.6364 21.6619 27.9145 21.6619 27.1617L21.6602 25.1392H8.33815V27.1617C8.33815 27.9145 8.03092 28.6364 7.48407 29.1687C6.93721 29.701 6.1955 30 5.42213 30H2.91602C2.14264 30 1.40094 29.701 0.854082 29.1687C0.307223 28.6364 0 27.9145 0 27.1617V13.3805C0 12.0587 0.721506 10.9007 1.80293 10.2617L2.14786 8.92037H1.24972C0.947727 8.92035 0.655951 8.8139 0.428354 8.6207C0.200757 8.42749 0.0527354 8.1606 0.011664 7.86938L0 7.70395C1.27353e-05 7.41001 0.10938 7.12601 0.307877 6.90448C0.506373 6.68295 0.78057 6.53887 1.07976 6.49889L1.24972 6.48754H2.77105L3.41424 3.99308C3.70708 2.85256 4.38323 1.84005 5.33519 1.11653C6.28715 0.393012 7.46028 8.43217e-06 8.66807 0H21.3286ZM5.83704 25.1392H2.49778L2.49944 27.1617C2.49944 27.3855 2.68607 27.5672 2.91602 27.5672H5.42213C5.53261 27.5672 5.63857 27.5245 5.71669 27.4484C5.79481 27.3724 5.8387 27.2692 5.8387 27.1617L5.83704 25.1392ZM27.4989 25.1392H24.158L24.1596 27.1617C24.1596 27.3855 24.3463 27.5672 24.5762 27.5672H27.0823C27.1928 27.5672 27.2988 27.5245 27.3769 27.4484C27.455 27.3724 27.4989 27.2692 27.4989 27.1617V25.1392ZM17.9144 17.8407H12.079L11.909 17.8521C11.6099 17.8921 11.3358 18.0363 11.1374 18.2578C10.939 18.4793 10.8296 18.7633 10.8296 19.0571C10.8296 19.351 10.939 19.635 11.1374 19.8565C11.3358 20.078 11.6099 20.2221 11.909 20.2622L12.079 20.2736H17.9144L18.0826 20.2622C18.3962 20.2202 18.6817 20.064 18.8815 19.8251C19.0813 19.5862 19.1805 19.2824 19.1592 18.975C19.1378 18.6677 18.9974 18.3797 18.7664 18.1691C18.5354 17.9586 18.2308 17.8412 17.9144 17.8407ZM23.3281 14.597C22.8862 14.597 22.4624 14.7678 22.1499 15.072C21.8374 15.3762 21.6619 15.7887 21.6619 16.2188C21.6619 16.649 21.8374 17.0615 22.1499 17.3657C22.4624 17.6699 22.8862 17.8407 23.3281 17.8407C23.7701 17.8407 24.1939 17.6699 24.5064 17.3657C24.8189 17.0615 24.9944 16.649 24.9944 16.2188C24.9944 15.7887 24.8189 15.3762 24.5064 15.072C24.1939 14.7678 23.7701 14.597 23.3281 14.597ZM6.66519 14.597C6.22326 14.597 5.79943 14.7678 5.48694 15.072C5.17445 15.3762 4.99889 15.7887 4.99889 16.2188C4.99889 16.649 5.17445 17.0615 5.48694 17.3657C5.79943 17.6699 6.22326 17.8407 6.66519 17.8407C7.10711 17.8407 7.53094 17.6699 7.84343 17.3657C8.15593 17.0615 8.33148 16.649 8.33148 16.2188C8.33148 15.7887 8.15593 15.3762 7.84343 15.072C7.53094 14.7678 7.10711 14.597 6.66519 14.597ZM21.3286 2.43283H8.66641C8.01592 2.43278 7.3841 2.64443 6.87142 3.03412C6.35873 3.42381 5.99464 3.96916 5.83704 4.58345L4.51733 9.73131H25.4827L24.1563 4.5802C23.9981 3.96652 23.6337 3.4219 23.1211 3.03284C22.6084 2.64378 21.977 2.43259 21.3269 2.43283" fill="#007ADA"/>
</svg>
