<svg width="30" height="30" viewBox="0 0 30 30" fill="none" xmlns="http://www.w3.org/2000/svg">
<g clip-path="url(#clip0_1733_119)">
<path d="M2.99998 20C2.69998 20 2.5 19.7499 2.5 19.5V16C2.5 15.75 2.69998 15.5 2.99998 15.5C3.25 15.5 3.49996 15.75 3.49996 16V19.5C3.49996 19.75 3.25 20 2.99998 20ZM2.99998 15C2.69998 15 2.5 14.75 2.5 14.5C2.5 14.2 2.69998 14 2.99998 14C3.25 14 3.49996 14.2 3.49996 14.5C3.49996 14.75 3.25 15 2.99998 15ZM2.99998 13C2.69998 13 2.5 12.75 2.5 12.5V8.99998C2.5 8.69998 2.69998 8.5 2.99998 8.5C3.25 8.5 3.49996 8.69998 3.49996 8.99998V12.5C3.49996 12.75 3.25 13 2.99998 13Z" fill="#CCCCCC"/>
<path d="M13.5002 27.9993C13.4002 27.9993 13.3502 27.9993 13.3002 27.9493L11.1502 26.9493C10.9002 26.8493 10.8003 26.5493 10.9002 26.2993C11.0002 26.0493 11.3502 25.9493 11.5502 26.0493L13.7002 27.0493C13.9502 27.1493 14.0502 27.4493 13.9502 27.6993C13.8502 27.8993 13.7002 27.9993 13.5002 27.9993ZM9.95018 26.3493C9.9002 26.3493 9.80018 26.3493 9.7502 26.2993C9.6002 26.2493 9.55022 26.1493 9.50018 25.9993C9.4502 25.8493 9.4502 25.7493 9.50018 25.5993C9.6002 25.3493 9.9002 25.2493 10.1502 25.3493C10.4002 25.4493 10.5001 25.7493 10.4002 25.9992C10.3502 26.2493 10.1502 26.3493 9.95018 26.3493ZM8.15018 25.4993C8.1002 25.4993 8.00018 25.4993 7.9502 25.4493L4.8002 23.9493C4.70018 23.8993 4.60022 23.7993 4.55018 23.6493C4.5002 23.4993 4.5002 23.3993 4.55018 23.2493C4.6502 22.9992 4.9502 22.8993 5.20016 22.9992L8.35016 24.4992C8.60018 24.5993 8.70014 24.8993 8.60018 25.1492C8.5502 25.3992 8.35022 25.4993 8.15018 25.4993Z" fill="#CCCCCC"/>
<path d="M28 20C27.75 20 27.5 19.7499 27.5 19.5V16C27.5 15.75 27.75 15.5 28 15.5C28.2499 15.5 28.5 15.75 28.5 16V19.5C28.5 19.75 28.2499 20 28 20ZM28 15C27.75 15 27.5 14.75 27.5 14.5C27.5 14.2 27.75 14 28 14C28.2499 14 28.5 14.2 28.5 14.5C28.5 14.75 28.2499 15 28 15ZM28 13C27.75 13 27.5 12.75 27.5 12.5V8.99998C27.5 8.69998 27.75 8.5 28 8.5C28.2499 8.5 28.5 8.69998 28.5 8.99998V12.5C28.5 12.75 28.2499 13 28 13Z" fill="#CCCCCC"/>
<path d="M17.5002 28C17.3002 28 17.1502 27.9 17.0502 27.7C17.0002 27.55 17.0002 27.45 17.0502 27.3C17.1002 27.15 17.2002 27.05 17.3002 27L19.4502 26C19.7002 25.9 20.0002 26 20.1002 26.25C20.2002 26.5 20.1002 26.8 19.8501 26.9L17.7002 27.9C17.6502 28 17.5502 28 17.5002 28ZM21.0002 26.35C20.8002 26.35 20.6502 26.25 20.5502 26.05C20.4501 25.8 20.5502 25.5 20.8002 25.4001C21.0502 25.3001 21.3502 25.4001 21.4502 25.6501C21.5001 25.7501 21.5001 25.9001 21.4502 26.0501C21.4002 26.2001 21.3002 26.3001 21.2001 26.3501C21.1502 26.3 21.1002 26.35 21.0002 26.35ZM22.8501 25.5C22.6502 25.5 22.5002 25.4 22.4001 25.2C22.3001 24.95 22.4001 24.65 22.6502 24.55L25.8002 23.05C26.0502 22.95 26.3502 23.05 26.4501 23.3001C26.5001 23.4001 26.5001 23.5501 26.4501 23.7001C26.4002 23.8501 26.3001 23.9501 26.2001 24.0001L23.0501 25.5001C23.0001 25.5 22.9002 25.5 22.8501 25.5Z" fill="#CCCCCC"/>
<path d="M26.0001 6.00016C25.9502 6.00016 25.8501 6.00016 25.8002 5.95018L22.5501 4.60018C22.3001 4.50016 22.1501 4.20016 22.3001 3.9502C22.4001 3.70018 22.7001 3.55018 22.9501 3.70018L26.2001 5.05018C26.3501 5.10016 26.4001 5.20018 26.4501 5.3002C26.5001 5.40022 26.5001 5.55022 26.4501 5.70022C26.4002 5.90014 26.2002 6.00016 26.0001 6.00016ZM20.9001 3.90016C20.8502 3.90016 20.7501 3.90016 20.7002 3.85018C20.4501 3.75016 20.3001 3.45016 20.4002 3.2002C20.5002 2.95018 20.8002 2.80018 21.0501 2.95018C21.2001 3.00016 21.2501 3.10018 21.3002 3.2002C21.3501 3.30022 21.3501 3.45022 21.3002 3.60022C21.3002 3.80014 21.1002 3.90016 20.9001 3.90016ZM19.5002 3.35014C19.4502 3.35014 19.3502 3.35014 19.3002 3.30016L17.3002 2.45014C17.1502 2.40016 17.1002 2.30014 17.0502 2.20012C17.0002 2.1001 17.0002 1.9501 17.0502 1.8001C17.1502 1.55008 17.4502 1.40008 17.7002 1.55008L19.7001 2.4001C19.8501 2.4001 19.9502 2.50012 20.0001 2.65012C20.0501 2.75014 20.0501 2.90014 20.0001 3.05014C19.9002 3.20014 19.7502 3.35014 19.5002 3.35014Z" fill="#CCCCCC"/>
<path d="M5.00005 6.00013C4.80007 6.00013 4.60003 5.90011 4.55005 5.70013C4.45003 5.45011 4.55005 5.15011 4.80007 5.05014L8.05009 3.70014C8.30011 3.60013 8.60011 3.75013 8.70007 3.95016C8.80009 4.20018 8.70007 4.50018 8.40007 4.60014L5.15005 5.95014C5.15005 6.00013 5.05009 6.00013 5.00005 6.00013ZM10.1 3.90013C9.90007 3.90013 9.70003 3.80011 9.65005 3.60013C9.55003 3.35011 9.65005 3.05011 9.90007 2.95014C10.1501 2.85013 10.4501 2.95014 10.55 3.20016C10.6 3.35016 10.6 3.45018 10.55 3.60018C10.5001 3.7002 10.4 3.80016 10.3 3.8502C10.2001 3.90013 10.1501 3.90013 10.1 3.90013ZM11.45 3.35011C11.2501 3.35011 11.05 3.25009 11 3.05011C10.9501 2.90011 10.9501 2.80009 11 2.65009C11.05 2.50009 11.15 2.45011 11.2501 2.40007L13.3001 1.55005C13.5501 1.45003 13.8501 1.55005 13.9501 1.80007C14.0501 2.05009 13.9501 2.35009 13.7 2.45005L11.6501 3.30013C11.6 3.30013 11.5501 3.35011 11.45 3.35011Z" fill="#CCCCCC"/>
<path d="M8.0002 10.9992C7.90018 10.9992 7.80022 10.9493 7.7002 10.8992L4.7002 8.89924C4.45018 8.74924 4.4002 8.44924 4.5502 8.19922C4.7002 7.9492 5.0002 7.89922 5.25022 8.04922L8.25022 10.0492C8.50024 10.1992 8.55022 10.4992 8.40022 10.7492C8.3002 10.8993 8.1502 10.9992 8.0002 10.9992Z" fill="#CCCCCC"/>
<path d="M23 11C22.85 11 22.7 10.9 22.6 10.8C22.45 10.55 22.5 10.25 22.75 10.1L25.75 8.10001C26 7.95001 26.3 7.99999 26.45 8.25001C26.6 8.50002 26.55 8.80002 26.3 8.95002L23.3 10.95C23.2001 10.95 23.1 11 23 11Z" fill="#CCCCCC"/>
<path d="M26.0002 21.4992C25.9002 21.4992 25.8002 21.4493 25.7002 21.3992L22.7002 19.3992C22.4502 19.2492 22.4002 18.9492 22.5502 18.6992C22.7002 18.4492 23.0002 18.3992 23.2502 18.5492L26.2502 20.5493C26.5002 20.6993 26.5502 20.9993 26.4002 21.2493C26.3002 21.3993 26.1502 21.4992 26.0002 21.4992Z" fill="#CCCCCC"/>
<path d="M5.00002 21.5C4.85002 21.5 4.70002 21.4 4.60001 21.3C4.45001 21.05 4.49999 20.75 4.75001 20.6L7.75001 18.6C8.00003 18.45 8.30002 18.5 8.45002 18.75C8.60002 19 8.55004 19.3 8.30002 19.45L5.30002 21.45C5.20006 21.45 5.10004 21.5 5.00002 21.5Z" fill="#CCCCCC"/>
<path d="M15 17C13.6 17 12.4999 15.9 12.4999 14.5C12.4999 13.0999 13.6 12 15 12C16.3999 12 17.5 13.1 17.5 14.5C17.5 15.9001 16.3999 17 15 17ZM19 16.15C19.1 15.85 19.4 15.7 19.7 15.7H20.5V13.35H19.7C19.4 13.35 19.1 13.15 19 12.9C18.9 12.6 18.95 12.3 19.15 12.1L19.7 11.55L18.05 9.9L17.5 10.35C17.3 10.55 16.95 10.65 16.7 10.5C16.4 10.4 16.25 10.1 16.25 9.79998V9H13.9V9.79998C13.9 10.1 13.7 10.4 13.45 10.5C13.15 10.6 12.85 10.55 12.65 10.35L12.1 9.79998L10.45 11.45L11 12C11.2 12.2 11.3 12.55 11.15 12.8C11.05 13.1 10.75 13.25 10.45 13.25H9.5V15.6H10.3C10.6 15.6 10.9 15.8 11 16.05C11.1 16.35 11.05 16.65 10.85 16.85L10.3 17.4L11.95 19.05L12.5 18.5C12.7 18.3 13.05 18.2 13.3 18.35C13.6 18.45 13.75 18.75 13.75 19.05V20H16.1V19.2C16.1 18.9 16.3 18.6 16.55 18.5C16.85 18.4 17.15 18.45 17.35 18.65L17.9 19.2L19.55 17.55L19.15 17C18.9499 16.75 18.85 16.45 19 16.15Z" fill="#CCCCCC"/>
<path d="M4.50002 6.99998C4.50002 8.09996 3.60002 8.99996 2.50004 8.99996C1.40006 8.99996 0.5 8.09996 0.5 6.99998C0.5 5.9 1.4 5 2.49998 5C3.59996 5 4.50002 5.89994 4.50002 6.99998Z" fill="#CCCCCC"/>
<path d="M17 2.50004C17 3.60002 16.1 4.50002 15 4.50002C13.9 4.50002 13 3.60002 13 2.50004C13 1.40006 13.9 0.5 15 0.5C16.1 0.5 17 1.4 17 2.50004Z" fill="#CCCCCC"/>
<path d="M17 27.5C17 28.6 16.1 29.5 15 29.5C13.9 29.5 13 28.6 13 27.5C13 26.4 13.9 25.5 15 25.5C16.1 25.5 17 26.4 17 27.5Z" fill="#CCCCCC"/>
<path d="M29.5 6.99998C29.5 8.09996 28.6 8.99996 27.5 8.99996C26.4 8.99996 25.5 8.09996 25.5 6.99998C25.5 5.9 26.4 5 27.5 5C28.6 4.99994 29.5 5.89994 29.5 6.99998Z" fill="#CCCCCC"/>
<path d="M29.5 22.5C29.5 23.6 28.6 24.5 27.5 24.5C26.4 24.5 25.5 23.6 25.5 22.5C25.5 21.4 26.4 20.5 27.5 20.5C28.6 20.5 29.5 21.4 29.5 22.5Z" fill="#CCCCCC"/>
<path d="M4.50002 22.5C4.50002 23.6 3.60002 24.5 2.50004 24.5C1.40006 24.5 0.5 23.6 0.5 22.5C0.5 21.4 1.4 20.5 2.49998 20.5C3.59996 20.5 4.50002 21.4 4.50002 22.5Z" fill="#CCCCCC"/>
<path d="M2.49998 21C2.19998 21 2 20.8 2 20.5V17.5C2 17.2 2.19998 17 2.49998 17C2.79998 17 2.99996 17.2 2.99996 17.5V20.5C2.99996 20.8 2.79998 21 2.49998 21ZM2.49998 16C2.19998 16 2 15.8 2 15.5V14C2 13.7 2.19998 13.5 2.49998 13.5C2.79998 13.5 2.99996 13.7 2.99996 14V15.5C2.99996 15.8 2.79998 16 2.49998 16ZM2.49998 11.5C2.19998 11.5 2 11.3 2 11V8.99998C2 8.69998 2.19998 8.5 2.49998 8.5C2.79998 8.5 2.99996 8.69998 2.99996 8.99998V11C2.99996 11.3 2.79998 11.5 2.49998 11.5Z" fill="#CCCCCC"/>
<path d="M13 28C12.9501 28 12.85 28 12.8001 27.95L11.5501 27.35C11.3001 27.25 11.2001 26.95 11.3001 26.7001C11.4001 26.45 11.7001 26.3501 11.95 26.45L13.2 27.05C13.45 27.1501 13.55 27.4501 13.45 27.7C13.35 27.9 13.2 28 13 28ZM9.95 26.55C9.90002 26.55 9.8 26.55 9.75002 26.5L8.40002 25.85C8.15 25.75 8.05004 25.45 8.15 25.2001C8.25002 24.95 8.55002 24.8501 8.79998 24.95L10.15 25.6C10.4 25.7 10.5 26 10.4 26.25C10.3 26.45 10.1 26.55 9.95 26.55ZM6.30002 24.85C6.25004 24.85 6.15002 24.85 6.10004 24.8L4.30004 23.95C4.05002 23.85 3.95006 23.55 4.05002 23.3C4.14998 23.0501 4.45004 22.9501 4.7 23.05L6.5 23.9C6.75002 24.0001 6.84998 24.3001 6.75002 24.55C6.70004 24.75 6.5 24.85 6.30002 24.85Z" fill="#CCCCCC"/>
<path d="M27.5 21C27.2 21 27 20.8 27 20.5V19C27 18.7 27.2 18.5 27.5 18.5C27.8 18.5 28 18.7 28 19V20.5C28 20.8 27.8 21 27.5 21ZM27.5 18C27.2 18 27 17.8 27 17.5V16C27 15.7 27.2 15.5 27.5 15.5C27.8 15.5 28 15.7 28 16V17.5C28 17.8 27.8 18 27.5 18ZM27.5 14.5C27.2 14.5 27 14.3 27 14V12.5C27 12.2 27.2 12 27.5 12C27.8 12 28 12.2 28 12.5V14C28 14.3 27.8 14.5 27.5 14.5ZM27.5 11.5C27.2 11.5 27 11.3 27 11V8.99998C27 8.69998 27.2 8.5 27.5 8.5C27.8 8.5 28 8.69998 28 8.99998V11C28 11.3 27.8 11.5 27.5 11.5Z" fill="#CCCCCC"/>
<path d="M2.50002 9.49998C1.09998 9.49998 0 8.4 0 7.00002C0 5.60004 1.09998 4.5 2.50002 4.5C3.90006 4.5 5.00004 5.59998 5.00004 7.00002C5.00004 8.40006 3.9 9.49998 2.50002 9.49998ZM2.50002 5.50002C1.65 5.50002 1.00002 6.15 1.00002 7.00002C1.00002 7.85004 1.65 8.50002 2.50002 8.50002C3.35004 8.50002 4.00002 7.85004 4.00002 7.00002C4.00002 6.15 3.34998 5.50002 2.50002 5.50002Z" fill="#CCCCCC"/>
<path d="M15 4.99998C13.6 4.99998 12.5 3.9 12.5 2.49996C12.5 1.09992 13.6 0 15 0C16.4 0 17.5 1.09998 17.5 2.50002C17.5 3.90006 16.4 4.99998 15 4.99998ZM15 1.00002C14.15 1.00002 13.5 1.65 13.5 2.50002C13.5 3.35004 14.15 4.00002 15 4.00002C15.85 4.00002 16.5 3.35004 16.5 2.50002C16.5 1.65 15.85 1.00002 15 1.00002Z" fill="#CCCCCC"/>
<path d="M15 30C13.6 30 12.5 28.9001 12.5 27.5C12.5 26.1 13.6 25 15 25C16.4001 25 17.5 26.1 17.5 27.5C17.5 28.9001 16.4 30 15 30ZM15 26C14.15 26 13.5 26.65 13.5 27.5C13.5 28.35 14.15 29 15 29C15.85 29 16.5 28.35 16.5 27.5C16.5 26.6501 15.85 26 15 26Z" fill="#CCCCCC"/>
<path d="M27.5 9.49998C26.1 9.49998 25 8.4 25 6.99996C25 5.59992 26.1 4.5 27.5 4.5C28.9001 4.5 30 5.59998 30 7.00002C30 8.40006 28.9001 9.49998 27.5 9.49998ZM27.5 5.50002C26.65 5.50002 26 6.15 26 7.00002C26 7.85004 26.65 8.50002 27.5 8.50002C28.35 8.50002 29 7.85004 29 7.00002C29 6.15 28.35 5.50002 27.5 5.50002Z" fill="#CCCCCC"/>
<path d="M27.5 25C26.1 25 25 23.9001 25 22.5C25 21.1 26.1 20 27.5 20C28.9001 20 30 21.1 30 22.5C30 23.9 28.9001 25 27.5 25ZM27.5 21C26.65 21 26 21.65 26 22.5C26 23.35 26.65 24 27.5 24C28.35 24 29 23.35 29 22.5C29 21.65 28.35 21 27.5 21Z" fill="#CCCCCC"/>
<path d="M2.50002 25C1.09998 25 0 23.9 0 22.5C0 21.1 1.09998 20 2.50002 20C3.90006 20 4.99998 21.1 4.99998 22.5C4.99998 23.9 3.9 25 2.50002 25ZM2.50002 21C1.65 21 1.00002 21.65 1.00002 22.5C1.00002 23.35 1.65 24 2.50002 24C3.35004 24 4.00002 23.35 4.00002 22.5C4.00002 21.65 3.34998 21 2.50002 21Z" fill="#CCCCCC"/>
<path d="M17 28C16.8001 28 16.6501 27.9 16.55 27.7C16.45 27.45 16.55 27.15 16.8001 27.0501L18.05 26.4501C18.3001 26.35 18.6001 26.4501 18.7 26.7001C18.8 26.9501 18.7 27.2501 18.45 27.3501L17.2 27.9501C17.15 28 17.0501 28 17 28ZM20.0501 26.55C19.8501 26.55 19.7001 26.45 19.6001 26.25C19.5001 26 19.6001 25.7 19.8501 25.6L21.2001 24.9501C21.4501 24.85 21.7501 24.9501 21.8501 25.2001C21.9501 25.4501 21.8501 25.7501 21.6001 25.8501L20.3 26.5C20.2001 26.55 20.15 26.55 20.0501 26.55ZM23.7001 24.85C23.5001 24.85 23.3501 24.75 23.2501 24.55C23.15 24.3 23.2501 24 23.5001 23.9001L25.3001 23.05C25.5501 22.95 25.8501 23.05 25.9501 23.3001C26.05 23.5501 25.9501 23.8501 25.7 23.95L23.9 24.8001C23.8501 24.85 23.75 24.85 23.7001 24.85Z" fill="#CCCCCC"/>
<path d="M25.5 6.00004C25.4501 6.00004 25.35 6.00004 25.3001 5.95006L23.4501 5.20006C23.2001 5.10004 23.0501 4.80004 23.2001 4.55008C23.3001 4.30006 23.6001 4.15006 23.85 4.30006L25.7 5.05006C25.95 5.15008 26.1 5.45008 25.95 5.70004C25.9001 5.90002 25.7 6.00004 25.5 6.00004ZM21.35 4.30006C21.3 4.30006 21.2 4.30006 21.15 4.25008L19.7501 3.70006C19.5 3.55006 19.4001 3.30004 19.5 3.05008C19.6 2.80012 19.9001 2.65006 20.15 2.80006L21.55 3.35008C21.8 3.4501 21.95 3.7501 21.8 4.00006C21.7001 4.15006 21.5501 4.30006 21.35 4.30006ZM18.1001 2.95006C18.0501 2.95006 17.9501 2.95006 17.9001 2.90008L16.8001 2.45008C16.5501 2.35006 16.4001 2.05006 16.5501 1.8001C16.6501 1.55008 16.9501 1.40008 17.2001 1.55008L18.3 2.00008C18.5501 2.1001 18.7001 2.4001 18.5501 2.65006C18.5 2.85004 18.3 2.95006 18.1001 2.95006Z" fill="#CCCCCC"/>
<path d="M4.50005 6.00001C4.30007 6.00001 4.10003 5.89999 4.05005 5.70001C3.95003 5.44999 4.05005 5.14999 4.30007 5.05003L6.15005 4.30003C6.40007 4.20001 6.70007 4.30003 6.80003 4.55005C6.90005 4.80007 6.80003 5.10007 6.55001 5.20003L4.70003 5.95003C4.65005 6.00001 4.55003 6.00001 4.50005 6.00001ZM8.65007 4.30003C8.45009 4.30003 8.25005 4.20001 8.20007 4.00003C8.10005 3.75001 8.20007 3.45001 8.45009 3.35005L9.85007 2.80003C10.1001 2.70001 10.4001 2.80003 10.5 3.05005C10.6 3.30007 10.5 3.60007 10.25 3.70003L8.85005 4.25005C8.80007 4.24999 8.70005 4.30003 8.65007 4.30003ZM11.9 2.95003C11.7 2.95003 11.5 2.85001 11.45 2.65003C11.35 2.40001 11.45 2.10001 11.7 2.00005L12.8 1.55005C13.05 1.45003 13.35 1.55005 13.45 1.80007C13.55 2.05009 13.45 2.35009 13.2 2.45005L12.1 2.90005C12.05 2.95003 11.9501 2.95003 11.9 2.95003Z" fill="#CCCCCC"/>
<path d="M7.5002 10.9992C7.40018 10.9992 7.30022 10.9493 7.2002 10.8992L4.2002 8.89924C3.95018 8.74924 3.9002 8.44924 4.0502 8.19922C4.2002 7.9492 4.5002 7.89922 4.75022 8.04922L7.75022 10.0492C8.00024 10.1992 8.05022 10.4992 7.90022 10.7492C7.8002 10.8993 7.6502 10.9992 7.5002 10.9992Z" fill="#CCCCCC"/>
<path d="M22.5 11C22.35 11 22.2 10.9 22.1 10.8C21.95 10.55 22 10.25 22.25 10.1L25.25 8.10001C25.5 7.95001 25.8 7.99999 25.95 8.25001C26.1 8.50002 26.05 8.80002 25.8 8.95002L22.8 10.95C22.7 10.95 22.6 11 22.5 11Z" fill="#CCCCCC"/>
<path d="M25.5002 21.4992C25.4002 21.4992 25.3002 21.4493 25.2002 21.3992L22.2002 19.3992C21.9502 19.2492 21.9002 18.9492 22.0502 18.6992C22.2002 18.4492 22.5002 18.3992 22.7502 18.5492L25.7502 20.5492C26.0002 20.6992 26.0502 20.9992 25.9002 21.2492C25.8002 21.3993 25.6502 21.4992 25.5002 21.4992Z" fill="#CCCCCC"/>
<path d="M4.50002 21.5C4.35002 21.5 4.20002 21.4 4.10001 21.3C3.95001 21.05 3.99999 20.75 4.25001 20.6L7.25001 18.6C7.50002 18.45 7.80002 18.5 7.95002 18.75C8.10002 19 8.05004 19.3 7.80002 19.45L4.80002 21.45C4.70001 21.45 4.60004 21.5 4.50002 21.5Z" fill="#CCCCCC"/>
<path d="M16.2001 20.5H13.85C13.55 20.5 13.3501 20.3 13.3501 20V19.2C13.3501 19.1 13.3001 19 13.2001 18.95C13.0501 18.9 13.0001 18.95 12.9001 18.9999L12.35 19.55C12.1501 19.7499 11.8501 19.7499 11.65 19.55L10 17.9C9.9 17.7999 9.85002 17.7 9.85002 17.55C9.85002 17.4 9.9 17.3 10 17.2L10.55 16.65C10.6 16.6 10.6501 16.45 10.6 16.35C10.55 16.25 10.45 16.2 10.35 16.2H9.49998C9.19998 16.2 9 16 9 15.7V13.35C9 13.05 9.19998 12.85 9.49998 12.85H10.3C10.4 12.85 10.4999 12.8 10.55 12.7C10.6 12.6 10.55 12.5 10.5 12.4L9.94998 11.85C9.84996 11.75 9.79998 11.65 9.79998 11.5C9.79998 11.35 9.84996 11.25 9.94998 11.15L11.6 9.50002C11.8 9.30004 12.1 9.30004 12.3 9.50002L12.85 10.05C12.9 10.1 13.05 10.1501 13.15 10.1C13.25 10.05 13.3 9.95002 13.3 9.85V8.99998C13.3 8.69998 13.5 8.5 13.8 8.5H16.15C16.45 8.5 16.65 8.69998 16.65 8.99998V9.79996C16.65 9.89998 16.7 9.99994 16.8 10.05C16.9 10.1 17 10.05 17.1 10L17.65 9.44998C17.85 9.25 18.15 9.25 18.35 9.44998L20 11.1C20.1001 11.2 20.15 11.3 20.15 11.45C20.15 11.6 20.1001 11.7 20 11.7999L19.5001 12.35C19.4501 12.3999 19.4 12.5499 19.4501 12.65C19.5001 12.75 19.6001 12.8 19.7001 12.8H20.5001C20.8001 12.8 21.0001 12.9999 21.0001 13.2999V15.65C21.0001 15.95 20.8001 16.1499 20.5001 16.1499H19.7001C19.6001 16.1499 19.5001 16.1999 19.4501 16.2999C19.4001 16.4 19.4501 16.4999 19.5001 16.5999L20.0501 17.15C20.1501 17.25 20.2001 17.3499 20.2001 17.4999C20.2001 17.6499 20.1501 17.75 20.0501 17.8499L18.4001 19.4999C18.2001 19.6999 17.9001 19.6999 17.7001 19.4999L17.15 18.9999C17.1001 18.95 16.9501 18.8999 16.85 18.95H16.8001C16.7501 18.9999 16.7 19.05 16.7 19.1499V20C16.7 20.3 16.4501 20.5 16.2001 20.5ZM14.3 19.5H15.65V19.2C15.65 18.7 15.95 18.25 16.45 18.05H16.5C16.6 18 16.75 17.9499 16.95 17.9499C17.3 17.9499 17.6 18.0999 17.85 18.2999L18.05 18.4999L19 17.5499L18.8 17.3499C18.45 17 18.35 16.4499 18.55 15.9999C18.7499 15.5 19.1999 15.2 19.7 15.2H20V13.85H19.7C19.2 13.85 18.75 13.55 18.55 13.05C18.35 12.55 18.4499 12.05 18.8 11.65L19 11.45L18.05 10.5L17.8501 10.7C17.5001 11.0499 16.9501 11.15 16.5001 11C16.5001 11 16.5001 11 16.4501 11C16.0001 10.8 15.6501 10.35 15.6501 9.84994V9.49996H14.3001V9.79996C14.3001 10.2999 14.0001 10.7499 13.5001 10.95C13.5001 10.95 13.5001 10.95 13.4501 10.95C13.0001 11.15 12.4501 11 12.1001 10.65L11.9501 10.5L11.0002 11.45L11.2001 11.6499C11.5501 11.9999 11.6501 12.5499 11.4502 12.9999C11.2501 13.5 10.8001 13.8 10.3001 13.8H10.0001V15.15H10.3001C10.8001 15.15 11.2501 15.45 11.4501 15.95C11.6501 16.4499 11.5501 16.95 11.2001 17.3499L11.0001 17.5499L11.9501 18.4999L12.1501 18.2999C12.5 17.9499 13.0501 17.8499 13.5001 17.9999C13.9501 18.1999 14.3 18.6499 14.3 19.1499V19.5ZM15.0001 17.5C13.3501 17.5 12.0001 16.15 12.0001 14.5C12.0001 12.85 13.3501 11.5 15.0001 11.5C16.6501 11.5 18.0001 12.85 18.0001 14.5C18.0001 16.15 16.6501 17.5 15.0001 17.5ZM15.0001 12.5C13.9001 12.5 13.0001 13.4 13.0001 14.4999C13.0001 15.5999 13.9001 16.5 15.0001 16.5C16.1 16.5 17 15.6 17 14.5C17 13.4 16.1 12.5 15.0001 12.5Z" fill="#CCCCCC"/>
</g>
<defs>
<clipPath id="clip0_1733_119">
<rect width="30" height="30" fill="white"/>
</clipPath>
</defs>
</svg>
